<svg width="49" height="48" viewBox="0 0 49 48" fill="none" xmlns="http://www.w3.org/2000/svg">
<g clip-path="url(#clip0_150_420)">
<path d="M10.7503 23.2734L20.7085 36.0568C21.6257 37.2375 23.7003 36.579 23.9842 35.1485C26.4956 22.9555 34.8158 14.4182 43.2235 6.17598C45.0579 4.35951 42.2845 1.47588 40.4501 3.29234C31.562 12.0341 22.8486 21.2072 20.2062 34.0814L23.4819 33.1731L13.5238 20.3898C11.9296 18.3463 9.15616 21.2526 10.7503 23.2734Z" fill="#E53724"/>
<path d="M34.62 2.95199C26.2778 -1.45293 15.2496 -0.953406 7.60631 4.60951C-2.87595 12.2386 -0.757657 30.1535 6.03397 39.8716C13.2624 50.2254 29.0731 49.7259 38.8784 43.6634C48.6837 37.601 51.9157 19.8224 43.2241 11.1261C41.4116 9.3096 38.6163 12.1932 40.4507 14.0097C50.387 23.9548 41.1932 40.0986 30.0995 42.8687C19.0058 45.6388 9.0913 41.5518 5.81559 29.4723C2.84562 18.5054 5.5317 6.33515 17.892 4.33704C22.2596 3.63316 28.6582 4.35974 32.6545 6.47138C34.9039 7.65208 36.8911 4.13269 34.6418 2.95199H34.62Z" fill="#E53724"/>
</g>
<defs>
<clipPath id="clip0_150_420">
<rect width="48" height="48" fill="white" transform="translate(0.333984)"/>
</clipPath>
</defs>
</svg>
