<svg width="48" height="48" viewBox="0 0 48 48" fill="none" xmlns="http://www.w3.org/2000/svg">
<g clip-path="url(#clip0_150_411)">
<path d="M10.4163 23.2734L20.3745 36.0568C21.2917 37.2375 23.3663 36.579 23.6502 35.1485C26.1616 22.9555 34.4819 14.4182 42.8895 6.17598C44.7239 4.35951 41.9505 1.47588 40.1161 3.29234C31.228 12.0341 22.5146 21.2072 19.8722 34.0814L23.1479 33.1731L13.1898 20.3898C11.5956 18.3463 8.82217 21.2526 10.4163 23.2734Z" fill="#169796"/>
<path d="M34.286 2.95199C25.9438 -1.45293 14.9156 -0.953406 7.27233 4.60951C-3.20993 12.2386 -1.09164 30.1535 5.69999 39.8716C12.9284 50.2254 28.7391 49.7259 38.5444 43.6634C48.3497 37.601 51.5817 19.8224 42.8902 11.1261C41.0776 9.3096 38.2823 12.1932 40.1167 14.0097C50.053 23.9548 40.8592 40.0986 29.7655 42.8687C18.6718 45.6388 8.75731 41.5518 5.48161 29.4723C2.51163 18.5054 5.19771 6.33515 17.558 4.33704C21.9256 3.63316 28.3242 4.35974 32.3206 6.47138C34.5699 7.65208 36.5571 4.13269 34.3078 2.95199H34.286Z" fill="#169796"/>
</g>
<defs>
<clipPath id="clip0_150_411">
<rect width="48" height="48" fill="white"/>
</clipPath>
</defs>
</svg>
