<svg width="46" height="48" viewBox="0 0 46 48" fill="none" xmlns="http://www.w3.org/2000/svg">
<path d="M5.40399 32.7223C13.0927 22.7261 14.173 21.8197 13.5372 20.8601C12.921 19.9238 8.93347 20.2267 7.90416 20.3519C6.46928 20.5258 5.62589 22.244 5.10337 23.6572C5.33127 23.9496 5.04189 24.3656 4.6828 24.2419C4.40916 24.1445 4.17901 24.017 4.28921 23.7059C4.86722 22.0604 5.86204 19.8451 7.81345 19.6074C9.19511 19.4402 13.2861 19.1186 14.1632 20.4471C15.1768 21.9831 13.6235 23.2643 5.99848 33.1788C5.69786 33.5694 5.10112 33.1166 5.40399 32.7223Z" fill="#1C1B17"/>
<path d="M4.08305 31.9464C4.99616 29.408 5.88527 27.1439 6.78789 25.0621C2.76062 26.0239 1.91648 18.0833 5.18583 12.9293C5.44896 12.511 6.08469 12.912 5.81855 13.3304C4.38967 15.5839 3.7412 18.3502 3.99159 21.1195C4.3207 24.745 6.62521 24.7607 7.30666 23.9211C7.5803 23.5852 8.11857 23.9113 7.93939 24.3117C6.8831 26.6634 5.85229 29.2438 4.78925 32.1998C4.62207 32.6661 3.91662 32.4142 4.08305 31.9464Z" fill="#1C1B17"/>
<path d="M11.4344 20.0505C10.702 17.608 12.415 15.1603 12.984 15.6926C13.1347 15.8343 13.1429 16.0712 13.0012 16.2226C12.1114 17.1717 11.7777 18.5901 12.1511 19.8361C12.2958 20.3099 11.5753 20.5243 11.4344 20.0505Z" fill="#1C1B17"/>
<path d="M11.5686 14.5141C11.7425 14.4047 11.9749 14.4571 12.0844 14.6333C13.4375 16.7961 15.9647 17.8539 18.4364 17.3149C18.7063 14.5913 18.3779 11.9465 17.4566 9.44778C16.0397 9.16815 15.6303 10.8219 16.5427 11.1181C16.6836 11.1638 16.7848 11.289 16.7998 11.4367C16.937 12.7808 16.97 13.8776 16.9033 14.8874C16.8703 15.3755 16.1236 15.335 16.1551 14.8387C16.2158 13.9136 16.1919 12.9473 16.0764 11.7313C15.6528 11.5049 15.368 11.0783 15.3132 10.567C15.1146 8.68011 17.8082 8.25504 18.0908 9.00472C19.1358 11.7478 19.4927 14.6595 19.1538 17.6598C19.1366 17.8142 19.0256 17.9409 18.8764 17.9806C14.2599 19.1854 10.7222 15.0426 11.5686 14.5141Z" fill="#1C1B17"/>
<path d="M15.8845 15.1911C10.9306 7.32694 5.16409 9.46578 3.77119 11.7898C3.10998 12.8888 1.98621 9.7709 1.82878 6.99559C1.81453 6.76244 2.01994 6.57052 2.25384 6.6035C2.96679 6.70096 3.48556 6.05474 3.25092 5.49248C2.98778 4.8635 2.13389 5.03293 2.10166 5.58244C2.07467 6.08323 1.32574 6.03375 1.35348 5.54046C1.43145 4.18579 3.37911 3.85593 3.94212 5.20386C4.31396 6.09072 3.74045 7.20775 2.60394 7.34943C2.71864 8.79032 3.00352 9.93882 3.48631 10.8969C5.45047 8.50094 11.4914 6.80667 16.5187 14.7915C16.7834 15.2113 16.1469 15.6094 15.8845 15.1911Z" fill="#1C1B17"/>
<path d="M1.65409 5.30506C1.84301 5.39052 1.92622 5.61242 1.84076 5.80134C0.528075 8.70185 0.293425 13.1212 1.70132 14.0523C2.73738 14.7398 4.18201 13.7307 4.93243 13.2067C5.33876 12.9225 5.76833 13.5365 5.36125 13.8207C-2.58384 19.3833 0.305421 4.69182 1.65409 5.30506Z" fill="#1C1B17"/>
<path d="M9.03392 43.6474C10.3991 37.0404 15.8403 35.029 11.4869 25.1236C11.2882 24.6722 11.9719 24.3679 12.1736 24.8222C13.1624 27.0735 14.2442 30.0527 13.8214 33.1309C13.2943 36.9775 10.5235 40.1426 9.76711 43.7995C9.6659 44.2891 8.93197 44.1346 9.03392 43.6474Z" fill="#1C1B17"/>
<path d="M7.8142 44.4413C7.14324 40.0451 6.7699 36.8178 8.78803 33.2006C9.43351 32.0453 9.7881 31.4643 8.26401 29.3802C7.97163 28.9799 8.57587 28.5376 8.869 28.9372C12.0244 33.2478 8.13207 32.4284 8.03836 38.9694C8.01212 40.7603 8.28875 42.5738 8.55563 44.3281C8.6306 44.8169 7.88842 44.9383 7.8142 44.4413Z" fill="#1C1B17"/>
<path d="M6.01722 36.7593C3.8634 36.7593 1.92023 31.9644 4.50437 31.9644C6.31035 31.9644 7.12525 35.3282 6.73466 36.275C6.60872 36.5831 6.34633 36.7593 6.01722 36.7593ZM4.11979 32.888C3.50955 33.6212 5.23981 36.2743 6.03971 36.0074C6.39281 35.1228 5.04489 31.7702 4.11979 32.888Z" fill="#1C1B17"/>
<path d="M9.78885 44.1106C13.4653 44.9578 12.936 46.7765 10.5543 47.0741C6.27586 47.6064 6.41455 43.334 9.78885 44.1106ZM8.14256 45.107C7.50908 45.9204 9.46649 46.4526 10.4628 46.3304C10.9501 46.2697 11.6428 45.9818 11.6975 45.8162C11.292 45.1744 8.76404 44.3078 8.14256 45.107Z" fill="#1C1B17"/>
<path d="M10.085 6.44082C8.13506 6.44082 8.83525 -1.3236 15.949 0.197502C17.4543 0.519114 17.9821 1.27179 18.162 1.69161C19.0526 3.76522 15.7413 4.93322 12.7868 3.78846C10.013 2.69318 11.6645 6.44082 10.085 6.44082ZM10.091 5.63117C10.4118 4.72106 9.91104 1.86254 13.2719 3.17297C15.1048 3.86193 18.066 3.36414 17.473 1.98773C17.2639 1.49969 16.6507 1.11436 15.7923 0.930687C10.7207 -0.156346 9.26407 4.17979 10.091 5.63117Z" fill="#1C1B17"/>
<path d="M12.9128 10.3886C9.31656 10.3886 9.29631 5.40027 10.4066 5.74137C10.6053 5.80135 10.717 6.01051 10.657 6.20842C10.0048 8.36825 11.8939 10.19 13.619 9.51C15.6798 8.70035 15.4309 5.48498 16.1349 3.60554C16.3088 3.14074 17.0113 3.40613 16.8366 3.86868C16.1589 5.67915 16.4362 9.20863 13.8926 10.2087C13.5822 10.3294 13.2494 10.3886 12.9128 10.3886Z" fill="#1C1B17"/>
<path d="M32.8534 28.9454C32.3039 28.9454 28.2939 28.7625 28.0877 28.2527C26.3905 24.092 31.8196 20.1749 29.144 16.404C28.671 15.7383 28.2714 15.0186 28.6103 14.2427C26.4864 12.9375 25.1168 10.6728 24.9196 8.10436C24.5035 2.66394 29.6838 -0.690118 29.9372 1.70585C29.9979 2.28461 29.4844 2.61446 29.1433 2.83337C26.5494 4.5104 26.5419 10.5018 30.459 11.1331C29.8113 1.88203 40.8743 3.74573 37.2308 11.6601C38.3838 11.4607 39.4701 10.8992 40.2925 10.0618C42.4711 7.84122 41.7281 5.42276 41.8841 4.1558C42.2199 1.39174 45.0132 1.72535 45.2111 3.19322C45.3386 4.13556 44.5514 4.54264 44.1369 5.29231C43.774 5.95203 43.9734 6.83215 44.0087 7.71302C44.1016 10.19 42.5903 12.6369 40.3352 13.664C37.9318 14.7585 35.9968 14.092 34.7749 19.9763C36.9617 24.026 36.239 28.6156 35.679 28.71C34.7696 28.8674 33.8355 28.9454 32.8534 28.9454ZM28.7115 27.7819C31.2221 28.2422 33.3287 28.3172 35.3004 28.0136C35.8012 25.3807 35.3506 22.5537 34.0529 20.2184C33.9787 20.0835 34.0087 19.9875 34.0379 19.8421C35.3034 13.7562 37.2728 14.236 40.0256 12.9833C41.9928 12.0881 43.4531 9.9808 43.2207 7.16051C43.091 5.58394 43.2327 5.14913 43.9727 4.26001C44.262 3.91216 44.5124 3.61229 44.4697 3.29517C44.4337 3.02904 44.1294 2.82138 43.7763 2.82138H43.7695C41.3713 2.83862 44.1878 7.16426 40.827 10.5888C39.7542 11.6818 38.2849 12.3603 36.7608 12.475C36.11 13.3738 35.1819 13.8259 34.3153 13.8371C33.7771 13.8319 33.3767 13.5883 33.2695 13.2007C33.2005 12.9518 33.2088 12.46 34.0342 11.9562C35.3971 11.1233 36.0966 9.55349 35.8619 8.02039C35.0792 8.82855 33.8618 9.03696 32.8624 8.55116C31.9111 9.95231 32.6525 10.9651 32.7342 11.7148C32.8737 12.9915 31.2559 13.4316 30.6644 11.9135C25.9009 11.5731 25.4046 4.36196 28.6845 2.23962C29.6591 1.61439 28.9896 1.48995 28.3831 1.95025C24.2142 5.11989 25.0148 11.4532 29.324 13.7922C29.5466 13.9129 29.5908 14.2202 29.4004 14.3964C28.8464 14.9122 29.7003 15.8193 30.0796 16.4588C32.3009 20.2102 27.509 24.2187 28.7115 27.7819ZM34.4263 12.5949C34.0177 12.8446 33.9945 13.0073 33.9945 13.0073C34.0027 13.0118 34.0979 13.0845 34.3236 13.086C34.9023 13.0852 35.5965 12.7674 36.1101 12.0941C36.1168 11.9525 36.203 11.8295 36.3267 11.7725C36.5336 11.4284 36.709 11.0161 36.8567 10.5288C38.7707 4.23002 30.5782 3.5808 31.2206 11.2628C31.3811 11.5004 31.2986 11.7163 31.5745 11.9989C31.6997 12.1271 31.8219 12.1391 31.8879 12.1084C32.1345 11.9914 31.8886 11.4209 31.7994 11.1615C31.1922 9.27835 32.4584 7.40491 32.9741 7.75126C33.912 8.37874 35.2097 8.0144 35.676 6.97834C36.3822 5.41451 38.0037 10.4096 34.4263 12.5949Z" fill="#1C1B17"/>
<path d="M36.688 14.5493C36.4901 12.5335 36.2045 11.7575 36.7855 11.7006C37.3673 11.6578 37.2353 12.4405 37.4347 14.4766C37.482 14.9692 36.736 15.0419 36.688 14.5493Z" fill="#1C1B17"/>
<path d="M28.9491 14.2974C28.4746 13.9466 29.1111 13.4473 30.5579 11.4877C30.8563 11.0888 31.4538 11.5379 31.1614 11.9337L29.4732 14.2187C29.348 14.3867 29.1133 14.4189 28.9491 14.2974Z" fill="#1C1B17"/>
<path d="M29.746 20.1217C29.8045 19.923 30.0084 19.8083 30.2108 19.8668C31.4875 20.2387 32.8797 20.1899 34.1287 19.7296C34.5935 19.5587 34.8521 20.2611 34.388 20.4328C32.3617 21.1795 29.5264 20.8766 29.746 20.1217Z" fill="#1C1B17"/>
<path d="M32.1218 33.439C30.5377 33.439 29.914 31.9794 30.0422 30.8219C30.1411 29.9402 30.5864 29.1621 30.9792 28.4754C31.2236 28.045 31.8766 28.4169 31.6292 28.848C31.2551 29.5017 30.8683 30.1779 30.7873 30.9051C30.7214 31.4988 30.923 32.271 31.5213 32.5626C32.7327 33.1549 38.8561 30.3241 39.9716 29.7843C40.4229 29.5699 40.7401 30.2454 40.2985 30.459C38.8209 31.1735 33.6713 33.439 32.1218 33.439Z" fill="#1C1B17"/>
<path d="M33.0529 29.8375C33.6594 28.8037 33.9105 28.0076 34.394 28.2939C34.8026 28.5331 34.4263 28.9799 34.1804 29.399C35.1887 29.0451 38.2204 27.8494 40.4852 29.6659C40.8713 29.9747 40.4035 30.5617 40.0166 30.2506C39.2692 29.6509 38.1874 29.3652 36.9842 29.4477C35.9384 29.5182 34.6527 30.0392 33.5949 30.396C33.2493 30.977 32.5348 30.423 33.0529 29.8375Z" fill="#1C1B17"/>
<path d="M39.9626 28.5286C39.9919 28.3202 40.1838 28.1815 40.3892 28.2092C41.4208 28.3644 42.3991 28.5938 43.4052 28.7445C43.8032 28.8045 43.8377 29.369 43.4501 29.4762C39.2617 30.6457 39.614 31.0273 39.9626 28.5286ZM40.6523 29.0106L40.5811 29.5174C40.9657 29.4087 41.6742 29.2041 41.6877 29.2003C41.3436 29.1343 41.0002 29.0691 40.6523 29.0106Z" fill="#1C1B17"/>
<path d="M31.7597 43.6856C31.4875 40.1411 34.0829 36.3207 32.4314 33.2043C32.1975 32.765 32.8632 32.4164 33.0933 32.8527C34.9451 36.3417 32.2425 40.1756 32.5079 43.6286C32.5236 43.8348 32.3684 44.0154 32.1623 44.0312C31.9561 44.0469 31.7754 43.8925 31.7597 43.6856Z" fill="#1C1B17"/>
<path d="M31.4523 44.0019C30.0017 38.9619 29.1838 33.7486 29.0181 28.5069C29.0024 28.0226 29.7513 27.9693 29.7678 28.4836C29.9312 33.6639 30.7401 38.8149 32.1727 43.795C32.3099 44.2711 31.5902 44.478 31.4523 44.0019Z" fill="#1C1B17"/>
<path d="M30.1584 47.485C30.6629 46.2112 31.3638 44.7651 31.8586 43.5154C32.2859 42.4366 34.0754 45.3829 33.4749 45.8319C32.5866 46.4976 31.69 47.2046 30.7319 47.9235C30.4312 48.1492 30.0197 47.8373 30.1584 47.485ZM32.3227 44.3588C32.0393 45.0335 31.6945 45.7959 31.3968 46.4751C31.8249 46.1453 32.4186 45.6895 32.825 45.3829C32.7185 45.0163 32.5468 44.6677 32.3227 44.3588Z" fill="#1C1B17"/>
<path d="M11.4314 26.5989L11.759 26.416L11.5926 26.5022L11.7642 26.4265C11.9142 26.7181 11.5813 26.8965 11.4314 26.5989Z" fill="#1C1B17"/>
<path d="M10.8639 27.1282C11.082 26.8006 11.4216 26.9693 11.1743 27.3374C11.0378 27.542 10.7237 27.3359 10.8639 27.1282Z" fill="#1C1B17"/>
<path d="M10.1434 27.9041C10.1667 27.7144 10.4283 27.6777 10.5025 27.8561C10.57 28.0218 10.4591 28.2145 10.2821 28.2392C10.0895 28.2625 9.99201 28.0188 10.1434 27.9041Z" fill="#1C1B17"/>
<path d="M9.41326 29.1996C9.19285 29.0834 9.37053 28.7535 9.58719 28.8682C9.73862 28.9484 9.88031 29.0166 9.7911 29.1876C9.70189 29.3577 9.56544 29.2805 9.41326 29.1996Z" fill="#1C1B17"/>
<path d="M9.98002 28.746C10.0355 28.4716 10.5573 28.6006 10.5063 28.8517C10.4531 29.1208 9.92754 29.0039 9.98002 28.746Z" fill="#1C1B17"/>
<path d="M9.74087 29.7453C9.98676 29.6711 10.1824 30.2079 9.91404 30.2933C9.64416 30.3825 9.49422 29.8225 9.74087 29.7453Z" fill="#1C1B17"/>
<path d="M10.9673 6.05474C10.6585 6.05474 10.7687 5.38153 11.0693 5.44825C11.283 5.49998 11.2005 5.70314 11.1495 5.91155C11.1293 5.99701 11.0521 6.05474 10.9673 6.05474Z" fill="#1C1B17"/>
<path d="M11.3579 5.04717C11.0198 5.04717 11.0258 4.67233 11.3579 4.67233C11.4614 4.67233 11.5453 4.7563 11.5453 4.85975C11.5453 4.96321 11.4606 5.04717 11.3579 5.04717Z" fill="#1C1B17"/>
<path d="M11.7328 4.278C11.4112 4.278 11.5214 3.77422 11.777 3.90316C11.9232 3.97663 11.9479 4.07934 11.9007 4.17454C11.867 4.23977 11.801 4.278 11.7328 4.278Z" fill="#1C1B17"/>
<path d="M12.4577 3.9279C12.6474 3.74198 12.8993 4.03586 12.7328 4.20303C12.5499 4.3867 12.2928 4.09508 12.4577 3.9279Z" fill="#1C1B17"/>
<path d="M13.3303 4.55388C13.2839 4.55388 13.2381 4.53739 13.2014 4.50291L13.3108 4.34697L13.4593 4.23002C13.535 4.30124 13.5372 4.41969 13.4668 4.49541C13.43 4.53439 13.3806 4.55388 13.3303 4.55388Z" fill="#1C1B17"/>
<path d="M14.0313 4.56438C14.0313 4.31099 14.4653 4.31174 14.4653 4.56438C14.4653 4.81402 14.0313 4.82152 14.0313 4.56438Z" fill="#1C1B17"/>
<path d="M15.182 4.7308L15.0651 4.57787L15.0283 4.38895C15.2548 4.28624 15.4077 4.63035 15.182 4.7308Z" fill="#1C1B17"/>
<path d="M31.8886 29.5781C31.6285 29.5781 31.6352 29.2033 31.8691 29.2033C32.151 29.2033 32.1345 29.5781 31.8886 29.5781Z" fill="#1C1B17"/>
<path d="M32.3969 29.4447C32.2342 29.2783 32.4479 28.9642 32.7208 29.2378C32.8767 29.3907 32.6953 29.7378 32.3969 29.4447Z" fill="#1C1B17"/>
<path d="M31.1959 30.0797C31.1974 30.0767 31.1959 30.0662 31.1952 30.0632C31.1787 29.7258 31.7409 29.8735 31.555 30.1801C31.4501 30.3541 31.1854 30.2791 31.1959 30.0797Z" fill="#1C1B17"/>
</svg>
