<svg width="49" height="48" viewBox="0 0 49 48" fill="none" xmlns="http://www.w3.org/2000/svg">
<path d="M24.6326 2.65912e-07C22.9808 2.4762e-07 21.6311 1.3491 21.6311 3C21.6311 4.65093 22.9808 6 24.6326 6C26.2843 6 27.6341 4.65093 27.6341 3C27.6341 1.3491 26.2843 2.84203e-07 24.6326 2.65912e-07ZM24.6326 0.999596C25.7436 0.999596 26.6333 1.88951 26.6333 3C26.6333 4.11051 25.7436 4.99979 24.6326 4.99979C23.5215 4.99979 22.6318 4.11051 22.6318 3C22.6318 1.88951 23.5215 0.999596 24.6326 0.999596ZM28.8675 2.9248C28.7424 2.92311 28.6212 2.96837 28.5278 3.05161C28.4344 3.13484 28.3756 3.25003 28.363 3.37446C28.3504 3.49889 28.3849 3.62352 28.4597 3.72377C28.5345 3.82402 28.6442 3.89262 28.7671 3.91603C31.3816 4.44892 33.889 5.50561 36.0995 7.00019C36.1539 7.03844 36.2153 7.06547 36.2802 7.07972C36.3452 7.09397 36.4123 7.09514 36.4777 7.08317C36.5431 7.07119 36.6054 7.04631 36.6611 7.00997C36.7167 6.97364 36.7646 6.92658 36.8018 6.87155C36.8391 6.81652 36.865 6.75461 36.8781 6.68946C36.8911 6.62431 36.891 6.55721 36.8778 6.49209C36.8647 6.42696 36.8386 6.36512 36.8012 6.31017C36.7639 6.25522 36.7159 6.20827 36.6602 6.17206C34.3402 4.60344 31.7126 3.49611 28.9673 2.93653C28.9346 2.92887 28.9011 2.92577 28.8675 2.9248ZM20.3822 2.92573C20.3539 2.92766 20.3257 2.93198 20.2981 2.93868C17.5528 3.49822 14.9252 4.60561 12.6052 6.1742C12.5494 6.21036 12.5013 6.2573 12.4638 6.31226C12.4264 6.36722 12.4002 6.42911 12.3869 6.49429C12.3737 6.55947 12.3736 6.62664 12.3866 6.69186C12.3996 6.75709 12.4256 6.81906 12.4629 6.87415C12.5002 6.92924 12.5481 6.97633 12.6038 7.01268C12.6595 7.04904 12.722 7.07391 12.7874 7.08585C12.8529 7.09779 12.9201 7.09654 12.9851 7.08221C13.05 7.06787 13.1115 7.04071 13.1659 7.00234C15.3763 5.50777 17.8837 4.45127 20.4982 3.91837C20.6225 3.89479 20.7333 3.825 20.8082 3.72306C20.8831 3.62113 20.9165 3.49461 20.9018 3.36901C20.8871 3.2434 20.8254 3.12801 20.729 3.0461C20.6326 2.96418 20.5086 2.92001 20.3822 2.92573ZM9.77578 6.15383C9.00657 6.15383 8.23796 6.44579 7.654 7.02941C6.48602 8.19682 6.48602 10.1044 7.654 11.2718C8.82199 12.4392 10.7303 12.4392 11.8983 11.2718C13.0663 10.1044 13.0663 8.19682 11.8983 7.02941C11.3143 6.44574 10.545 6.15383 9.77578 6.15383ZM39.4894 6.15383C38.7202 6.15383 37.9508 6.44579 37.3669 7.02941C36.1989 8.19682 36.1989 10.1044 37.3669 11.2718C38.5348 12.4392 40.444 12.4392 41.6119 11.2718C42.7799 10.1044 42.7799 8.19682 41.6119 7.02941C41.028 6.44574 40.2586 6.15383 39.4894 6.15383ZM9.77578 7.1474C10.2868 7.1474 10.7981 7.34405 11.1909 7.73665C11.9766 8.52189 11.9766 9.78012 11.1909 10.5654C10.4053 11.3506 9.14643 11.3506 8.3608 10.5654C7.57517 9.78012 7.57517 8.52189 8.3608 7.73665C8.75362 7.34402 9.26469 7.1474 9.77578 7.1474ZM39.4894 7.14741C40.0004 7.14741 40.5118 7.34406 40.9046 7.73665C41.6902 8.52189 41.6902 9.78012 40.9046 10.5654C40.119 11.3506 38.86 11.3506 38.0744 10.5654C37.2888 9.78012 37.2888 8.52189 38.0744 7.73665C38.4673 7.34402 38.9783 7.14741 39.4894 7.14741ZM7.20416 11.753C7.12292 11.7546 7.04328 11.7759 6.97212 11.8151C6.90096 11.8543 6.84044 11.9103 6.79577 11.9781C5.22636 14.2969 4.11847 16.9238 3.55863 19.6677C3.53398 19.797 3.56124 19.9307 3.63454 20.04C3.70784 20.1493 3.82125 20.2253 3.95022 20.2516C4.07919 20.2779 4.21334 20.2523 4.3236 20.1805C4.43387 20.1086 4.51138 19.9963 4.53935 19.8677C5.0725 17.2545 6.12977 14.7476 7.62509 12.5382C7.67774 12.4625 7.70843 12.3738 7.71376 12.2817C7.71909 12.1897 7.69885 12.098 7.65529 12.0167C7.61173 11.9354 7.54656 11.8678 7.46694 11.8212C7.38733 11.7747 7.29638 11.7512 7.20416 11.753ZM42.0464 11.753C41.9555 11.754 41.8665 11.7797 41.7891 11.8274C41.7117 11.8751 41.6488 11.943 41.6071 12.0237C41.5654 12.1045 41.5465 12.1951 41.5525 12.2858C41.5584 12.3764 41.589 12.4638 41.6409 12.5384C43.1362 14.7477 44.1927 17.2547 44.7258 19.8679C44.7385 19.9326 44.764 19.9942 44.8006 20.0491C44.8373 20.104 44.8844 20.1511 44.9394 20.1877C44.9943 20.2243 45.056 20.2496 45.1208 20.2623C45.1856 20.275 45.2522 20.2747 45.3169 20.2615C45.3816 20.2483 45.4431 20.2225 45.4977 20.1854C45.5524 20.1484 45.5992 20.1009 45.6354 20.0457C45.6716 19.9906 45.6965 19.9288 45.7087 19.8639C45.721 19.7991 45.7202 19.7325 45.7066 19.6679C45.1467 16.9239 44.0388 14.2971 42.4694 11.9783C42.4234 11.9084 42.3605 11.8511 42.2866 11.8118C42.2127 11.7725 42.1301 11.7522 42.0464 11.753ZM24.6312 13.6024C22.3774 13.6024 20.5387 15.4368 20.5387 17.687C20.5387 19.1525 21.3191 20.4406 22.4856 21.1612C21.733 21.4437 21.0519 21.8711 20.4752 22.4089C20.0005 21.6278 19.2979 21.0031 18.4598 20.6286C19.2159 20.0623 19.7071 19.1558 19.7071 18.1401C19.7071 16.4373 18.3267 15.0421 16.6317 15.0421C14.9367 15.0421 13.5571 16.4373 13.5571 18.1401C13.5571 19.1569 14.0492 20.064 14.8064 20.6302C13.2274 21.3371 12.1265 22.9312 12.1265 24.7823L12.1265 29.1715C12.1266 29.2703 12.156 29.3669 12.2109 29.4491C12.2659 29.5312 12.344 29.5952 12.4353 29.633C12.4353 29.633 14.2612 30.3934 16.6317 30.3934C17.3305 30.3934 17.9764 30.3271 18.5432 30.2349L18.5432 32.9009C18.5432 33 18.5726 33.097 18.6279 33.1794C18.6831 33.2618 18.7616 33.3259 18.8533 33.3636C18.8533 33.3636 21.3674 34.3964 24.6312 34.3964C27.8951 34.3964 30.4089 33.3636 30.4089 33.3636C30.5007 33.3259 30.5792 33.2618 30.6344 33.1794C30.6896 33.097 30.7191 33 30.719 32.9009L30.719 30.2345C31.2865 30.3271 31.9334 30.3934 32.6334 30.3934C35.0039 30.3934 36.8299 29.633 36.8299 29.633C36.9212 29.5952 36.9993 29.5312 37.0542 29.449C37.1092 29.3669 37.1385 29.2703 37.1386 29.1715L37.1386 24.7822C37.1386 22.9311 36.0378 21.3371 34.4588 20.6301C35.216 20.064 35.708 19.1568 35.708 18.1401C35.708 16.4373 34.3284 15.0421 32.6334 15.0421C30.9384 15.0421 29.5581 16.4373 29.5581 18.1401C29.5581 19.1558 30.0493 20.0623 30.8054 20.6285C29.9666 21.0033 29.2635 21.6287 28.7887 22.4106C28.2118 21.872 27.53 21.4441 26.7766 21.1612C27.9431 20.4406 28.7235 19.1525 28.7235 17.687C28.7235 15.4368 26.885 13.6024 24.6312 13.6024ZM24.6312 14.602C26.3452 14.602 27.7228 15.9782 27.7228 17.687C27.7228 19.3958 26.3452 20.771 24.6312 20.771C22.9173 20.771 21.5389 19.3958 21.5388 17.687C21.5388 15.9782 22.9172 14.602 24.6312 14.602ZM16.6317 16.0415C17.7807 16.0415 18.7064 16.9725 18.7064 18.1401C18.7064 19.3077 17.7807 20.2387 16.6317 20.2387C15.4827 20.2387 14.5573 19.3077 14.5573 18.1401C14.5573 16.9725 15.4827 16.0415 16.6317 16.0415ZM32.6334 16.0415C33.7825 16.0415 34.7079 16.9725 34.7079 18.1401C34.7079 19.3077 33.7825 20.2387 32.6334 20.2387C31.4844 20.2387 30.5588 19.3077 30.5588 18.1401C30.5588 16.9725 31.4844 16.0415 32.6334 16.0415ZM3.6221 20.9999C1.97035 20.9999 0.620605 22.3489 0.620605 23.9999C0.620605 25.6508 1.97035 26.9998 3.6221 26.9998C5.27384 26.9998 6.62362 25.6508 6.62362 23.9999C6.62362 22.3489 5.27384 20.9999 3.6221 20.9999ZM45.643 20.9999C43.9913 20.9999 42.6416 22.3489 42.6416 23.9999C42.6416 25.6508 43.9913 26.9998 45.643 26.9998C47.2948 26.9998 48.6445 25.6508 48.6445 23.9999C48.6445 22.3489 47.2948 20.9999 45.643 20.9999ZM16.6317 21.2398C18.0154 21.2398 19.1775 22.0503 19.7493 23.216C18.9916 24.2288 18.5432 25.4857 18.5432 26.848L18.5432 29.187C17.9722 29.2907 17.356 29.3931 16.6317 29.3931C14.7774 29.3931 13.5081 28.9476 13.1274 28.8056L13.1274 24.7823C13.1274 22.8086 14.6839 21.2398 16.6317 21.2398ZM32.6334 21.2398C34.5812 21.2398 36.1379 22.8087 36.1379 24.7824L36.1379 28.8056C35.7573 28.9475 34.4878 29.3931 32.6334 29.3931C31.9079 29.3931 31.2908 29.2905 30.719 29.1865L30.719 26.848C30.719 26.7584 30.7153 26.6695 30.7135 26.5809C30.659 25.3227 30.2224 24.1642 29.5156 23.2184C30.087 22.0513 31.2487 21.2398 32.6334 21.2398ZM24.6312 21.772C26.1889 21.772 27.5731 22.4575 28.5033 23.5439C28.5131 23.5589 28.5237 23.5734 28.5351 23.5872C28.991 24.1306 29.3342 24.7697 29.5305 25.4722C29.5342 25.487 29.5398 25.4994 29.5435 25.5133C29.5583 25.5657 29.5707 25.6183 29.5831 25.6713C29.5887 25.6985 29.5961 25.7242 29.6017 25.7509C29.6109 25.7972 29.6202 25.8437 29.6289 25.8907C29.6344 25.9256 29.6418 25.9604 29.6474 25.9954C29.6529 26.0371 29.6622 26.0793 29.6685 26.1213C29.6741 26.1606 29.6778 26.2002 29.6833 26.2399C29.687 26.2795 29.6926 26.3188 29.6963 26.3588C29.7019 26.4132 29.7056 26.468 29.7093 26.5227C29.713 26.5469 29.713 26.5714 29.7148 26.5959C29.7185 26.6794 29.7204 26.7631 29.7204 26.8475L29.7204 29.6319L29.7204 32.5337C29.3129 32.6889 27.3813 33.3966 24.6333 33.3966C21.8845 33.3966 19.9518 32.6887 19.5451 32.5337L19.5451 29.688C19.5474 29.6694 19.5487 29.6507 19.5489 29.632L19.5489 26.8477C19.5489 25.6003 19.9928 24.468 20.7321 23.5869C20.7473 23.5686 20.7612 23.5491 20.7736 23.5288C21.7038 22.4511 23.0828 21.7717 24.6333 21.7717L24.6312 21.772ZM3.6221 21.9995C4.73315 21.9995 5.62288 22.8894 5.62288 23.9999C5.62288 25.1104 4.73315 25.9997 3.6221 25.9997C2.51107 25.9997 1.6213 25.1104 1.6213 23.9999C1.6213 22.8894 2.51107 21.9995 3.6221 21.9995ZM45.643 21.9995C46.7541 21.9995 47.6439 22.8894 47.6439 23.9999C47.6439 25.1104 46.7541 25.9997 45.643 25.9997C44.532 25.9997 43.6422 25.1104 43.6422 23.9999C43.6422 22.8894 44.532 21.9995 45.643 21.9995ZM23.157 24.8652C21.9228 24.8652 20.9376 25.9188 20.9376 27.1749C20.9376 28.6928 21.8481 29.8416 22.705 30.5897C23.5621 31.3379 24.4213 31.7318 24.4213 31.7318C24.487 31.762 24.5584 31.7777 24.6307 31.7777C24.703 31.7777 24.7744 31.762 24.8401 31.7318C24.8401 31.7318 25.6996 31.3379 26.5566 30.5897C27.4136 29.8416 28.3239 28.6928 28.3239 27.1749C28.3239 25.9188 27.3388 24.8651 26.1046 24.8652C25.5285 24.8661 25.0352 25.1568 24.6312 25.5538C24.2272 25.1568 23.7331 24.8659 23.157 24.8652ZM23.157 25.8646C23.5768 25.8655 23.9705 26.0954 24.196 26.4935C24.2397 26.5704 24.3029 26.6343 24.3794 26.6788C24.4558 26.7233 24.5427 26.7467 24.6311 26.7467C24.7196 26.7467 24.8064 26.7233 24.8829 26.6788C24.9593 26.6343 25.0226 26.5704 25.0662 26.4935C25.2916 26.0956 25.685 25.8653 26.1046 25.8646C26.7692 25.8646 27.324 26.4319 27.324 27.1749C27.324 28.2886 26.638 29.1912 25.8984 29.8368C25.264 30.3907 24.7982 30.6009 24.6312 30.6835C24.4645 30.6009 23.9985 30.3909 23.3638 29.8368C22.6243 29.1913 21.9383 28.2886 21.9383 27.1749C21.9383 26.4322 22.4928 25.865 23.157 25.8646ZM4.04028 27.7249C3.96619 27.7261 3.89328 27.7437 3.82683 27.7764C3.76037 27.8092 3.70204 27.8563 3.65602 27.9143C3.61 27.9724 3.57746 28.0399 3.56075 28.1121C3.54403 28.1842 3.54356 28.2592 3.55936 28.3316C4.11922 31.0756 5.22714 33.7026 6.79653 36.0214C6.83323 36.0761 6.88036 36.123 6.93524 36.1595C6.99012 36.1959 7.05166 36.2212 7.11634 36.2338C7.18101 36.2465 7.24754 36.2462 7.31212 36.2331C7.37669 36.2199 7.43803 36.1942 7.49262 36.1573C7.54721 36.1204 7.59398 36.0731 7.63024 36.0181C7.6665 35.9631 7.69153 35.9015 7.70391 35.8368C7.71629 35.7721 7.71578 35.7056 7.70239 35.6411C7.68899 35.5766 7.66299 35.5154 7.62587 35.461C6.13054 33.2517 5.07331 30.7448 4.54014 28.1316C4.51813 28.0158 4.45589 27.9115 4.36444 27.8371C4.27299 27.7627 4.15819 27.7229 4.04028 27.7249ZM45.2118 27.7249C45.0964 27.7264 44.985 27.7676 44.8966 27.8417C44.8082 27.9159 44.7481 28.0182 44.7266 28.1316C44.1934 30.7447 43.137 33.2517 41.6417 35.461C41.6033 35.5154 41.5763 35.5768 41.562 35.6417C41.5477 35.7066 41.5465 35.7737 41.5585 35.8391C41.5704 35.9045 41.5953 35.9668 41.6317 36.0225C41.6681 36.0781 41.7152 36.126 41.7702 36.1632C41.8253 36.2005 41.8873 36.2264 41.9525 36.2394C42.0177 36.2525 42.0848 36.2524 42.15 36.2392C42.2152 36.226 42.2771 36.1999 42.3321 36.1625C42.387 36.1251 42.434 36.0771 42.4702 36.0214C44.0396 33.7026 45.1475 31.0755 45.7074 28.3316C45.7234 28.258 45.7227 28.1818 45.7051 28.1085C45.6876 28.0353 45.6538 27.967 45.6061 27.9086C45.5585 27.8503 45.4983 27.8035 45.43 27.7717C45.3617 27.7399 45.2871 27.7239 45.2118 27.7249ZM9.77655 35.8522C9.00735 35.8522 8.23876 36.1442 7.65481 36.7278C6.48683 37.8952 6.48683 39.8028 7.65481 40.9702C8.82278 42.1376 10.7311 42.1376 11.8991 40.9702C13.0671 39.8028 13.0671 37.8952 11.8991 36.7278C11.3151 36.1441 10.5458 35.8522 9.77655 35.8522ZM39.4902 35.8522C38.721 35.8522 37.9516 36.1442 37.3677 36.7278C36.1997 37.8952 36.1997 39.8028 37.3677 40.9702C38.5356 42.1376 40.4447 42.1376 41.6127 40.9702C42.7807 39.8028 42.7807 37.8952 41.6127 36.7278C41.0287 36.1441 40.2594 35.8522 39.4902 35.8522ZM9.77655 36.8458C10.2876 36.8458 10.7989 37.0422 11.1917 37.4348C11.9773 38.2201 11.9773 39.4777 11.1917 40.263C10.4061 41.0482 9.14722 41.0482 8.36159 40.263C7.57596 39.4777 7.57596 38.2201 8.36159 37.4348C8.75441 37.0422 9.26548 36.8458 9.77655 36.8458ZM39.4902 36.8458C40.0012 36.8458 40.5125 37.0416 40.9054 37.4343C41.691 38.2195 41.691 39.4777 40.9054 40.263C40.1197 41.0482 38.8608 41.0482 38.0752 40.263C37.2896 39.4777 37.2896 38.2201 38.0752 37.4348C38.468 37.0422 38.9791 36.8458 39.4902 36.8458ZM12.8851 40.9089C12.777 40.9078 12.6714 40.9417 12.5841 41.0057C12.4969 41.0696 12.4328 41.1601 12.4013 41.2635C12.3699 41.367 12.3728 41.4778 12.4097 41.5794C12.4466 41.681 12.5154 41.768 12.6059 41.8272C14.9259 43.3959 17.5534 44.503 20.2988 45.0626C20.3639 45.0778 20.4315 45.0798 20.4974 45.0685C20.5633 45.0572 20.6263 45.0328 20.6826 44.9967C20.7389 44.9606 20.7874 44.9136 20.8253 44.8585C20.8631 44.8033 20.8895 44.7412 20.9029 44.6756C20.9162 44.6101 20.9163 44.5426 20.9031 44.4771C20.8899 44.4115 20.8637 44.3493 20.8261 44.294C20.7884 44.2388 20.74 44.1917 20.6838 44.1554C20.6276 44.1192 20.5647 44.0946 20.4988 44.0831C17.8843 43.5502 15.3768 42.4935 13.1664 40.9989C13.0838 40.9413 12.9858 40.9099 12.8851 40.9089ZM36.3667 40.9098C36.2712 40.9135 36.1787 40.9444 36.1002 40.999C33.8897 42.4936 31.3823 43.5504 28.7678 44.0833C28.702 44.0949 28.6392 44.1196 28.5831 44.1558C28.527 44.1921 28.4787 44.2393 28.4412 44.2945C28.4036 44.3497 28.3775 44.4119 28.3643 44.4774C28.3512 44.5429 28.3513 44.6104 28.3647 44.6758C28.3781 44.7413 28.4045 44.8033 28.4422 44.8584C28.48 44.9135 28.5285 44.9605 28.5847 44.9965C28.641 45.0326 28.7039 45.057 28.7697 45.0684C28.8356 45.0798 28.903 45.0779 28.9681 45.0627C31.7135 44.5032 34.341 43.396 36.661 41.8274C36.7524 41.7674 36.8215 41.6791 36.858 41.5761C36.8944 41.4731 36.8961 41.361 36.8627 41.257C36.8294 41.1529 36.7628 41.0626 36.6733 40.9999C36.5838 40.9373 36.476 40.9055 36.3667 40.9098ZM24.6334 42C22.9816 42 21.6319 43.3491 21.6319 45C21.6319 46.6509 22.9816 48 24.6334 48C26.2851 48 27.6349 46.6509 27.6349 45C27.6349 43.3491 26.2851 42 24.6334 42ZM24.6334 42.9996C25.7444 42.9996 26.6342 43.8895 26.6342 45C26.6342 46.1105 25.7444 46.9998 24.6334 46.9998C23.5223 46.9998 22.6326 46.1105 22.6326 45C22.6326 43.8895 23.5223 42.9996 24.6334 42.9996Z" fill="#1C1B17"/>
</svg>
