<svg width="54" height="48" viewBox="0 0 54 48" fill="none" xmlns="http://www.w3.org/2000/svg">
<path d="M52.6206 33.9509H36.0492V30.5223C36.0492 30.2063 35.7932 29.9509 35.4777 29.9509H32.5835C29.7623 28.8994 29.7583 28.316 29.7629 24.748L29.7635 24.2857C29.7635 23.0149 30.5532 21.7737 32.1115 20.5971C34.7109 18.6326 36.2772 15.572 36.3298 12.384C37.7886 12.1737 39.0286 11.1663 39.5109 9.73943L40.844 5.79314C41.2286 4.65486 41.0475 3.44171 40.3469 2.46514C39.6463 1.48914 38.5549 0.929143 37.3532 0.929143H36.3349V0.571429C36.3349 0.255429 36.0789 0 35.7635 0H19.192C18.8766 0 18.6206 0.255429 18.6206 0.571429V0.928571H17.6017C16.4 0.928571 15.3086 1.48857 14.608 2.46457C13.9075 3.44114 13.7263 4.65429 14.1109 5.79257L15.444 9.73886C15.9263 11.1651 17.1663 12.1726 18.6252 12.3834C18.6777 15.572 20.244 18.6326 22.8435 20.5966C24.4023 21.7737 25.192 23.0149 25.192 24.2857L25.1926 24.748C25.1977 28.3166 25.1937 28.8994 22.372 29.9509H18.3349C18.0195 29.9509 17.7635 30.2063 17.7635 30.5223V38.5223H1.19203C0.876605 38.5223 0.620605 38.7777 0.620605 39.0937V47.4286C0.620605 47.7446 0.876605 48 1.19203 48H52.6206C52.936 48 53.192 47.7446 53.192 47.4286V34.5223C53.192 34.2063 52.936 33.9509 52.6206 33.9509ZM52.0492 35.0937V36.808H36.0492V35.0937H52.0492ZM36.3349 4.35714H37.3537C37.3897 4.35714 37.4852 4.35714 37.5618 4.46457C37.6383 4.57086 37.6075 4.66114 37.596 4.69486L36.3349 8.42857V4.35714ZM37.3537 2.07143C38.1829 2.07143 38.9355 2.45771 39.4189 3.13086C39.9023 3.804 40.0269 4.64171 39.7617 5.42686L38.4286 9.37314C38.1046 10.332 37.2977 11.02 36.3349 11.22V10.0389C36.8012 9.86857 37.18 9.49829 37.3457 9.008L38.6789 5.06114C38.8252 4.62857 38.7566 4.168 38.4903 3.79829C38.2246 3.42743 37.8103 3.21486 37.3537 3.21486H36.3349V2.072H37.3537V2.07143ZM18.6206 8.42857L17.3589 4.69486C17.3475 4.66057 17.3166 4.57029 17.3937 4.46343C17.4697 4.35714 17.5652 4.35714 17.6012 4.35714H18.6206V8.42857ZM16.5269 9.37314L15.1937 5.42686C14.9286 4.64171 15.0532 3.80457 15.5366 3.13086C16.02 2.45714 16.7726 2.07143 17.6017 2.07143H18.6206V3.21429H17.6017C17.1452 3.21429 16.7309 3.42686 16.4657 3.79714C16.1995 4.16743 16.1309 4.62857 16.2766 5.06114L17.6097 9.008C17.7755 9.49829 18.1537 9.86857 18.6206 10.0389V11.22C17.6577 11.02 16.8515 10.332 16.5269 9.37314ZM26.3355 24.7463L26.3349 24.2857C26.3349 22.6377 25.392 21.0897 23.5332 19.6851C21.1377 17.8749 19.7635 15.1531 19.7635 12.2189V1.14286H35.192V12.2189C35.192 15.1537 33.8183 17.8749 31.4229 19.6851C29.5635 21.0897 28.6206 22.6377 28.6206 24.2857L28.62 24.7463C28.6166 27.4063 28.6143 28.8406 30.0806 29.9509H24.8755C26.3412 28.8406 26.3389 27.4063 26.3355 24.7463ZM34.9063 31.0937V32.808H18.9063V31.0937H34.9063ZM17.7635 39.6651V41.3794H1.76346V39.6651H17.7635ZM1.76346 42.5223H17.7635V46.8571H1.76346V42.5223ZM18.9063 33.9509H34.9063V46.8571H18.9063V33.9509ZM36.0492 46.8571V37.9509H52.0492V46.8571H36.0492Z" fill="#1C1B17"/>
<path d="M21.4777 10.1429C21.7932 10.1429 22.0492 9.88743 22.0492 9.57143V9.19029C22.0492 8.87429 21.7932 8.61886 21.4777 8.61886C21.1623 8.61886 20.9063 8.87429 20.9063 9.19029V9.57143C20.9063 9.88743 21.1623 10.1429 21.4777 10.1429Z" fill="#1C1B17"/>
<path d="M22.0492 12.2189C22.0492 11.9029 21.7932 11.6474 21.4777 11.6474C21.1623 11.6474 20.9063 11.9029 20.9063 12.2189C20.9063 14.792 22.1149 17.1811 24.2217 18.7737C24.3252 18.852 24.4457 18.8891 24.5657 18.8891C24.7389 18.8891 24.9097 18.8109 25.0223 18.6623C25.2126 18.4109 25.1629 18.0526 24.9109 17.8623C23.092 16.4874 22.0492 14.4303 22.0492 12.2189Z" fill="#1C1B17"/>
<path d="M30.3492 13.3034L28.1755 12.936C28.1595 12.1589 28.1423 11.38 28.1423 10.6086V6.13942L28.2046 3.93942L27.9892 3.78514L24.8109 4.60342V5.23485L26.8406 5.06685V10.608C26.8406 11.3794 26.8235 12.1589 26.808 12.936L24.6446 13.3029V13.8514H30.3497L30.3492 13.3034Z" fill="#1C1B17"/>
</svg>
