<svg width="45" height="48" viewBox="0 0 45 48" fill="none" xmlns="http://www.w3.org/2000/svg">
<path d="M31.141 25.9167C30.88 25.8067 30.5793 25.9285 30.469 26.1888C27.7482 32.6129 16.6995 32.6154 13.978 26.1884C13.8678 25.9282 13.567 25.8062 13.306 25.9163C13.0451 26.0262 12.923 26.3264 13.0333 26.5868C14.1202 29.1538 16.6312 31.0586 19.6508 31.7587C20.2228 33.7757 21.6189 35.2804 23.3534 35.7216C25.0756 36.1591 27.2559 35.52 28.2802 34.0094C28.9874 32.966 29.1293 31.4843 28.6812 29.9854C29.8925 29.0838 30.8467 27.9257 31.4135 26.5874C31.524 26.3268 31.4019 26.0267 31.141 25.9167ZM27.4307 33.4358C26.6958 34.5198 25.0164 35.088 23.6066 34.7297C22.3864 34.4194 21.3389 33.3672 20.7989 31.9622C23.1735 32.2594 25.7074 31.7933 27.7799 30.5806C28.0409 31.6759 27.9215 32.712 27.4307 33.4358Z" fill="#1C1B17"/>
<path d="M17.0435 15.8612C15.3191 15.8612 13.9161 17.6977 13.9161 19.9549C13.9161 22.2122 15.3191 24.0487 17.0435 24.0487C18.7679 24.0487 20.1709 22.2122 20.1709 19.9549C20.1709 17.6977 18.768 15.8612 17.0435 15.8612ZM17.0435 23.0252C16.3321 23.0252 15.6897 22.477 15.3075 21.6601C16.3497 22.1332 16.9592 20.7504 16.9592 19.9549C16.9592 19.1594 16.3497 17.7767 15.3075 18.2498C15.6898 17.4329 16.3321 16.8847 17.0435 16.8847C18.1828 16.8847 19.1453 18.2907 19.1453 19.9549C19.1453 21.6191 18.1829 23.0252 17.0435 23.0252Z" fill="#1C1B17"/>
<path d="M27.2999 15.8612C25.5753 15.8612 24.1724 17.6977 24.1724 19.9549C24.1724 22.2122 25.5753 24.0487 27.2999 24.0487C29.0244 24.0487 30.4274 22.2122 30.4274 19.9549C30.4274 17.6977 29.0244 15.8612 27.2999 15.8612ZM27.2999 23.0252C26.5885 23.0252 25.946 22.477 25.5638 21.66C26.6059 22.1332 27.2156 20.7503 27.2156 19.9548C27.2156 19.1593 26.606 17.7765 25.5638 18.2497C25.946 17.4328 26.5885 16.8845 27.2999 16.8845C28.4391 16.8845 29.4017 18.2905 29.4017 19.9547C29.4017 21.6189 28.4391 23.0252 27.2999 23.0252Z" fill="#1C1B17"/>
<path d="M35.6075 9.31122C34.7413 9.31122 33.7714 8.78291 33.5568 7.60281C33.4786 7.17204 33.136 6.83009 32.7043 6.75204C31.5216 6.53798 30.9922 5.57008 30.9922 4.70577C30.9922 3.84146 31.5216 2.87357 32.7043 2.65951C33.136 2.58146 33.4787 2.23951 33.5568 1.80874C33.7714 0.628638 34.7413 0.100329 35.6075 0.100329C36.4736 0.100329 37.4436 0.628638 37.6581 1.80874C37.7364 2.23951 38.079 2.58146 38.5107 2.65951C39.6933 2.87357 40.2228 3.84146 40.2228 4.70577C40.2228 5.57008 39.6933 6.53798 38.5107 6.75204C38.079 6.83009 37.7363 7.17204 37.6581 7.60281C37.4436 8.78291 36.4736 9.31122 35.6075 9.31122ZM35.6075 1.12372C35.1998 1.12372 34.6824 1.351 34.566 1.99141C34.4119 2.83941 33.7372 3.51264 32.8874 3.66649C32.2455 3.78259 32.0178 4.2989 32.0178 4.70567C32.0178 5.11244 32.2456 5.62875 32.8874 5.74485C33.7372 5.8987 34.4119 6.57193 34.566 7.41993C34.6824 8.06035 35.1999 8.28763 35.6075 8.28763C36.0151 8.28763 36.5325 8.06035 36.6489 7.41993C36.8031 6.57193 37.4777 5.8987 38.3276 5.74485C38.9694 5.62875 39.1971 5.11244 39.1971 4.70567C39.1971 4.2989 38.9693 3.78259 38.3276 3.66649C37.4777 3.51264 36.8031 2.83941 36.6489 1.99141C36.5325 1.351 36.0151 1.12372 35.6075 1.12372Z" fill="#1C1B17"/>
<path d="M8.2232 47.9969C7.35704 47.9969 6.38709 47.4686 6.17253 46.2885C6.09417 45.8578 5.7516 45.5158 5.32001 45.4378C4.13724 45.2237 3.6079 44.2558 3.6079 43.3915C3.6079 42.5272 4.13734 41.5593 5.32001 41.3452C5.7516 41.2672 6.09427 40.9252 6.17263 40.4945C6.38709 39.3144 7.35714 38.786 8.2232 38.786C9.08925 38.786 10.0593 39.3144 10.2739 40.4945C10.3522 40.9252 10.6948 41.2672 11.1264 41.3452C12.3092 41.5593 12.8385 42.5272 12.8385 43.3915C12.8385 44.2558 12.3091 45.2237 11.1264 45.4378C10.6948 45.5158 10.3521 45.8578 10.2738 46.2885C10.0593 47.4686 9.08925 47.9969 8.2232 47.9969ZM5.50309 42.3522C4.86124 42.4683 4.63355 42.9846 4.63355 43.3914C4.63355 43.7982 4.86124 44.3145 5.50309 44.4306C6.35294 44.5844 7.0275 45.2576 7.18166 46.1057C7.29807 46.7461 7.8155 46.9733 8.2232 46.9733C8.63089 46.9733 9.14822 46.7461 9.26463 46.1057C9.41889 45.2576 10.0935 44.5844 10.9433 44.4306C11.5852 44.3145 11.8128 43.7982 11.8128 43.3914C11.8128 42.9846 11.5852 42.4683 10.9433 42.3522C10.0935 42.1984 9.41889 41.5251 9.26474 40.6771C9.14833 40.0367 8.63089 39.8094 8.2232 39.8094C7.8155 39.8094 7.29817 40.0367 7.18176 40.6771C7.0275 41.5252 6.35283 42.1985 5.50309 42.3522Z" fill="#1C1B17"/>
<path d="M33.5562 47.9969C32.7718 47.9969 31.8931 47.5185 31.6987 46.4495C31.6351 46.0987 31.356 45.8202 31.0045 45.7566C29.9332 45.5627 29.4537 44.686 29.4537 43.9032C29.4537 43.1204 29.9332 42.2437 31.0045 42.0497C31.3561 41.9862 31.6351 41.7077 31.6987 41.3569C31.8931 40.2879 32.7718 39.8094 33.5562 39.8094C34.3406 39.8094 35.2193 40.2879 35.4136 41.3569C35.4773 41.7077 35.7564 41.9862 36.1079 42.0497C37.1792 42.2437 37.6587 43.1204 37.6587 43.9032C37.6587 44.686 37.1792 45.5627 36.1079 45.7566C35.7563 45.8202 35.4773 46.0987 35.4136 46.4495C35.2193 47.5185 34.3406 47.9969 33.5562 47.9969ZM31.1876 43.0567C30.6654 43.1513 30.4794 43.5559 30.4794 43.9032C30.4794 44.2504 30.6654 44.6551 31.1876 44.7497C31.9573 44.8889 32.5684 45.4988 32.708 46.2668C32.8027 46.7878 33.2083 46.9735 33.5562 46.9735C33.9042 46.9735 34.3097 46.7877 34.4044 46.2668C34.544 45.4987 35.1551 44.8889 35.9248 44.7497C36.447 44.6551 36.633 44.2505 36.633 43.9032C36.633 43.556 36.447 43.1513 35.9248 43.0567C35.1551 42.9174 34.544 42.3076 34.4044 41.5396C34.3096 41.0186 33.9041 40.8329 33.5562 40.8329C33.2082 40.8329 32.8026 41.0187 32.708 41.5396C32.5683 42.3077 31.9573 42.9174 31.1876 43.0567Z" fill="#1C1B17"/>
<path d="M42.3776 32.1193C40.4045 30.8156 38.6328 29.3099 37.179 27.4319C37.3122 26.8429 37.4103 26.2411 37.4736 25.629C38.0668 25.1459 38.6302 24.6251 39.1479 24.0745C42.6321 20.3693 44.48 15.1108 44.1939 12.3637C44.1065 11.5243 43.8237 10.9321 43.3534 10.6041C42.5712 10.0584 41.7074 10.4913 40.5118 11.0904C38.1908 12.2536 35.777 13.0696 33.1769 13.3355C32.2211 12.3583 31.1373 11.5062 29.9509 10.8094C29.214 8.22496 24.4903 -1.69496 20.3505 0.251201C19.4886 0.656228 19.4311 1.62085 19.3515 2.95582C19.262 4.45993 19.0871 5.94547 18.701 7.40547C18.5888 7.36558 18.4702 7.33214 18.3426 7.30906L17.418 7.14168C16.4599 6.96824 15.6994 6.20937 15.5257 5.25347L15.358 4.3309C15.148 3.17603 14.1989 2.6591 13.3514 2.6591C12.5039 2.6591 11.5548 3.17603 11.3449 4.3309L11.1771 5.25347C11.0033 6.20947 10.2428 6.96834 9.28474 7.14168L8.36013 7.30906C7.20279 7.5185 6.68484 8.46558 6.68484 9.31132C6.68484 9.64948 6.76925 10.003 6.94259 10.3199C3.56566 10.7255 0.277957 11.972 0.126161 13.7605C0.0455458 14.7093 0.851086 15.2415 1.96606 15.9781C2.66483 16.4399 3.53458 17.0144 4.52104 17.8668C5.48063 18.6959 6.3672 19.6359 7.16146 20.6612C6.91469 21.7601 6.78751 22.8943 6.78751 24.0487C6.78751 27.7641 8.11736 31.1752 10.3266 33.8336C8.97674 34.0192 7.66074 34.331 6.40402 34.7695C5.1112 35.2207 4.14668 35.7041 3.37171 36.0925C2.37755 36.5907 1.84627 36.8418 1.57806 36.6546C0.773342 36.0931 1.00093 32.5896 3.17765 28.5881C3.31273 28.3396 3.22042 28.029 2.9716 27.8941C2.72268 27.7594 2.4114 27.8514 2.27622 28.0997C0.324623 31.6874 -0.721943 36.2989 0.990368 37.4932C1.85119 38.0938 3.07714 37.3852 3.83202 37.007C4.58063 36.6318 5.51233 36.1648 6.74259 35.7355C8.15059 35.2442 9.63757 34.9185 11.165 34.762C12.121 35.7398 13.2063 36.591 14.3929 37.288C14.4095 37.3462 14.4252 37.4039 14.4427 37.4626C15.9064 42.3422 19.5327 46.5744 22.0531 47.6971C22.6952 48.043 23.3419 48.0926 23.9933 47.8461C24.8551 47.441 24.9127 46.4764 24.9922 45.1413C25.1205 42.9886 25.4674 40.8891 26.2239 38.8587C27.5423 38.4991 28.7905 37.9687 29.9434 37.2925C31.564 37.7355 33.2545 37.9274 34.9329 37.9274C38.3812 37.9274 41.5384 37.0857 43.1067 35.9522C43.7952 35.4546 44.1689 34.9112 44.2177 34.3369C44.2982 33.388 43.4926 32.8558 42.3776 32.1193ZM37.9397 13.3278C39.2325 12.8767 40.197 12.3933 40.9721 12.0049C41.9658 11.5067 42.4974 11.2553 42.7656 11.4428C42.9751 11.589 43.12 11.9535 43.1737 12.4696C43.4376 15.0034 41.5824 19.99 38.3999 23.3743C38.1307 23.6608 37.8471 23.9377 37.5539 24.2058C37.59 20.6059 36.3192 17.0348 34.0157 14.2639C35.366 14.0783 36.6824 13.7665 37.9397 13.3278ZM20.0033 6.30721C20.2595 4.96065 20.3237 3.8827 20.3753 3.01644C20.4416 1.90382 20.4901 1.31664 20.7874 1.17695C23.7747 -0.224697 28.0664 8.47881 28.6555 10.1292C25.9612 8.8745 22.9086 8.43389 19.9672 8.85542C19.904 8.56773 19.7794 8.28609 19.5895 8.04117C19.7542 7.46281 19.8942 6.88096 20.0033 6.30721ZM8.5431 8.31594L9.46772 8.14855C10.844 7.89942 11.9364 6.80927 12.1861 5.43593L12.3539 4.51336C12.4654 3.89993 12.9609 3.68229 13.3512 3.68229C13.7417 3.68229 14.2372 3.89982 14.3487 4.51336L14.5163 5.43593C14.7661 6.80927 15.8585 7.89932 17.2347 8.14855L18.1593 8.31594C18.774 8.42722 18.9921 8.92158 18.9921 9.31122C18.9921 9.70076 18.7741 10.1952 18.1593 10.3065L17.2347 10.4739C15.8584 10.723 14.766 11.8132 14.5163 13.1865L14.3485 14.1091C14.2371 14.7225 13.7416 14.9402 13.3512 14.9402C12.9608 14.9402 12.4653 14.7226 12.3538 14.1091L12.1861 13.1865C11.9363 11.8132 10.8439 10.7231 9.46772 10.4739L8.5431 10.3065C7.92843 10.1952 7.71028 9.70086 7.71028 9.31122C7.71038 8.92158 7.92843 8.42722 8.5431 8.31594ZM5.19222 17.093C4.15571 16.1974 3.2554 15.6026 2.53211 15.1247C1.60329 14.511 1.12001 14.1755 1.14791 13.8467C1.22493 12.9392 3.89437 11.5188 8.07479 11.241C8.16567 11.2697 8.25961 11.2953 8.36002 11.3135L9.28464 11.4809C10.2273 11.6514 10.9774 12.3893 11.1669 13.3235C9.45141 15.0746 8.20577 17.1624 7.491 19.437C6.78279 18.5889 6.01325 17.8024 5.19222 17.093ZM24.3402 41.79C24.084 43.1364 24.0198 44.2144 23.9681 45.0806C23.9018 46.1934 23.8533 46.7805 23.556 46.9202C23.3264 47.0282 22.941 46.9722 22.4708 46.7627C20.287 45.7898 17.1651 42.1074 15.6877 37.9677C17.6591 38.8862 19.8561 39.4 22.1716 39.4C23.151 39.4 24.1089 39.3071 25.0379 39.1317C24.744 40.0068 24.51 40.8974 24.3402 41.79ZM22.1717 38.3766C14.2543 38.3766 7.81295 31.9491 7.81295 24.0486C7.81295 20.5146 9.08505 17.1823 11.4128 14.5621C11.7117 15.5264 12.5735 15.9634 13.3513 15.9634C14.1989 15.9634 15.1479 15.4465 15.3579 14.2916L15.5257 13.3691C15.6994 12.4131 16.4599 11.6542 17.418 11.4809L18.3426 11.3135C19.2366 11.1516 19.7476 10.5495 19.9345 9.89409C20.6722 9.77902 21.423 9.72055 22.1716 9.72055C30.0891 9.72055 36.5304 16.1481 36.5304 24.0486C36.5304 31.9491 30.0892 38.3766 22.1717 38.3766ZM42.5048 35.1234C40.507 36.5674 35.5322 37.4387 31.1261 36.5244C33.8012 34.6072 35.8371 31.8559 36.8483 28.6549C38.2713 30.3602 39.9622 31.7508 41.8115 32.9726C42.7402 33.5861 43.2235 33.9216 43.1956 34.2506C43.1737 34.5072 42.9285 34.8172 42.5048 35.1234Z" fill="#1C1B17"/>
<path d="M4.5309 26.2543C4.92741 26.2543 5.24885 25.9336 5.24885 25.5379C5.24885 25.1423 4.92741 24.8215 4.5309 24.8215C4.13438 24.8215 3.81295 25.1423 3.81295 25.5379C3.81295 25.9336 4.13438 26.2543 4.5309 26.2543Z" fill="#1C1B17"/>
</svg>
