<svg width="136" height="40" viewBox="0 0 136 40" fill="none" xmlns="http://www.w3.org/2000/svg">
<path d="M89.714 0.0733999C79.5164 0.418786 53.3276 2.37885 26.9401 4.77065C16.0518 5.76363 6.65731 6.69617 3.08257 7.14517C2.33999 7.24016 1.66649 7.31787 1.58877 7.31787C1.5197 7.31787 1.48516 7.35241 1.51106 7.40421C1.58877 7.53373 1.2952 7.50783 0.828926 7.35241C0.526713 7.24879 0.37129 7.23152 0.233135 7.3006C0.0518079 7.37831 0.0604425 7.39558 0.379924 7.53373C0.578521 7.61145 1.13977 7.70643 1.71829 7.75823C2.27091 7.79277 2.76309 7.83595 2.80626 7.84458C3.02213 7.87912 1.85645 7.99137 1.16568 8C0.74258 8.00864 0.302213 8.03454 0.189962 8.06045C-0.12952 8.14679 0.00863464 8.36266 0.500809 8.55262C0.811657 8.67351 0.932542 8.75122 0.872099 8.81166C0.811657 8.8721 0.690772 8.8721 0.500809 8.81166C0.207232 8.72532 0 8.75122 0 8.8721C0 8.97572 1.01889 9.13114 1.77874 9.13114C2.15003 9.13978 2.6163 9.19159 2.80626 9.26066C3.21209 9.40745 3.28117 9.36428 3.05666 9.12251C2.90124 8.94982 2.90124 8.94982 3.10847 8.99299C4.12736 9.20885 4.49002 9.25203 5.39665 9.25203C6.04425 9.25203 6.63141 9.19159 6.96816 9.11387C7.27037 9.03616 7.51214 8.98435 7.51214 8.99299C7.51214 9.01026 7.09768 9.73557 6.59687 10.6077C5.37075 12.7577 3.5143 16.5224 2.78036 18.3702C1.30383 22.0831 0.449002 25.4334 0.12952 28.8095C0 30.1824 -0.0431732 32.8764 0.0518079 33.8176L0.11225 34.3443L0.72531 34.7156C1.43335 35.1387 2.29682 35.5359 2.59039 35.5704C2.78036 35.5963 2.80626 35.5273 3.2898 33.1786C4.60227 26.8926 5.08581 24.7253 5.88883 21.5219C7.10631 16.6519 8.27199 13.1808 9.6708 10.2709C10.1716 9.23476 10.2925 9.0448 10.4566 9.0448C10.5602 9.0448 11.9935 8.93255 13.6341 8.78576C15.2747 8.6476 18.7026 8.35402 21.2412 8.13816C29.5391 7.43875 34.2882 6.95521 34.884 6.75662C36.5505 6.204 44.0626 5.34053 68.4986 2.87103C85.9838 1.10956 89.5499 0.720998 92.6497 0.271997C94.6012 -0.0129465 93.8413 -0.0647544 89.714 0.0733999Z" fill="#1C1B17"/>
<path d="M119.788 3.68268C119.512 3.89855 119.08 4.35618 118.83 4.6843C118.381 5.28009 116.68 8.50081 116.775 8.58716C116.853 8.66487 116.568 9.25203 116.386 9.39018C116.257 9.4938 116.119 9.96007 115.782 11.4193C114.556 16.8073 114.012 19.5273 113.632 22.1695C112.95 26.9358 112.958 30.1565 113.649 33.1182C113.839 33.9039 113.848 33.9212 114.236 34.163C115.722 35.1128 117.733 34.4047 118.079 32.8073C118.139 32.5224 118.251 32.4447 118.321 32.6346C118.338 32.6951 118.441 32.5138 118.545 32.2288C119.745 28.9649 121.455 25.3211 122.664 23.4128C124.451 20.6152 126.463 18.4825 128.743 16.9628C129.502 16.462 130.884 15.6935 131.022 15.6935C131.083 15.6935 130.875 16.3842 130.029 18.9574C129.597 20.2526 129.157 21.7291 129.036 22.2385C128.768 23.3869 128.673 25.252 128.82 26.3227C128.95 27.2035 129.347 28.7318 129.442 28.7318C129.485 28.7318 129.52 28.6886 129.52 28.6454C129.52 28.4555 129.666 28.5764 129.761 28.844C129.822 28.9995 130.115 29.4139 130.426 29.7507C130.737 30.0961 131.005 30.4674 131.031 30.571C131.074 30.735 131.221 30.8041 131.981 31.0027C133.5 31.3999 134.355 31.279 134.355 30.6573C134.355 30.4933 134.243 30.1479 134.105 29.8716C133.707 29.0685 133.552 28.2482 133.561 26.9185C133.578 25.606 133.638 25.1829 134.355 21.7377C134.631 20.3821 134.908 18.9487 134.951 18.5429C135.314 15.6762 134.631 13.9924 132.758 13.0858L132.058 12.7577L131.385 12.844C131.022 12.8958 130.599 12.9131 130.461 12.8872C130.262 12.844 129.986 12.9477 129.028 13.4485C124.486 15.8057 121.205 19.2337 117.025 26.0205L116.654 26.6163V26.1759C116.654 25.3384 116.835 23.9741 117.267 21.5823C117.5 20.2698 117.733 18.7588 117.794 18.2234C117.872 17.4981 117.923 17.2736 117.992 17.3341C118.07 17.4031 118.234 16.7814 118.64 14.9423C119.357 11.6352 119.866 9.61468 120.289 8.37993C120.669 7.26606 121.282 5.94496 121.593 5.56503L121.792 5.32326L122.422 5.47005C122.767 5.54776 123.078 5.59094 123.104 5.56503C123.216 5.44415 122.828 5.04695 122.457 4.8829C121.921 4.64976 121.662 4.39936 121.662 4.12305C121.662 3.91582 121.636 3.89855 121.412 3.93308C121.222 3.95899 121.161 3.92445 121.118 3.7863C121.092 3.65678 121.006 3.60497 120.851 3.60497C120.73 3.60497 120.548 3.52726 120.462 3.44091C120.298 3.27685 120.289 3.28549 119.788 3.68268ZM118.934 26.6681C118.856 26.8753 118.45 27.7647 118.027 28.6454C117.604 29.5262 117.129 30.5796 116.956 30.9768C116.784 31.4085 116.663 31.6244 116.654 31.5035C116.654 31.1581 116.904 30.3206 117.224 29.6125C117.561 28.8613 119.003 26.2191 119.055 26.2623C119.063 26.2795 119.011 26.4609 118.934 26.6681ZM114.254 33.6967C114.452 33.8608 114.47 33.9126 114.357 33.9126C114.202 33.9126 113.891 33.6794 113.891 33.5499C113.891 33.4377 113.986 33.4722 114.254 33.6967Z" fill="#1C1B17"/>
<path d="M87.9611 6.97248C87.2445 7.12791 86.2774 7.56827 86.5019 7.64599C86.6919 7.70643 86.6055 7.89639 86.3378 8.01728C85.9924 8.15543 85.5693 8.50945 85.5693 8.65624C85.5693 8.71668 85.4226 8.79439 85.2499 8.82893C85.0685 8.86347 84.6886 9.06207 84.4037 9.27793C84.1187 9.48517 83.782 9.68376 83.6525 9.70967C83.3762 9.76147 83.3416 9.86509 83.5661 9.98598C83.6697 10.0551 83.687 10.0982 83.6179 10.1414C83.5575 10.1846 83.143 10.4436 82.6767 10.7286C79.1365 12.9218 75.8208 16.4102 72.2893 21.6686C71.7885 22.4199 71.3481 23.0329 71.3136 23.0329C71.2186 23.0329 71.1581 22.5321 71.0631 21.047C71.0113 20.1576 70.925 19.5359 70.8127 19.1905L70.6487 18.6724L70.64 20.6757C70.6314 22.6098 70.5882 22.9034 70.381 22.5321C70.3119 22.4026 70.286 22.4199 70.1997 22.6444C70.1047 22.8775 70.0874 22.8861 70.027 22.7307C69.9924 22.6357 69.9406 22.4112 69.9147 22.2299C69.8629 21.8672 70.0011 21.7895 70.1824 22.0831C70.2429 22.1867 70.3292 22.2385 70.3724 22.2126C70.5278 22.1177 70.4674 21.85 70.2688 21.7205L70.0702 21.5909L70.0529 18.7501C70.0443 16.626 70.0097 15.7712 69.9147 15.3481C69.8457 15.0286 69.7852 14.8818 69.7679 15.0027C69.7593 15.1754 69.7248 15.1236 69.6039 14.7868C69.5175 14.5451 69.2844 14.027 69.0858 13.6298C68.8786 13.2326 68.7404 12.8354 68.7577 12.7491C68.7922 12.6195 68.7491 12.585 68.5505 12.585C68.4123 12.585 68.3001 12.5418 68.3001 12.4728C68.2914 12.1792 68.1705 12.1533 67.6093 12.3346C66.5472 12.68 65.7442 13.1635 64.898 13.9579C64.2418 14.5796 63.6114 15.4172 62.4717 17.17C61.5737 18.5515 60.8138 19.5445 60.7275 19.4582C60.7016 19.4323 60.9002 18.776 61.1678 17.9903C61.4787 17.075 61.6514 16.4188 61.6514 16.1684C61.6514 15.8144 61.6859 15.7539 61.9104 15.6244C62.1436 15.4949 62.1695 15.4344 62.1695 15.0372C62.1695 14.1824 62.7393 12.9218 63.4992 12.0928C63.7928 11.7647 63.8273 11.687 63.7755 11.428C63.741 11.2639 63.646 11.0394 63.551 10.9272L63.3869 10.7286L62.6444 11.4625C59.6481 14.4155 57.4809 18.9315 56.3929 24.5008C56.0389 26.3314 55.8489 28.0497 55.7366 30.5192L55.6848 31.6676H55.9439C56.082 31.6676 56.4792 31.8057 56.8246 31.9698C57.2823 32.1856 57.5758 32.272 57.878 32.272H58.2925L59.1905 30.4328C59.6827 29.4312 60.7361 27.048 61.5219 25.1484C62.3162 23.2488 63.3006 20.9951 63.7237 20.1403C64.9066 17.7226 66.2882 15.564 66.6854 15.5035C66.8235 15.4862 66.884 15.4085 66.9012 15.2358C66.9185 15.1063 66.979 15.0027 67.048 15.0027C67.1171 15.0027 67.2639 14.8991 67.3848 14.7782C67.6352 14.5019 67.8251 14.5451 67.9029 14.8905C67.9374 15.02 67.9978 16.5138 68.041 18.1975C68.136 22.0227 68.2051 22.6012 68.6886 23.5596C68.9477 24.0691 69.7334 24.7685 70.4328 25.1225C70.925 25.3643 71.0286 25.3815 71.5985 25.347C72.0561 25.3125 72.3583 25.2434 72.7037 25.0621C73.2822 24.7685 74.2925 23.7582 74.6293 23.1365L74.871 22.6875H74.6811C74.4911 22.6875 74.4911 22.6875 74.6552 22.558C74.871 22.394 74.7501 22.394 74.4307 22.558C74.2925 22.6271 74.0162 22.9207 73.8262 23.197C73.3513 23.905 73.265 23.9223 73.5068 23.2747C74.1889 21.4701 75.1991 20.0108 77.8413 16.9887C78.7393 15.9698 79.6978 14.8559 79.9827 14.5105C80.285 14.1392 80.5526 13.8888 80.6131 13.9147C80.6821 13.9406 80.8462 13.8629 80.993 13.742C81.2866 13.4916 81.3211 13.5262 81.1139 13.8457C81.0016 14.0184 80.993 14.0874 81.0707 14.1651C81.183 14.2688 81.1743 14.2774 81.8737 13.4744C81.9946 13.3276 82.1759 13.1635 82.2623 13.1204C82.4091 13.034 82.4091 13.0254 82.2623 12.8699C82.055 12.6368 82.0723 12.6109 82.4091 12.6541C82.6595 12.68 82.7631 12.6282 83.1862 12.2483C83.6525 11.8252 84.0324 11.6266 83.7302 11.9633C83.6438 12.0497 83.5834 12.1705 83.5834 12.231C83.5834 12.2914 83.9029 12.0669 84.3001 11.7388C85.388 10.8235 86.1997 10.2277 86.9164 9.82192C87.2704 9.62332 87.5726 9.4679 87.5899 9.48517C87.5985 9.50243 87.5985 9.68376 87.5726 9.89099C87.538 10.245 87.5294 10.2536 87.374 10.1155C87.2876 10.0378 87.1668 9.99461 87.1063 10.0205C86.925 10.0896 85.5693 13.4657 85.5693 13.8457C85.5693 13.9147 85.6384 13.9665 85.7334 13.9665C85.8198 13.9665 85.9406 14.027 86.0011 14.0961C86.0961 14.2083 86.0615 14.2256 85.8025 14.2256H85.5003L85.4398 14.8041C85.4053 15.1322 85.2499 16.1857 85.0944 17.1614C84.939 18.1371 84.7577 19.2423 84.7059 19.6222C84.6541 20.0022 84.5936 20.4166 84.5677 20.5461C84.5246 20.7447 84.5764 20.8138 84.8958 21.0211L85.2671 21.2628L84.9649 21.306L84.6627 21.3578L84.9217 21.496L85.1808 21.6427L84.844 21.6255C84.4037 21.5996 84.3432 21.7809 84.7404 21.945L85.0426 22.0658L84.9131 22.4889C84.5505 23.6719 84.4123 26.3055 84.6195 28.1274C84.7577 29.3794 85.0944 30.9336 85.4916 32.1425C85.8284 33.1786 85.8629 33.2391 86.1738 33.3945C86.3465 33.4808 86.8386 33.8521 87.2617 34.2148C88.1252 34.9574 88.5656 35.2164 89.0059 35.2423L89.3082 35.2509L89.5845 36.3735C89.7399 36.9865 89.9989 37.8586 90.163 38.3076L90.4566 39.1193L91.1387 39.4128C91.51 39.5769 92.0453 39.7755 92.3303 39.8705C92.8397 40.0432 92.8484 40.0432 93.2196 39.8705C93.7377 39.646 93.7636 39.5165 93.3837 39.0761C93.0124 38.6357 92.4771 37.5391 92.2785 36.8052C91.9417 35.5273 91.8813 33.0405 92.1317 30.6746C92.1749 30.2429 92.2439 29.3017 92.2698 28.5764C92.3044 27.8511 92.3648 27.238 92.3994 27.2121C92.4339 27.1948 93.0642 27.5057 93.7895 27.9029C96.2677 29.2758 98.15 29.8543 100.153 29.8543C101.189 29.8543 103.935 29.129 105.343 28.4814C106.543 27.9374 110.239 24.5872 111.197 23.1797C112.371 21.4614 112.794 19.7604 112.475 17.9558C112.052 15.5294 110.653 13.8025 108.158 12.6195C104.626 10.9531 99.6006 11.2553 96.544 13.3103C96.2849 13.483 96.0604 13.6039 96.0345 13.5866C95.9482 13.4916 96.3972 12.7663 96.8894 12.1964C97.5629 11.428 97.8651 10.7976 97.8046 10.3227C97.7787 10.1328 97.7442 9.96871 97.7269 9.9428C97.701 9.92553 97.3988 9.99461 97.0448 10.0896C95.0847 10.6336 93.6082 12.1964 92.3475 15.0718C91.8208 16.2634 89.4118 23.3869 89.1959 24.3972C88.911 25.6924 88.7642 27.3502 88.7642 29.2499C88.7642 30.8214 88.8073 31.5985 88.98 33.1786L89.0232 33.6104L88.7987 33.0491C88.3497 31.918 87.918 29.9234 87.728 28.0842C87.5985 26.9444 87.5985 23.7841 87.728 22.4285C87.9957 19.4409 88.5397 16.531 89.7658 11.6179C90.7156 7.76687 90.7242 8.03455 89.6794 7.35241C89.3427 7.12791 89.0577 6.91204 89.0405 6.86887C88.9973 6.77389 88.8419 6.79116 87.9611 6.97248ZM87.469 10.4091C87.469 10.4436 87.3481 10.7458 87.2013 11.0739L86.9423 11.6784L86.9768 11.1862C86.9941 10.8581 87.0631 10.6249 87.1668 10.5127C87.3222 10.34 87.469 10.2882 87.469 10.4091ZM104.997 12.8959C106.897 13.1894 107.096 13.293 107.899 14.3292C109.341 16.1943 109.548 18.517 108.46 20.7016C108.019 21.5823 107.717 22.0227 107.035 22.7739C104.583 25.4938 100.654 27.0308 97.2693 26.5818C95.7582 26.3745 93.9018 25.5974 92.8743 24.7253L92.5461 24.4404L92.6843 23.5251C93.0038 21.3492 93.5564 19.3977 94.2558 18.0162C94.817 16.8937 95.2488 16.272 96.0086 15.5121C97.5801 13.9406 99.4539 13.129 102.45 12.7232C102.839 12.6713 104.073 12.7577 104.997 12.8959ZM67.4625 13.7852C67.4107 13.9925 66.2277 15.0631 66.2277 14.9077C66.2277 14.8214 67.4021 13.6298 67.497 13.6212C67.497 13.6212 67.4884 13.6989 67.4625 13.7852ZM86.0011 17.6449C85.8802 18.2839 85.6816 18.5429 85.7766 17.9298C85.8629 17.4031 86.027 16.8592 86.0702 16.98C86.0874 17.0405 86.0615 17.3341 86.0011 17.6449ZM70.2947 23.292C70.3465 23.292 70.3637 23.3265 70.3292 23.3697C70.3033 23.4128 70.3206 23.4733 70.3724 23.5078C70.5019 23.5855 70.476 23.7237 70.3292 23.7237C70.1479 23.7237 70.0097 23.4042 70.0788 23.1797C70.1392 23.0243 70.1479 23.0157 70.1824 23.1365C70.1997 23.2229 70.2515 23.292 70.2947 23.292ZM85.129 23.3524C85.129 23.5337 85.0944 23.8532 85.0599 24.0691L84.9995 24.4576L84.9477 23.9137C84.9218 23.6201 84.9131 23.3006 84.939 23.2056C85.0167 22.912 85.1376 23.0157 85.129 23.3524ZM85.1808 26.1932C85.224 26.7631 85.2153 27.0826 85.1549 27.1257C85.0254 27.2035 84.9045 25.7097 84.9649 24.8894C84.9822 24.6476 84.9908 24.6562 85.0513 24.9757C85.0944 25.1657 85.1549 25.7183 85.1808 26.1932Z" fill="#1C1B17"/>
<path d="M32.3195 9.96008C32.2504 9.98598 32.2331 10.0982 32.259 10.245C32.3022 10.4436 32.259 10.53 32.0173 10.7372C31.2401 11.3934 30.7652 12.9477 30.9638 14.1651C31.0156 14.4587 31.0675 14.5105 31.551 14.7437C33.1052 15.5035 34.1759 14.8905 34.6508 12.9736C34.9099 11.9374 34.9185 11.7474 34.7026 11.6266C34.3486 11.4366 34.0205 10.9444 34.3227 11.0653C34.4263 11.0998 34.4436 11.0826 34.3745 10.9703C34.3227 10.8753 34.3314 10.7717 34.3918 10.6768C34.5127 10.4868 34.2795 10.2018 33.8737 10.0292C33.5283 9.88236 33.2088 9.87373 33.2952 10.0119C33.3384 10.081 33.3125 10.0896 33.2088 10.0551C32.9757 9.96008 32.4404 9.90827 32.3195 9.96008Z" fill="#1C1B17"/>
<path d="M13.1419 12.775C12.952 13.2153 12.5375 14.217 12.2267 15.0027C11.6395 16.462 10.9574 17.8176 10.8279 17.7917C10.7242 17.7744 10.707 17.8262 10.0594 19.9676C8.82461 24.0432 8.39288 26.4954 8.48786 28.939C8.53967 30.3378 8.72963 31.2099 9.17 32.0389C9.55856 32.7555 10.2234 33.4031 10.9228 33.7399L11.5014 34.0162L12.0712 33.8694C12.3907 33.7917 12.6757 33.6881 12.7016 33.6363C12.7361 33.5845 12.6843 33.3254 12.598 33.0578C12.2094 31.9266 12.054 30.9164 12.054 29.3794C12.054 27.6611 12.2267 26.5818 12.7706 25.0016C13.211 23.7496 13.5305 23.0329 14.109 22.0486C15.7928 19.1991 18.2191 16.9196 21.0254 15.5553C21.9493 15.1063 21.9752 15.0977 22.0097 15.2877C22.0184 15.3913 21.9752 16.4102 21.8975 17.5499C21.8198 18.6897 21.742 19.9245 21.7161 20.2871C21.6643 21.2197 21.8111 22.7912 22.027 23.5078C22.286 24.354 22.571 24.8894 23.0631 25.4075L23.4862 25.8565L24.2461 25.9169C24.6606 25.9428 25.2909 25.9946 25.6449 26.0205C26.2321 26.0637 26.3184 26.0551 26.5947 25.8651C26.8624 25.6838 26.9056 25.5974 26.9746 25.1571C27.0437 24.6908 27.0264 24.6303 26.7588 24.0864L26.4652 23.5078L26.4911 20.2008C26.5256 16.6951 26.4652 15.8057 26.1371 14.9164C25.9039 14.2774 25.6535 13.9061 25.2132 13.5003C24.5915 12.939 24.177 12.8009 23.184 12.8095C22.0874 12.8181 21.0426 13.0685 19.9719 13.578C18.3314 14.3551 17.3125 15.2358 15.0416 17.878C14.3076 18.7156 13.7032 19.4064 13.6946 19.4064C13.6773 19.4064 13.7032 19.1819 13.7464 18.9056C13.8586 18.163 14.1867 17.0491 14.7739 15.469C15.2402 14.2256 15.292 14.027 15.1711 13.9406C15.102 13.8802 15.0243 13.6471 15.007 13.3794C14.9811 13.129 14.9466 12.9131 14.9293 12.8959C14.8602 12.8268 13.565 13.0772 13.4355 13.1894C13.2024 13.3794 13.1937 13.2412 13.4269 12.7491C13.5478 12.49 13.6427 12.2137 13.6427 12.1274C13.6427 11.7993 13.4701 12.0238 13.1419 12.775ZM13.2974 13.7507C13.2974 13.7852 13.2369 13.9147 13.1678 14.0529C13.0901 14.1997 13.0729 14.3119 13.1247 14.3119C13.1678 14.3119 13.211 14.3465 13.211 14.3983C13.211 14.5019 12.9779 14.5105 12.9174 14.4069C12.8484 14.3033 13.1074 13.7075 13.211 13.7075C13.2628 13.7075 13.2974 13.7248 13.2974 13.7507Z" fill="#1C1B17"/>
<path d="M52.6713 12.2914C52.49 12.326 52.3087 12.5936 51.6179 13.8198C51.1603 14.64 50.2536 16.3324 49.606 17.5931C47.4992 21.6773 46.9379 22.6703 45.7205 24.544C44.1058 27.0135 42.2234 29.0081 40.2029 30.381L39.5208 30.8386L39.3135 30.5882C38.9768 30.1738 38.5278 29.224 38.3465 28.5418C38.0443 27.4366 37.9665 26.5645 38.0183 24.9412C38.0788 22.912 38.3292 21.2369 39.0804 17.9385C39.2876 17.0146 39.4603 16.1684 39.4603 16.0648C39.4603 15.8316 39.0027 15.5381 38.4933 15.4517L38.122 15.3826L37.7161 15.9093C36.1619 17.8867 34.9185 21.9881 35.0912 24.5267C35.1257 25.0103 35.1516 25.5456 35.143 25.7097C35.143 25.8737 35.1257 26.34 35.1171 26.7458C35.0998 27.2207 35.048 27.5747 34.953 27.7388C34.6767 28.2569 35.1171 30.1651 35.7388 31.1236C36.6541 32.531 37.9924 33.1873 39.9352 33.17C43.4927 33.1441 47.361 30.4414 48.5267 27.1516L48.6908 26.7026V27.2466C48.7167 29.4485 49.3038 31.4344 50.2795 32.626C51.048 33.5672 52.3778 34.2666 53.6471 34.3961C54.3033 34.4652 54.4587 34.3788 54.7437 33.8262C55.0113 33.2995 55.0459 32.9196 54.8473 32.6433C54.3465 31.9266 53.8025 30.476 53.6212 29.3362C53.5003 28.5418 53.5175 26.5213 53.6557 25.4506C53.7852 24.5094 54.0788 23.1106 54.8214 19.9245C55.4862 17.0405 55.5553 16.6087 55.5553 14.9595C55.5639 14.0443 55.5208 13.3103 55.4517 13.0081C55.3395 12.5246 55.3395 12.5159 54.9336 12.4123C54.5105 12.3001 53.0513 12.2223 52.6713 12.2914ZM54.2256 21.5305C54.2256 21.8241 54.191 21.9881 54.1392 21.9536C54.0961 21.9277 54.0529 21.6859 54.0529 21.4269C54.0529 21.1333 54.0874 20.9692 54.1392 21.0038C54.191 21.0297 54.2256 21.2715 54.2256 21.5305ZM35.8251 29.293C35.8251 29.4485 35.8165 29.4398 35.7129 29.2499C35.6525 29.129 35.5747 28.8958 35.5488 28.7318L35.497 28.4296L35.6611 28.775C35.7561 28.9649 35.8251 29.1981 35.8251 29.293Z" fill="#1C1B17"/>
<path d="M14.9121 12.4641C14.843 12.5332 14.938 12.7577 15.0329 12.7577C15.0761 12.7577 15.1106 12.68 15.1106 12.585C15.1106 12.4209 15.0157 12.3605 14.9121 12.4641Z" fill="#1C1B17"/>
<path d="M69.4744 13.3189C69.4139 13.483 69.5866 13.9838 69.6902 13.9147C69.837 13.8284 69.7507 13.1894 69.5952 13.1894C69.5607 13.1894 69.5089 13.2499 69.4744 13.3189Z" fill="#1C1B17"/>
<path d="M80.449 14.571C80.3627 14.7091 80.3195 14.83 80.3627 14.83C80.5008 14.8214 80.8289 14.4846 80.7771 14.3983C80.6908 14.2515 80.6044 14.2947 80.449 14.571Z" fill="#1C1B17"/>
<path d="M32.4835 16.7814C31.197 17.1268 30.6012 18.0076 29.9536 20.5116C29.5909 21.9536 29.306 22.7739 29.1765 22.7739C29.1333 22.7739 29.116 22.6703 29.1419 22.5321C29.1765 22.3422 29.1592 22.3594 29.0642 22.6012C28.9174 22.9639 28.8915 23.292 29.0124 23.292C29.0642 23.292 29.0988 23.2056 29.1074 23.0934C29.116 22.9466 29.1333 22.9639 29.211 23.1884C29.2887 23.4474 29.211 23.7323 29.1247 23.4819C29.0642 23.3351 28.8397 23.3524 28.8397 23.5078C28.8397 23.5769 28.9606 23.8014 29.0988 24L29.3578 24.354L29.1765 24.5526C29.0038 24.734 28.9865 24.8376 29.0038 25.7183C29.0124 26.4522 28.9865 26.7286 28.8915 26.884C28.7706 27.0567 28.7706 27.1171 28.8915 27.4107C29.021 27.7129 29.021 27.8165 28.8915 28.6886C28.7534 29.5348 28.7534 29.6816 28.8656 30.0529C28.9865 30.4328 28.9865 30.4587 28.857 30.4415C28.667 30.4069 28.6929 30.7091 28.9347 31.5121C29.1247 32.177 29.1419 32.1857 30.3076 32.6001C32.2936 33.2995 33.4074 33.1096 33.442 32.0475C33.4593 31.6503 33.4506 31.633 33.0707 31.4085C32.5958 31.1322 32.5785 31.0631 32.5613 29.4312C32.5526 28.0238 32.6476 27.238 33.2002 24.4145C33.7356 21.7032 33.8564 20.8138 33.8564 19.6136C33.8564 18.517 33.7356 17.7658 33.4247 17.0491C33.2261 16.6001 33.1916 16.5828 32.4835 16.7814Z" fill="#1C1B17"/>
<path d="M70.6314 17.5845C70.6314 17.9817 70.6487 18.0335 70.7609 17.9385C70.925 17.8003 70.925 17.4981 70.7609 17.2823C70.6487 17.1355 70.64 17.1527 70.6314 17.5845Z" fill="#1C1B17"/>
<path d="M75.0351 21.8068C74.612 21.8586 74.5602 21.9104 74.7501 22.0399C74.9574 22.1867 75.1646 22.1349 75.2423 21.9363C75.3114 21.7723 75.3027 21.7636 75.0351 21.8068Z" fill="#1C1B17"/>
<path d="M28.667 24.5008C28.667 24.5958 28.7275 24.6735 28.7965 24.6735C28.8656 24.6735 28.9261 24.5958 28.9261 24.5008C28.9261 24.4058 28.8656 24.3281 28.7965 24.3281C28.7275 24.3281 28.667 24.4058 28.667 24.5008Z" fill="#1C1B17"/>
<path d="M28.5893 25.7701C28.4598 26.2105 28.4684 26.4436 28.6152 26.5645C28.7102 26.6422 28.7447 26.599 28.7879 26.34C28.9088 25.5801 28.7534 25.157 28.5893 25.7701Z" fill="#1C1B17"/>
</svg>
