<svg width="24" height="24" viewBox="0 0 24 24" fill="none" xmlns="http://www.w3.org/2000/svg">
<mask id="mask0_2002_2" style="mask-type:luminance" maskUnits="userSpaceOnUse" x="0" y="0" width="24" height="24">
<path d="M24 0H0V24H24V0Z" fill="white"/>
</mask>
<g mask="url(#mask0_2002_2)">
<path d="M12 0C8.81815 0 5.76375 1.26506 3.51562 3.51469C1.26518 5.7652 0.000623381 8.81733 0 12C0 15.1813 1.26562 18.2357 3.51562 20.4853C5.76375 22.7349 8.81815 24 12 24C15.1819 24 18.2362 22.7349 20.4843 20.4853C22.7344 18.2357 24 15.1813 24 12C24 8.8187 22.7344 5.76431 20.4843 3.51469C18.2362 1.26506 15.1819 0 12 0Z" fill="url(#paint0_linear_2002_2)"/>
<path d="M5.43184 11.8733C8.93058 10.3493 11.2631 9.34442 12.4294 8.859C15.7631 7.47283 16.455 7.23208 16.9069 7.22392C17.0062 7.22234 17.2274 7.24689 17.3719 7.3636C17.4919 7.46206 17.5256 7.59516 17.5425 7.68862C17.5575 7.78202 17.5781 7.9948 17.5613 8.16094C17.3813 10.0585 16.5993 14.6631 16.2018 16.7884C16.035 17.6876 15.7031 17.9892 15.3825 18.0186C14.685 18.0827 14.1562 17.558 13.4813 17.1158C12.4256 16.4233 11.8294 15.9924 10.8037 15.3169C9.61869 14.5361 10.3874 14.1069 11.0625 13.4057C11.2387 13.2221 14.3099 10.4293 14.3681 10.176C14.3756 10.1443 14.3831 10.0262 14.3119 9.96396C14.2425 9.90149 14.1393 9.92289 14.0643 9.93976C13.9575 9.96376 12.2719 11.079 9.00182 13.2853C8.52374 13.6142 8.09058 13.7745 7.70061 13.766C7.27307 13.7569 6.44809 13.5238 5.83497 13.3247C5.08497 13.0804 4.48684 12.9512 4.53934 12.5363C4.56559 12.3203 4.86371 12.0992 5.43184 11.8733Z" fill="white"/>
</g>
<defs>
<linearGradient id="paint0_linear_2002_2" x1="12" y1="0" x2="12" y2="24" gradientUnits="userSpaceOnUse">
<stop stop-color="#2AABEE"/>
<stop offset="1" stop-color="#229ED9"/>
</linearGradient>
</defs>
</svg>
