<svg width="24" height="24" viewBox="0 0 24 24" fill="none" xmlns="http://www.w3.org/2000/svg">
<g clip-path="url(#clip0_150_186)">
<path d="M0.100027 11.8919C0.0994444 13.9875 0.649493 16.0338 1.69541 17.8375L0 24L6.33492 22.3464C8.08705 23.296 10.0502 23.7936 12.0452 23.7937H12.0505C18.6362 23.7937 23.9972 18.4587 24 11.9013C24.0013 8.72369 22.7594 5.73575 20.503 3.48778C18.2471 1.24 15.2468 0.00144963 12.05 0C5.46342 0 0.102746 5.33473 0.100027 11.8919Z" fill="url(#paint0_linear_150_186)"/>
<path d="M8.73279 6.86128C8.50911 6.37792 8.27371 6.36816 8.06093 6.35969C7.88676 6.3524 7.68763 6.35295 7.4887 6.35295C7.28957 6.35295 6.96605 6.42577 6.69259 6.71607C6.41883 7.00662 5.64746 7.70882 5.64746 9.13702C5.64746 10.5652 6.71741 11.9455 6.86662 12.1394C7.0159 12.3328 8.9322 15.3574 11.967 16.521C14.4893 17.488 15.0026 17.2956 15.55 17.2472C16.0975 17.1988 17.3166 16.5452 17.5653 15.8673C17.8143 15.1896 17.8143 14.6086 17.7396 14.4872C17.665 14.3662 17.4658 14.2936 17.1673 14.1485C16.8686 14.0033 15.4007 13.301 15.127 13.2041C14.8533 13.1073 14.6542 13.059 14.4551 13.3497C14.2559 13.6399 13.6842 14.2936 13.5099 14.4872C13.3358 14.6812 13.1615 14.7054 12.8631 14.5602C12.5642 14.4146 11.6026 14.1084 10.4618 13.1196C9.57416 12.3501 8.97492 11.3999 8.80075 11.1092C8.62657 10.819 8.78209 10.6617 8.93179 10.517C9.06598 10.387 9.23048 10.1781 9.3799 10.0086C9.52884 9.83908 9.57848 9.71815 9.67805 9.52455C9.77768 9.33075 9.72783 9.16122 9.65329 9.01602C9.57848 8.87082 8.9983 7.43522 8.73279 6.86128Z" fill="white"/>
</g>
<defs>
<linearGradient id="paint0_linear_150_186" x1="12" y1="24" x2="12" y2="0" gradientUnits="userSpaceOnUse">
<stop stop-color="#1FAF38"/>
<stop offset="1" stop-color="#60D669"/>
</linearGradient>
<clipPath id="clip0_150_186">
<rect width="24" height="24" fill="white"/>
</clipPath>
</defs>
</svg>
