<?xml version="1.0" standalone="no"?>
<!DOCTYPE svg PUBLIC "-//W3C//DTD SVG 20010904//EN"
 "http://www.w3.org/TR/2001/REC-SVG-20010904/DTD/svg10.dtd">
<svg version="1.0" xmlns="http://www.w3.org/2000/svg"
 width="2176.000000pt" height="2176.000000pt" viewBox="0 0 2176.000000 2176.000000"
 preserveAspectRatio="xMidYMid meet">
<metadata>
Created by potrace 1.14, written by Peter Selinger 2001-2017
</metadata>
<g transform="translate(0.000000,2176.000000) scale(0.100000,-0.100000)"
fill="#000000" stroke="none">
<path d="M14467 14073 c-1 0 -81 -4 -177 -7 -194 -8 -320 -13 -485 -21 -60 -3
-150 -8 -200 -10 -49 -3 -124 -7 -165 -10 -80 -5 -253 -14 -360 -20 -36 -2
-105 -6 -155 -9 -49 -4 -126 -9 -170 -11 -44 -2 -118 -7 -165 -10 -106 -7
-190 -13 -305 -19 -49 -3 -117 -8 -150 -10 -33 -3 -100 -8 -150 -11 -49 -3
-119 -8 -155 -11 -36 -3 -99 -7 -140 -9 -41 -2 -104 -6 -140 -9 -65 -6 -150
-12 -290 -21 -41 -3 -106 -8 -145 -11 -38 -3 -99 -7 -135 -9 -36 -2 -101 -7
-145 -10 -114 -10 -168 -14 -265 -20 -47 -2 -107 -7 -135 -9 -27 -3 -84 -7
-125 -11 -165 -12 -217 -16 -270 -20 -30 -2 -88 -7 -129 -10 -41 -3 -102 -8
-135 -10 -80 -6 -202 -15 -246 -20 -19 -2 -85 -6 -146 -9 -61 -4 -121 -9 -133
-11 -12 -2 -65 -7 -117 -10 -53 -3 -112 -7 -132 -10 -21 -2 -75 -7 -122 -10
-47 -3 -105 -8 -130 -10 -25 -3 -85 -7 -135 -10 -49 -2 -100 -7 -111 -9 -12
-2 -66 -7 -120 -11 -55 -3 -115 -8 -134 -10 -19 -1 -73 -6 -120 -9 -87 -7
-127 -10 -240 -21 -36 -3 -92 -7 -125 -10 -138 -11 -189 -16 -197 -21 -4 -3
-8 0 -8 6 0 6 -5 8 -11 4 -13 -7 -28 -9 -279 -29 -36 -3 -87 -8 -115 -10 -27
-3 -75 -7 -105 -10 -30 -2 -84 -7 -120 -10 -36 -3 -94 -8 -130 -10 -36 -3 -90
-8 -120 -10 -30 -3 -84 -8 -120 -10 -36 -3 -84 -7 -107 -10 -24 -2 -78 -7
-120 -10 -43 -3 -96 -7 -118 -10 -22 -2 -74 -7 -115 -10 -41 -3 -91 -8 -110
-10 -30 -4 -81 -8 -240 -20 -19 -2 -64 -6 -100 -9 -74 -7 -176 -16 -235 -21
-22 -2 -74 -6 -115 -10 -41 -3 -95 -8 -120 -10 -173 -15 -185 -16 -330 -31
-36 -3 -85 -8 -110 -9 -63 -5 -155 -13 -220 -20 -30 -3 -80 -7 -110 -10 -55
-4 -167 -15 -225 -21 -16 -1 -66 -6 -110 -9 -44 -4 -93 -8 -110 -10 -16 -2
-59 -6 -95 -9 -95 -9 -157 -14 -230 -22 -36 -3 -83 -7 -105 -9 -40 -3 -134
-12 -210 -20 -22 -2 -71 -7 -110 -10 -38 -4 -90 -8 -115 -11 -25 -2 -70 -7
-100 -9 -30 -3 -75 -8 -100 -10 -25 -3 -74 -7 -110 -11 -36 -3 -81 -7 -100 -9
-19 -2 -66 -7 -105 -10 -38 -3 -92 -8 -120 -11 -27 -3 -63 -7 -80 -9 -67 -6
-182 -17 -210 -20 -16 -2 -64 -6 -105 -10 -41 -3 -86 -8 -100 -10 -14 -2 -56
-7 -95 -10 -38 -3 -86 -7 -105 -9 -37 -5 -115 -13 -190 -21 -25 -2 -72 -7
-105 -10 -76 -8 -103 -11 -195 -20 -41 -3 -86 -8 -100 -10 -14 -3 -53 -7 -87
-10 -35 -2 -75 -7 -90 -9 -16 -2 -55 -7 -88 -11 -33 -3 -78 -8 -101 -11 -22
-3 -62 -7 -90 -9 -27 -2 -49 -4 -49 -5 0 -3 -40 -9 -94 -14 -53 -5 -77 -8
-183 -22 -24 -3 -68 -7 -98 -10 -31 -3 -58 -11 -62 -19 -9 -15 -49 -12 -117
11 -43 14 -101 11 -101 -6 0 -20 95 -45 215 -56 33 -3 71 -7 85 -9 14 -2 42
-3 63 -4 20 -1 37 -5 37 -9 0 -8 -39 -13 -127 -15 -24 -1 -43 -5 -43 -10 0 -4
-8 -3 -19 2 -10 6 -20 9 -22 7 -2 -3 -46 -7 -98 -9 -133 -8 -142 -38 -26 -88
53 -23 69 -47 29 -42 -86 10 -104 11 -109 3 -6 -10 12 -23 35 -26 8 -1 26 -5
40 -8 14 -4 54 -8 90 -11 269 -17 263 -17 310 -41 3 -1 12 1 20 6 11 7 10 11
-3 25 -17 17 -24 40 -9 31 10 -6 44 -13 152 -32 31 -6 101 -10 210 -14 31 -1
145 6 225 14 17 1 41 6 55 10 54 16 60 17 60 6 0 -7 -39 -80 -86 -163 -141
-248 -148 -262 -145 -266 1 -2 -1 -7 -6 -10 -14 -10 -45 -71 -36 -71 4 0 3 -4
-3 -8 -15 -10 -203 -380 -196 -386 3 -4 0 -6 -6 -6 -7 0 -12 -4 -12 -9 0 -5
-31 -74 -68 -153 -89 -187 -161 -350 -207 -468 -20 -52 -40 -104 -45 -115 -5
-11 -23 -63 -41 -115 -18 -52 -37 -106 -42 -120 -6 -14 -11 -30 -13 -36 -1 -7
-18 -63 -37 -125 -45 -144 -109 -382 -123 -455 -2 -12 -13 -66 -24 -120 -12
-55 -23 -115 -26 -134 -3 -19 -9 -60 -14 -90 -11 -64 -17 -112 -25 -195 -4
-33 -8 -66 -11 -73 -17 -55 -27 -819 -11 -894 8 -40 22 -50 202 -148 62 -33
160 -73 191 -77 31 -4 33 -3 44 39 6 24 15 57 20 73 4 17 12 48 16 70 11 59
12 63 23 114 6 25 13 61 16 80 3 19 7 37 9 40 4 5 14 56 21 106 2 11 4 20 5
20 1 0 3 7 5 15 1 8 10 51 19 95 10 44 19 89 22 100 2 11 7 34 11 50 4 17 6
33 5 37 -1 4 2 18 7 31 5 13 12 41 15 63 12 72 17 97 21 104 2 4 7 21 10 39 3
17 21 103 40 189 18 87 37 171 40 188 7 33 13 57 15 64 1 3 3 10 4 15 5 32 29
135 36 160 5 17 12 46 16 65 3 19 8 44 10 55 2 11 19 83 39 160 19 77 37 149
39 160 2 11 12 49 21 85 9 36 19 72 20 80 2 8 4 15 5 15 1 0 3 8 5 19 9 48 28
123 35 136 5 8 10 29 13 45 3 17 12 51 20 78 8 26 13 47 11 47 -2 0 1 12 7 28
6 15 13 35 15 45 6 26 11 45 34 122 12 39 23 77 25 85 8 30 86 275 92 290 4 8
8 22 9 30 5 32 144 405 164 442 6 10 10 23 10 29 0 6 13 40 30 76 16 35 30 66
30 69 0 15 158 335 180 363 11 14 32 22 71 25 86 9 168 15 239 20 36 3 90 7
120 10 74 8 149 14 240 21 91 7 139 11 250 21 47 5 102 8 122 9 21 0 38 2 38
5 0 3 19 5 43 6 39 0 161 10 252 19 22 3 71 7 110 10 38 3 90 7 115 9 25 3 81
8 125 11 44 3 98 8 120 10 47 6 157 15 235 20 30 2 82 6 115 9 33 4 85 8 115
11 30 3 82 7 115 10 119 11 171 15 225 19 30 3 71 7 90 10 19 3 69 8 110 11
41 3 91 7 110 9 34 4 153 16 215 21 63 5 172 16 205 20 104 13 130 16 180 20
30 3 71 7 90 10 19 2 69 9 110 14 126 17 154 22 186 32 17 5 42 12 55 15 63
13 176 36 194 38 51 8 183 28 205 31 14 3 61 9 105 15 111 15 137 20 148 27 6
4 7 1 2 -7 -5 -8 -4 -11 2 -7 15 9 94 22 193 32 36 4 76 8 90 10 44 6 134 18
160 20 34 4 126 15 175 21 22 3 60 7 85 9 47 4 120 12 180 20 73 10 117 15
180 21 36 3 79 8 95 10 17 2 53 6 81 9 28 2 71 7 95 10 24 3 69 8 99 11 73 7
104 11 170 18 30 4 73 9 95 11 124 12 163 16 195 20 33 4 96 11 185 20 49 6
135 14 195 20 69 7 151 16 190 21 19 3 60 6 91 8 52 4 76 6 199 21 25 3 70 8
100 10 30 3 69 7 85 9 17 2 62 7 100 10 39 4 86 9 105 11 69 8 156 17 190 20
19 2 58 6 85 9 58 7 164 17 215 21 34 3 137 14 193 20 15 2 62 7 105 11 110
10 127 12 127 13 0 1 29 4 65 6 36 3 81 8 100 11 19 3 42 6 50 6 8 0 56 4 105
9 50 5 110 11 135 14 126 12 167 17 190 20 14 2 59 6 100 10 41 3 91 8 110 10
46 6 141 16 295 31 28 2 64 6 80 8 17 2 66 6 110 10 44 4 91 9 105 11 23 4 87
10 200 21 25 2 63 6 85 9 38 4 136 14 200 20 47 4 165 16 215 20 25 3 63 7 85
10 46 6 108 13 192 20 32 3 78 8 103 11 25 3 65 7 90 9 52 4 136 13 200 20 85
9 125 14 190 20 36 3 81 8 101 11 20 2 56 7 80 9 24 2 71 7 104 10 33 4 71 8
85 10 14 3 54 7 90 10 36 3 79 7 95 9 17 2 57 6 90 10 161 18 208 24 255 31
14 2 54 6 90 9 36 4 76 8 90 11 14 2 45 7 70 9 25 3 61 7 80 10 87 13 188 27
220 31 31 4 103 16 123 21 4 1 16 2 27 3 11 0 20 6 20 11 0 7 -90 9 -256 8
-141 -2 -256 -4 -257 -5z"/>
<path d="M19203 13517 c-79 -53 -200 -183 -229 -246 -9 -20 -22 -43 -29 -51
-35 -41 -269 -505 -261 -518 6 -10 -30 -89 -55 -117 -9 -11 -24 -38 -33 -60
-13 -35 -69 -252 -83 -325 -8 -40 -11 -55 -13 -55 -1 0 -3 -9 -4 -20 -2 -11
-11 -51 -20 -90 -10 -38 -20 -81 -22 -94 -3 -12 -12 -53 -20 -90 -9 -36 -17
-75 -18 -86 -2 -11 -6 -29 -9 -40 -3 -11 -8 -31 -11 -45 -2 -14 -12 -59 -21
-100 -9 -41 -18 -85 -21 -97 -6 -32 -12 -64 -18 -93 -14 -64 -17 -77 -21 -100
-9 -40 -25 -123 -30 -150 -3 -14 -7 -36 -10 -50 -3 -14 -8 -40 -11 -59 -3 -18
-8 -43 -10 -55 -2 -11 -7 -36 -10 -55 -3 -18 -8 -43 -10 -55 -5 -26 -45 -271
-49 -306 -9 -69 -25 -179 -30 -211 -3 -20 -7 -58 -9 -85 -2 -27 -7 -69 -10
-94 -6 -44 -10 -90 -23 -260 -15 -187 -8 -646 12 -790 2 -19 7 -53 10 -75 3
-22 8 -51 11 -65 3 -14 6 -32 6 -40 1 -23 47 -225 57 -253 28 -73 172 -140
301 -140 115 0 235 51 302 127 33 38 78 125 78 153 0 24 25 48 40 38 6 -4 16
8 24 27 7 18 17 42 21 53 5 11 9 22 10 25 1 3 5 13 8 23 15 38 20 52 23 62 5
18 138 340 176 425 11 25 27 61 35 80 8 19 19 42 24 50 5 8 12 22 15 30 29 73
105 231 125 260 9 14 17 27 16 30 0 3 16 38 36 78 33 65 57 110 118 219 18 31
157 249 171 268 5 6 42 55 83 110 42 55 86 112 98 126 12 14 40 48 62 75 71
88 328 338 420 409 50 38 92 72 95 75 3 3 32 23 65 45 33 22 64 43 70 48 18
13 169 101 210 122 22 11 42 22 45 25 11 11 78 38 83 33 3 -3 2 -15 -3 -26 -7
-18 -31 -99 -35 -117 -1 -6 2 2 -115 -355 -51 -154 -94 -288 -96 -297 -8 -35
-13 -55 -43 -156 -16 -57 -32 -120 -36 -140 -3 -20 -7 -48 -10 -62 -11 -57
-22 -220 -26 -385 -3 -100 48 -378 86 -476 8 -20 12 -38 10 -40 -1 -2 3 -10
11 -17 12 -11 14 -10 14 3 0 21 19 19 27 -2 14 -38 63 -107 121 -172 18 -20
51 -64 73 -97 38 -58 44 -63 107 -84 37 -12 76 -24 87 -26 11 -2 45 -9 75 -15
72 -16 165 -18 213 -6 44 11 78 53 72 88 -3 13 -7 34 -9 47 -3 13 -16 46 -30
75 -67 138 -85 251 -81 497 1 102 5 194 8 205 2 11 8 45 13 75 4 30 8 57 9 60
1 3 5 25 9 50 5 25 10 54 13 65 2 11 6 29 7 40 2 11 13 65 24 120 12 55 23
111 26 125 4 22 10 49 31 150 11 56 25 127 30 155 3 17 7 41 10 55 3 14 7 36
10 50 3 14 7 36 10 50 7 34 15 88 21 146 8 70 12 317 5 329 -6 11 -6 11 -16
75 -21 143 -117 288 -250 381 -44 31 -153 87 -173 90 -4 0 -12 5 -18 10 -7 5
-24 8 -38 5 -46 -8 -148 -17 -221 -20 -62 -2 -82 -8 -175 -55 -58 -29 -110
-57 -117 -63 -7 -6 -13 -7 -13 -4 0 4 -6 2 -12 -4 -7 -6 -47 -30 -88 -53 -108
-62 -124 -71 -130 -77 -3 -3 -32 -24 -65 -46 -77 -50 -157 -106 -171 -119 -6
-5 -25 -21 -43 -35 -35 -27 -43 -34 -117 -95 -137 -115 -357 -338 -492 -500
-9 -12 -38 -45 -63 -75 -25 -30 -96 -122 -157 -205 -61 -82 -121 -163 -134
-179 -13 -16 -25 -34 -28 -40 -3 -6 -65 -100 -137 -209 -73 -109 -133 -200
-133 -202 0 -2 -24 -42 -54 -88 -30 -45 -60 -95 -67 -110 -6 -14 -15 -24 -19
-22 -10 6 -1 204 15 307 2 13 6 45 10 71 4 27 8 57 10 66 2 10 6 42 10 72 4
30 8 56 10 59 2 3 6 27 9 53 4 26 11 71 17 100 6 29 12 66 15 82 2 17 6 41 9
55 8 36 20 111 30 180 1 14 5 39 8 55 7 41 17 103 23 145 19 141 23 177 24
192 0 9 6 23 13 30 24 26 52 115 82 263 3 18 29 132 40 180 3 11 7 29 9 40 2
11 9 40 15 65 5 25 12 57 15 73 3 15 8 37 11 50 3 12 7 31 9 42 2 11 9 38 14
60 6 22 13 51 16 65 7 38 76 313 83 330 3 8 7 21 9 27 12 61 65 229 99 319 53
136 145 334 157 334 4 0 8 6 8 13 0 21 51 69 67 63 29 -11 145 -36 169 -36 13
0 24 4 24 10 0 21 -58 71 -125 108 -77 43 -107 77 -107 116 0 24 -4 26 -39 26
-32 0 -41 4 -49 24 -6 17 -19 26 -47 31 -21 3 -47 15 -59 26 -21 20 -21 20
-71 -14z m-167 -3685 c-16 -45 -40 -99 -111 -247 -97 -204 -187 -398 -189
-410 -5 -23 -60 -135 -66 -135 -9 0 8 86 31 159 18 57 90 220 126 286 18 33
43 80 55 105 13 25 25 47 28 50 3 3 16 28 30 55 14 28 27 52 30 55 3 3 12 19
20 35 8 17 18 32 21 35 3 3 11 15 18 28 18 34 22 26 7 -16z m-780 -1127 c4 -8
10 -15 16 -15 15 0 39 -28 29 -34 -10 -7 -73 34 -79 52 -5 17 27 15 34 -3z"/>
<path d="M14179 12986 c-2 -2 -26 -7 -52 -10 -115 -16 -340 -113 -285 -124 28
-5 2 -47 -40 -62 -20 -7 -59 -36 -87 -64 -28 -29 -68 -57 -90 -65 -22 -8 -81
-40 -131 -72 -51 -32 -104 -61 -118 -65 -31 -8 -33 -25 -5 -42 20 -13 19 -15
-43 -55 -97 -64 -101 -66 -125 -77 -13 -5 -23 -14 -23 -20 0 -5 -3 -9 -7 -8
-13 4 -323 -217 -353 -251 -3 -4 -34 -31 -70 -61 -125 -106 -270 -247 -405
-395 -49 -54 -97 -105 -105 -114 -8 -9 -35 -41 -60 -71 -25 -30 -51 -61 -58
-69 -13 -13 -119 -145 -134 -166 -4 -5 -20 -26 -36 -45 -57 -70 -268 -362
-347 -480 -16 -25 -35 -51 -42 -58 -6 -6 -15 -21 -18 -32 -3 -11 -11 -20 -16
-20 -5 0 -9 -5 -9 -11 0 -6 -11 -25 -25 -43 -33 -41 -37 -46 -59 -80 -18 -28
-37 -25 -42 6 -5 34 -15 152 -20 233 -7 113 -10 146 -18 215 -8 63 -34 172
-44 182 -4 4 -8 -102 -10 -235 -4 -372 -6 -388 -39 -354 -16 16 -18 15 -31
-16 l-13 -32 -14 26 c-13 23 -20 73 -16 107 2 19 25 14 39 -8 17 -28 42 -26
42 4 0 24 -17 47 -45 63 -11 7 -14 95 -19 463 -3 250 -8 474 -12 498 -9 65
-20 97 -32 95 -9 -2 -21 19 -27 47 -3 14 -78 176 -107 233 -11 20 -20 53 -21
72 -1 19 -4 35 -7 36 -3 0 -18 3 -35 5 -35 6 -36 7 -39 29 -4 25 -24 33 -60
24 -182 -46 -353 -145 -496 -289 -78 -77 -210 -240 -210 -258 0 -6 -4 -12 -8
-14 -5 -1 -77 -104 -160 -228 -157 -234 -263 -372 -270 -352 -2 7 20 85 49
174 29 90 54 166 55 171 1 4 2 8 4 10 1 1 3 9 5 17 2 8 7 26 10 40 12 48 16
75 19 110 3 32 24 80 36 80 19 2 41 33 45 66 2 22 7 62 9 89 13 120 88 264
228 438 15 19 22 40 22 65 -2 39 -36 107 -58 115 -23 9 -265 -249 -389 -413
-65 -87 -167 -237 -167 -247 0 -3 -8 -17 -19 -31 -115 -166 -306 -605 -409
-942 -37 -122 -113 -419 -127 -495 -2 -16 -7 -41 -10 -55 -5 -23 -8 -38 -19
-95 -4 -21 -17 -105 -21 -140 -2 -11 -6 -40 -9 -65 -19 -131 -17 -116 -30
-260 -14 -145 -25 -317 -31 -482 l-5 -117 32 1 c18 0 62 -11 98 -26 138 -59
172 -69 230 -68 62 0 70 2 70 14 0 11 91 208 110 238 6 8 14 24 19 35 5 11 26
56 46 100 32 69 68 148 145 320 10 22 44 101 75 175 31 74 66 154 76 177 10
23 19 44 19 48 0 3 9 24 19 48 11 23 45 103 77 177 62 148 84 198 113 263 58
127 90 198 90 202 3 29 297 585 320 605 8 6 29 41 38 60 4 8 9 17 12 20 3 3
23 30 43 61 52 77 98 126 129 138 18 6 28 19 32 40 4 21 16 35 39 47 18 9 39
25 46 35 19 28 60 24 72 -5 5 -13 11 -102 14 -197 4 -95 8 -175 11 -177 2 -3
0 -13 -6 -23 -5 -11 -6 -19 -2 -19 4 0 8 -35 9 -78 1 -111 14 -488 19 -547 6
-81 14 -160 15 -160 2 0 4 -12 13 -55 20 -96 72 -187 149 -262 49 -47 159
-130 178 -134 3 0 23 -9 45 -19 40 -19 150 -25 222 -13 81 15 216 103 298 197
16 19 42 48 57 65 15 17 28 34 28 38 0 4 6 13 13 20 6 8 22 33 35 56 l23 42
-27 0 c-23 0 -25 2 -14 15 24 29 1 28 -37 -1 -50 -38 -65 -53 -90 -94 -31 -48
-73 -96 -73 -81 0 39 149 361 171 369 5 2 9 10 9 17 0 8 6 20 13 27 6 7 38 51
69 98 75 112 200 269 357 450 22 25 68 79 103 120 34 41 74 86 88 101 25 26
93 105 140 163 14 16 37 43 52 59 15 16 42 47 60 70 48 59 78 85 106 92 14 3
37 15 50 26 37 28 46 23 24 -13 -20 -34 -19 -58 1 -58 6 0 53 44 104 97 l93
97 -21 22 c-24 26 -17 33 29 29 26 -2 45 6 80 33 26 19 49 38 52 42 14 18 81
62 87 56 4 -3 0 -12 -9 -19 -8 -6 -18 -20 -21 -30 -6 -15 -4 -16 16 -6 24 13
96 67 112 85 14 15 148 120 215 169 89 65 128 90 253 160 36 21 46 13 40 -32
-7 -64 -10 -67 -39 -48 -32 21 -44 12 -76 -58 -30 -64 -51 -110 -53 -117 -1
-3 -9 -23 -19 -45 -46 -103 -136 -356 -136 -380 0 -8 9 -15 19 -15 22 0 72
-39 54 -41 -7 -1 -26 -2 -42 -3 -38 -1 -43 -8 -47 -53 -1 -21 -3 -38 -4 -38
-1 0 -3 -18 -5 -40 -1 -22 -5 -57 -9 -77 -3 -21 -8 -53 -11 -70 -2 -18 -7 -44
-10 -58 -3 -14 -7 -44 -10 -68 -2 -23 -9 -68 -14 -100 -6 -31 -13 -75 -16 -97
-4 -22 -9 -53 -12 -70 -2 -16 -6 -39 -8 -50 -1 -11 -5 -33 -8 -50 -3 -16 -9
-55 -12 -85 -4 -30 -9 -64 -11 -75 -18 -89 -16 -115 7 -135 13 -11 36 -27 52
-35 24 -14 38 -37 20 -34 -24 4 -63 -2 -63 -10 0 -5 15 -16 33 -25 l32 -16
-52 0 c-37 0 -53 -4 -53 -13 0 -19 21 -37 42 -37 10 0 18 -5 18 -11 0 -5 5 -7
10 -4 15 9 12 -12 -10 -101 -11 -43 -23 -101 -26 -129 -3 -27 -7 -53 -9 -56
-8 -12 -19 -232 -18 -374 0 -180 2 -241 14 -320 4 -33 11 -80 14 -105 3 -25 7
-56 10 -70 9 -47 15 -75 20 -105 4 -16 13 -59 22 -94 8 -36 16 -72 18 -80 7
-32 46 -166 52 -181 3 -8 7 -17 8 -20 9 -35 40 -120 51 -137 8 -12 38 -38 68
-57 53 -34 83 -56 115 -86 40 -37 160 -129 200 -154 46 -29 89 -42 152 -45 15
-1 42 -70 42 -107 0 -8 4 -14 9 -14 5 0 7 -4 4 -8 -7 -12 45 -198 98 -352 15
-41 28 -82 30 -90 3 -8 5 -17 6 -20 1 -3 2 -9 1 -13 -1 -4 29 -22 66 -38 38
-16 77 -34 88 -39 47 -22 193 -73 222 -77 47 -7 138 40 141 73 2 22 -43 95
-71 115 -5 3 -8 8 -6 10 1 2 -9 22 -23 44 -30 49 -106 225 -110 257 -2 13 -6
28 -10 33 -3 6 -9 37 -13 70 -4 33 -9 72 -11 87 -24 191 -19 611 11 853 6 43
12 144 20 315 3 58 8 124 12 147 l8 42 78 -39 c43 -22 106 -55 140 -73 71 -40
210 -111 217 -112 3 0 28 -11 55 -24 179 -82 355 -137 490 -155 22 -2 47 -7
55 -10 28 -11 235 -13 300 -4 103 14 219 39 320 68 25 8 51 14 58 16 26 5 208
66 239 80 17 8 35 14 40 14 28 0 254 135 283 169 3 3 21 18 40 33 36 27 54 43
149 126 192 166 435 410 510 510 114 152 217 375 237 513 3 19 7 45 9 59 4 20
5 157 3 230 -1 13 -25 145 -32 175 -22 89 -69 198 -135 312 -45 79 -158 199
-261 278 -103 78 -193 129 -360 203 -59 26 -232 78 -307 92 -32 5 -69 12 -83
15 -26 5 -95 14 -165 21 -53 5 -330 5 -380 -1 -116 -13 -148 -17 -240 -36 -98
-20 -170 -39 -230 -62 -16 -7 -33 -12 -37 -13 -5 -1 -10 -3 -13 -4 -3 -1 -8
-3 -12 -5 -42 -11 -235 -106 -268 -130 -37 -28 -102 -65 -115 -65 -14 0 3 38
41 96 43 63 42 62 82 109 115 136 165 240 153 322 -3 25 -8 48 -10 51 -13 13
-296 -82 -296 -99 0 -5 -5 -9 -11 -9 -38 0 -213 -155 -296 -263 -94 -121 -238
-379 -278 -497 -1 -3 -5 -14 -9 -25 -4 -11 -17 -45 -28 -75 -11 -30 -26 -71
-33 -90 -8 -19 -35 -96 -60 -170 -26 -74 -49 -142 -52 -150 -4 -8 -7 -17 -8
-20 0 -3 -12 -36 -25 -75 -13 -38 -25 -72 -25 -75 -1 -3 -5 -14 -9 -25 -16
-41 -19 -50 -21 -61 -2 -6 -34 -108 -73 -225 -122 -370 -151 -472 -166 -589
-3 -25 -8 -56 -10 -70 -21 -124 -30 -313 -30 -595 0 -244 4 -334 20 -495 14
-147 14 -146 -1 -126 -8 11 -15 26 -15 33 0 8 -7 27 -15 43 -8 15 -31 90 -50
165 -39 144 -41 156 -51 219 -3 22 -7 43 -9 46 -2 3 -6 26 -10 50 -3 25 -8 52
-10 60 -2 8 -7 40 -11 70 -3 30 -8 71 -11 90 -14 115 -17 218 -17 500 0 276 6
455 18 540 2 14 7 59 11 100 4 41 9 84 11 95 3 11 6 38 9 60 9 83 22 170 25
170 1 0 3 16 6 35 2 19 8 58 14 85 5 28 12 64 15 80 2 17 7 41 10 55 2 14 7
37 9 53 3 15 7 36 11 46 3 11 8 35 10 53 2 18 9 51 14 73 5 22 12 51 15 65 2
14 14 68 26 120 12 52 23 104 24 116 2 11 5 25 8 30 4 5 9 25 12 44 3 19 11
53 16 75 13 50 13 50 40 160 12 50 23 98 26 108 2 9 6 25 8 35 29 122 68 280
73 292 3 8 7 26 9 40 2 14 6 32 7 40 4 16 17 101 21 135 4 26 -13 85 -27 99
-27 26 -102 76 -113 76 -7 0 -14 3 -16 8 -1 4 -21 22 -43 40 -34 27 -82 42
-96 28z m-197 -610 c-6 -11 -21 -46 -33 -76 -12 -30 -26 -59 -30 -64 -8 -9 -4
60 6 109 2 11 4 23 4 27 1 4 13 19 28 35 25 24 28 25 31 9 2 -10 -1 -28 -6
-40z m2663 -341 c44 -4 89 -9 100 -11 11 -3 40 -7 65 -10 95 -11 233 -43 278
-65 62 -30 117 -83 185 -177 110 -153 162 -278 183 -442 12 -88 7 -217 -12
-300 -3 -14 -7 -35 -10 -47 -7 -36 -54 -165 -74 -203 -10 -19 -21 -42 -25 -50
-13 -33 -99 -164 -139 -213 -59 -72 -191 -205 -261 -262 -95 -77 -211 -158
-247 -171 -10 -3 -18 -11 -18 -17 0 -6 -3 -7 -6 -4 -4 4 -19 -2 -33 -12 -87
-59 -370 -167 -513 -196 -16 -3 -38 -7 -50 -9 -191 -37 -440 -39 -587 -5 -25
6 -77 20 -116 32 -38 11 -75 21 -81 23 -6 1 -29 10 -50 19 -22 9 -48 21 -59
25 -67 28 -182 87 -195 100 -3 3 -17 11 -31 18 -14 8 -41 27 -60 44 -19 16
-44 37 -57 45 -20 14 -22 22 -17 67 2 28 7 62 10 76 3 14 8 41 11 60 3 19 12
73 21 120 9 47 17 92 18 100 1 8 5 31 10 50 10 40 9 34 19 80 32 147 127 403
204 550 120 228 308 428 537 567 18 11 113 58 170 83 34 16 127 48 186 65 53
15 66 18 122 30 58 12 74 16 95 20 13 2 31 6 40 9 9 3 44 8 77 12 33 3 61 8
63 9 5 4 152 -2 247 -10z m-5856 -167 c-12 -24 -118 -129 -157 -155 -51 -35
-27 -1 59 86 91 91 120 111 98 69z m2978 -555 c-7 -62 -16 -102 -27 -123 -5
-10 -6 -20 -3 -24 3 -3 1 -6 -6 -6 -15 0 -9 63 15 148 18 65 28 67 21 5z
m-2517 -963 c6 0 8 -5 5 -10 -4 -6 -1 -17 5 -25 6 -8 9 -19 5 -25 -12 -19 -44
9 -51 44 -7 42 5 70 17 38 5 -12 13 -22 19 -22z m2373 21 c3 -11 2 -22 -1 -25
-3 -4 -6 -23 -7 -44 -1 -20 -3 -49 -4 -64 -2 -56 -18 -26 -20 39 -1 37 -4 69
-6 72 -6 6 14 41 24 41 5 0 11 -9 14 -19z m-12 -283 c0 -13 2 -34 4 -48 2 -14
7 -68 10 -120 4 -52 7 -97 7 -100 0 -3 0 -23 -1 -44 -1 -49 -17 -37 -26 19
-11 67 -14 315 -4 315 5 0 9 -10 10 -22z"/>
<path d="M5165 12481 c-3 -6 -6 -21 -5 -34 4 -39 1 -46 -37 -85 -49 -50 -84
-92 -77 -92 3 0 -3 -12 -14 -27 -25 -37 -68 -166 -77 -234 -11 -76 -8 -175 5
-215 10 -28 23 -39 83 -69 90 -44 105 -48 192 -49 82 -1 140 24 193 83 47 52
96 158 118 252 3 13 10 42 15 64 24 101 21 114 -28 159 -51 46 -76 83 -49 73
12 -5 15 1 14 26 0 18 2 41 6 53 12 39 -84 104 -154 104 -21 0 -29 -4 -24 -12
5 -8 0 -9 -17 -4 -46 14 -136 18 -144 7z"/>
<path d="M2160 12146 c0 -8 -4 -16 -10 -18 -5 -1 -51 -102 -101 -223 -50 -121
-97 -234 -105 -252 -8 -17 -14 -34 -14 -37 0 -29 -161 -344 -191 -374 -27 -26
-37 -54 -120 -322 -12 -41 -24 -79 -25 -85 -2 -5 -10 -35 -19 -65 -9 -30 -17
-59 -19 -65 -1 -5 -8 -30 -15 -55 -7 -25 -15 -52 -17 -60 -2 -8 -10 -40 -18
-70 -19 -65 -83 -342 -90 -385 -6 -38 -15 -84 -20 -110 -2 -11 -7 -47 -11 -80
-4 -33 -9 -71 -11 -85 -16 -105 -21 -378 -10 -510 6 -66 17 -141 30 -205 41
-192 185 -379 358 -465 l87 -43 63 17 c35 9 71 18 80 21 48 11 56 23 47 64 -5
22 -15 59 -23 83 -58 174 -75 315 -71 593 2 127 6 246 9 265 26 161 46 241 98
395 84 248 210 493 352 685 14 19 34 46 43 60 108 150 321 367 479 488 27 20
51 40 52 45 2 4 8 7 13 7 6 0 20 9 32 20 12 12 42 33 67 47 25 14 47 29 50 33
20 25 346 190 376 190 11 0 15 -6 11 -20 -3 -11 -1 -20 5 -20 5 0 7 -4 4 -9
-3 -5 -8 -58 -11 -117 -3 -60 -7 -145 -10 -189 -3 -44 -7 -109 -10 -145 -2
-36 -7 -110 -11 -165 -25 -327 4 -601 83 -781 9 -21 17 -41 17 -44 1 -3 11
-19 24 -37 12 -17 22 -34 22 -37 0 -3 8 -14 18 -24 9 -10 38 -41 65 -70 l47
-51 93 -6 c50 -4 119 -9 152 -11 178 -13 189 -13 232 8 49 24 70 61 81 140 8
54 7 60 -36 150 l-46 93 2 325 c0 179 2 353 3 387 0 34 -2 66 -6 72 -3 6 -1
11 5 11 6 0 9 4 5 9 -3 5 -7 85 -10 178 -5 187 -9 229 -32 323 -28 116 -77
207 -153 281 -111 110 -170 130 -360 125 -128 -3 -239 -22 -345 -57 -103 -35
-297 -136 -395 -205 -92 -67 -309 -274 -426 -409 -34 -38 -95 -108 -136 -155
-41 -47 -85 -98 -99 -114 -13 -15 -41 -47 -62 -70 l-38 -41 6 50 c8 61 48 227
76 309 11 34 22 68 24 76 2 8 26 78 55 155 57 153 86 245 84 260 0 6 -6 23
-12 38 -7 15 -14 42 -17 60 -3 18 -8 45 -11 62 -3 16 -7 31 -9 34 -2 2 -42 -3
-87 -12 -116 -22 -124 -24 -147 -36 -39 -21 -38 -9 5 87 25 55 31 102 14 102
-5 0 -10 -6 -10 -14z m-38 -279 c-19 -25 -31 -76 -19 -80 9 -3 9 -8 0 -17 -21
-23 -43 5 -32 42 12 42 38 80 50 72 6 -3 6 -10 1 -17z"/>
<path d="M8433 12113 c-26 -5 -65 -52 -114 -138 -19 -33 -39 -69 -46 -80 -6
-11 -19 -33 -27 -50 -8 -16 -32 -59 -52 -95 -19 -36 -58 -108 -86 -160 -28
-52 -65 -122 -83 -155 -18 -33 -73 -139 -123 -235 -81 -158 -130 -251 -218
-420 -16 -30 -32 -56 -36 -58 -5 -2 -8 -12 -8 -23 0 -10 -3 -19 -8 -19 -4 0
-17 -21 -30 -47 -12 -27 -27 -55 -32 -63 -5 -8 -44 -73 -87 -145 -212 -358
-390 -600 -611 -830 -91 -94 -236 -225 -316 -285 -25 -19 -56 -43 -68 -53 -12
-10 -38 -28 -58 -39 -19 -12 -37 -25 -40 -28 -3 -3 -18 -14 -34 -24 l-29 -18
-28 30 c-16 17 -29 35 -29 41 0 5 -3 11 -7 13 -12 5 -59 96 -92 181 -27 68
-36 97 -57 192 -25 111 -30 185 -28 398 2 127 5 257 7 287 6 73 17 178 24 215
2 17 6 41 8 55 2 14 9 54 15 90 6 36 13 82 16 104 2 21 6 42 9 46 3 4 7 25 11
46 3 22 9 55 14 74 5 19 11 49 14 65 3 17 15 71 26 120 11 50 23 101 26 115 2
14 11 57 20 95 46 216 45 200 10 233 -34 32 -102 61 -155 65 -31 2 -38 -4 -88
-68 -93 -120 -174 -269 -251 -460 -19 -48 -90 -264 -97 -295 -2 -8 -12 -53
-23 -100 -11 -47 -23 -101 -26 -120 -3 -19 -8 -46 -11 -60 -13 -62 -19 -156
-18 -290 5 -455 3 -500 -22 -571 -38 -106 11 -340 107 -522 46 -86 184 -222
269 -264 133 -66 254 -91 422 -88 103 3 203 12 218 21 3 2 21 6 40 9 128 22
336 106 484 197 53 32 179 123 205 148 9 8 40 37 68 63 63 58 212 229 212 243
0 3 10 20 23 37 41 58 85 145 117 235 13 34 24 61 25 60 2 -2 6 -61 9 -133 8
-164 11 -185 42 -325 24 -110 76 -258 114 -326 10 -17 24 -42 32 -55 35 -63
111 -147 178 -199 25 -19 47 -37 50 -40 13 -13 161 -82 215 -99 120 -39 235
-46 277 -19 31 20 86 128 92 178 3 33 -15 97 -32 110 -13 9 -79 152 -106 225
-46 131 -67 214 -83 335 -4 36 -4 375 1 445 8 112 16 170 36 275 6 30 13 64
15 75 10 52 14 72 20 95 3 14 8 36 10 50 2 14 11 52 19 86 15 60 20 86 31 142
3 15 10 41 15 57 5 17 12 48 16 70 3 22 8 44 11 48 3 5 7 23 9 40 3 18 8 39
11 47 3 8 7 22 8 30 1 8 5 29 9 45 3 17 8 41 11 55 3 14 14 63 26 110 11 47
22 94 24 105 1 11 6 36 9 55 26 137 31 204 30 435 0 127 -3 246 -7 265 -4 19
-10 47 -13 61 -9 47 -39 62 -154 75 -52 6 -252 11 -277 7z m241 -1467 c3 -65
-6 -92 -18 -60 -8 21 -8 119 1 127 11 12 14 1 17 -67z m-2960 -1189 c9 -23 16
-52 16 -62 -1 -20 -1 -20 -12 -1 -17 30 -38 106 -29 106 5 0 16 -19 25 -43z"/>
<path d="M2384 12074 c3 -9 6 -20 6 -26 0 -20 25 -1 26 20 1 16 -5 22 -18 22
-14 0 -18 -5 -14 -16z"/>
<path d="M11119 11955 c-1 -8 -2 -21 -2 -27 -1 -7 4 -28 11 -47 10 -28 14 -32
27 -21 15 12 12 57 -7 93 -11 21 -28 22 -29 2z"/>
<path d="M12895 11782 c-16 -12 -39 -61 -31 -69 3 -4 20 7 37 23 24 25 28 33
17 42 -8 6 -18 8 -23 4z"/>
<path d="M5219 11400 c-214 -55 -318 -194 -414 -555 -45 -171 -76 -279 -85
-300 -5 -11 -14 -37 -21 -57 -15 -44 -38 -58 -40 -25 -1 27 -27 -46 -28 -80
-1 -29 17 -30 28 -1 7 19 9 17 14 -17 7 -45 0 -63 -17 -40 -7 10 -18 13 -28
10 -21 -8 -12 -36 32 -100 17 -24 30 -46 30 -50 0 -3 -10 -21 -22 -38 -13 -18
-24 -39 -26 -46 -6 -28 -8 -91 -2 -91 15 0 -4 -216 -21 -236 -10 -12 -10 -26
1 -67 22 -87 22 -80 -6 -278 -11 -75 -11 -106 2 -149 18 -58 17 -70 -1 -70 -8
0 -16 -8 -16 -17 -2 -21 -2 -21 7 -65 3 -18 7 -38 8 -45 1 -7 5 -16 9 -19 4
-4 7 -16 7 -26 0 -40 40 -98 83 -119 55 -29 250 -94 307 -104 25 -4 54 -9 65
-11 50 -10 134 -5 173 11 58 23 92 77 92 142 0 58 -3 63 -57 96 -77 49 -78 52
-78 307 0 242 5 309 40 505 8 44 17 96 20 115 3 19 17 89 30 155 13 66 26 134
29 150 3 17 7 40 10 51 2 12 7 37 10 55 3 19 8 45 10 59 3 14 9 52 15 85 6 33
13 74 16 90 25 141 25 477 0 575 -4 14 -8 34 -10 46 -7 47 -61 157 -80 164
-11 4 -50 -1 -86 -10z"/>
<path d="M11300 11265 c0 -56 6 -65 28 -43 15 15 16 53 2 79 -19 34 -30 20
-30 -36z"/>
<path d="M11981 10588 l-44 -10 21 -20 c23 -23 69 -19 79 8 9 25 -9 31 -56 22z"/>
<path d="M4594 10175 c-7 -18 2 -45 15 -45 5 0 11 7 15 15 7 18 -2 45 -15 45
-5 0 -12 -7 -15 -15z"/>
<path d="M4580 9974 c-18 -45 -22 -98 -10 -128 22 -59 46 17 41 132 -1 30 -19
28 -31 -4z"/>
</g>
</svg>
