<?xml version="1.0" standalone="no"?>
<!DOCTYPE svg PUBLIC "-//W3C//DTD SVG 1.1//EN" "http://www.w3.org/Graphics/SVG/1.1/DTD/svg11.dtd" >
<svg xmlns="http://www.w3.org/2000/svg" xmlns:xlink="http://www.w3.org/1999/xlink" version="1.1">
<metadata>
Created by FontForge 20201107 at Wed Mar  6 02:48:56 2019
 By 
Copyright (c) 2016-2019 by TypeType. Designers Ivan Gladkikh, Pavel Emelyanov. Technical designers Vika Usmanova, Olexa Volochay, Nadyr Rakhimov. All rights reserved. |DCNT
</metadata>
<defs>
<font id="TTNormsPro-ExtraBold" horiz-adv-x="610" >
  <font-face 
    font-family="TT Norms Pro ExtraBold"
    font-weight="800"
    font-stretch="normal"
    units-per-em="1000"
    panose-1="2 0 5 3 3 0 0 2 0 4"
    ascent="700"
    descent="-300"
    x-height="490"
    cap-height="700"
    bbox="-605 -260 1438 1010"
    underline-thickness="50"
    underline-position="-200"
    unicode-range="U+000D-FB06"
  />
<missing-glyph horiz-adv-x="0" 
 />
    <glyph glyph-name="f_f" unicode="ff" horiz-adv-x="735" 
d="M95 0v310h-65v160h65v35q0 89 47.5 139.5t127.5 50.5q33 0 71 -8l29 -7v-155l-14 5q-15 5 -36 5q-55 0 -55 -60v-5h165v55q0 89 47.5 139.5t127.5 50.5q33 0 71 -8l29 -7v-155l-14 5q-15 5 -36 5q-55 0 -55 -60v-25h105v-160h-105v-310h-170v310h-165v-310h-170z" />
    <glyph glyph-name="uniFB01" unicode="fi" horiz-adv-x="665" 
d="M95 0v310h-65v160h65v55q0 89 47.5 139.5t127.5 50.5q33 0 71 -8l29 -7v-155l-14 5q-15 5 -36 5q-55 0 -55 -60v-25h335v-470h-170v310h-165v-310h-170zM420 630q0 39 26.5 64.5t68.5 25.5t68.5 -25.5t26.5 -64.5t-26.5 -64.5t-68.5 -25.5t-68.5 25.5t-26.5 64.5z" />
    <glyph glyph-name="f_f_i" unicode="ffi" horiz-adv-x="1000" 
d="M95 0v310h-65v160h65v35q0 89 47.5 139.5t127.5 50.5q33 0 71 -8l29 -7v-155l-14 5q-15 5 -36 5q-55 0 -55 -60v-5h165v55q0 89 47.5 139.5t127.5 50.5q33 0 71 -8l29 -7v-155l-14 5q-15 5 -36 5q-55 0 -55 -60v-25h335v-470h-170v310h-165v-310h-170v310h-165v-310h-170
zM755 630q0 39 26.5 64.5t68.5 25.5t68.5 -25.5t26.5 -64.5t-26.5 -64.5t-68.5 -25.5t-68.5 25.5t-26.5 64.5z" />
    <glyph glyph-name=".notdef" horiz-adv-x="0" 
 />
    <glyph glyph-name=".null" horiz-adv-x="0" 
 />
    <glyph glyph-name="nonmarkingreturn" horiz-adv-x="333" 
 />
    <glyph glyph-name="NULL" horiz-adv-x="0" 
 />
    <glyph glyph-name="NULL" horiz-adv-x="0" 
 />
    <glyph glyph-name="CR" unicode="&#xd;" horiz-adv-x="0" 
 />
    <glyph glyph-name="space" unicode=" " horiz-adv-x="220" 
 />
    <glyph glyph-name="exclam" unicode="!" horiz-adv-x="350" 
d="M110 215l-35 485h200l-35 -485h-130zM80 80q0 39 26.5 64.5t68.5 25.5t68.5 -25.5t26.5 -64.5t-26.5 -64.5t-68.5 -25.5t-68.5 25.5t-26.5 64.5z" />
    <glyph glyph-name="quotedbl" unicode="&#x22;" horiz-adv-x="480" 
d="M60 450v250h150v-250h-150zM270 450v250h150v-250h-150z" />
    <glyph glyph-name="numbersign" unicode="#" horiz-adv-x="750" 
d="M95 0l35 170h-120l25 120h120l25 120h-115l25 120h115l35 170h150l-35 -170h115l35 170h150l-35 -170h120l-25 -120h-120l-25 -120h115l-25 -120h-115l-35 -170h-150l35 170h-115l-35 -170h-150zM305 290h115l25 120h-115z" />
    <glyph glyph-name="dollar" unicode="$" 
d="M25 100l110 120q18 -21 41 -38q53 -37 109 -37q43 0 66.5 17.5t23.5 42.5q0 22 -24.5 38.5t-61 27t-79.5 28.5t-79.5 40.5t-61 65t-24.5 100.5q0 75 53.5 132t136.5 73v90h160v-90q66 -15 121 -54q22 -16 39 -36l-110 -120q-14 16 -31 27q-37 28 -84 28
q-39 0 -59.5 -14.5t-20.5 -35.5q0 -22 24.5 -38.5t61 -27t79.5 -28.5t79.5 -40.5t61 -65t24.5 -100.5q0 -76 -49.5 -134.5t-135.5 -80.5v-90h-160v85q-92 15 -159 67q-30 22 -51 48z" />
    <glyph glyph-name="percent" unicode="%" horiz-adv-x="860" 
d="M130 0l440 700h160l-440 -700h-160zM145 545q0 -26 17 -43t43 -17t43 17t17 43t-17 43t-43 17t-43 -17t-17 -43zM25 545q0 68 53 119t127 51t127 -51t53 -119t-53 -119t-127 -51t-127 51t-53 119zM595 155q0 -26 17 -43t43 -17t43 17t17 43t-17 43t-43 17t-43 -17
t-17 -43zM475 155q0 68 53 119t127 51t127 -51t53 -119t-53 -119t-127 -51t-127 51t-53 119z" />
    <glyph glyph-name="ampersand" unicode="&#x26;" horiz-adv-x="670" 
d="M370 375l85 -100q4 7 10 23q10 30 10 57h160q0 -71 -30 -141q-13 -30 -30 -54q7 -9 14 -13q15 -12 36 -12q3 0 17 2l8 3v-140q-7 -4 -23 -10q-30 -10 -57 -10q-53 0 -95 35q-20 15 -35 35q-21 -21 -45 -35q-57 -35 -135 -35q-103 0 -166.5 57t-63.5 138q0 88 67 151
q32 30 68 49q-24 23 -43 51q-42 62 -42 114q0 73 57.5 126.5t142.5 53.5t142.5 -53.5t57.5 -126.5q0 -59 -55 -118q-28 -28 -55 -47zM355 155l-95 115q-14 -9 -28 -23q-27 -27 -27 -57t21 -50t54 -20q29 0 54 17q10 7 21 18zM280 450q18 16 25 25q25 31 25 55
q0 23 -13.5 36.5t-36.5 13.5t-36.5 -13.5t-13.5 -36.5q0 -26 25 -55q7 -9 25 -25z" />
    <glyph glyph-name="quotesingle" unicode="'" horiz-adv-x="270" 
d="M60 450v250h150v-250h-150z" />
    <glyph glyph-name="parenleft" unicode="(" horiz-adv-x="385" 
d="M375 -160l-125 -75q-55 59 -95 134q-95 168 -95 351t95 351q40 75 95 134l125 -75q-44 -57 -73 -115q-72 -146 -72 -295q0 -151 72 -295q29 -60 73 -115z" />
    <glyph glyph-name="parenright" unicode=")" horiz-adv-x="385" 
d="M135 -235l-125 75q41 52 72 115q73 146 73 295q0 147 -73 295q-31 62 -72 115l125 75q53 -59 95 -134q95 -168 95 -351t-95 -351q-42 -75 -95 -134z" />
    <glyph glyph-name="asterisk" unicode="*" horiz-adv-x="420" 
d="M60 420l65 75l-95 20l35 115l95 -40l-15 110h130l-15 -110l95 40l35 -115l-95 -20l65 -75l-90 -70l-60 95l-60 -95z" />
    <glyph glyph-name="plus" unicode="+" horiz-adv-x="530" 
d="M35 215v155h155v155h150v-155h155v-155h-155v-155h-150v155h-155z" />
    <glyph glyph-name="comma" unicode="," horiz-adv-x="270" 
d="M-10 -70l110 235l135 -75l-140 -215z" />
    <glyph glyph-name="hyphen" unicode="-" horiz-adv-x="425" 
d="M50 225v145h325v-145h-325z" />
    <glyph glyph-name="period" unicode="." horiz-adv-x="270" 
d="M40 80q0 39 26.5 64.5t68.5 25.5t68.5 -25.5t26.5 -64.5t-26.5 -64.5t-68.5 -25.5t-68.5 25.5t-26.5 64.5z" />
    <glyph glyph-name="slash" unicode="/" horiz-adv-x="465" 
d="M0 -210l300 920h165l-300 -920h-165z" />
    <glyph glyph-name="zero" unicode="0" horiz-adv-x="710" 
d="M355 155q49 0 84.5 50t35.5 145t-35.5 145t-84.5 50t-84.5 -50t-35.5 -145t35.5 -145t84.5 -50zM355 -20q-128 0 -219 103t-91 267t91 267t219 103t219 -103t91 -267t-91 -267t-219 -103z" />
    <glyph glyph-name="one" unicode="1" horiz-adv-x="415" 
d="M145 0v490h-115v115q63 9 107 53q19 20 33 42h165v-700h-190z" />
    <glyph glyph-name="two" unicode="2" horiz-adv-x="595" 
d="M290 180h260v-180h-520q0 69 17.5 126.5t46 95t62.5 68.5t68 53t62.5 42t46 42.5t17.5 47.5q0 27 -20 46t-50 19q-43 0 -74 -33q-13 -13 -21 -32l-160 75q22 49 58 85q85 85 212 85q110 0 182.5 -67.5t72.5 -162.5q0 -51 -20 -92t-52 -68.5t-66 -50t-69 -48.5t-53 -51z
" />
    <glyph glyph-name="three" unicode="3" horiz-adv-x="590" 
d="M10 95l110 115q16 -16 38 -30q48 -30 102 -30q43 0 66.5 18.5t23.5 46.5t-23.5 46.5t-66.5 18.5h-70v155h70q37 0 56 16.5t19 43.5t-19 43.5t-56 16.5q-47 0 -84 -28q-17 -11 -31 -27l-110 115q29 30 65 52q84 53 185 53q112 0 181 -59t69 -141q0 -73 -60 -118
q-27 -20 -60 -32q39 -14 70 -37q70 -54 70 -138q0 -90 -74.5 -152.5t-200.5 -62.5q-107 0 -199 57q-35 22 -71 58z" />
    <glyph glyph-name="four" unicode="4" horiz-adv-x="625" 
d="M25 110v195l295 395h210v-420h75v-170h-75v-110h-190v110h-315zM195 280h145v195z" />
    <glyph glyph-name="five" unicode="5" horiz-adv-x="620" 
d="M35 95l110 115q17 -17 37 -30q48 -30 98 -30q47 0 73.5 22.5t26.5 57.5t-26.5 57.5t-73.5 22.5q-31 0 -63 -15l-22 -15l-135 20l30 400h450v-170h-275l-10 -95q10 7 26 12q32 13 74 13q98 0 161.5 -64.5t63.5 -165.5q0 -107 -77 -178.5t-198 -71.5q-107 0 -199 57
q-35 22 -71 58z" />
    <glyph glyph-name="six" unicode="6" horiz-adv-x="630" 
d="M100 410l190 290h200l-145 -220q109 -8 179.5 -78t70.5 -172q0 -103 -79.5 -176.5t-200.5 -73.5t-200.5 73.5t-79.5 176.5q0 61 32 127q12 26 33 53zM315 140q38 0 64 26t26 64t-26 64t-64 26t-64 -26t-26 -64t26 -64t64 -26z" />
    <glyph glyph-name="seven" unicode="7" horiz-adv-x="560" 
d="M65 0l250 530h-285v170h495v-150l-260 -550h-200z" />
    <glyph glyph-name="eight" unicode="8" horiz-adv-x="630" 
d="M235 215q0 -33 23 -54t57 -21t57 21t23 54t-23 54t-57 21t-57 -21t-23 -54zM250 500q0 -26 19 -43t46 -17t46 17t19 43t-19 43t-46 17t-46 -17t-19 -43zM35 200q0 79 65 134q27 24 65 41q-32 14 -53 34q-52 46 -52 116q0 79 70 137t185 58t185 -58t70 -137
q0 -69 -53 -116q-20 -19 -52 -34q39 -18 65 -41q65 -57 65 -134q0 -94 -75 -157t-205 -63t-205 63t-75 157z" />
    <glyph glyph-name="nine" unicode="9" horiz-adv-x="630" 
d="M140 0l145 220q-109 8 -179.5 78t-70.5 172q0 103 79.5 176.5t200.5 73.5t200.5 -73.5t79.5 -176.5q0 -62 -33 -128q-14 -29 -32 -52l-190 -290h-200zM225 470q0 -38 26 -64t64 -26t64 26t26 64t-26 64t-64 26t-64 -26t-26 -64z" />
    <glyph glyph-name="colon" unicode=":" horiz-adv-x="270" 
d="M40 80q0 39 26.5 64.5t68.5 25.5t68.5 -25.5t26.5 -64.5t-26.5 -64.5t-68.5 -25.5t-68.5 25.5t-26.5 64.5zM40 410q0 39 26.5 64.5t68.5 25.5t68.5 -25.5t26.5 -64.5t-26.5 -64.5t-68.5 -25.5t-68.5 25.5t-26.5 64.5z" />
    <glyph glyph-name="semicolon" unicode=";" horiz-adv-x="285" 
d="M-10 -70l110 235l135 -75l-140 -215zM60 410q0 39 26.5 64.5t68.5 25.5t68.5 -25.5t26.5 -64.5t-26.5 -64.5t-68.5 -25.5t-68.5 25.5t-26.5 64.5z" />
    <glyph glyph-name="less" unicode="&#x3c;" horiz-adv-x="525" 
d="M40 185v120l445 185v-150l-250 -95l250 -95v-150z" />
    <glyph glyph-name="equal" unicode="=" horiz-adv-x="510" 
d="M40 120v140h430v-140h-430zM40 330v140h430v-140h-430z" />
    <glyph glyph-name="greater" unicode="&#x3e;" horiz-adv-x="525" 
d="M40 0v150l250 95l-250 95v150l445 -185v-120z" />
    <glyph glyph-name="question" unicode="?" horiz-adv-x="570" 
d="M350 215h-160q-4 8 -5 13q-5 15 -5 32q0 36 16 65.5t39 48.5t45.5 36t38.5 35.5t16 39.5q0 24 -18 39.5t-47 15.5q-43 0 -74 -33q-13 -13 -21 -32l-160 75q20 47 56 85q81 85 209 85q112 0 186 -64t74 -146q0 -44 -19.5 -81t-47.5 -62.5t-56 -48t-47.5 -49t-19.5 -54.5z
M170 80q0 39 26.5 64.5t68.5 25.5t68.5 -25.5t26.5 -64.5t-26.5 -64.5t-68.5 -25.5t-68.5 25.5t-26.5 64.5z" />
    <glyph glyph-name="at" unicode="@" horiz-adv-x="885" 
d="M435 175q27 0 46 20t19 50t-19 50t-46 20t-46 -20t-19 -50t19 -50t46 -20zM625 25l70 -90q-28 -22 -65 -40q-86 -40 -185 -40q-165 0 -282.5 116.5t-117.5 278.5t117.5 278.5t282.5 116.5q170 0 285 -110.5t115 -264.5q0 -100 -50 -155t-135 -55q-59 0 -96 35
q-18 15 -29 35h-5q-12 -22 -26 -35q-35 -35 -89 -35q-65 0 -112.5 52.5t-47.5 132.5q0 79 46.5 132t108.5 53q38 0 65 -20q12 -9 20 -20h5v35h115v-210q0 -23 15.5 -39t34.5 -16q29 0 47 27t18 83q0 110 -81.5 187.5t-203.5 77.5q-117 0 -201 -84t-84 -201t84 -201t201 -84
q69 0 131 30q25 13 49 30z" />
    <glyph glyph-name="A" unicode="A" horiz-adv-x="730" 
d="M300 305h130l-63 200h-4zM-5 0l265 700h210l265 -700h-205l-50 150h-230l-50 -150h-205z" />
    <glyph glyph-name="B" unicode="B" horiz-adv-x="705" 
d="M80 0v700h310q115 0 180 -53t65 -132q0 -71 -53 -116q-20 -17 -52 -29q39 -14 70 -37q70 -54 70 -138q0 -83 -68 -139t-187 -56h-335zM270 150h130q33 0 54 20t21 50t-21 50t-54 20h-130v-140zM270 430h105q30 0 47.5 16.5t17.5 43.5t-17.5 43.5t-47.5 16.5h-105v-120z
" />
    <glyph glyph-name="C" unicode="C" horiz-adv-x="755" 
d="M620 245l115 -130q-34 -39 -78 -68q-98 -67 -227 -67q-167 0 -278.5 107.5t-111.5 262.5t111.5 262.5t278.5 107.5q126 0 225 -68q44 -31 75 -67l-115 -130q-23 25 -51 45q-65 45 -134 45q-82 0 -138.5 -56.5t-56.5 -138.5t56.5 -138.5t138.5 -56.5q68 0 136 45
q30 20 54 45z" />
    <glyph glyph-name="D" unicode="D" horiz-adv-x="760" 
d="M80 0v700h260q166 0 273 -101t107 -249t-107 -249t-273 -101h-260zM270 170h70q81 0 133 51t52 129t-52 129t-133 51h-70v-360z" />
    <glyph glyph-name="E" unicode="E" horiz-adv-x="665" 
d="M80 0v700h535v-170h-345v-100h265v-160h-265v-100h355v-170h-545z" />
    <glyph glyph-name="F" unicode="F" horiz-adv-x="640" 
d="M80 0v700h530v-180h-340v-120h260v-170h-260v-230h-190z" />
    <glyph glyph-name="G" unicode="G" horiz-adv-x="795" 
d="M440 250v140h300v-270q-31 -38 -78 -70q-104 -70 -232 -70q-167 0 -278.5 107.5t-111.5 262.5t111.5 262.5t278.5 107.5q126 0 225 -68q44 -31 75 -67l-115 -130q-23 25 -51 45q-65 45 -134 45q-82 0 -138.5 -56.5t-56.5 -138.5t56.5 -138.5t138.5 -56.5q54 0 92 20
q16 8 33 20v55h-115z" />
    <glyph glyph-name="H" unicode="H" horiz-adv-x="795" 
d="M80 0v700h190v-255h255v255h190v-700h-190v265h-255v-265h-190z" />
    <glyph glyph-name="I" unicode="I" horiz-adv-x="350" 
d="M80 0v700h190v-700h-190z" />
    <glyph glyph-name="J" unicode="J" horiz-adv-x="535" 
d="M-10 70l120 125q7 -10 19 -20q22 -20 56 -20q38 0 61.5 23.5t23.5 61.5v460h190v-460q0 -116 -72 -188t-188 -72q-91 0 -159 45q-30 19 -51 45z" />
    <glyph glyph-name="K" unicode="K" horiz-adv-x="720" 
d="M80 0v700h190v-270l230 270h220l-250 -290l270 -410h-220l-175 265l-75 -85v-180h-190z" />
    <glyph glyph-name="L" unicode="L" horiz-adv-x="595" 
d="M80 0v700h190v-520h305v-180h-495z" />
    <glyph glyph-name="M" unicode="M" horiz-adv-x="930" 
d="M80 0v700h170l215 -270l215 270h170v-700h-190v415l-195 -245l-195 245v-415h-190z" />
    <glyph glyph-name="N" unicode="N" horiz-adv-x="815" 
d="M80 0v700h165l300 -385v385h190v-700h-165l-300 385v-385h-190z" />
    <glyph glyph-name="O" unicode="O" horiz-adv-x="860" 
d="M235 350q0 -82 56.5 -138.5t138.5 -56.5t138.5 56.5t56.5 138.5t-56.5 138.5t-138.5 56.5t-138.5 -56.5t-56.5 -138.5zM40 350q0 155 111.5 262.5t278.5 107.5t278.5 -107.5t111.5 -262.5t-111.5 -262.5t-278.5 -107.5t-278.5 107.5t-111.5 262.5z" />
    <glyph glyph-name="P" unicode="P" horiz-adv-x="695" 
d="M80 0v700h315q115 0 187.5 -69.5t72.5 -175.5t-72.5 -175.5t-187.5 -69.5h-125v-210h-190zM270 380h115q33 0 56.5 22.5t23.5 52.5t-23.5 52.5t-56.5 22.5h-115v-150z" />
    <glyph glyph-name="Q" unicode="Q" horiz-adv-x="860" 
d="M235 350q0 -82 56.5 -138.5t138.5 -56.5t138.5 56.5t56.5 138.5t-56.5 138.5t-138.5 56.5t-138.5 -56.5t-56.5 -138.5zM470 -20h-40q-167 0 -278.5 107.5t-111.5 262.5t111.5 262.5t278.5 107.5t278.5 -107.5t111.5 -262.5q0 -138 -90 -240q-40 -45 -90 -75
q14 -17 32 -28q41 -27 103 -27q17 0 31 2l9 3v-160l-11 -3q-14 -2 -29 -2q-141 0 -237 80q-42 35 -68 80z" />
    <glyph glyph-name="R" unicode="R" horiz-adv-x="715" 
d="M80 0v700h330q111 0 183 -69t72 -171q0 -96 -60 -156q-26 -28 -60 -44l145 -260h-200l-115 220h-105v-220h-190zM270 390h130q33 0 54 20t21 50t-21 50t-54 20h-130v-140z" />
    <glyph glyph-name="S" unicode="S" 
d="M25 100l110 120q18 -21 41 -38q53 -37 109 -37q43 0 66.5 17.5t23.5 42.5q0 22 -24.5 38.5t-61 27t-79.5 28.5t-79.5 40.5t-61 65t-24.5 100.5q0 87 73 151t192 64q106 0 186 -50q37 -24 59 -50l-110 -120q-14 16 -31 27q-37 28 -84 28q-39 0 -59.5 -14.5t-20.5 -35.5
q0 -22 24.5 -38.5t61 -27t79.5 -28.5t79.5 -40.5t61 -65t24.5 -100.5q0 -94 -75.5 -159.5t-199.5 -65.5q-120 0 -211 60q-40 26 -69 60z" />
    <glyph glyph-name="T" unicode="T" horiz-adv-x="620" 
d="M215 0v530h-195v170h580v-170h-195v-530h-190z" />
    <glyph glyph-name="U" unicode="U" horiz-adv-x="790" 
d="M75 290v410h190v-410q0 -60 36.5 -97.5t93.5 -37.5t93.5 37.5t36.5 97.5v410h190v-410q0 -136 -89.5 -223t-230.5 -87t-230.5 87t-89.5 223z" />
    <glyph glyph-name="V" unicode="V" horiz-adv-x="710" 
d="M250 0l-250 700h205l148 -490h4l148 490h205l-250 -700h-210z" />
    <glyph glyph-name="W" unicode="W" horiz-adv-x="1060" 
d="M230 0l-230 700h205l110 -410h5l125 410h170l125 -410h5l110 410h205l-230 -700h-170l-128 420h-4l-128 -420h-170z" />
    <glyph glyph-name="X" unicode="X" horiz-adv-x="680" 
d="M-10 0l225 365l-205 335h210l118 -210h4l118 210h210l-205 -335l225 -365h-210l-138 240h-4l-138 -240h-210z" />
    <glyph glyph-name="Y" unicode="Y" horiz-adv-x="670" 
d="M240 0v250l-250 450h210l133 -275h4l133 275h210l-250 -450v-250h-190z" />
    <glyph glyph-name="Z" unicode="Z" horiz-adv-x="660" 
d="M45 0v180l305 340h-290v180h545v-180l-305 -340h315v-180h-570z" />
    <glyph glyph-name="bracketleft" unicode="[" horiz-adv-x="395" 
d="M80 -210v920h275v-150h-105v-620h105v-150h-275z" />
    <glyph glyph-name="backslash" unicode="\" horiz-adv-x="465" 
d="M300 -210l-300 920h165l300 -920h-165z" />
    <glyph glyph-name="bracketright" unicode="]" horiz-adv-x="395" 
d="M40 -210v150h105v620h-105v150h275v-920h-275z" />
    <glyph glyph-name="asciicircum" unicode="^" horiz-adv-x="450" 
d="M25 395l135 305h130l135 -305h-140l-60 145l-60 -145h-140z" />
    <glyph glyph-name="underscore" unicode="_" horiz-adv-x="350" 
d="M-10 -240v155h370v-155h-370z" />
    <glyph glyph-name="grave" unicode="`" horiz-adv-x="325" 
d="M150 550l-120 160h180l85 -160h-145z" />
    <glyph glyph-name="a" unicode="a" horiz-adv-x="540" 
d="M315 0v65h-5q-15 -23 -31 -38q-41 -37 -99 -37q-67 0 -111 41t-44 99q0 63 38.5 104t111.5 56l140 30q-4 20 -23 35t-47 15q-39 0 -74 -25q-14 -10 -26 -25l-90 85q24 27 54 47q70 48 151 48q100 0 162.5 -57t62.5 -139v-304h-170zM315 205v15l-70 -15q-19 -4 -32 -17
t-13 -28q0 -40 45 -40q31 0 50.5 22t19.5 63z" />
    <glyph glyph-name="b" unicode="b" horiz-adv-x="635" 
d="M65 0v700h170v-280h5q13 21 33 40q46 40 112 40q89 0 152 -71t63 -184t-63 -184t-152 -71q-66 0 -112 40q-20 19 -33 40h-5v-70h-170zM330 145q38 0 66.5 29.5t28.5 70.5t-28.5 70.5t-66.5 29.5t-66.5 -29.5t-28.5 -70.5t28.5 -70.5t66.5 -29.5z" />
    <glyph glyph-name="c" unicode="c" horiz-adv-x="535" 
d="M415 195l100 -105q-19 -26 -51 -50q-70 -50 -159 -50q-115 0 -192.5 74.5t-77.5 180.5t77.5 180.5t192.5 74.5q89 0 159 -50q32 -24 51 -50l-100 -105q-12 15 -26 25q-35 25 -74 25q-45 0 -75 -29t-30 -71t30 -71t75 -29q41 0 74 25q14 10 26 25z" />
    <glyph glyph-name="d" unicode="d" horiz-adv-x="635" 
d="M305 145q38 0 66.5 29.5t28.5 70.5t-28.5 70.5t-66.5 29.5t-66.5 -29.5t-28.5 -70.5t28.5 -70.5t66.5 -29.5zM400 0v70h-5q-13 -21 -33 -40q-46 -40 -112 -40q-89 0 -152 71t-63 184t63 184t152 71q66 0 112 -40q20 -19 33 -40h5v280h170v-700h-170z" />
    <glyph glyph-name="e" unicode="e" horiz-adv-x="580" 
d="M440 170l65 -110q-23 -20 -53 -35q-64 -35 -147 -35q-115 0 -192.5 74.5t-77.5 180.5q0 105 76 180t184 75t181.5 -72.5t73.5 -177.5q0 -6 -3 -39l-2 -16h-335q4 -26 34.5 -48t75.5 -22q46 0 88 22q22 13 32 23zM210 300h170q-9 28 -31 46.5t-54 18.5t-54 -18.5
t-31 -46.5z" />
    <glyph glyph-name="f" unicode="f" horiz-adv-x="400" 
d="M95 0v310h-65v160h65v50q0 90 47.5 140t127.5 50q33 0 71 -8l29 -7v-155l-14 5q-15 5 -36 5q-55 0 -55 -60v-20h105v-160h-105v-310h-170z" />
    <glyph glyph-name="g" unicode="g" horiz-adv-x="620" 
d="M210 260q0 -38 26 -64t64 -26t64 26t26 64t-26 64t-64 26t-64 -26t-26 -64zM50 -110l100 105q11 -16 30 -28q36 -27 90 -27q53 0 86.5 33t33.5 82v45h-5q-13 -21 -33 -40q-46 -40 -112 -40q-85 0 -145 67t-60 173t60 173t145 67q66 0 112 -40q20 -19 33 -40h5v70h170
v-435q0 -110 -81 -187.5t-199 -77.5q-101 0 -175 50q-34 23 -55 50z" />
    <glyph glyph-name="h" unicode="h" 
d="M65 0v700h170v-280h5q11 21 32 40q46 40 108 40q77 0 126 -55t49 -150v-295h-170v260q0 37 -19.5 58.5t-50.5 21.5q-35 0 -57.5 -24.5t-22.5 -65.5v-250h-170z" />
    <glyph glyph-name="i" unicode="i" horiz-adv-x="300" 
d="M65 0v490h170v-490h-170zM55 630q0 39 26.5 64.5t68.5 25.5t68.5 -25.5t26.5 -64.5t-26.5 -64.5t-68.5 -25.5t-68.5 25.5t-26.5 64.5z" />
    <glyph glyph-name="j" unicode="j" horiz-adv-x="300" 
d="M-40 -195v155q9 -4 16 -5q17 -5 34 -5q55 0 55 60v480h170v-510q0 -89 -47.5 -139.5t-127.5 -50.5q-38 0 -71 7zM55 630q0 39 26.5 64.5t68.5 25.5t68.5 -25.5t26.5 -64.5t-26.5 -64.5t-68.5 -25.5t-68.5 25.5t-26.5 64.5z" />
    <glyph glyph-name="k" unicode="k" horiz-adv-x="575" 
d="M65 0v700h170v-375l145 165h200l-185 -205l190 -285h-190l-115 180l-45 -55v-125h-170z" />
    <glyph glyph-name="l" unicode="l" horiz-adv-x="300" 
d="M65 0v700h170v-700h-170z" />
    <glyph glyph-name="m" unicode="m" horiz-adv-x="885" 
d="M60 0v490h170v-70h5q10 21 29 40q42 40 101 40q58 0 101 -43q19 -19 29 -42h5q15 24 39 42q55 43 126 43t118 -56.5t47 -153.5v-290h-170v265q0 37 -16.5 56t-43.5 19q-31 0 -50.5 -22t-19.5 -63v-255h-170v265q0 37 -16.5 56t-43.5 19q-31 0 -50.5 -22t-19.5 -63v-255
h-170z" />
    <glyph glyph-name="n" unicode="n" horiz-adv-x="605" 
d="M60 0v490h170v-70h5q11 21 32 40q46 40 108 40q77 0 126 -55t49 -150v-295h-170v260q0 37 -19.5 58.5t-50.5 21.5q-35 0 -57.5 -24.5t-22.5 -65.5v-250h-170z" />
    <glyph glyph-name="o" unicode="o" 
d="M305 145q38 0 66.5 29.5t28.5 70.5t-28.5 70.5t-66.5 29.5t-66.5 -29.5t-28.5 -70.5t28.5 -70.5t66.5 -29.5zM35 245q0 106 77.5 180.5t192.5 74.5t192.5 -74.5t77.5 -180.5t-77.5 -180.5t-192.5 -74.5t-192.5 74.5t-77.5 180.5z" />
    <glyph glyph-name="p" unicode="p" horiz-adv-x="630" 
d="M60 -210v700h170v-70h5q13 21 33 40q46 40 112 40q89 0 152 -71t63 -184t-63 -184t-152 -71q-66 0 -112 40q-20 19 -33 40h-5v-280h-170zM325 145q38 0 66.5 29.5t28.5 70.5t-28.5 70.5t-66.5 29.5t-66.5 -29.5t-28.5 -70.5t28.5 -70.5t66.5 -29.5z" />
    <glyph glyph-name="q" unicode="q" horiz-adv-x="630" 
d="M400 -210v280h-5q-13 -21 -33 -40q-46 -40 -112 -40q-89 0 -152 71t-63 184t63 184t152 71q66 0 112 -40q20 -19 33 -40h5v70h170v-700h-170zM305 145q38 0 66.5 29.5t28.5 70.5t-28.5 70.5t-66.5 29.5t-66.5 -29.5t-28.5 -70.5t28.5 -70.5t66.5 -29.5z" />
    <glyph glyph-name="r" unicode="r" horiz-adv-x="405" 
d="M60 0v490h170v-60q13 18 34 32q47 33 101 33h20v-180l-14 5q-15 5 -36 5q-50 0 -77.5 -29.5t-27.5 -85.5v-210h-170z" />
    <glyph glyph-name="s" unicode="s" horiz-adv-x="465" 
d="M10 80l90 95q12 -15 27 -25q33 -25 73 -25t40 25q0 12 -21 23t-51 23t-60.5 29.5t-51.5 49.5t-21 75q0 63 53 106.5t147 43.5q81 0 151 -38q29 -15 54 -37l-90 -95q-10 9 -20 17q-26 18 -50 18q-40 0 -40 -25q0 -12 21 -23t51 -23t60.5 -29.5t51.5 -49.5t21 -75
q0 -64 -55 -107t-155 -43q-89 0 -165 45q-34 19 -60 45z" />
    <glyph glyph-name="t" unicode="t" horiz-adv-x="420" 
d="M100 180v140h-70v160h30q26 0 43 17t17 43v90h150v-150h95v-160h-95v-110q0 -60 55 -60q19 0 36 5q7 1 14 5v-155l-29 -8q-33 -7 -71 -7q-80 0 -127.5 50t-47.5 140z" />
    <glyph glyph-name="u" unicode="u" 
d="M60 195v295h170v-260q0 -37 19.5 -58.5t50.5 -21.5q35 0 57.5 24.5t22.5 65.5v250h170v-490h-170v70h-5q-13 -21 -33 -40q-46 -40 -107 -40q-77 0 -126 54.5t-49 150.5z" />
    <glyph glyph-name="v" unicode="v" horiz-adv-x="540" 
d="M185 0l-185 490h185l83 -285h4l83 285h185l-185 -490h-170z" />
    <glyph glyph-name="w" unicode="w" horiz-adv-x="800" 
d="M170 0l-170 490h180l68 -245h4l83 245h130l83 -245h4l68 245h180l-170 -490h-140l-88 260h-4l-88 -260h-140z" />
    <glyph glyph-name="x" unicode="x" horiz-adv-x="530" 
d="M-5 0l155 250l-145 240h185l73 -145h4l73 145h185l-145 -240l155 -250h-185l-83 155h-4l-83 -155h-185z" />
    <glyph glyph-name="y" unicode="y" horiz-adv-x="540" 
d="M45 -195v155q9 -4 16 -5q17 -5 34 -5q53 0 75 40l10 20l-180 480h185l83 -285h4l83 285h185l-195 -515q-39 -100 -86 -142.5t-124 -42.5q-36 0 -64 7q-4 1 -13 3.5t-13 4.5z" />
    <glyph glyph-name="z" unicode="z" horiz-adv-x="520" 
d="M40 0v160l195 170h-185v160h420v-160l-195 -170h205v-160h-440z" />
    <glyph glyph-name="braceleft" unicode="{" horiz-adv-x="420" 
d="M110 -40v150q0 30 -16.5 47.5t-43.5 17.5h-10v150h10q27 0 43.5 17.5t16.5 47.5v150q0 83 43.5 126.5t126.5 43.5h100v-150h-40q-26 0 -43 -17t-17 -43v-140q0 -58 -45 -89q-19 -13 -45 -21q26 -8 45 -21q45 -31 45 -89v-140q0 -26 17 -43t43 -17h40v-150h-100
q-83 0 -126.5 43.5t-43.5 126.5z" />
    <glyph glyph-name="bar" unicode="|" horiz-adv-x="410" 
d="M120 -210v920h170v-920h-170z" />
    <glyph glyph-name="braceright" unicode="}" horiz-adv-x="420" 
d="M40 -210v150h40q26 0 43 17t17 43v140q0 58 45 89q19 13 45 21q-26 8 -45 21q-45 31 -45 89v140q0 26 -17 43t-43 17h-40v150h100q83 0 126.5 -43.5t43.5 -126.5v-150q0 -30 16.5 -47.5t43.5 -17.5h10v-150h-10q-27 0 -43.5 -17.5t-16.5 -47.5v-150q0 -83 -43.5 -126.5
t-126.5 -43.5h-100z" />
    <glyph glyph-name="asciitilde" unicode="~" horiz-adv-x="570" 
d="M140 200l-120 90q11 28 32 55q47 55 118 55q48 0 100.5 -25t84.5 -25q30 0 56 22q14 14 19 23l120 -90q-11 -29 -32 -55q-45 -55 -118 -55q-48 0 -100.5 25t-84.5 25q-31 0 -56 -23q-14 -14 -19 -22z" />
    <glyph glyph-name="nbspace" unicode="&#xa0;" horiz-adv-x="220" 
 />
    <glyph glyph-name="exclamdown" unicode="&#xa1;" horiz-adv-x="350" 
d="M75 -210l35 485h130l35 -485h-200zM80 410q0 39 26.5 64.5t68.5 25.5t68.5 -25.5t26.5 -64.5t-26.5 -64.5t-68.5 -25.5t-68.5 25.5t-26.5 64.5z" />
    <glyph glyph-name="cent" unicode="&#xa2;" horiz-adv-x="535" 
d="M225 -100v100q-84 23 -137 90t-53 155t53 155t137 90v100h155v-100q57 -16 103 -54q17 -14 32 -36l-100 -105q-12 15 -26 25q-35 25 -74 25q-45 0 -75 -29t-30 -71t30 -71t75 -29q41 0 74 25q14 10 26 25l100 -105q-15 -22 -32 -36q-49 -40 -103 -54v-100h-155z" />
    <glyph glyph-name="sterling" unicode="&#xa3;" horiz-adv-x="580" 
d="M40 0v170q60 0 60 55v85h-60v70h60v100q0 109 66.5 174.5t178.5 65.5q88 0 160 -48q33 -22 55 -47l-130 -125q-7 10 -19 20q-24 20 -56 20q-30 0 -52.5 -23.5t-22.5 -56.5v-80h150v-70h-150v-85q0 -24 -13 -41q-5 -8 -12 -14h300v-170h-515z" />
    <glyph glyph-name="currency" unicode="&#xa4;" horiz-adv-x="520" 
d="M260 245q38 0 64 26t26 64t-26 64t-64 26t-64 -26t-26 -64t26 -64t64 -26zM45 185l60 60q-9 13 -13 24q-12 27 -12 66t12 66q4 11 13 24l-60 60l60 60l60 -60l27 15q36 15 68 15t68 -15l27 -15l60 60l60 -60l-60 -60q7 -11 12 -24q13 -30 13 -66t-13 -66q-5 -13 -12 -24
l60 -60l-60 -60l-60 60q-12 -9 -27 -15q-32 -15 -68 -15t-68 15q-15 6 -27 15l-60 -60z" />
    <glyph glyph-name="yen" unicode="&#xa5;" horiz-adv-x="670" 
d="M105 100v65h135v50h-135v65h120l-235 420h210l133 -275h4l133 275h210l-235 -420h120v-65h-135v-50h135v-65h-135v-100h-190v100h-135z" />
    <glyph glyph-name="brokenbar" unicode="&#xa6;" horiz-adv-x="410" 
d="M120 -210v380h170v-380h-170zM120 330v380h170v-380h-170z" />
    <glyph glyph-name="section" unicode="&#xa7;" horiz-adv-x="565" 
d="M55 -25l95 95q11 -15 27 -28q31 -27 68 -27q65 0 65 50q0 19 -27 35.5t-65 33t-76 37.5t-65 58t-27 86q0 58 47 99q20 17 48 31q-20 12 -35 29q-35 35 -35 86q0 63 58 111.5t152 48.5q83 0 151 -43q31 -19 49 -42l-85 -95q-13 11 -28 22q-36 23 -62 23q-55 0 -55 -35
q0 -19 27 -35.5t65 -32.5t76 -36.5t65 -57t27 -83.5q0 -57 -48 -103q-18 -17 -47 -32q16 -10 35 -29q35 -39 35 -86q0 -71 -61 -123t-159 -52q-92 0 -162 47q-33 22 -53 48zM210 335q0 -40 60 -73q26 -16 60 -27q7 6 12 14q13 17 13 36q0 35 -60 72q-23 14 -60 28
q-9 -7 -13 -14q-12 -15 -12 -36z" />
    <glyph glyph-name="dieresis" unicode="&#xa8;" horiz-adv-x="460" 
d="M260 640q0 34 25.5 59.5t59.5 25.5t59.5 -25.5t25.5 -59.5t-25.5 -59.5t-59.5 -25.5t-59.5 25.5t-25.5 59.5zM200 640q0 -34 -25.5 -59.5t-59.5 -25.5t-59.5 25.5t-25.5 59.5t25.5 59.5t59.5 25.5t59.5 -25.5t25.5 -59.5z" />
    <glyph glyph-name="copyright" unicode="&#xa9;" horiz-adv-x="850" 
d="M145 350q0 -112 83.5 -196t196.5 -84t196.5 84t83.5 196t-83.5 196t-196.5 84t-196.5 -84t-83.5 -196zM45 350q0 155 109.5 262.5t270.5 107.5t270.5 -107.5t109.5 -262.5t-109.5 -262.5t-270.5 -107.5t-270.5 107.5t-109.5 262.5zM530 295l65 -65q-16 -22 -40 -40
q-54 -40 -125 -40q-82 0 -141 59t-59 141t59 141t141 59q71 0 125 -40q24 -18 40 -40l-65 -65q-12 12 -24 20q-29 20 -66 20q-42 0 -68.5 -26.5t-26.5 -68.5t26.5 -68.5t68.5 -26.5q37 0 66 20q12 8 24 20z" />
    <glyph glyph-name="ordfeminine" unicode="&#xaa;" horiz-adv-x="380" 
d="M230 380v35q-7 -11 -23 -23q-32 -22 -72 -22q-48 0 -76.5 27.5t-28.5 72.5q0 38 28 65t77 35l95 15q-10 30 -50 30q-30 0 -52 -13q-10 -4 -18 -12l-65 60q17 17 37 30q48 30 108 30q72 0 111 -38t39 -107v-185h-110zM230 510v10l-55 -10q-12 -2 -21 -10.5t-9 -19.5
q0 -30 30 -30q23 0 39 17t16 43z" />
    <glyph glyph-name="guillemotleft" unicode="&#xab;" horiz-adv-x="605" 
d="M170 60l-130 180l130 180h160l-130 -180l130 -180h-160zM405 60l-130 180l130 180h160l-130 -180l130 -180h-160z" />
    <glyph glyph-name="logicalnot" unicode="&#xac;" horiz-adv-x="495" 
d="M40 280v155h415v-270h-150v115h-265z" />
    <glyph glyph-name="uni00AD" unicode="&#xad;" horiz-adv-x="425" 
d="M50 225v145h325v-145h-325z" />
    <glyph glyph-name="registered" unicode="&#xae;" horiz-adv-x="850" 
d="M275 160v380h180q63 0 101.5 -35.5t38.5 -89.5q0 -46 -33 -81q-13 -15 -32 -24l80 -150h-125l-55 120h-40v-120h-115zM390 375h50q15 0 25 9t10 21t-10 21t-25 9h-50v-60zM145 350q0 -112 83.5 -196t196.5 -84t196.5 84t83.5 196t-83.5 196t-196.5 84t-196.5 -84
t-83.5 -196zM45 350q0 155 109.5 262.5t270.5 107.5t270.5 -107.5t109.5 -262.5t-109.5 -262.5t-270.5 -107.5t-270.5 107.5t-109.5 262.5z" />
    <glyph glyph-name="overscore" unicode="&#xaf;" horiz-adv-x="380" 
d="M30 600v130h320v-130h-320z" />
    <glyph glyph-name="degree" unicode="&#xb0;" horiz-adv-x="400" 
d="M145 555q0 -23 16 -39t39 -16t39 16t16 39t-16 39t-39 16t-39 -16t-16 -39zM35 555q0 64 47.5 109.5t117.5 45.5t117.5 -45.5t47.5 -109.5t-47.5 -109.5t-117.5 -45.5t-117.5 45.5t-47.5 109.5z" />
    <glyph glyph-name="plusminus" unicode="&#xb1;" horiz-adv-x="530" 
d="M35 330v155h155v145h150v-145h155v-155h-155v-150h-150v150h-155zM35 0v145h460v-145h-460z" />
    <glyph glyph-name="uni00B2" unicode="&#xb2;" horiz-adv-x="340" 
d="M190 545h115v-105h-275q0 50 16 88.5t38.5 59.5t45.5 36t39 27t16 24q0 25 -30 25q-16 0 -29 -13q-7 -5 -11 -12l-90 32q11 28 29 49q47 49 116 49q66 0 103 -32t37 -83q0 -36 -22 -63t-56 -49.5t-42 -32.5z" />
    <glyph glyph-name="uni00B3" unicode="&#xb3;" horiz-adv-x="345" 
d="M20 500l60 60q8 -10 20 -18q23 -17 50 -17q18 0 29 9t11 21t-11 21t-29 9h-40v80h35q35 0 35 25t-35 25q-19 0 -39 -13q-8 -4 -16 -12l-60 60q12 14 34 27q43 28 106 28q61 0 98 -30t37 -70q0 -34 -30 -58q-15 -11 -30 -17q17 -7 35 -18q35 -27 35 -67q0 -44 -40 -77
t-105 -33q-63 0 -113 32q-22 13 -37 33z" />
    <glyph glyph-name="acute" unicode="&#xb4;" horiz-adv-x="325" 
d="M30 550l85 160h180l-120 -160h-145z" />
    <glyph glyph-name="uni00B5" unicode="&#xb5;" horiz-adv-x="620" 
d="M60 -210v700h170v-260q0 -37 19.5 -58.5t50.5 -21.5q35 0 57.5 24.5t22.5 65.5v250h170v-315q0 -30 30 -30q4 0 14 2l6 3v-145q-2 -1 -18 -8q-18 -7 -47 -7q-62 0 -100 40q-18 20 -25 40h-5q-13 -22 -36 -40q-50 -40 -119 -40h-20v-200h-170z" />
    <glyph glyph-name="paragraph" unicode="&#xb6;" horiz-adv-x="665" 
d="M215 -100v430q-75 0 -130 54.5t-55 130.5t55 130.5t130 54.5h370v-800h-150v630h-70v-630h-150z" />
    <glyph glyph-name="middot" unicode="&#xb7;" horiz-adv-x="220" 
d="M15 250q0 39 26.5 64.5t68.5 25.5t68.5 -25.5t26.5 -64.5t-26.5 -64.5t-68.5 -25.5t-68.5 25.5t-26.5 64.5z" />
    <glyph glyph-name="cedilla" unicode="&#xb8;" horiz-adv-x="315" 
d="M30 -210l45 70q7 -8 19 -15q22 -15 46 -15q35 0 35 30t-35 30q-2 0 -14 -3l-6 -2l-35 35l45 100h80l-35 -65q28 -4 55 -17q55 -31 55 -88q0 -44 -36 -74.5t-94 -30.5q-51 0 -93 22q-22 13 -32 23z" />
    <glyph glyph-name="uni00B9" unicode="&#xb9;" horiz-adv-x="240" 
d="M80 440v225h-60v85q31 4 56 27q12 12 19 23h105v-360h-120z" />
    <glyph glyph-name="ordmasculine" unicode="&#xba;" horiz-adv-x="400" 
d="M200 480q26 0 43 17t17 43t-17 43t-43 17t-43 -17t-17 -43t17 -43t43 -17zM25 540q0 72 50 121t125 49t125 -49t50 -121t-50 -121t-125 -49t-125 49t-50 121z" />
    <glyph glyph-name="guillemotright" unicode="&#xbb;" horiz-adv-x="605" 
d="M275 60l130 180l-130 180h160l130 -180l-130 -180h-160zM40 60l130 180l-130 180h160l130 -180l-130 -180h-160z" />
    <glyph glyph-name="onequarter" unicode="&#xbc;" horiz-adv-x="760" 
d="M70 0l435 700h160l-435 -700h-160zM90 340v225h-60v85q31 4 56 27q12 12 19 23h105v-360h-120zM435 65v95l160 200h110v-195h35v-100h-35v-65h-115v65h-155zM535 160h60v75z" />
    <glyph glyph-name="onehalf" unicode="&#xbd;" horiz-adv-x="790" 
d="M70 0l435 700h160l-435 -700h-160zM90 340v225h-60v85q31 4 56 27q12 12 19 23h105v-360h-120zM640 105h115v-105h-275q0 50 16 88.5t39 59.5t45.5 36t38.5 27t16 24q0 25 -30 25q-16 0 -29 -13q-7 -5 -11 -12l-90 32q11 28 29 49q47 49 116 49q66 0 103 -32t37 -83
q0 -36 -22 -63t-56 -49.5t-42 -32.5z" />
    <glyph glyph-name="threequarters" unicode="&#xbe;" horiz-adv-x="825" 
d="M135 0l435 700h160l-435 -700h-160zM500 65v95l160 200h110v-195h35v-100h-35v-65h-115v65h-155zM600 160h60v75zM20 400l60 60q8 -10 20 -18q23 -17 50 -17q18 0 29 9t11 21t-11 21t-29 9h-40v80h35q35 0 35 25t-35 25q-19 0 -39 -13q-8 -4 -16 -12l-60 60q12 14 34 27
q43 28 106 28q61 0 98 -30t37 -70q0 -34 -30 -58q-15 -11 -30 -17q17 -7 35 -18q35 -27 35 -67q0 -44 -40 -77t-105 -33q-63 0 -113 32q-22 13 -37 33z" />
    <glyph glyph-name="questiondown" unicode="&#xbf;" horiz-adv-x="545" 
d="M385 15l160 -75q-19 -46 -56 -85q-79 -85 -209 -85q-112 0 -186 64t-74 146q0 44 19.5 81t47.5 62.5t56 48t47.5 49t19.5 54.5h160q0 -1 5 -13q5 -13 5 -32q0 -36 -16 -65.5t-39 -48.5t-45.5 -36t-38.5 -35.5t-16 -39.5q0 -24 18 -39.5t47 -15.5q44 0 74 32q14 14 21 33z
M390 410q0 -39 -26.5 -64.5t-68.5 -25.5t-68.5 25.5t-26.5 64.5t26.5 64.5t68.5 25.5t68.5 -25.5t26.5 -64.5z" />
    <glyph glyph-name="Agrave" unicode="&#xc0;" horiz-adv-x="730" 
d="M300 305h130l-63 200h-4zM-5 0l265 700h210l265 -700h-205l-50 150h-230l-50 -150h-205zM285 780l-120 160h180l85 -160h-145z" />
    <glyph glyph-name="Aacute" unicode="&#xc1;" horiz-adv-x="730" 
d="M300 305h130l-63 200h-4zM-5 0l265 700h210l265 -700h-205l-50 150h-230l-50 -150h-205zM300 780l85 160h180l-120 -160h-145z" />
    <glyph glyph-name="Acircumflex" unicode="&#xc2;" horiz-adv-x="730" 
d="M300 305h130l-63 200h-4zM-5 0l265 700h210l265 -700h-205l-50 150h-230l-50 -150h-205zM160 780l130 160h150l130 -160h-155l-50 70l-50 -70h-155z" />
    <glyph glyph-name="Atilde" unicode="&#xc3;" horiz-adv-x="730" 
d="M300 305h130l-63 200h-4zM-5 0l265 700h210l265 -700h-205l-50 150h-230l-50 -150h-205zM180 770v40q0 62 29 96t76 34q33 0 72 -22.5t53 -22.5q35 0 35 45h105v-40q0 -62 -29 -96t-76 -34q-33 0 -71.5 22.5t-53.5 22.5q-35 0 -35 -45h-105z" />
    <glyph glyph-name="Adieresis" unicode="&#xc4;" horiz-adv-x="730" 
d="M300 305h130l-63 200h-4zM-5 0l265 700h210l265 -700h-205l-50 150h-230l-50 -150h-205zM395 865q0 34 25.5 59.5t59.5 25.5t59.5 -25.5t25.5 -59.5t-25.5 -59.5t-59.5 -25.5t-59.5 25.5t-25.5 59.5zM335 865q0 -34 -25.5 -59.5t-59.5 -25.5t-59.5 25.5t-25.5 59.5
t25.5 59.5t59.5 25.5t59.5 -25.5t25.5 -59.5z" />
    <glyph glyph-name="Aring" unicode="&#xc5;" horiz-adv-x="730" 
d="M300 305h130l-63 200h-4zM-5 0l265 700h210l265 -700h-205l-50 150h-230l-50 -150h-205zM325 870q0 -18 12 -29t28 -11t28 11t12 29t-12 29t-28 11t-28 -11t-12 -29zM235 870q0 49 37.5 84.5t92.5 35.5t92.5 -35.5t37.5 -84.5t-37.5 -84.5t-92.5 -35.5t-92.5 35.5
t-37.5 84.5z" />
    <glyph glyph-name="AE" unicode="&#xc6;" horiz-adv-x="1015" 
d="M-50 0l390 700h625v-170h-315v-100h235v-160h-235v-100h325v-170h-515v155h-225l-85 -155h-200zM330 325h130v215h-10z" />
    <glyph glyph-name="Ccedilla" unicode="&#xc7;" horiz-adv-x="755" 
d="M285 -210l45 70q7 -8 19 -15q23 -15 46 -15q35 0 35 30t-35 30q-2 0 -14 -3l-6 -2l-35 35l30 65q-145 18 -237.5 121.5t-92.5 243.5q0 155 111.5 262.5t278.5 107.5q126 0 225 -68q44 -31 75 -67l-115 -130q-23 25 -51 45q-65 45 -134 45q-82 0 -138.5 -56.5
t-56.5 -138.5t56.5 -138.5t138.5 -56.5q68 0 136 45q30 20 54 45l115 -130q-33 -39 -74 -66q-97 -65 -216 -69l-15 -25q28 -4 55 -17q55 -31 55 -88q0 -44 -36 -74.5t-94 -30.5q-51 0 -93 22q-22 13 -32 23z" />
    <glyph glyph-name="Egrave" unicode="&#xc8;" horiz-adv-x="665" 
d="M80 0v700h535v-170h-345v-100h265v-160h-265v-100h355v-170h-545zM275 780l-120 160h180l85 -160h-145z" />
    <glyph glyph-name="Eacute" unicode="&#xc9;" horiz-adv-x="665" 
d="M80 0v700h535v-170h-345v-100h265v-160h-265v-100h355v-170h-545zM270 780l85 160h180l-120 -160h-145z" />
    <glyph glyph-name="Ecircumflex" unicode="&#xca;" horiz-adv-x="665" 
d="M80 0v700h535v-170h-345v-100h265v-160h-265v-100h355v-170h-545zM140 780l130 160h150l130 -160h-155l-50 70l-50 -70h-155z" />
    <glyph glyph-name="Edieresis" unicode="&#xcb;" horiz-adv-x="665" 
d="M80 0v700h535v-170h-345v-100h265v-160h-265v-100h355v-170h-545zM375 865q0 34 25.5 59.5t59.5 25.5t59.5 -25.5t25.5 -59.5t-25.5 -59.5t-59.5 -25.5t-59.5 25.5t-25.5 59.5zM315 865q0 -34 -25.5 -59.5t-59.5 -25.5t-59.5 25.5t-25.5 59.5t25.5 59.5t59.5 25.5
t59.5 -25.5t25.5 -59.5z" />
    <glyph glyph-name="Igrave" unicode="&#xcc;" horiz-adv-x="350" 
d="M80 0v700h190v-700h-190zM105 780l-120 160h180l85 -160h-145z" />
    <glyph glyph-name="Iacute" unicode="&#xcd;" horiz-adv-x="350" 
d="M80 0v700h190v-700h-190zM100 780l85 160h180l-120 -160h-145z" />
    <glyph glyph-name="Icircumflex" unicode="&#xce;" horiz-adv-x="350" 
d="M80 0v700h190v-700h-190zM-30 780l130 160h150l130 -160h-155l-50 70l-50 -70h-155z" />
    <glyph glyph-name="Idieresis" unicode="&#xcf;" horiz-adv-x="350" 
d="M80 0v700h190v-700h-190zM205 865q0 34 25.5 59.5t59.5 25.5t59.5 -25.5t25.5 -59.5t-25.5 -59.5t-59.5 -25.5t-59.5 25.5t-25.5 59.5zM145 865q0 -34 -25.5 -59.5t-59.5 -25.5t-59.5 25.5t-25.5 59.5t25.5 59.5t59.5 25.5t59.5 -25.5t25.5 -59.5z" />
    <glyph glyph-name="Eth" unicode="&#xd0;" horiz-adv-x="775" 
d="M95 0v315h-75v70h75v315h260q166 0 273 -101t107 -249t-107 -249t-273 -101h-260zM285 170h70q81 0 133 51t52 129t-52 129t-133 51h-70v-145h105v-70h-105v-145z" />
    <glyph glyph-name="Ntilde" unicode="&#xd1;" horiz-adv-x="815" 
d="M80 0v700h165l300 -385v385h190v-700h-165l-300 385v-385h-190zM225 770v40q0 62 29 96t76 34q32 0 71 -22.5t54 -22.5q35 0 35 45h105v-40q0 -62 -29 -96t-76 -34q-33 0 -71.5 22.5t-53.5 22.5q-35 0 -35 -45h-105z" />
    <glyph glyph-name="Ograve" unicode="&#xd2;" horiz-adv-x="860" 
d="M235 350q0 -82 56.5 -138.5t138.5 -56.5t138.5 56.5t56.5 138.5t-56.5 138.5t-138.5 56.5t-138.5 -56.5t-56.5 -138.5zM40 350q0 155 111.5 262.5t278.5 107.5t278.5 -107.5t111.5 -262.5t-111.5 -262.5t-278.5 -107.5t-278.5 107.5t-111.5 262.5zM360 780l-120 160h180
l85 -160h-145z" />
    <glyph glyph-name="Oacute" unicode="&#xd3;" horiz-adv-x="860" 
d="M235 350q0 -82 56.5 -138.5t138.5 -56.5t138.5 56.5t56.5 138.5t-56.5 138.5t-138.5 56.5t-138.5 -56.5t-56.5 -138.5zM40 350q0 155 111.5 262.5t278.5 107.5t278.5 -107.5t111.5 -262.5t-111.5 -262.5t-278.5 -107.5t-278.5 107.5t-111.5 262.5zM355 780l85 160h180
l-120 -160h-145z" />
    <glyph glyph-name="Ocircumflex" unicode="&#xd4;" horiz-adv-x="860" 
d="M235 350q0 -82 56.5 -138.5t138.5 -56.5t138.5 56.5t56.5 138.5t-56.5 138.5t-138.5 56.5t-138.5 -56.5t-56.5 -138.5zM40 350q0 155 111.5 262.5t278.5 107.5t278.5 -107.5t111.5 -262.5t-111.5 -262.5t-278.5 -107.5t-278.5 107.5t-111.5 262.5zM225 780l130 160h150
l130 -160h-155l-50 70l-50 -70h-155z" />
    <glyph glyph-name="Otilde" unicode="&#xd5;" horiz-adv-x="860" 
d="M235 350q0 -82 56.5 -138.5t138.5 -56.5t138.5 56.5t56.5 138.5t-56.5 138.5t-138.5 56.5t-138.5 -56.5t-56.5 -138.5zM40 350q0 155 111.5 262.5t278.5 107.5t278.5 -107.5t111.5 -262.5t-111.5 -262.5t-278.5 -107.5t-278.5 107.5t-111.5 262.5zM245 770v40q0 62 29 96
t76 34q32 0 71 -22.5t54 -22.5q35 0 35 45h105v-40q0 -62 -29 -96t-76 -34q-33 0 -71.5 22.5t-53.5 22.5q-35 0 -35 -45h-105z" />
    <glyph glyph-name="Odieresis" unicode="&#xd6;" horiz-adv-x="860" 
d="M235 350q0 -82 56.5 -138.5t138.5 -56.5t138.5 56.5t56.5 138.5t-56.5 138.5t-138.5 56.5t-138.5 -56.5t-56.5 -138.5zM40 350q0 155 111.5 262.5t278.5 107.5t278.5 -107.5t111.5 -262.5t-111.5 -262.5t-278.5 -107.5t-278.5 107.5t-111.5 262.5zM460 865
q0 34 25.5 59.5t59.5 25.5t59.5 -25.5t25.5 -59.5t-25.5 -59.5t-59.5 -25.5t-59.5 25.5t-25.5 59.5zM400 865q0 -34 -25.5 -59.5t-59.5 -25.5t-59.5 25.5t-25.5 59.5t25.5 59.5t59.5 25.5t59.5 -25.5t25.5 -59.5z" />
    <glyph glyph-name="multiply" unicode="&#xd7;" horiz-adv-x="510" 
d="M35 190l120 120l-120 120l100 100l120 -120l120 120l100 -100l-120 -120l120 -120l-100 -100l-120 120l-120 -120z" />
    <glyph glyph-name="Oslash" unicode="&#xd8;" horiz-adv-x="860" 
d="M40 35l90 80q-25 28 -45 65q-45 80 -45 170q0 155 111.5 262.5t278.5 107.5q101 0 187 -45q40 -20 68 -45l90 80l45 -45l-90 -80q25 -28 45 -65q45 -80 45 -170q0 -155 -111.5 -262.5t-278.5 -107.5q-102 0 -188 45q-38 19 -67 45l-90 -80zM595 455l-285 -260
q14 -11 32 -20q38 -20 88 -20q82 0 138.5 56.5t56.5 138.5q0 36 -15 77q-7 15 -15 28zM265 245l285 260q-14 11 -32 20q-38 20 -88 20q-82 0 -138.5 -56.5t-56.5 -138.5q0 -41 15 -77q6 -16 15 -28z" />
    <glyph glyph-name="Ugrave" unicode="&#xd9;" horiz-adv-x="790" 
d="M75 290v410h190v-410q0 -60 36.5 -97.5t93.5 -37.5t93.5 37.5t36.5 97.5v410h190v-410q0 -136 -89.5 -223t-230.5 -87t-230.5 87t-89.5 223zM325 780l-120 160h180l85 -160h-145z" />
    <glyph glyph-name="Uacute" unicode="&#xda;" horiz-adv-x="790" 
d="M75 290v410h190v-410q0 -60 36.5 -97.5t93.5 -37.5t93.5 37.5t36.5 97.5v410h190v-410q0 -136 -89.5 -223t-230.5 -87t-230.5 87t-89.5 223zM320 780l85 160h180l-120 -160h-145z" />
    <glyph glyph-name="Ucircumflex" unicode="&#xdb;" horiz-adv-x="790" 
d="M75 290v410h190v-410q0 -60 36.5 -97.5t93.5 -37.5t93.5 37.5t36.5 97.5v410h190v-410q0 -136 -89.5 -223t-230.5 -87t-230.5 87t-89.5 223zM190 780l130 160h150l130 -160h-155l-50 70l-50 -70h-155z" />
    <glyph glyph-name="Udieresis" unicode="&#xdc;" horiz-adv-x="790" 
d="M75 290v410h190v-410q0 -60 36.5 -97.5t93.5 -37.5t93.5 37.5t36.5 97.5v410h190v-410q0 -136 -89.5 -223t-230.5 -87t-230.5 87t-89.5 223zM425 865q0 34 25.5 59.5t59.5 25.5t59.5 -25.5t25.5 -59.5t-25.5 -59.5t-59.5 -25.5t-59.5 25.5t-25.5 59.5zM365 865
q0 -34 -25.5 -59.5t-59.5 -25.5t-59.5 25.5t-25.5 59.5t25.5 59.5t59.5 25.5t59.5 -25.5t25.5 -59.5z" />
    <glyph glyph-name="Yacute" unicode="&#xdd;" horiz-adv-x="670" 
d="M240 0v250l-250 450h210l133 -275h4l133 275h210l-250 -450v-250h-190zM260 780l85 160h180l-120 -160h-145z" />
    <glyph glyph-name="Thorn" unicode="&#xde;" horiz-adv-x="765" 
d="M80 0v700h190v-110h220q108 0 176.5 -65.5t68.5 -164.5t-68.5 -164.5t-176.5 -65.5h-220v-130h-190zM270 300h210q26 0 45.5 18.5t19.5 41.5t-19.5 41.5t-45.5 18.5h-210v-120z" />
    <glyph glyph-name="germandbls" unicode="&#xdf;" horiz-adv-x="625" 
d="M65 0v480q0 102 67 166t178 64q101 0 165.5 -56t64.5 -134q0 -61 -43 -108q-19 -20 -42 -32q37 -13 67 -36q68 -52 68 -134q0 -90 -68.5 -150t-182.5 -60h-44v160h45q29 0 49.5 18t20.5 42q0 27 -20 46t-50 19h-45v150h15q29 0 47 18t18 42q0 27 -17.5 43.5t-47.5 16.5
q-34 0 -54.5 -20.5t-20.5 -54.5v-480h-170z" />
    <glyph glyph-name="agrave" unicode="&#xe0;" horiz-adv-x="540" 
d="M315 0v65h-5q-15 -23 -31 -38q-41 -37 -99 -37q-67 0 -111 41t-44 99q0 63 38.5 104t111.5 56l140 30q-4 20 -23 35t-47 15q-39 0 -74 -25q-14 -10 -26 -25l-90 85q24 27 54 47q70 48 151 48q100 0 162.5 -57t62.5 -139v-304h-170zM315 205v15l-70 -15q-19 -4 -32 -17
t-13 -28q0 -40 45 -40q31 0 50.5 22t19.5 63zM205 555l-120 160h180l85 -160h-145z" />
    <glyph glyph-name="aacute" unicode="&#xe1;" horiz-adv-x="540" 
d="M315 0v65h-5q-15 -23 -31 -38q-41 -37 -99 -37q-67 0 -111 41t-44 99q0 63 38.5 104t111.5 56l140 30q-4 20 -23 35t-47 15q-39 0 -74 -25q-14 -10 -26 -25l-90 85q24 27 54 47q70 48 151 48q100 0 162.5 -57t62.5 -139v-304h-170zM315 205v15l-70 -15q-19 -4 -32 -17
t-13 -28q0 -40 45 -40q31 0 50.5 22t19.5 63zM200 555l85 160h180l-120 -160h-145z" />
    <glyph glyph-name="acircumflex" unicode="&#xe2;" horiz-adv-x="540" 
d="M315 0v65h-5q-15 -23 -31 -38q-41 -37 -99 -37q-67 0 -111 41t-44 99q0 63 38.5 104t111.5 56l140 30q-4 20 -23 35t-47 15q-39 0 -74 -25q-14 -10 -26 -25l-90 85q24 27 54 47q70 48 151 48q100 0 162.5 -57t62.5 -139v-304h-170zM315 205v15l-70 -15q-19 -4 -32 -17
t-13 -28q0 -40 45 -40q31 0 50.5 22t19.5 63zM70 555l130 160h150l130 -160h-155l-50 70l-50 -70h-155z" />
    <glyph glyph-name="atilde" unicode="&#xe3;" horiz-adv-x="540" 
d="M315 0v65h-5q-15 -23 -31 -38q-41 -37 -99 -37q-67 0 -111 41t-44 99q0 63 38.5 104t111.5 56l140 30q-4 20 -23 35t-47 15q-39 0 -74 -25q-14 -10 -26 -25l-90 85q24 27 54 47q70 48 151 48q100 0 162.5 -57t62.5 -139v-304h-170zM315 205v15l-70 -15q-19 -4 -32 -17
t-13 -28q0 -40 45 -40q31 0 50.5 22t19.5 63zM90 545v40q0 62 29 96t76 34q33 0 72 -22.5t53 -22.5q35 0 35 45h105v-40q0 -62 -29 -96t-76 -34q-33 0 -71.5 22.5t-53.5 22.5q-35 0 -35 -45h-105z" />
    <glyph glyph-name="adieresis" unicode="&#xe4;" horiz-adv-x="540" 
d="M315 0v65h-5q-15 -23 -31 -38q-41 -37 -99 -37q-67 0 -111 41t-44 99q0 63 38.5 104t111.5 56l140 30q-4 20 -23 35t-47 15q-39 0 -74 -25q-14 -10 -26 -25l-90 85q24 27 54 47q70 48 151 48q100 0 162.5 -57t62.5 -139v-304h-170zM315 205v15l-70 -15q-19 -4 -32 -17
t-13 -28q0 -40 45 -40q31 0 50.5 22t19.5 63zM305 640q0 34 25.5 59.5t59.5 25.5t59.5 -25.5t25.5 -59.5t-25.5 -59.5t-59.5 -25.5t-59.5 25.5t-25.5 59.5zM245 640q0 -34 -25.5 -59.5t-59.5 -25.5t-59.5 25.5t-25.5 59.5t25.5 59.5t59.5 25.5t59.5 -25.5t25.5 -59.5z" />
    <glyph glyph-name="aring" unicode="&#xe5;" horiz-adv-x="540" 
d="M315 0v65h-5q-15 -23 -31 -38q-41 -37 -99 -37q-67 0 -111 41t-44 99q0 63 38.5 104t111.5 56l140 30q-4 20 -23 35t-47 15q-39 0 -74 -25q-14 -10 -26 -25l-90 85q24 27 54 47q70 48 151 48q100 0 162.5 -57t62.5 -139v-304h-170zM315 205v15l-70 -15q-19 -4 -32 -17
t-13 -28q0 -40 45 -40q31 0 50.5 22t19.5 63zM235 645q0 -18 12 -29t28 -11t28 11t12 29t-12 29t-28 11t-28 -11t-12 -29zM145 645q0 49 37.5 84.5t92.5 35.5t92.5 -35.5t37.5 -84.5t-37.5 -84.5t-92.5 -35.5t-92.5 35.5t-37.5 84.5z" />
    <glyph glyph-name="ae" unicode="&#xe6;" horiz-adv-x="865" 
d="M145 320l-90 85q24 28 52 47q70 48 143 48q67 0 121 -40q23 -19 39 -40q16 21 44 40q58 40 131 40q105 0 177.5 -72.5t72.5 -177.5q0 -6 -3 -39l-2 -16h-335q4 -26 34.5 -48t75.5 -22q46 0 88 22q22 13 32 23l65 -110q-23 -20 -53 -35q-64 -35 -147 -35q-80 0 -141 45
q-27 20 -44 45q-21 -27 -47 -45q-63 -45 -148 -45q-86 0 -135.5 40.5t-49.5 99.5q0 63 38.5 104t111.5 56l140 30q-4 20 -23 35t-47 15q-39 0 -74 -25q-14 -10 -26 -25zM495 300h170q-9 28 -31 46.5t-54 18.5t-54 -18.5t-31 -46.5zM315 205v15l-70 -15q-19 -4 -32 -17
t-13 -28q0 -40 45 -40q31 0 50.5 22.5t19.5 62.5z" />
    <glyph glyph-name="ccedilla" unicode="&#xe7;" horiz-adv-x="535" 
d="M160 -210l45 70q7 -8 19 -15q22 -15 46 -15q35 0 35 30t-35 30q-2 0 -14 -3l-6 -2l-35 35l35 75q-89 15 -152 85.5t-63 164.5q0 106 77.5 180.5t192.5 74.5q89 0 159 -50q32 -24 51 -50l-100 -105q-12 15 -26 25q-35 25 -74 25q-45 0 -75 -29t-30 -71t30 -71t75 -29
q41 0 74 25q14 10 26 25l100 -105q-19 -25 -46 -46q-62 -48 -144 -54l-20 -35q28 -4 55 -17q55 -31 55 -88q0 -44 -36 -74.5t-94 -30.5q-51 0 -93 22q-22 13 -32 23z" />
    <glyph glyph-name="egrave" unicode="&#xe8;" horiz-adv-x="580" 
d="M440 170l65 -110q-23 -20 -53 -35q-64 -35 -147 -35q-115 0 -192.5 74.5t-77.5 180.5q0 105 76 180t184 75t181.5 -72.5t73.5 -177.5q0 -6 -3 -39l-2 -16h-335q4 -26 34.5 -48t75.5 -22q46 0 88 22q22 13 32 23zM210 300h170q-9 28 -31 46.5t-54 18.5t-54 -18.5
t-31 -46.5zM225 555l-120 160h180l85 -160h-145z" />
    <glyph glyph-name="eacute" unicode="&#xe9;" horiz-adv-x="580" 
d="M440 170l65 -110q-23 -20 -53 -35q-64 -35 -147 -35q-115 0 -192.5 74.5t-77.5 180.5q0 105 76 180t184 75t181.5 -72.5t73.5 -177.5q0 -6 -3 -39l-2 -16h-335q4 -26 34.5 -48t75.5 -22q46 0 88 22q22 13 32 23zM210 300h170q-9 28 -31 46.5t-54 18.5t-54 -18.5
t-31 -46.5zM220 555l85 160h180l-120 -160h-145z" />
    <glyph glyph-name="ecircumflex" unicode="&#xea;" horiz-adv-x="580" 
d="M440 170l65 -110q-23 -20 -53 -35q-64 -35 -147 -35q-115 0 -192.5 74.5t-77.5 180.5q0 105 76 180t184 75t181.5 -72.5t73.5 -177.5q0 -6 -3 -39l-2 -16h-335q4 -26 34.5 -48t75.5 -22q46 0 88 22q22 13 32 23zM210 300h170q-9 28 -31 46.5t-54 18.5t-54 -18.5
t-31 -46.5zM90 555l130 160h150l130 -160h-155l-50 70l-50 -70h-155z" />
    <glyph glyph-name="edieresis" unicode="&#xeb;" horiz-adv-x="580" 
d="M440 170l65 -110q-23 -20 -53 -35q-64 -35 -147 -35q-115 0 -192.5 74.5t-77.5 180.5q0 105 76 180t184 75t181.5 -72.5t73.5 -177.5q0 -6 -3 -39l-2 -16h-335q4 -26 34.5 -48t75.5 -22q46 0 88 22q22 13 32 23zM210 300h170q-9 28 -31 46.5t-54 18.5t-54 -18.5
t-31 -46.5zM325 640q0 34 25.5 59.5t59.5 25.5t59.5 -25.5t25.5 -59.5t-25.5 -59.5t-59.5 -25.5t-59.5 25.5t-25.5 59.5zM265 640q0 -34 -25.5 -59.5t-59.5 -25.5t-59.5 25.5t-25.5 59.5t25.5 59.5t59.5 25.5t59.5 -25.5t25.5 -59.5z" />
    <glyph glyph-name="igrave" unicode="&#xec;" horiz-adv-x="300" 
d="M65 0v490h170v-490h-170zM80 555l-120 160h180l85 -160h-145z" />
    <glyph glyph-name="iacute" unicode="&#xed;" horiz-adv-x="300" 
d="M65 0v490h170v-490h-170zM75 555l85 160h180l-120 -160h-145z" />
    <glyph glyph-name="icircumflex" unicode="&#xee;" horiz-adv-x="300" 
d="M65 0v490h170v-490h-170zM-55 555l130 160h150l130 -160h-155l-50 70l-50 -70h-155z" />
    <glyph glyph-name="idieresis" unicode="&#xef;" horiz-adv-x="300" 
d="M65 0v490h170v-490h-170zM180 640q0 34 25.5 59.5t59.5 25.5t59.5 -25.5t25.5 -59.5t-25.5 -59.5t-59.5 -25.5t-59.5 25.5t-25.5 59.5zM120 640q0 -34 -25.5 -59.5t-59.5 -25.5t-59.5 25.5t-25.5 59.5t25.5 59.5t59.5 25.5t59.5 -25.5t25.5 -59.5z" />
    <glyph glyph-name="eth" unicode="&#xf0;" horiz-adv-x="615" 
d="M165 540l-40 45l100 45q-28 26 -76 57q-26 16 -39 23l130 60q12 -7 36 -23q54 -38 74 -57l95 45l40 -45l-90 -40q180 -185 180 -385q0 -120 -77.5 -197.5t-197.5 -77.5q-118 0 -194 70t-76 170q0 99 73.5 169.5t181.5 70.5q31 0 72 -15q10 -4 28 -14h5q-23 50 -75 106
q-20 21 -45 43zM300 135q38 0 66.5 28.5t28.5 66.5t-28.5 66.5t-66.5 28.5t-66.5 -28.5t-28.5 -66.5t28.5 -66.5t66.5 -28.5z" />
    <glyph glyph-name="ntilde" unicode="&#xf1;" horiz-adv-x="605" 
d="M60 0v490h170v-70h5q11 21 32 40q46 40 108 40q77 0 126 -55t49 -150v-295h-170v260q0 37 -19.5 58.5t-50.5 21.5q-35 0 -57.5 -24.5t-22.5 -65.5v-250h-170zM120 545v40q0 62 29 96t76 34q33 0 72 -22.5t53 -22.5q35 0 35 45h105v-40q0 -62 -29 -96t-76 -34
q-33 0 -71.5 22.5t-53.5 22.5q-35 0 -35 -45h-105z" />
    <glyph glyph-name="ograve" unicode="&#xf2;" 
d="M305 145q38 0 66.5 29.5t28.5 70.5t-28.5 70.5t-66.5 29.5t-66.5 -29.5t-28.5 -70.5t28.5 -70.5t66.5 -29.5zM35 245q0 106 77.5 180.5t192.5 74.5t192.5 -74.5t77.5 -180.5t-77.5 -180.5t-192.5 -74.5t-192.5 74.5t-77.5 180.5zM235 555l-120 160h180l85 -160h-145z" />
    <glyph glyph-name="oacute" unicode="&#xf3;" 
d="M305 145q38 0 66.5 29.5t28.5 70.5t-28.5 70.5t-66.5 29.5t-66.5 -29.5t-28.5 -70.5t28.5 -70.5t66.5 -29.5zM35 245q0 106 77.5 180.5t192.5 74.5t192.5 -74.5t77.5 -180.5t-77.5 -180.5t-192.5 -74.5t-192.5 74.5t-77.5 180.5zM230 555l85 160h180l-120 -160h-145z" />
    <glyph glyph-name="ocircumflex" unicode="&#xf4;" 
d="M305 145q38 0 66.5 29.5t28.5 70.5t-28.5 70.5t-66.5 29.5t-66.5 -29.5t-28.5 -70.5t28.5 -70.5t66.5 -29.5zM35 245q0 106 77.5 180.5t192.5 74.5t192.5 -74.5t77.5 -180.5t-77.5 -180.5t-192.5 -74.5t-192.5 74.5t-77.5 180.5zM100 555l130 160h150l130 -160h-155
l-50 70l-50 -70h-155z" />
    <glyph glyph-name="otilde" unicode="&#xf5;" 
d="M305 145q38 0 66.5 29.5t28.5 70.5t-28.5 70.5t-66.5 29.5t-66.5 -29.5t-28.5 -70.5t28.5 -70.5t66.5 -29.5zM35 245q0 106 77.5 180.5t192.5 74.5t192.5 -74.5t77.5 -180.5t-77.5 -180.5t-192.5 -74.5t-192.5 74.5t-77.5 180.5zM120 545v40q0 62 29 96t76 34
q33 0 72 -22.5t53 -22.5q35 0 35 45h105v-40q0 -62 -29 -96t-76 -34q-33 0 -71.5 22.5t-53.5 22.5q-35 0 -35 -45h-105z" />
    <glyph glyph-name="odieresis" unicode="&#xf6;" 
d="M305 145q38 0 66.5 29.5t28.5 70.5t-28.5 70.5t-66.5 29.5t-66.5 -29.5t-28.5 -70.5t28.5 -70.5t66.5 -29.5zM35 245q0 106 77.5 180.5t192.5 74.5t192.5 -74.5t77.5 -180.5t-77.5 -180.5t-192.5 -74.5t-192.5 74.5t-77.5 180.5zM335 640q0 34 25.5 59.5t59.5 25.5
t59.5 -25.5t25.5 -59.5t-25.5 -59.5t-59.5 -25.5t-59.5 25.5t-25.5 59.5zM275 640q0 -34 -25.5 -59.5t-59.5 -25.5t-59.5 25.5t-25.5 59.5t25.5 59.5t59.5 25.5t59.5 -25.5t25.5 -59.5z" />
    <glyph glyph-name="divide" unicode="&#xf7;" horiz-adv-x="530" 
d="M40 230v130h450v-130h-450zM170 95q0 39 26.5 64.5t68.5 25.5t68.5 -25.5t26.5 -64.5t-26.5 -64.5t-68.5 -25.5t-68.5 25.5t-26.5 64.5zM170 495q0 39 26.5 64.5t68.5 25.5t68.5 -25.5t26.5 -64.5t-26.5 -64.5t-68.5 -25.5t-68.5 25.5t-26.5 64.5z" />
    <glyph glyph-name="oslash" unicode="&#xf8;" 
d="M85 -15l-45 45l55 55q-16 16 -30 41q-30 54 -30 119q0 106 77.5 180.5t192.5 74.5q60 0 120 -25q22 -9 45 -25l55 55l45 -45l-55 -55q16 -16 30 -41q30 -54 30 -119q0 -106 -77.5 -180.5t-192.5 -74.5q-64 0 -120 25q-22 9 -45 25zM394 285l-134 -130q6 -4 11 -5
q13 -5 34 -5q38 0 66.5 29.5t28.5 70.5q0 9 -1.5 19t-2.5 15.5t-2 5.5zM216 205l134 130l-11 5q-13 5 -34 5q-38 0 -66.5 -29.5t-28.5 -70.5q0 -9 1.5 -19t2.5 -15.5t2 -5.5z" />
    <glyph glyph-name="ugrave" unicode="&#xf9;" 
d="M60 195v295h170v-260q0 -37 19.5 -58.5t50.5 -21.5q35 0 57.5 24.5t22.5 65.5v250h170v-490h-170v70h-5q-13 -21 -33 -40q-46 -40 -107 -40q-77 0 -126 54.5t-49 150.5zM235 555l-120 160h180l85 -160h-145z" />
    <glyph glyph-name="uacute" unicode="&#xfa;" 
d="M60 195v295h170v-260q0 -37 19.5 -58.5t50.5 -21.5q35 0 57.5 24.5t22.5 65.5v250h170v-490h-170v70h-5q-13 -21 -33 -40q-46 -40 -107 -40q-77 0 -126 54.5t-49 150.5zM230 555l85 160h180l-120 -160h-145z" />
    <glyph glyph-name="ucircumflex" unicode="&#xfb;" 
d="M60 195v295h170v-260q0 -37 19.5 -58.5t50.5 -21.5q35 0 57.5 24.5t22.5 65.5v250h170v-490h-170v70h-5q-13 -21 -33 -40q-46 -40 -107 -40q-77 0 -126 54.5t-49 150.5zM100 555l130 160h150l130 -160h-155l-50 70l-50 -70h-155z" />
    <glyph glyph-name="udieresis" unicode="&#xfc;" 
d="M60 195v295h170v-260q0 -37 19.5 -58.5t50.5 -21.5q35 0 57.5 24.5t22.5 65.5v250h170v-490h-170v70h-5q-13 -21 -33 -40q-46 -40 -107 -40q-77 0 -126 54.5t-49 150.5zM335 640q0 34 25.5 59.5t59.5 25.5t59.5 -25.5t25.5 -59.5t-25.5 -59.5t-59.5 -25.5t-59.5 25.5
t-25.5 59.5zM275 640q0 -34 -25.5 -59.5t-59.5 -25.5t-59.5 25.5t-25.5 59.5t25.5 59.5t59.5 25.5t59.5 -25.5t25.5 -59.5z" />
    <glyph glyph-name="yacute" unicode="&#xfd;" horiz-adv-x="540" 
d="M45 -195v155q9 -4 16 -5q17 -5 34 -5q53 0 75 40l10 20l-180 480h185l83 -285h4l83 285h185l-195 -515q-39 -100 -86 -142.5t-124 -42.5q-36 0 -64 7q-4 1 -13 3.5t-13 4.5zM195 555l85 160h180l-120 -160h-145z" />
    <glyph glyph-name="thorn" unicode="&#xfe;" horiz-adv-x="635" 
d="M65 -210v910h170v-280h5q13 21 33 40q46 40 112 40q89 0 152 -71t63 -184t-63 -184t-152 -71q-66 0 -112 40q-20 19 -33 40h-5v-280h-170zM330 145q38 0 66.5 29.5t28.5 70.5t-28.5 70.5t-66.5 29.5t-66.5 -29.5t-28.5 -70.5t28.5 -70.5t66.5 -29.5z" />
    <glyph glyph-name="ydieresis" unicode="&#xff;" horiz-adv-x="540" 
d="M45 -195v155q9 -4 16 -5q17 -5 34 -5q53 0 75 40l10 20l-180 480h185l83 -285h4l83 285h185l-195 -515q-39 -100 -86 -142.5t-124 -42.5q-36 0 -64 7q-4 1 -13 3.5t-13 4.5zM300 640q0 34 25.5 59.5t59.5 25.5t59.5 -25.5t25.5 -59.5t-25.5 -59.5t-59.5 -25.5t-59.5 25.5
t-25.5 59.5zM240 640q0 -34 -25.5 -59.5t-59.5 -25.5t-59.5 25.5t-25.5 59.5t25.5 59.5t59.5 25.5t59.5 -25.5t25.5 -59.5z" />
    <glyph glyph-name="Amacron" unicode="&#x100;" horiz-adv-x="730" 
d="M300 305h130l-63 200h-4zM-5 0l265 700h210l265 -700h-205l-50 150h-230l-50 -150h-205zM205 800v130h320v-130h-320z" />
    <glyph glyph-name="amacron" unicode="&#x101;" horiz-adv-x="540" 
d="M315 0v65h-5q-15 -23 -31 -38q-41 -37 -99 -37q-67 0 -111 41t-44 99q0 63 38.5 104t111.5 56l140 30q-4 20 -23 35t-47 15q-39 0 -74 -25q-14 -10 -26 -25l-90 85q24 27 54 47q70 48 151 48q100 0 162.5 -57t62.5 -139v-304h-170zM315 205v15l-70 -15q-19 -4 -32 -17
t-13 -28q0 -40 45 -40q31 0 50.5 22t19.5 63zM115 575v130h320v-130h-320z" />
    <glyph glyph-name="Abreve" unicode="&#x102;" horiz-adv-x="730" 
d="M300 305h130l-63 200h-4zM-5 0l265 700h210l265 -700h-205l-50 150h-230l-50 -150h-205zM195 940h120q0 -23 13.5 -36.5t36.5 -13.5t36.5 13.5t13.5 36.5h120q0 -68 -48 -114t-122 -46t-122 46t-48 114z" />
    <glyph glyph-name="abreve" unicode="&#x103;" horiz-adv-x="540" 
d="M315 0v65h-5q-15 -23 -31 -38q-41 -37 -99 -37q-67 0 -111 41t-44 99q0 63 38.5 104t111.5 56l140 30q-4 20 -23 35t-47 15q-39 0 -74 -25q-14 -10 -26 -25l-90 85q24 27 54 47q70 48 151 48q100 0 162.5 -57t62.5 -139v-304h-170zM315 205v15l-70 -15q-19 -4 -32 -17
t-13 -28q0 -40 45 -40q31 0 50.5 22t19.5 63zM105 715h120q0 -23 13.5 -36.5t36.5 -13.5t36.5 13.5t13.5 36.5h120q0 -68 -48 -114t-122 -46t-122 46t-48 114z" />
    <glyph glyph-name="Aogonek" unicode="&#x104;" horiz-adv-x="730" 
d="M-5 0l265 700h210l265 -700h-135q-9 -14 -15 -32q-15 -36 -15 -73q0 -40 40 -40q21 0 36 7l7 3.5t7 4.5v-90q-10 -6 -23 -10q-30 -10 -67 -10q-51 0 -85.5 32t-34.5 78q0 49 40 95q16 18 40 35l-50 150h-230l-50 -150h-205zM300 305h130l-63 200h-4z" />
    <glyph glyph-name="aogonek" unicode="&#x105;" horiz-adv-x="540" 
d="M315 0v65h-5q-15 -23 -31 -38q-41 -37 -99 -37q-67 0 -111 41t-44 99q0 63 38.5 104t111.5 56l140 30q-4 20 -23 35t-47 15q-39 0 -74 -25q-14 -10 -26 -25l-90 85q24 27 54 47q70 48 151 48q100 0 162.5 -57t62.5 -139v-304h-100q-9 -14 -15 -32q-15 -36 -15 -73
q0 -40 40 -40q21 0 36 7l7 3.5t7 4.5v-90q-10 -6 -23 -10q-30 -10 -67 -10q-51 0 -85.5 32t-34.5 78q0 49 40 95q16 18 40 35zM315 205v15l-70 -15q-19 -4 -32 -17t-13 -28q0 -40 45 -40q31 0 50.5 22t19.5 63z" />
    <glyph glyph-name="Cacute" unicode="&#x106;" horiz-adv-x="755" 
d="M620 245l115 -130q-34 -39 -78 -68q-98 -67 -227 -67q-167 0 -278.5 107.5t-111.5 262.5t111.5 262.5t278.5 107.5q126 0 225 -68q44 -31 75 -67l-115 -130q-23 25 -51 45q-65 45 -134 45q-82 0 -138.5 -56.5t-56.5 -138.5t56.5 -138.5t138.5 -56.5q68 0 136 45
q30 20 54 45zM330 780l85 160h180l-120 -160h-145z" />
    <glyph glyph-name="cacute" unicode="&#x107;" horiz-adv-x="535" 
d="M415 195l100 -105q-19 -26 -51 -50q-70 -50 -159 -50q-115 0 -192.5 74.5t-77.5 180.5t77.5 180.5t192.5 74.5q89 0 159 -50q32 -24 51 -50l-100 -105q-12 15 -26 25q-35 25 -74 25q-45 0 -75 -29t-30 -71t30 -71t75 -29q41 0 74 25q14 10 26 25zM220 555l85 160h180
l-120 -160h-145z" />
    <glyph glyph-name="Ccircumflex" unicode="&#x108;" horiz-adv-x="755" 
d="M620 245l115 -130q-34 -39 -78 -68q-98 -67 -227 -67q-167 0 -278.5 107.5t-111.5 262.5t111.5 262.5t278.5 107.5q126 0 225 -68q44 -31 75 -67l-115 -130q-23 25 -51 45q-65 45 -134 45q-82 0 -138.5 -56.5t-56.5 -138.5t56.5 -138.5t138.5 -56.5q68 0 136 45
q30 20 54 45zM205 780l130 160h150l130 -160h-155l-50 70l-50 -70h-155z" />
    <glyph glyph-name="ccircumflex" unicode="&#x109;" horiz-adv-x="535" 
d="M415 195l100 -105q-19 -26 -51 -50q-70 -50 -159 -50q-115 0 -192.5 74.5t-77.5 180.5t77.5 180.5t192.5 74.5q89 0 159 -50q32 -24 51 -50l-100 -105q-12 15 -26 25q-35 25 -74 25q-45 0 -75 -29t-30 -71t30 -71t75 -29q41 0 74 25q14 10 26 25zM90 555l130 160h150
l130 -160h-155l-50 70l-50 -70h-155z" />
    <glyph glyph-name="Cdotaccent" unicode="&#x10a;" horiz-adv-x="755" 
d="M620 245l115 -130q-34 -39 -78 -68q-98 -67 -227 -67q-167 0 -278.5 107.5t-111.5 262.5t111.5 262.5t278.5 107.5q126 0 225 -68q44 -31 75 -67l-115 -130q-23 25 -51 45q-65 45 -134 45q-82 0 -138.5 -56.5t-56.5 -138.5t56.5 -138.5t138.5 -56.5q68 0 136 45
q30 20 54 45zM315 860q0 39 26.5 64.5t68.5 25.5t68.5 -25.5t26.5 -64.5t-26.5 -64.5t-68.5 -25.5t-68.5 25.5t-26.5 64.5z" />
    <glyph glyph-name="cdotaccent" unicode="&#x10b;" horiz-adv-x="535" 
d="M415 195l100 -105q-19 -26 -51 -50q-70 -50 -159 -50q-115 0 -192.5 74.5t-77.5 180.5t77.5 180.5t192.5 74.5q89 0 159 -50q32 -24 51 -50l-100 -105q-12 15 -26 25q-35 25 -74 25q-45 0 -75 -29t-30 -71t30 -71t75 -29q41 0 74 25q14 10 26 25zM200 635q0 39 26.5 64.5
t68.5 25.5t68.5 -25.5t26.5 -64.5t-26.5 -64.5t-68.5 -25.5t-68.5 25.5t-26.5 64.5z" />
    <glyph glyph-name="Ccaron" unicode="&#x10c;" horiz-adv-x="755" 
d="M620 245l115 -130q-34 -39 -78 -68q-98 -67 -227 -67q-167 0 -278.5 107.5t-111.5 262.5t111.5 262.5t278.5 107.5q126 0 225 -68q44 -31 75 -67l-115 -130q-23 25 -51 45q-65 45 -134 45q-82 0 -138.5 -56.5t-56.5 -138.5t56.5 -138.5t138.5 -56.5q68 0 136 45
q30 20 54 45zM335 780l-130 160h155l50 -70l50 70h155l-130 -160h-150z" />
    <glyph glyph-name="ccaron" unicode="&#x10d;" horiz-adv-x="535" 
d="M415 195l100 -105q-19 -26 -51 -50q-70 -50 -159 -50q-115 0 -192.5 74.5t-77.5 180.5t77.5 180.5t192.5 74.5q89 0 159 -50q32 -24 51 -50l-100 -105q-12 15 -26 25q-35 25 -74 25q-45 0 -75 -29t-30 -71t30 -71t75 -29q41 0 74 25q14 10 26 25zM220 555l-130 160h155
l50 -70l50 70h155l-130 -160h-150z" />
    <glyph glyph-name="Dcaron" unicode="&#x10e;" horiz-adv-x="760" 
d="M80 0v700h260q166 0 273 -101t107 -249t-107 -249t-273 -101h-260zM270 170h70q81 0 133 51t52 129t-52 129t-133 51h-70v-360zM300 780l-130 160h155l50 -70l50 70h155l-130 -160h-150z" />
    <glyph glyph-name="dcaron" unicode="&#x10f;" horiz-adv-x="730" 
d="M305 145q38 0 66.5 29.5t28.5 70.5t-28.5 70.5t-66.5 29.5t-66.5 -29.5t-28.5 -70.5t28.5 -70.5t66.5 -29.5zM400 0v70h-5q-13 -21 -33 -40q-46 -40 -112 -40q-89 0 -152 71t-63 184t63 184t152 71q66 0 112 -40q20 -19 33 -40h5v280h170v-700h-170zM600 540l50 160h160
l-75 -160h-135z" />
    <glyph glyph-name="Dcroat" unicode="&#x110;" horiz-adv-x="775" 
d="M95 0v315h-75v70h75v315h260q166 0 273 -101t107 -249t-107 -249t-273 -101h-260zM285 170h70q81 0 133 51t52 129t-52 129t-133 51h-70v-145h105v-70h-105v-145z" />
    <glyph glyph-name="dslash" unicode="&#x111;" horiz-adv-x="630" 
d="M385 0v65h-5q-14 -22 -33 -38q-45 -37 -112 -37q-85 0 -145 66t-60 169t60 169t145 66q66 0 112 -38q18 -15 33 -37h5v160h-95v65h95v90h170v-90h75v-65h-75v-545h-170zM295 130q39 0 64.5 26.5t25.5 68.5t-25.5 68.5t-64.5 26.5t-64.5 -26.5t-25.5 -68.5t25.5 -68.5
t64.5 -26.5z" />
    <glyph glyph-name="Emacron" unicode="&#x112;" horiz-adv-x="665" 
d="M80 0v700h535v-170h-345v-100h265v-160h-265v-100h355v-170h-545zM185 800v130h320v-130h-320z" />
    <glyph glyph-name="emacron" unicode="&#x113;" horiz-adv-x="580" 
d="M440 170l65 -110q-23 -20 -53 -35q-64 -35 -147 -35q-115 0 -192.5 74.5t-77.5 180.5q0 105 76 180t184 75t181.5 -72.5t73.5 -177.5q0 -6 -3 -39l-2 -16h-335q4 -26 34.5 -48t75.5 -22q46 0 88 22q22 13 32 23zM210 300h170q-9 28 -31 46.5t-54 18.5t-54 -18.5
t-31 -46.5zM135 575v130h320v-130h-320z" />
    <glyph glyph-name="Ebreve" unicode="&#x114;" horiz-adv-x="665" 
d="M80 0v700h535v-170h-345v-100h265v-160h-265v-100h355v-170h-545zM175 940h120q0 -23 13.5 -36.5t36.5 -13.5t36.5 13.5t13.5 36.5h120q0 -68 -48 -114t-122 -46t-122 46t-48 114z" />
    <glyph glyph-name="ebreve" unicode="&#x115;" horiz-adv-x="580" 
d="M440 170l65 -110q-23 -20 -53 -35q-64 -35 -147 -35q-115 0 -192.5 74.5t-77.5 180.5q0 105 76 180t184 75t181.5 -72.5t73.5 -177.5q0 -6 -3 -39l-2 -16h-335q4 -26 34.5 -48t75.5 -22q46 0 88 22q22 13 32 23zM210 300h170q-9 28 -31 46.5t-54 18.5t-54 -18.5
t-31 -46.5zM125 715h120q0 -23 13.5 -36.5t36.5 -13.5t36.5 13.5t13.5 36.5h120q0 -68 -48 -114t-122 -46t-122 46t-48 114z" />
    <glyph glyph-name="Edotaccent" unicode="&#x116;" horiz-adv-x="665" 
d="M80 0v700h535v-170h-345v-100h265v-160h-265v-100h355v-170h-545zM250 860q0 39 26.5 64.5t68.5 25.5t68.5 -25.5t26.5 -64.5t-26.5 -64.5t-68.5 -25.5t-68.5 25.5t-26.5 64.5z" />
    <glyph glyph-name="edotaccent" unicode="&#x117;" horiz-adv-x="580" 
d="M440 170l65 -110q-23 -20 -53 -35q-64 -35 -147 -35q-115 0 -192.5 74.5t-77.5 180.5q0 105 76 180t184 75t181.5 -72.5t73.5 -177.5q0 -6 -3 -39l-2 -16h-335q4 -26 34.5 -48t75.5 -22q46 0 88 22q22 13 32 23zM210 300h170q-9 28 -31 46.5t-54 18.5t-54 -18.5
t-31 -46.5zM200 635q0 39 26.5 64.5t68.5 25.5t68.5 -25.5t26.5 -64.5t-26.5 -64.5t-68.5 -25.5t-68.5 25.5t-26.5 64.5z" />
    <glyph glyph-name="Eogonek" unicode="&#x118;" horiz-adv-x="665" 
d="M80 0v700h535v-170h-345v-100h265v-160h-265v-100h355v-170q-9 -14 -15 -32q-15 -36 -15 -73q0 -40 40 -40q21 0 36 7l7 3.5t7 4.5v-90q-10 -6 -23 -10q-30 -10 -67 -10q-51 0 -85.5 32t-34.5 78q0 49 40 95q16 18 40 35h-475z" />
    <glyph glyph-name="eogonek" unicode="&#x119;" horiz-adv-x="580" 
d="M415 -130v-90q-10 -6 -23 -10q-30 -10 -67 -10q-51 0 -85.5 32t-34.5 78q0 44 32 86q12 17 33 34q-97 12 -166 84t-69 171q0 105 76 180t184 75t181.5 -72.5t73.5 -177.5q0 -6 -3 -39l-2 -16h-335q4 -26 34.5 -48t75.5 -22q46 0 88 22q22 13 32 23l65 -110
q-15 -14 -42 -29q-53 -30 -113 -36q-10 -18 -13 -29q-12 -33 -12 -71q0 -40 40 -40q21 0 36 7l7 3.5t7 4.5zM210 300h170q-9 28 -31 46.5t-54 18.5t-54 -18.5t-31 -46.5z" />
    <glyph glyph-name="Ecaron" unicode="&#x11a;" horiz-adv-x="665" 
d="M80 0v700h535v-170h-345v-100h265v-160h-265v-100h355v-170h-545zM270 780l-130 160h155l50 -70l50 70h155l-130 -160h-150z" />
    <glyph glyph-name="ecaron" unicode="&#x11b;" horiz-adv-x="580" 
d="M440 170l65 -110q-23 -20 -53 -35q-64 -35 -147 -35q-115 0 -192.5 74.5t-77.5 180.5q0 105 76 180t184 75t181.5 -72.5t73.5 -177.5q0 -6 -3 -39l-2 -16h-335q4 -26 34.5 -48t75.5 -22q46 0 88 22q22 13 32 23zM210 300h170q-9 28 -31 46.5t-54 18.5t-54 -18.5
t-31 -46.5zM220 555l-130 160h155l50 -70l50 70h155l-130 -160h-150z" />
    <glyph glyph-name="Gcircumflex" unicode="&#x11c;" horiz-adv-x="795" 
d="M440 250v140h300v-270q-31 -38 -78 -70q-104 -70 -232 -70q-167 0 -278.5 107.5t-111.5 262.5t111.5 262.5t278.5 107.5q126 0 225 -68q44 -31 75 -67l-115 -130q-23 25 -51 45q-65 45 -134 45q-82 0 -138.5 -56.5t-56.5 -138.5t56.5 -138.5t138.5 -56.5q54 0 92 20
q16 8 33 20v55h-115zM210 780l130 160h150l130 -160h-155l-50 70l-50 -70h-155z" />
    <glyph glyph-name="gcircumflex" unicode="&#x11d;" horiz-adv-x="620" 
d="M210 260q0 -38 26 -64t64 -26t64 26t26 64t-26 64t-64 26t-64 -26t-26 -64zM50 -110l100 105q11 -16 30 -28q36 -27 90 -27q53 0 86.5 33t33.5 82v45h-5q-13 -21 -33 -40q-46 -40 -112 -40q-85 0 -145 67t-60 173t60 173t145 67q66 0 112 -40q20 -19 33 -40h5v70h170
v-435q0 -110 -81 -187.5t-199 -77.5q-101 0 -175 50q-34 23 -55 50zM105 555l130 160h150l130 -160h-155l-50 70l-50 -70h-155z" />
    <glyph glyph-name="Gbreve" unicode="&#x11e;" horiz-adv-x="795" 
d="M440 250v140h300v-270q-31 -38 -78 -70q-104 -70 -232 -70q-167 0 -278.5 107.5t-111.5 262.5t111.5 262.5t278.5 107.5q126 0 225 -68q44 -31 75 -67l-115 -130q-23 25 -51 45q-65 45 -134 45q-82 0 -138.5 -56.5t-56.5 -138.5t56.5 -138.5t138.5 -56.5q54 0 92 20
q16 8 33 20v55h-115zM245 940h120q0 -23 13.5 -36.5t36.5 -13.5t36.5 13.5t13.5 36.5h120q0 -68 -48 -114t-122 -46t-122 46t-48 114z" />
    <glyph glyph-name="gbreve" unicode="&#x11f;" horiz-adv-x="620" 
d="M210 260q0 -38 26 -64t64 -26t64 26t26 64t-26 64t-64 26t-64 -26t-26 -64zM50 -110l100 105q11 -16 30 -28q36 -27 90 -27q53 0 86.5 33t33.5 82v45h-5q-13 -21 -33 -40q-46 -40 -112 -40q-85 0 -145 67t-60 173t60 173t145 67q66 0 112 -40q20 -19 33 -40h5v70h170
v-435q0 -110 -81 -187.5t-199 -77.5q-101 0 -175 50q-34 23 -55 50zM140 715h120q0 -23 13.5 -36.5t36.5 -13.5t36.5 13.5t13.5 36.5h120q0 -68 -48 -114t-122 -46t-122 46t-48 114z" />
    <glyph glyph-name="Gdotaccent" unicode="&#x120;" horiz-adv-x="795" 
d="M440 250v140h300v-270q-31 -38 -78 -70q-104 -70 -232 -70q-167 0 -278.5 107.5t-111.5 262.5t111.5 262.5t278.5 107.5q126 0 225 -68q44 -31 75 -67l-115 -130q-23 25 -51 45q-65 45 -134 45q-82 0 -138.5 -56.5t-56.5 -138.5t56.5 -138.5t138.5 -56.5q54 0 92 20
q16 8 33 20v55h-115zM320 860q0 39 26.5 64.5t68.5 25.5t68.5 -25.5t26.5 -64.5t-26.5 -64.5t-68.5 -25.5t-68.5 25.5t-26.5 64.5z" />
    <glyph glyph-name="gdotaccent" unicode="&#x121;" horiz-adv-x="620" 
d="M210 260q0 -38 26 -64t64 -26t64 26t26 64t-26 64t-64 26t-64 -26t-26 -64zM50 -110l100 105q11 -16 30 -28q36 -27 90 -27q53 0 86.5 33t33.5 82v45h-5q-13 -21 -33 -40q-46 -40 -112 -40q-85 0 -145 67t-60 173t60 173t145 67q66 0 112 -40q20 -19 33 -40h5v70h170
v-435q0 -110 -81 -187.5t-199 -77.5q-101 0 -175 50q-34 23 -55 50zM215 635q0 39 26.5 64.5t68.5 25.5t68.5 -25.5t26.5 -64.5t-26.5 -64.5t-68.5 -25.5t-68.5 25.5t-26.5 64.5z" />
    <glyph glyph-name="Gcommaaccent" unicode="&#x122;" horiz-adv-x="795" 
d="M440 250v140h300v-270q-31 -38 -78 -70q-104 -70 -232 -70q-167 0 -278.5 107.5t-111.5 262.5t111.5 262.5t278.5 107.5q126 0 225 -68q44 -31 75 -67l-115 -130q-23 25 -51 45q-65 45 -134 45q-82 0 -138.5 -56.5t-56.5 -138.5t56.5 -138.5t138.5 -56.5q54 0 92 20
q16 8 33 20v55h-115zM290 -240l50 160h160l-75 -160h-135z" />
    <glyph glyph-name="gcommaaccent" unicode="&#x123;" horiz-adv-x="620" 
d="M225 555l75 160h135l-50 -160h-160zM210 260q0 -38 26 -64t64 -26t64 26t26 64t-26 64t-64 26t-64 -26t-26 -64zM50 -110l100 105q11 -16 30 -28q36 -27 90 -27q53 0 86.5 33t33.5 82v45h-5q-13 -21 -33 -40q-46 -40 -112 -40q-85 0 -145 67t-60 173t60 173t145 67
q66 0 112 -40q20 -19 33 -40h5v70h170v-435q0 -110 -81 -187.5t-199 -77.5q-101 0 -175 50q-34 23 -55 50z" />
    <glyph glyph-name="Hcircumflex" unicode="&#x124;" horiz-adv-x="795" 
d="M80 0v700h190v-255h255v255h190v-700h-190v265h-255v-265h-190zM190 780l130 160h150l130 -160h-155l-50 70l-50 -70h-155z" />
    <glyph glyph-name="hcircumflex" unicode="&#x125;" 
d="M65 0v700h170v-280h5q11 21 32 40q46 40 108 40q77 0 126 -55t49 -150v-295h-170v260q0 37 -19.5 58.5t-50.5 21.5q-35 0 -57.5 -24.5t-22.5 -65.5v-250h-170zM105 780l130 160h150l130 -160h-155l-50 70l-50 -70h-155z" />
    <glyph glyph-name="Hbar" unicode="&#x126;" horiz-adv-x="795" 
d="M95 0v530h-75v60h75v110h190v-110h235v110h190v-110h75v-60h-75v-530h-190v265h-235v-265h-190zM285 445h235v85h-235v-85z" />
    <glyph glyph-name="hbar" unicode="&#x127;" horiz-adv-x="630" 
d="M85 0v545h-75v65h75v90h170v-90h105v-65h-105v-145h5q11 21 32 40q46 40 108 40q77 0 126 -55t49 -150v-275h-170v240q0 37 -19.5 58.5t-50.5 21.5q-35 0 -57.5 -24.5t-22.5 -65.5v-230h-170z" />
    <glyph glyph-name="Imacron" unicode="&#x12a;" horiz-adv-x="350" 
d="M80 0v700h190v-700h-190zM15 800v130h320v-130h-320z" />
    <glyph glyph-name="imacron" unicode="&#x12b;" horiz-adv-x="300" 
d="M65 0v490h170v-490h-170zM-10 575v130h320v-130h-320z" />
    <glyph glyph-name="Ibreve" unicode="&#x12c;" horiz-adv-x="350" 
d="M80 0v700h190v-700h-190zM5 940h120q0 -23 13.5 -36.5t36.5 -13.5t36.5 13.5t13.5 36.5h120q0 -68 -48 -114t-122 -46t-122 46t-48 114z" />
    <glyph glyph-name="ibreve" unicode="&#x12d;" horiz-adv-x="300" 
d="M65 0v490h170v-490h-170zM-20 715h120q0 -23 13.5 -36.5t36.5 -13.5t36.5 13.5t13.5 36.5h120q0 -68 -48 -114t-122 -46t-122 46t-48 114z" />
    <glyph glyph-name="Iogonek" unicode="&#x12e;" horiz-adv-x="350" 
d="M80 0v700h190v-700h-120q-9 -14 -15 -32q-15 -36 -15 -73q0 -40 40 -40q21 0 36 7l7 3.5t7 4.5v-90q-10 -6 -23 -10q-30 -10 -67 -10q-51 0 -85.5 32t-34.5 78q0 49 40 95q16 18 40 35z" />
    <glyph glyph-name="iogonek" unicode="&#x12f;" horiz-adv-x="300" 
d="M65 0v490h170v-490h-100q-9 -14 -15 -32q-15 -36 -15 -73q0 -40 40 -40q21 0 36 7l7 3.5t7 4.5v-90q-10 -6 -23 -10q-30 -10 -67 -10q-51 0 -85.5 32t-34.5 78q0 49 40 95q16 18 40 35zM55 630q0 39 26.5 64.5t68.5 25.5t68.5 -25.5t26.5 -64.5t-26.5 -64.5t-68.5 -25.5
t-68.5 25.5t-26.5 64.5z" />
    <glyph glyph-name="Idot" unicode="&#x130;" horiz-adv-x="350" 
d="M80 0v700h190v-700h-190zM80 860q0 39 26.5 64.5t68.5 25.5t68.5 -25.5t26.5 -64.5t-26.5 -64.5t-68.5 -25.5t-68.5 25.5t-26.5 64.5z" />
    <glyph glyph-name="dotlessi" unicode="&#x131;" horiz-adv-x="300" 
d="M65 0v490h170v-490h-170z" />
    <glyph glyph-name="uni0132" unicode="&#x132;" horiz-adv-x="835" 
d="M80 0v700h190v-700h-190zM290 70l120 125q7 -10 19 -20q22 -20 56 -20q38 0 61.5 23.5t23.5 61.5v460h190v-460q0 -116 -72 -188t-188 -72q-91 0 -159 45q-30 19 -51 45z" />
    <glyph glyph-name="uni0133" unicode="&#x133;" horiz-adv-x="585" 
d="M65 0v490h170v-490h-170zM55 630q0 39 26.5 64.5t68.5 25.5t68.5 -25.5t26.5 -64.5t-26.5 -64.5t-68.5 -25.5t-68.5 25.5t-26.5 64.5zM245 -195v155q9 -4 16 -5q17 -5 34 -5q55 0 55 60v480h170v-510q0 -89 -47.5 -139.5t-127.5 -50.5q-38 0 -71 7zM340 630
q0 39 26.5 64.5t68.5 25.5t68.5 -25.5t26.5 -64.5t-26.5 -64.5t-68.5 -25.5t-68.5 25.5t-26.5 64.5z" />
    <glyph glyph-name="Jcircumflex" unicode="&#x134;" horiz-adv-x="535" 
d="M-10 70l120 125q7 -10 19 -20q22 -20 56 -20q38 0 61.5 23.5t23.5 61.5v460h190v-460q0 -116 -72 -188t-188 -72q-91 0 -159 45q-30 19 -51 45zM160 780l130 160h150l130 -160h-155l-50 70l-50 -70h-155z" />
    <glyph glyph-name="jcircumflex" unicode="&#x135;" horiz-adv-x="300" 
d="M-40 -195v155q9 -4 16 -5q17 -5 34 -5q55 0 55 60v480h170v-510q0 -89 -47.5 -139.5t-127.5 -50.5q-38 0 -71 7zM-55 555l130 160h150l130 -160h-155l-50 70l-50 -70h-155z" />
    <glyph glyph-name="Kcommaaccent" unicode="&#x136;" horiz-adv-x="720" 
d="M80 0v700h190v-270l230 270h220l-250 -290l270 -410h-220l-175 265l-75 -85v-180h-190zM260 -240l50 160h160l-75 -160h-135z" />
    <glyph glyph-name="kcommaaccent" unicode="&#x137;" horiz-adv-x="575" 
d="M65 0v700h170v-375l145 165h200l-185 -205l190 -285h-190l-115 180l-45 -55v-125h-170zM185 -240l50 160h160l-75 -160h-135z" />
    <glyph glyph-name="Lacute" unicode="&#x139;" horiz-adv-x="595" 
d="M80 0v700h190v-520h305v-180h-495zM100 780l85 160h180l-120 -160h-145z" />
    <glyph glyph-name="lacute" unicode="&#x13a;" horiz-adv-x="300" 
d="M65 0v700h170v-700h-170zM75 780l85 160h180l-120 -160h-145z" />
    <glyph glyph-name="Lcommaaccent" unicode="&#x13b;" horiz-adv-x="595" 
d="M80 0v700h190v-520h305v-180h-495zM210 -240l50 160h160l-75 -160h-135z" />
    <glyph glyph-name="lcommaaccent" unicode="&#x13c;" horiz-adv-x="300" 
d="M65 0v700h170v-700h-170zM20 -240l50 160h160l-75 -160h-135z" />
    <glyph glyph-name="Lcaron" unicode="&#x13d;" horiz-adv-x="595" 
d="M80 0v700h190v-520h305v-180h-495zM310 540l50 160h160l-75 -160h-135z" />
    <glyph glyph-name="lcaron" unicode="&#x13e;" horiz-adv-x="395" 
d="M65 0v700h170v-700h-170zM265 540l50 160h160l-75 -160h-135z" />
    <glyph glyph-name="Ldot" unicode="&#x13f;" horiz-adv-x="595" 
d="M80 0v700h190v-520h305v-180h-495zM340 410q0 39 26.5 64.5t68.5 25.5t68.5 -25.5t26.5 -64.5t-26.5 -64.5t-68.5 -25.5t-68.5 25.5t-26.5 64.5z" />
    <glyph glyph-name="ldot" unicode="&#x140;" horiz-adv-x="485" 
d="M65 0v700h170v-700h-170zM265 355q0 39 26.5 64.5t68.5 25.5t68.5 -25.5t26.5 -64.5t-26.5 -64.5t-68.5 -25.5t-68.5 25.5t-26.5 64.5z" />
    <glyph glyph-name="Lslash" unicode="&#x141;" horiz-adv-x="635" 
d="M120 0v270l-95 -50l-25 55l120 65v360h190v-255l95 50l25 -55l-120 -65v-195h305v-180h-495z" />
    <glyph glyph-name="lslash" unicode="&#x142;" horiz-adv-x="400" 
d="M115 0v272l-85 -52l-30 50l115 70v360h170v-257l85 52l30 -50l-115 -70v-375h-170z" />
    <glyph glyph-name="Nacute" unicode="&#x143;" horiz-adv-x="815" 
d="M80 0v700h165l300 -385v385h190v-700h-165l-300 385v-385h-190zM335 780l85 160h180l-120 -160h-145z" />
    <glyph glyph-name="nacute" unicode="&#x144;" horiz-adv-x="605" 
d="M60 0v490h170v-70h5q11 21 32 40q46 40 108 40q77 0 126 -55t49 -150v-295h-170v260q0 37 -19.5 58.5t-50.5 21.5q-35 0 -57.5 -24.5t-22.5 -65.5v-250h-170zM230 555l85 160h180l-120 -160h-145z" />
    <glyph glyph-name="Ncommaaccent" unicode="&#x145;" horiz-adv-x="815" 
d="M80 0v700h165l300 -385v385h190v-700h-165l-300 385v-385h-190zM295 -240l50 160h160l-75 -160h-135z" />
    <glyph glyph-name="ncommaaccent" unicode="&#x146;" horiz-adv-x="605" 
d="M60 0v490h170v-70h5q11 21 32 40q46 40 108 40q77 0 126 -55t49 -150v-295h-170v260q0 37 -19.5 58.5t-50.5 21.5q-35 0 -57.5 -24.5t-22.5 -65.5v-250h-170zM175 -240l50 160h160l-75 -160h-135z" />
    <glyph glyph-name="Ncaron" unicode="&#x147;" horiz-adv-x="815" 
d="M80 0v700h165l300 -385v385h190v-700h-165l-300 385v-385h-190zM335 780l-130 160h155l50 -70l50 70h155l-130 -160h-150z" />
    <glyph glyph-name="ncaron" unicode="&#x148;" horiz-adv-x="605" 
d="M60 0v490h170v-70h5q11 21 32 40q46 40 108 40q77 0 126 -55t49 -150v-295h-170v260q0 37 -19.5 58.5t-50.5 21.5q-35 0 -57.5 -24.5t-22.5 -65.5v-250h-170zM230 555l-130 160h155l50 -70l50 70h155l-130 -160h-150z" />
    <glyph glyph-name="napostrophe" unicode="&#x149;" horiz-adv-x="615" 
d="M70 0v490h170v-70h5q11 21 32 40q46 40 108 40q77 0 126 -55t49 -150v-295h-170v260q0 37 -19.5 58.5t-50.5 21.5q-35 0 -57.5 -24.5t-22.5 -65.5v-250h-170zM-50 520l50 160h160l-75 -160h-135z" />
    <glyph glyph-name="Eng" unicode="&#x14a;" horiz-adv-x="815" 
d="M80 0v700h165l300 -385v385h190v-700q0 -116 -72 -188t-188 -72q-91 0 -159 45q-30 19 -51 45l120 125q7 -10 19 -20q22 -20 56 -20q38 0 61.5 23.5t23.5 61.5v35l-275 350v-385h-190z" />
    <glyph glyph-name="eng" unicode="&#x14b;" 
d="M60 0v490h170v-70h5q11 21 32 40q46 40 108 40q77 0 126 -55t49 -150v-330q0 -89 -47.5 -139.5t-127.5 -50.5q-31 0 -57 7q-3 1 -11 3.5t-12 4.5v150l10 -3q14 -2 25 -2q23 0 36.5 14.5t13.5 40.5v270q0 37 -19.5 58.5t-50.5 21.5q-35 0 -57.5 -24.5t-22.5 -65.5v-250
h-170z" />
    <glyph glyph-name="Omacron" unicode="&#x14c;" horiz-adv-x="860" 
d="M235 350q0 -82 56.5 -138.5t138.5 -56.5t138.5 56.5t56.5 138.5t-56.5 138.5t-138.5 56.5t-138.5 -56.5t-56.5 -138.5zM40 350q0 155 111.5 262.5t278.5 107.5t278.5 -107.5t111.5 -262.5t-111.5 -262.5t-278.5 -107.5t-278.5 107.5t-111.5 262.5zM270 800v130h320v-130
h-320z" />
    <glyph glyph-name="omacron" unicode="&#x14d;" 
d="M305 145q38 0 66.5 29.5t28.5 70.5t-28.5 70.5t-66.5 29.5t-66.5 -29.5t-28.5 -70.5t28.5 -70.5t66.5 -29.5zM35 245q0 106 77.5 180.5t192.5 74.5t192.5 -74.5t77.5 -180.5t-77.5 -180.5t-192.5 -74.5t-192.5 74.5t-77.5 180.5zM145 575v130h320v-130h-320z" />
    <glyph glyph-name="Obreve" unicode="&#x14e;" horiz-adv-x="860" 
d="M235 350q0 -82 56.5 -138.5t138.5 -56.5t138.5 56.5t56.5 138.5t-56.5 138.5t-138.5 56.5t-138.5 -56.5t-56.5 -138.5zM40 350q0 155 111.5 262.5t278.5 107.5t278.5 -107.5t111.5 -262.5t-111.5 -262.5t-278.5 -107.5t-278.5 107.5t-111.5 262.5zM260 940h120
q0 -23 13.5 -36.5t36.5 -13.5t36.5 13.5t13.5 36.5h120q0 -68 -48 -114t-122 -46t-122 46t-48 114z" />
    <glyph glyph-name="obreve" unicode="&#x14f;" 
d="M305 145q38 0 66.5 29.5t28.5 70.5t-28.5 70.5t-66.5 29.5t-66.5 -29.5t-28.5 -70.5t28.5 -70.5t66.5 -29.5zM35 245q0 106 77.5 180.5t192.5 74.5t192.5 -74.5t77.5 -180.5t-77.5 -180.5t-192.5 -74.5t-192.5 74.5t-77.5 180.5zM135 715h120q0 -23 13.5 -36.5
t36.5 -13.5t36.5 13.5t13.5 36.5h120q0 -68 -48 -114t-122 -46t-122 46t-48 114z" />
    <glyph glyph-name="Ohungarumlaut" unicode="&#x150;" horiz-adv-x="860" 
d="M235 350q0 -82 56.5 -138.5t138.5 -56.5t138.5 56.5t56.5 138.5t-56.5 138.5t-138.5 56.5t-138.5 -56.5t-56.5 -138.5zM40 350q0 155 111.5 262.5t278.5 107.5t278.5 -107.5t111.5 -262.5t-111.5 -262.5t-278.5 -107.5t-278.5 107.5t-111.5 262.5zM260 780l90 160h160
l-125 -160h-125zM470 780l90 160h160l-125 -160h-125z" />
    <glyph glyph-name="ohungarumlaut" unicode="&#x151;" 
d="M305 145q38 0 66.5 29.5t28.5 70.5t-28.5 70.5t-66.5 29.5t-66.5 -29.5t-28.5 -70.5t28.5 -70.5t66.5 -29.5zM35 245q0 106 77.5 180.5t192.5 74.5t192.5 -74.5t77.5 -180.5t-77.5 -180.5t-192.5 -74.5t-192.5 74.5t-77.5 180.5zM135 555l90 160h160l-125 -160h-125z
M345 555l90 160h160l-125 -160h-125z" />
    <glyph glyph-name="OE" unicode="&#x152;" horiz-adv-x="1020" 
d="M655 170h325v-170h-560q-166 0 -273 101t-107 249t107 249t273 101h550v-170h-315v-100h235v-160h-235v-100zM420 170h45v360h-45q-81 0 -133 -51t-52 -129t52 -129t133 -51z" />
    <glyph glyph-name="oe" unicode="&#x153;" horiz-adv-x="940" 
d="M800 170l65 -110q-23 -20 -53 -35q-64 -35 -147 -35q-81 0 -139 42q-27 19 -41 43q-19 -25 -46 -43q-62 -42 -139 -42q-111 0 -188 74.5t-77 180.5t77 180.5t188 74.5q76 0 139 -43q26 -17 46 -42q17 23 44 42q59 43 131 43q105 0 177.5 -72.5t72.5 -177.5q0 -14 -3 -41
l-2 -14h-335q4 -26 34.5 -48t75.5 -22q46 0 88 22q22 13 32 23zM300 145q39 0 64.5 28t25.5 72t-25.5 72t-64.5 28t-64.5 -28t-25.5 -72t25.5 -72t64.5 -28zM570 300h170q-9 28 -31 46.5t-54 18.5t-54 -18.5t-31 -46.5z" />
    <glyph glyph-name="Racute" unicode="&#x154;" horiz-adv-x="715" 
d="M80 0v700h330q111 0 183 -69t72 -171q0 -96 -60 -156q-26 -28 -60 -44l145 -260h-200l-115 220h-105v-220h-190zM270 390h130q33 0 54 20t21 50t-21 50t-54 20h-130v-140zM280 780l85 160h180l-120 -160h-145z" />
    <glyph glyph-name="racute" unicode="&#x155;" horiz-adv-x="395" 
d="M60 0v490h170v-60q13 18 34 32q47 33 101 33h20v-180l-14 5q-15 5 -36 5q-50 0 -77.5 -29.5t-27.5 -85.5v-210h-170zM150 555l85 160h180l-120 -160h-145z" />
    <glyph glyph-name="Rcommaaccent" unicode="&#x156;" horiz-adv-x="715" 
d="M80 0v700h330q111 0 183 -69t72 -171q0 -96 -60 -156q-26 -28 -60 -44l145 -260h-200l-115 220h-105v-220h-190zM270 390h130q33 0 54 20t21 50t-21 50t-54 20h-130v-140zM245 -240l50 160h160l-75 -160h-135z" />
    <glyph glyph-name="rcommaaccent" unicode="&#x157;" horiz-adv-x="395" 
d="M60 0v490h170v-60q13 18 34 32q47 33 101 33h20v-180l-14 5q-15 5 -36 5q-50 0 -77.5 -29.5t-27.5 -85.5v-210h-170zM15 -240l50 160h160l-75 -160h-135z" />
    <glyph glyph-name="Rcaron" unicode="&#x158;" horiz-adv-x="715" 
d="M80 0v700h330q111 0 183 -69t72 -171q0 -96 -60 -156q-26 -28 -60 -44l145 -260h-200l-115 220h-105v-220h-190zM270 390h130q33 0 54 20t21 50t-21 50t-54 20h-130v-140zM279 780l-130 160h155l50 -70l50 70h155l-130 -160h-150z" />
    <glyph glyph-name="rcaron" unicode="&#x159;" horiz-adv-x="395" 
d="M60 0v490h170v-60q13 18 34 32q47 33 101 33h20v-180l-14 5q-15 5 -36 5q-50 0 -77.5 -29.5t-27.5 -85.5v-210h-170zM150 555l-130 160h155l50 -70l50 70h155l-130 -160h-150z" />
    <glyph glyph-name="Sacute" unicode="&#x15a;" 
d="M25 100l110 120q18 -21 41 -38q53 -37 109 -37q43 0 66.5 17.5t23.5 42.5q0 22 -24.5 38.5t-61 27t-79.5 28.5t-79.5 40.5t-61 65t-24.5 100.5q0 87 73 151t192 64q106 0 186 -50q37 -24 59 -50l-110 -120q-14 16 -31 27q-37 28 -84 28q-39 0 -59.5 -14.5t-20.5 -35.5
q0 -22 24.5 -38.5t61 -27t79.5 -28.5t79.5 -40.5t61 -65t24.5 -100.5q0 -94 -75.5 -159.5t-199.5 -65.5q-120 0 -211 60q-40 26 -69 60zM230 780l85 160h180l-120 -160h-145z" />
    <glyph glyph-name="sacute" unicode="&#x15b;" horiz-adv-x="465" 
d="M10 80l90 95q12 -15 27 -25q33 -25 73 -25t40 25q0 12 -21 23t-51 23t-60.5 29.5t-51.5 49.5t-21 75q0 63 53 106.5t147 43.5q81 0 151 -38q29 -15 54 -37l-90 -95q-10 9 -20 17q-26 18 -50 18q-40 0 -40 -25q0 -12 21 -23t51 -23t60.5 -29.5t51.5 -49.5t21 -75
q0 -64 -55 -107t-155 -43q-89 0 -165 45q-34 19 -60 45zM160 555l85 160h180l-120 -160h-145z" />
    <glyph glyph-name="Scircumflex" unicode="&#x15c;" 
d="M25 100l110 120q18 -21 41 -38q53 -37 109 -37q43 0 66.5 17.5t23.5 42.5q0 22 -24.5 38.5t-61 27t-79.5 28.5t-79.5 40.5t-61 65t-24.5 100.5q0 87 73 151t192 64q106 0 186 -50q37 -24 59 -50l-110 -120q-14 16 -31 27q-37 28 -84 28q-39 0 -59.5 -14.5t-20.5 -35.5
q0 -22 24.5 -38.5t61 -27t79.5 -28.5t79.5 -40.5t61 -65t24.5 -100.5q0 -94 -75.5 -159.5t-199.5 -65.5q-120 0 -211 60q-40 26 -69 60zM100 780l130 160h150l130 -160h-155l-50 70l-50 -70h-155z" />
    <glyph glyph-name="scircumflex" unicode="&#x15d;" horiz-adv-x="465" 
d="M10 80l90 95q12 -15 27 -25q33 -25 73 -25t40 25q0 12 -21 23t-51 23t-60.5 29.5t-51.5 49.5t-21 75q0 63 53 106.5t147 43.5q81 0 151 -38q29 -15 54 -37l-90 -95q-10 9 -20 17q-26 18 -50 18q-40 0 -40 -25q0 -12 21 -23t51 -23t60.5 -29.5t51.5 -49.5t21 -75
q0 -64 -55 -107t-155 -43q-89 0 -165 45q-34 19 -60 45zM30 555l130 160h150l130 -160h-155l-50 70l-50 -70h-155z" />
    <glyph glyph-name="Scedilla" unicode="&#x15e;" 
d="M175 -210l45 70q7 -8 19 -15q23 -15 46 -15q35 0 35 30t-35 30q-2 0 -14 -3l-6 -2l-35 35l28 62q-96 11 -176 66q-35 25 -57 52l110 120q18 -21 41 -38q53 -37 109 -37q43 0 66.5 17.5t23.5 42.5q0 22 -24.5 38.5t-61 27t-79.5 28.5t-79.5 40.5t-61 65t-24.5 100.5
q0 87 73 151t192 64q106 0 186 -50q37 -24 59 -50l-110 -120q-14 16 -31 27q-37 28 -84 28q-39 0 -59.5 -14.5t-20.5 -35.5q0 -22 24.5 -38.5t61 -27t79.5 -28.5t79.5 -40.5t61 -65t24.5 -100.5q0 -91 -66.5 -152t-179.5 -71l-14 -27q28 -4 55 -17q55 -31 55 -88
q0 -44 -36 -74.5t-94 -30.5q-51 0 -93 22q-22 13 -32 23z" />
    <glyph glyph-name="scedilla" unicode="&#x15f;" horiz-adv-x="465" 
d="M100 -210l45 70q7 -8 19 -15q22 -15 46 -15q35 0 35 30t-35 30q-2 0 -14 -3l-6 -2l-35 35l30 70q-70 14 -129 52q-27 19 -46 38l90 95q12 -15 27 -25q33 -25 73 -25t40 25q0 12 -21 23t-51 23t-60.5 29.5t-51.5 49.5t-21 75q0 63 53 106.5t147 43.5q81 0 151 -38
q29 -15 54 -37l-90 -95q-10 9 -20 17q-26 18 -50 18q-40 0 -40 -25q0 -12 21 -23t51 -23t60.5 -29.5t51.5 -49.5t21 -75q0 -56 -47.5 -99t-132.5 -51l-20 -35q28 -4 55 -17q55 -31 55 -88q0 -44 -36 -74.5t-94 -30.5q-51 0 -93 22q-22 13 -32 23z" />
    <glyph glyph-name="Scaron" unicode="&#x160;" 
d="M25 100l110 120q18 -21 41 -38q53 -37 109 -37q43 0 66.5 17.5t23.5 42.5q0 22 -24.5 38.5t-61 27t-79.5 28.5t-79.5 40.5t-61 65t-24.5 100.5q0 87 73 151t192 64q106 0 186 -50q37 -24 59 -50l-110 -120q-14 16 -31 27q-37 28 -84 28q-39 0 -59.5 -14.5t-20.5 -35.5
q0 -22 24.5 -38.5t61 -27t79.5 -28.5t79.5 -40.5t61 -65t24.5 -100.5q0 -94 -75.5 -159.5t-199.5 -65.5q-120 0 -211 60q-40 26 -69 60zM230 780l-130 160h155l50 -70l50 70h155l-130 -160h-150z" />
    <glyph glyph-name="scaron" unicode="&#x161;" horiz-adv-x="465" 
d="M10 80l90 95q12 -15 27 -25q33 -25 73 -25t40 25q0 12 -21 23t-51 23t-60.5 29.5t-51.5 49.5t-21 75q0 63 53 106.5t147 43.5q81 0 151 -38q29 -15 54 -37l-90 -95q-10 9 -20 17q-26 18 -50 18q-40 0 -40 -25q0 -12 21 -23t51 -23t60.5 -29.5t51.5 -49.5t21 -75
q0 -64 -55 -107t-155 -43q-89 0 -165 45q-34 19 -60 45zM160 555l-130 160h155l50 -70l50 70h155l-130 -160h-150z" />
    <glyph glyph-name="uni0162" unicode="&#x162;" horiz-adv-x="620" 
d="M180 -210l45 70q7 -8 19 -15q22 -15 46 -15q35 0 35 30t-35 30q-2 0 -14 -3l-6 -2l-35 35l35 80h-55v530h-195v170h580v-170h-195v-530h-55l-25 -45q28 -4 55 -17q55 -31 55 -88q0 -44 -36 -74.5t-94 -30.5q-51 0 -93 22q-22 13 -32 23z" />
    <glyph glyph-name="uni0163" unicode="&#x163;" horiz-adv-x="420" 
d="M115 -210l45 70q7 -8 19 -15q22 -15 46 -15q35 0 35 30t-35 30q-2 0 -14 -3l-6 -2l-35 35l35 80q-43 15 -74 61.5t-31 118.5v140h-70v160h30q26 0 43 17t17 43v90h150v-150h95v-160h-95v-110q0 -60 55 -60q18 0 35 5q5 1 15 5v-155q-4 -1 -8 -2.5t-9.5 -3t-9.5 -2.5
q-30 -7 -68 -7l-20 -35q28 -4 55 -17q55 -31 55 -88q0 -44 -36 -74.5t-94 -30.5q-51 0 -93 22q-22 13 -32 23z" />
    <glyph glyph-name="Tcaron" unicode="&#x164;" horiz-adv-x="620" 
d="M215 0v530h-195v170h580v-170h-195v-530h-190zM235 780l-130 160h155l50 -70l50 70h155l-130 -160h-150z" />
    <glyph glyph-name="tcaron" unicode="&#x165;" horiz-adv-x="480" 
d="M100 180v140h-70v160h30q26 0 43 17t17 43v90h150v-150h95v-160h-95v-110q0 -60 55 -60q19 0 36 5q7 1 14 5v-155l-29 -8q-33 -7 -71 -7q-80 0 -127.5 50t-47.5 140zM350 540l50 160h160l-75 -160h-135z" />
    <glyph glyph-name="Tbar" unicode="&#x166;" horiz-adv-x="620" 
d="M215 0v320h-130v60h130v150h-195v170h580v-170h-195v-150h130v-60h-130v-320h-190z" />
    <glyph glyph-name="tbar" unicode="&#x167;" horiz-adv-x="420" 
d="M30 230v65h70v45h-70v140h30q26 0 43 17t17 43v90h150v-150h95v-140h-95v-45h95v-65h-95v-20q0 -60 55 -60q19 0 36 5q7 1 14 5v-155l-29 -8q-33 -7 -71 -7q-80 0 -127.5 50t-47.5 140v50h-70z" />
    <glyph glyph-name="Umacron" unicode="&#x16a;" horiz-adv-x="790" 
d="M75 290v410h190v-410q0 -60 36.5 -97.5t93.5 -37.5t93.5 37.5t36.5 97.5v410h190v-410q0 -136 -89.5 -223t-230.5 -87t-230.5 87t-89.5 223zM235 800v130h320v-130h-320z" />
    <glyph glyph-name="umacron" unicode="&#x16b;" 
d="M60 195v295h170v-260q0 -37 19.5 -58.5t50.5 -21.5q35 0 57.5 24.5t22.5 65.5v250h170v-490h-170v70h-5q-13 -21 -33 -40q-46 -40 -107 -40q-77 0 -126 54.5t-49 150.5zM145 575v130h320v-130h-320z" />
    <glyph glyph-name="Ubreve" unicode="&#x16c;" horiz-adv-x="790" 
d="M75 290v410h190v-410q0 -60 36.5 -97.5t93.5 -37.5t93.5 37.5t36.5 97.5v410h190v-410q0 -136 -89.5 -223t-230.5 -87t-230.5 87t-89.5 223zM225 940h120q0 -23 13.5 -36.5t36.5 -13.5t36.5 13.5t13.5 36.5h120q0 -68 -48 -114t-122 -46t-122 46t-48 114z" />
    <glyph glyph-name="ubreve" unicode="&#x16d;" 
d="M60 195v295h170v-260q0 -37 19.5 -58.5t50.5 -21.5q35 0 57.5 24.5t22.5 65.5v250h170v-490h-170v70h-5q-13 -21 -33 -40q-46 -40 -107 -40q-77 0 -126 54.5t-49 150.5zM135 715h120q0 -23 13.5 -36.5t36.5 -13.5t36.5 13.5t13.5 36.5h120q0 -68 -48 -114t-122 -46
t-122 46t-48 114z" />
    <glyph glyph-name="Uring" unicode="&#x16e;" horiz-adv-x="790" 
d="M75 290v410h190v-410q0 -60 36.5 -97.5t93.5 -37.5t93.5 37.5t36.5 97.5v410h190v-410q0 -136 -89.5 -223t-230.5 -87t-230.5 87t-89.5 223zM355 870q0 -18 12 -29t28 -11t28 11t12 29t-12 29t-28 11t-28 -11t-12 -29zM265 870q0 49 37.5 84.5t92.5 35.5t92.5 -35.5
t37.5 -84.5t-37.5 -84.5t-92.5 -35.5t-92.5 35.5t-37.5 84.5z" />
    <glyph glyph-name="uring" unicode="&#x16f;" 
d="M60 195v295h170v-260q0 -37 19.5 -58.5t50.5 -21.5q35 0 57.5 24.5t22.5 65.5v250h170v-490h-170v70h-5q-13 -21 -33 -40q-46 -40 -107 -40q-77 0 -126 54.5t-49 150.5zM265 645q0 -18 12 -29t28 -11t28 11t12 29t-12 29t-28 11t-28 -11t-12 -29zM175 645q0 49 37.5 84.5
t92.5 35.5t92.5 -35.5t37.5 -84.5t-37.5 -84.5t-92.5 -35.5t-92.5 35.5t-37.5 84.5z" />
    <glyph glyph-name="Uhungarumlaut" unicode="&#x170;" horiz-adv-x="790" 
d="M75 290v410h190v-410q0 -60 36.5 -97.5t93.5 -37.5t93.5 37.5t36.5 97.5v410h190v-410q0 -136 -89.5 -223t-230.5 -87t-230.5 87t-89.5 223zM225 780l90 160h160l-125 -160h-125zM435 780l90 160h160l-125 -160h-125z" />
    <glyph glyph-name="uhungarumlaut" unicode="&#x171;" 
d="M60 195v295h170v-260q0 -37 19.5 -58.5t50.5 -21.5q35 0 57.5 24.5t22.5 65.5v250h170v-490h-170v70h-5q-13 -21 -33 -40q-46 -40 -107 -40q-77 0 -126 54.5t-49 150.5zM135 555l90 160h160l-125 -160h-125zM345 555l90 160h160l-125 -160h-125z" />
    <glyph glyph-name="Uogonek" unicode="&#x172;" horiz-adv-x="790" 
d="M75 290v410h190v-410q0 -60 36.5 -97.5t93.5 -37.5t93.5 37.5t36.5 97.5v410h190v-410q0 -124 -75 -207t-190 -98q-5 -11 -10 -28q-10 -34 -10 -62q0 -40 40 -40q21 0 36 7l7 3.5t7 4.5v-90q-10 -6 -23 -10q-30 -10 -67 -10q-51 0 -85.5 32t-34.5 78q0 45 27 79
q15 20 28 31q-126 8 -208 94t-82 216z" />
    <glyph glyph-name="uogonek" unicode="&#x173;" 
d="M60 194v296h170v-260q0 -37 19.5 -58.5t50.5 -21.5q35 0 57.5 24.5t22.5 65.5v250h170v-490h-100q-9 -14 -15 -32q-15 -36 -15 -73q0 -40 40 -40q21 0 36 7l7 3.5t7 4.5v-90q-10 -6 -23 -10q-30 -10 -67 -10q-51 0 -85.5 32t-34.5 78q0 49 40 95q16 18 40 35v70h-5
q-13 -21 -33 -40q-46 -40 -107 -40q-77 0 -126 54.5t-49 149.5z" />
    <glyph glyph-name="Wcircumflex" unicode="&#x174;" horiz-adv-x="1060" 
d="M230 0l-230 700h205l110 -410h5l125 410h170l125 -410h5l110 410h205l-230 -700h-170l-128 420h-4l-128 -420h-170zM325 780l130 160h150l130 -160h-155l-50 70l-50 -70h-155z" />
    <glyph glyph-name="wcircumflex" unicode="&#x175;" horiz-adv-x="800" 
d="M170 0l-170 490h180l68 -245h4l83 245h130l83 -245h4l68 245h180l-170 -490h-140l-88 260h-4l-88 -260h-140zM195 555l130 160h150l130 -160h-155l-50 70l-50 -70h-155z" />
    <glyph glyph-name="Ycircumflex" unicode="&#x176;" horiz-adv-x="670" 
d="M240 0v250l-250 450h210l133 -275h4l133 275h210l-250 -450v-250h-190zM130 780l130 160h150l130 -160h-155l-50 70l-50 -70h-155z" />
    <glyph glyph-name="ycircumflex" unicode="&#x177;" horiz-adv-x="540" 
d="M45 -195v155q9 -4 16 -5q17 -5 34 -5q53 0 75 40l10 20l-180 480h185l83 -285h4l83 285h185l-195 -515q-39 -100 -86 -142.5t-124 -42.5q-36 0 -64 7q-4 1 -13 3.5t-13 4.5zM65 555l130 160h150l130 -160h-155l-50 70l-50 -70h-155z" />
    <glyph glyph-name="Ydieresis" unicode="&#x178;" horiz-adv-x="670" 
d="M240 0v250l-250 450h210l133 -275h4l133 275h210l-250 -450v-250h-190zM365 865q0 34 25.5 59.5t59.5 25.5t59.5 -25.5t25.5 -59.5t-25.5 -59.5t-59.5 -25.5t-59.5 25.5t-25.5 59.5zM305 865q0 -34 -25.5 -59.5t-59.5 -25.5t-59.5 25.5t-25.5 59.5t25.5 59.5t59.5 25.5
t59.5 -25.5t25.5 -59.5z" />
    <glyph glyph-name="Zacute" unicode="&#x179;" horiz-adv-x="660" 
d="M45 0v180l305 340h-290v180h545v-180l-305 -340h315v-180h-570zM255 780l85 160h180l-120 -160h-145z" />
    <glyph glyph-name="zacute" unicode="&#x17a;" horiz-adv-x="520" 
d="M40 0v160l195 170h-185v160h420v-160l-195 -170h205v-160h-440zM185 555l85 160h180l-120 -160h-145z" />
    <glyph glyph-name="Zdotaccent" unicode="&#x17b;" horiz-adv-x="660" 
d="M45 0v180l305 340h-290v180h545v-180l-305 -340h315v-180h-570zM235 860q0 39 26.5 64.5t68.5 25.5t68.5 -25.5t26.5 -64.5t-26.5 -64.5t-68.5 -25.5t-68.5 25.5t-26.5 64.5z" />
    <glyph glyph-name="zdotaccent" unicode="&#x17c;" horiz-adv-x="520" 
d="M40 0v160l195 170h-185v160h420v-160l-195 -170h205v-160h-440zM165 635q0 39 26.5 64.5t68.5 25.5t68.5 -25.5t26.5 -64.5t-26.5 -64.5t-68.5 -25.5t-68.5 25.5t-26.5 64.5z" />
    <glyph glyph-name="Zcaron" unicode="&#x17d;" horiz-adv-x="660" 
d="M45 0v180l305 340h-290v180h545v-180l-305 -340h315v-180h-570zM255 780l-130 160h155l50 -70l50 70h155l-130 -160h-150z" />
    <glyph glyph-name="zcaron" unicode="&#x17e;" horiz-adv-x="520" 
d="M40 0v160l195 170h-185v160h420v-160l-195 -170h205v-160h-440zM185 555l-130 160h155l50 -70l50 70h155l-130 -160h-150z" />
    <glyph glyph-name="uni018F" unicode="&#x18f;" horiz-adv-x="815" 
d="M35 350v45h540q-9 63 -58.5 106.5t-121.5 43.5q-67 0 -131 -35q-29 -18 -49 -35l-105 130q32 31 75 57q98 58 210 58q164 0 272 -106t108 -264t-106.5 -264t-263.5 -106t-263.5 106t-106.5 264zM570 285h-330q9 -52 54.5 -91t110.5 -39t110.5 39t54.5 91z" />
    <glyph glyph-name="florin" unicode="&#x192;" horiz-adv-x="434" 
d="M-60 -195v145q7 -4 14 -5q17 -5 36 -5q54 0 65 50l55 290h-60v150h85l20 105q18 98 61.5 139t128.5 41q32 0 64 -8q6 -2 26 -7v-145l-14 5q-15 5 -36 5q-57 0 -65 -50l-15 -85h90v-150h-115l-60 -310q-18 -98 -61.5 -139t-128.5 -41q-36 0 -64 7q-4 1 -13 3.5t-13 4.5z
" />
    <glyph glyph-name="Aringacute" unicode="&#x1fa;" horiz-adv-x="730" 
d="M-5 0l265 700h40q-15 8 -25 20q-25 29 -25 65q0 42 33.5 73.5t81.5 31.5t81.5 -31.5t33.5 -73.5q0 -34 -25 -65q-10 -12 -25 -20h40l265 -700h-205l-50 150h-230l-50 -150h-205zM295 910l50 100h160l-65 -100h-145zM325 780q0 -18 12 -29t28 -11t28 11t12 29t-12 29
t-28 11t-28 -11t-12 -29zM300 305h130l-63 200h-4z" />
    <glyph glyph-name="aringacute" unicode="&#x1fb;" horiz-adv-x="540" 
d="M315 0v65h-5q-15 -23 -31 -38q-41 -37 -99 -37q-67 0 -111 41t-44 99q0 63 38.5 104t111.5 56l140 30q-4 20 -23 35t-47 15q-39 0 -74 -25q-14 -10 -26 -25l-90 85q19 22 46 41q59 43 124 49q-17 9 -30 24q-30 34 -30 81q0 49 37.5 84.5t92.5 35.5t92.5 -35.5t37.5 -84.5
q0 -51 -40 -89q-16 -15 -40 -26q40 -14 70 -38q70 -56 70 -143v-304h-170zM220 735l55 95h165l-70 -95h-150zM315 205v15l-70 -15q-19 -4 -32 -17t-13 -28q0 -40 45 -40q31 0 50.5 22t19.5 63zM255 600q0 -18 12 -29t28 -11t28 11t12 29t-12 29t-28 11t-28 -11t-12 -29z" />
    <glyph glyph-name="AEacute" unicode="&#x1fc;" horiz-adv-x="1015" 
d="M-50 0l390 700h625v-170h-315v-100h235v-160h-235v-100h325v-170h-515v155h-225l-85 -155h-200zM330 325h130v215h-10zM510 780l85 160h180l-120 -160h-145z" />
    <glyph glyph-name="aeacute" unicode="&#x1fd;" horiz-adv-x="865" 
d="M145 320l-90 85q24 28 52 47q70 48 143 48q67 0 121 -40q23 -19 39 -40q16 21 44 40q58 40 131 40q105 0 177.5 -72.5t72.5 -177.5q0 -6 -3 -39l-2 -16h-335q4 -26 34.5 -48t75.5 -22q46 0 88 22q22 13 32 23l65 -110q-23 -20 -53 -35q-64 -35 -147 -35q-80 0 -141 45
q-27 20 -44 45q-21 -27 -47 -45q-63 -45 -148 -45q-86 0 -135.5 40.5t-49.5 99.5q0 63 38.5 104t111.5 56l140 30q-4 20 -23 35t-47 15q-39 0 -74 -25q-14 -10 -26 -25zM495 300h170q-9 28 -31 46.5t-54 18.5t-54 -18.5t-31 -46.5zM315 205v15l-70 -15q-19 -4 -32 -17
t-13 -28q0 -40 45 -40q31 0 50.5 22.5t19.5 62.5zM350 555l85 160h180l-120 -160h-145z" />
    <glyph glyph-name="Oslashacute" unicode="&#x1fe;" horiz-adv-x="860" 
d="M40 35l90 80q-25 28 -45 65q-45 80 -45 170q0 155 111.5 262.5t278.5 107.5q101 0 187 -45q40 -20 68 -45l90 80l45 -45l-90 -80q25 -28 45 -65q45 -80 45 -170q0 -155 -111.5 -262.5t-278.5 -107.5q-102 0 -188 45q-38 19 -67 45l-90 -80zM595 455l-285 -260
q14 -11 32 -20q38 -20 88 -20q82 0 138.5 56.5t56.5 138.5q0 36 -15 77q-7 15 -15 28zM265 245l285 260q-14 11 -32 20q-38 20 -88 20q-82 0 -138.5 -56.5t-56.5 -138.5q0 -41 15 -77q6 -16 15 -28zM355 780l85 160h180l-120 -160h-145z" />
    <glyph glyph-name="oslashacute" unicode="&#x1ff;" 
d="M85 -15l-45 45l55 55q-16 16 -30 41q-30 54 -30 119q0 106 77.5 180.5t192.5 74.5q60 0 120 -25q22 -9 45 -25l55 55l45 -45l-55 -55q16 -16 30 -41q30 -54 30 -119q0 -106 -77.5 -180.5t-192.5 -74.5q-64 0 -120 25q-22 9 -45 25zM394 285l-134 -130q6 -4 11 -5
q13 -5 34 -5q38 0 66.5 29.5t28.5 70.5q0 9 -1.5 19t-2.5 15.5t-2 5.5zM216 205l134 130l-11 5q-13 5 -34 5q-38 0 -66.5 -29.5t-28.5 -70.5q0 -9 1.5 -19t2.5 -15.5t2 -5.5zM230 555l85 160h180l-120 -160h-145z" />
    <glyph glyph-name="Scommaaccent" unicode="&#x218;" 
d="M25 100l110 120q18 -21 41 -38q53 -37 109 -37q43 0 66.5 17.5t23.5 42.5q0 22 -24.5 38.5t-61 27t-79.5 28.5t-79.5 40.5t-61 65t-24.5 100.5q0 87 73 151t192 64q106 0 186 -50q37 -24 59 -50l-110 -120q-14 16 -31 27q-37 28 -84 28q-39 0 -59.5 -14.5t-20.5 -35.5
q0 -22 24.5 -38.5t61 -27t79.5 -28.5t79.5 -40.5t61 -65t24.5 -100.5q0 -94 -75.5 -159.5t-199.5 -65.5q-120 0 -211 60q-40 26 -69 60zM185 -240l50 160h160l-75 -160h-135z" />
    <glyph glyph-name="scommaaccent" unicode="&#x219;" horiz-adv-x="465" 
d="M10 80l90 95q12 -15 27 -25q33 -25 73 -25t40 25q0 12 -21 23t-51 23t-60.5 29.5t-51.5 49.5t-21 75q0 63 53 106.5t147 43.5q81 0 151 -38q29 -15 54 -37l-90 -95q-10 9 -20 17q-26 18 -50 18q-40 0 -40 -25q0 -12 21 -23t51 -23t60.5 -29.5t51.5 -49.5t21 -75
q0 -64 -55 -107t-155 -43q-89 0 -165 45q-34 19 -60 45zM105 -240l50 160h160l-75 -160h-135z" />
    <glyph glyph-name="uni021A" unicode="&#x21a;" horiz-adv-x="620" 
d="M215 0v530h-195v170h580v-170h-195v-530h-190zM180 -240l50 160h160l-75 -160h-135z" />
    <glyph glyph-name="uni021B" unicode="&#x21b;" horiz-adv-x="420" 
d="M100 180v140h-70v160h30q26 0 43 17t17 43v90h150v-150h95v-160h-95v-110q0 -60 55 -60q19 0 36 5q7 1 14 5v-155l-29 -8q-33 -7 -71 -7q-80 0 -127.5 50t-47.5 140zM125 -240l50 160h160l-75 -160h-135z" />
    <glyph glyph-name="uni0232" unicode="&#x232;" horiz-adv-x="670" 
d="M240 0v250l-250 450h210l133 -275h4l133 275h210l-250 -450v-250h-190zM175 800v130h320v-130h-320z" />
    <glyph glyph-name="uni0233" unicode="&#x233;" horiz-adv-x="540" 
d="M45 -195v155q9 -4 16 -5q17 -5 34 -5q53 0 75 40l10 20l-180 480h185l83 -285h4l83 285h185l-195 -515q-39 -100 -86 -142.5t-124 -42.5q-36 0 -64 7q-4 1 -13 3.5t-13 4.5zM110 575v130h320v-130h-320z" />
    <glyph glyph-name="uni0244" unicode="&#x244;" horiz-adv-x="790" 
d="M85 285v90h-75v70h75v255h190v-255h240v255h190v-255h75v-70h-75v-90q0 -132 -87.5 -218.5t-222.5 -86.5t-222.5 86.5t-87.5 218.5zM275 375v-90q0 -55 35.5 -92.5t84.5 -37.5t84.5 37.5t35.5 92.5v90h-240z" />
    <glyph glyph-name="uni0259" unicode="&#x259;" horiz-adv-x="580" 
d="M35 295h335q-4 26 -34.5 48t-75.5 22q-44 0 -88 -23q-21 -12 -32 -22l-65 110q18 16 53 35q72 35 147 35q115 0 192.5 -74.5t77.5 -180.5q0 -105 -76 -180t-184 -75t-181.5 72.5t-73.5 177.5q0 17 2 39zM370 190h-170q9 -28 31 -46.5t54 -18.5t54 18.5t31 46.5z" />
    <glyph glyph-name="uni0289" unicode="&#x289;" horiz-adv-x="640" 
d="M75 195v75h-55v65h55v155h170v-155h150v155h170v-155h55v-65h-55v-270h-170v70h-5q-13 -21 -33 -40q-46 -40 -107 -40q-77 0 -126 54.5t-49 150.5zM245 270v-40q0 -37 19.5 -58.5t50.5 -21.5q35 0 57.5 24.5t22.5 65.5v30h-150z" />
    <glyph glyph-name="uni02BC" unicode="&#x2bc;" horiz-adv-x="270" 
d="M30 550l50 160h160l-75 -160h-135z" />
    <glyph glyph-name="circumflex" unicode="&#x2c6;" horiz-adv-x="470" 
d="M30 550l130 160h150l130 -160h-155l-50 70l-50 -70h-155z" />
    <glyph glyph-name="caron" unicode="&#x2c7;" horiz-adv-x="470" 
d="M160 550l-130 160h155l50 -70l50 70h155l-130 -160h-150z" />
    <glyph glyph-name="breve" unicode="&#x2d8;" horiz-adv-x="400" 
d="M30 710h120q0 -23 13.5 -36.5t36.5 -13.5t36.5 13.5t13.5 36.5h120q0 -68 -48 -114t-122 -46t-122 46t-48 114z" />
    <glyph glyph-name="dotaccent" unicode="&#x2d9;" horiz-adv-x="250" 
d="M30 640q0 39 26.5 64.5t68.5 25.5t68.5 -25.5t26.5 -64.5t-26.5 -64.5t-68.5 -25.5t-68.5 25.5t-26.5 64.5z" />
    <glyph glyph-name="ring" unicode="&#x2da;" horiz-adv-x="320" 
d="M120 610q0 -18 12 -29t28 -11t28 11t12 29t-12 29t-28 11t-28 -11t-12 -29zM30 610q0 49 37.5 84.5t92.5 35.5t92.5 -35.5t37.5 -84.5t-37.5 -84.5t-92.5 -35.5t-92.5 35.5t-37.5 84.5z" />
    <glyph glyph-name="ogonek" unicode="&#x2db;" horiz-adv-x="270" 
d="M110 0h70q-9 -14 -15 -32q-15 -36 -15 -73q0 -40 40 -40q21 0 36 7l7 3.5t7 4.5v-90q-10 -6 -23 -10q-30 -10 -67 -10q-51 0 -85.5 32t-34.5 78q0 49 40 95q16 18 40 35z" />
    <glyph glyph-name="tilde" unicode="&#x2dc;" horiz-adv-x="430" 
d="M30 550v40q0 62 29 96t76 34q33 0 71.5 -22.5t53.5 -22.5q35 0 35 45h105v-40q0 -62 -29 -96t-76 -34q-33 0 -71.5 22.5t-53.5 22.5q-35 0 -35 -45h-105z" />
    <glyph glyph-name="hungarumlaut" unicode="&#x2dd;" horiz-adv-x="520" 
d="M30 550l90 160h160l-125 -160h-125zM240 550l90 160h160l-125 -160h-125z" />
    <glyph glyph-name="acutecomb" unicode="&#x301;" horiz-adv-x="0" 
d="M-470 750l85 160h180l-120 -160h-145z" />
    <glyph glyph-name="uni0302" unicode="&#x302;" horiz-adv-x="0" 
d="M-605 750l130 160h150l130 -160h-155l-50 70l-50 -70h-155z" />
    <glyph glyph-name="uni0304" unicode="&#x304;" horiz-adv-x="0" 
d="M-555 790v130h320v-130h-320z" />
    <glyph glyph-name="uni0306" unicode="&#x306;" horiz-adv-x="0" 
d="M-565 910h120q0 -23 13.5 -36.5t36.5 -13.5t36.5 13.5t13.5 36.5h120q0 -68 -48 -114t-122 -46t-122 46t-48 114z" />
    <glyph glyph-name="uni0307" unicode="&#x307;" horiz-adv-x="0" 
d="M-490 840q0 39 26.5 64.5t68.5 25.5t68.5 -25.5t26.5 -64.5t-26.5 -64.5t-68.5 -25.5t-68.5 25.5t-26.5 64.5z" />
    <glyph glyph-name="uni0308" unicode="&#x308;" horiz-adv-x="0" 
d="M-370 845q0 34 25.5 59.5t59.5 25.5t59.5 -25.5t25.5 -59.5t-25.5 -59.5t-59.5 -25.5t-59.5 25.5t-25.5 59.5zM-430 845q0 -34 -25.5 -59.5t-59.5 -25.5t-59.5 25.5t-25.5 59.5t25.5 59.5t59.5 25.5t59.5 -25.5t25.5 -59.5z" />
    <glyph glyph-name="uni030A" unicode="&#x30a;" horiz-adv-x="0" 
d="M-435 850q0 -18 12 -29t28 -11t28 11t12 29t-12 29t-28 11t-28 -11t-12 -29zM-525 850q0 49 37.5 84.5t92.5 35.5t92.5 -35.5t37.5 -84.5t-37.5 -84.5t-92.5 -35.5t-92.5 35.5t-37.5 84.5z" />
    <glyph glyph-name="uni030C" unicode="&#x30c;" horiz-adv-x="0" 
d="M-465 750l-130 160h155l50 -70l50 70h155l-130 -160h-150z" />
    <glyph glyph-name="uni0326" unicode="&#x326;" horiz-adv-x="270" 
d="M30 -240l50 160h160l-75 -160h-135z" />
    <glyph glyph-name="Alphatonos" unicode="&#x386;" horiz-adv-x="740" 
d="M310 305h130l-63 200h-4zM5 0l265 700h210l265 -700h-205l-50 150h-230l-50 -150h-205zM-40 540l85 160h180l-120 -160h-145z" />
    <glyph glyph-name="Epsilontonos" unicode="&#x388;" horiz-adv-x="765" 
d="M180 0v700h535v-170h-345v-100h265v-160h-265v-100h355v-170h-545zM-86 540l85 160h180l-120 -160h-145z" />
    <glyph glyph-name="Etatonos" unicode="&#x389;" horiz-adv-x="895" 
d="M180 0v700h190v-255h255v255h190v-700h-190v265h-255v-265h-190zM-85 540l85 160h180l-120 -160h-145z" />
    <glyph glyph-name="Iotatonos" unicode="&#x38a;" horiz-adv-x="460" 
d="M190 0v700h190v-700h-190zM-85 540l85 160h180l-120 -160h-145z" />
    <glyph glyph-name="Omicrontonos" unicode="&#x38c;" horiz-adv-x="900" 
d="M275 350q0 -82 56.5 -138.5t138.5 -56.5t138.5 56.5t56.5 138.5t-56.5 138.5t-138.5 56.5t-138.5 -56.5t-56.5 -138.5zM80 350q0 155 111.5 262.5t278.5 107.5t278.5 -107.5t111.5 -262.5t-111.5 -262.5t-278.5 -107.5t-278.5 107.5t-111.5 262.5zM-40 540l85 160h180
l-120 -160h-145z" />
    <glyph glyph-name="Upsilontonos" unicode="&#x38e;" horiz-adv-x="860" 
d="M430 0v250l-250 450h210l133 -275h4l133 275h210l-250 -450v-250h-190zM-85 540l85 160h180l-120 -160h-145z" />
    <glyph glyph-name="Omegatonos" unicode="&#x38f;" horiz-adv-x="930" 
d="M115 0v150h105q-35 23 -60 55q-60 72 -60 175q0 142 109 241t281 99t281 -99t109 -241q0 -103 -60 -175q-25 -32 -60 -55h105v-150h-325v160q145 43 145 190q0 86 -56.5 143t-138.5 57q-83 0 -139 -57t-56 -143q0 -147 145 -190v-160h-325zM-70 540l85 160h180l-120 -160
h-145z" />
    <glyph glyph-name="iotadieresistonos" unicode="&#x390;" horiz-adv-x="320" 
d="M-95 635q0 34 25.5 59.5t59.5 25.5t59.5 -25.5t25.5 -59.5t-25.5 -59.5t-59.5 -25.5t-59.5 25.5t-25.5 59.5zM215 635q0 34 25.5 59.5t59.5 25.5t59.5 -25.5t25.5 -59.5t-25.5 -59.5t-59.5 -25.5t-59.5 25.5t-25.5 59.5zM60 555l80 160h100l-120 -160h-60zM60 165v325
h170v-285q0 -26 13.5 -40.5t36.5 -14.5q7 0 21 2l9 3v-150q-4 -2 -13 -4.5t-13 -3.5q-28 -7 -64 -7q-73 0 -116.5 46.5t-43.5 128.5z" />
    <glyph glyph-name="Alpha" unicode="&#x391;" horiz-adv-x="730" 
d="M300 305h130l-63 200h-4zM-5 0l265 700h210l265 -700h-205l-50 150h-230l-50 -150h-205z" />
    <glyph glyph-name="Beta" unicode="&#x392;" horiz-adv-x="705" 
d="M80 0v700h310q115 0 180 -53t65 -132q0 -71 -53 -116q-20 -17 -52 -29q39 -14 70 -37q70 -54 70 -138q0 -83 -68 -139t-187 -56h-335zM270 150h130q33 0 54 20t21 50t-21 50t-54 20h-130v-140zM270 430h105q30 0 47.5 16.5t17.5 43.5t-17.5 43.5t-47.5 16.5h-105v-120z
" />
    <glyph glyph-name="Gamma" unicode="&#x393;" horiz-adv-x="590" 
d="M80 0v700h490v-180h-300v-520h-190z" />
    <glyph glyph-name="uni0394" unicode="&#x394;" horiz-adv-x="720" 
d="M-10 0l265 700h210l265 -700h-740zM240 170h240l-118 335h-4z" />
    <glyph glyph-name="Epsilon" unicode="&#x395;" horiz-adv-x="665" 
d="M80 0v700h535v-170h-345v-100h265v-160h-265v-100h355v-170h-545z" />
    <glyph glyph-name="Zeta" unicode="&#x396;" horiz-adv-x="660" 
d="M45 0v180l305 340h-290v180h545v-180l-305 -340h315v-180h-570z" />
    <glyph glyph-name="Eta" unicode="&#x397;" horiz-adv-x="795" 
d="M80 0v700h190v-255h255v255h190v-700h-190v265h-255v-265h-190z" />
    <glyph glyph-name="Theta" unicode="&#x398;" horiz-adv-x="860" 
d="M40 350q0 155 111.5 262.5t278.5 107.5t278.5 -107.5t111.5 -262.5t-111.5 -262.5t-278.5 -107.5t-278.5 107.5t-111.5 262.5zM235 350q0 -82 56.5 -138.5t138.5 -56.5t138.5 56.5t56.5 138.5t-56.5 138.5t-138.5 56.5t-138.5 -56.5t-56.5 -138.5zM290 315v70h280v-70
h-280z" />
    <glyph glyph-name="Iota" unicode="&#x399;" horiz-adv-x="350" 
d="M80 0v700h190v-700h-190z" />
    <glyph glyph-name="Kappa" unicode="&#x39a;" horiz-adv-x="720" 
d="M80 0v700h190v-270l230 270h220l-250 -290l270 -410h-220l-175 265l-75 -85v-180h-190z" />
    <glyph glyph-name="Lambda" unicode="&#x39b;" horiz-adv-x="730" 
d="M-5 0l265 700h210l265 -700h-205l-163 505h-4l-163 -505h-205z" />
    <glyph glyph-name="Mu" unicode="&#x39c;" horiz-adv-x="930" 
d="M80 0v700h170l215 -270l215 270h170v-700h-190v415l-195 -245l-195 245v-415h-190z" />
    <glyph glyph-name="Nu" unicode="&#x39d;" horiz-adv-x="815" 
d="M80 0v700h165l300 -385v385h190v-700h-165l-300 385v-385h-190z" />
    <glyph glyph-name="Xi" unicode="&#x39e;" horiz-adv-x="680" 
d="M40 0v160h600v-160h-600zM50 540v160h580v-160h-580zM125 280v150h430v-150h-430z" />
    <glyph glyph-name="Omicron" unicode="&#x39f;" horiz-adv-x="860" 
d="M235 350q0 -82 56.5 -138.5t138.5 -56.5t138.5 56.5t56.5 138.5t-56.5 138.5t-138.5 56.5t-138.5 -56.5t-56.5 -138.5zM40 350q0 155 111.5 262.5t278.5 107.5t278.5 -107.5t111.5 -262.5t-111.5 -262.5t-278.5 -107.5t-278.5 107.5t-111.5 262.5z" />
    <glyph glyph-name="Pi" unicode="&#x3a0;" horiz-adv-x="785" 
d="M80 0v700h625v-700h-190v520h-245v-520h-190z" />
    <glyph glyph-name="Rho" unicode="&#x3a1;" horiz-adv-x="695" 
d="M80 0v700h315q115 0 187.5 -69.5t72.5 -175.5t-72.5 -175.5t-187.5 -69.5h-125v-210h-190zM270 380h115q33 0 56.5 22.5t23.5 52.5t-23.5 52.5t-56.5 22.5h-115v-150z" />
    <glyph glyph-name="Sigma" unicode="&#x3a3;" horiz-adv-x="625" 
d="M50 0v150l175 205l-175 195v150h535v-180h-300l150 -165l-150 -175h300v-180h-535z" />
    <glyph glyph-name="Tau" unicode="&#x3a4;" horiz-adv-x="620" 
d="M215 0v530h-195v170h580v-170h-195v-530h-190z" />
    <glyph glyph-name="Upsilon" unicode="&#x3a5;" horiz-adv-x="670" 
d="M240 0v250l-250 450h210l133 -275h4l133 275h210l-250 -450v-250h-190z" />
    <glyph glyph-name="Phi" unicode="&#x3a6;" horiz-adv-x="900" 
d="M355 195v320q-59 -9 -94.5 -49.5t-35.5 -110.5t35.5 -110.5t94.5 -49.5zM545 515v-320q59 9 94.5 49.5t35.5 110.5t-35.5 110.5t-94.5 49.5zM355 -50v80q-139 14 -229.5 106t-90.5 219q0 128 90 218.5t230 106.5v80h190v-80q140 -16 230 -106.5t90 -218.5
q0 -127 -90.5 -219t-229.5 -106v-80h-190z" />
    <glyph glyph-name="Chi" unicode="&#x3a7;" horiz-adv-x="680" 
d="M-10 0l225 365l-205 335h210l118 -210h4l118 210h210l-205 -335l225 -365h-210l-138 240h-4l-138 -240h-210z" />
    <glyph glyph-name="Psi" unicode="&#x3a8;" horiz-adv-x="900" 
d="M355 0v180q-139 8 -219.5 90t-80.5 220v210h190v-210q0 -122 110 -130v340h190v-340q110 8 110 130v210h190v-210q0 -138 -80.5 -220t-219.5 -90v-180h-190z" />
    <glyph glyph-name="uni03A9" unicode="&#x3a9;" horiz-adv-x="880" 
d="M65 0v150h105q-35 23 -60 55q-60 72 -60 175q0 142 109 241t281 99t281 -99t109 -241q0 -103 -60 -175q-25 -32 -60 -55h105v-150h-325v160q145 43 145 190q0 86 -56.5 143t-138.5 57q-83 0 -139 -57t-56 -143q0 -147 145 -190v-160h-325z" />
    <glyph glyph-name="Iotadieresis" unicode="&#x3aa;" horiz-adv-x="350" 
d="M80 0v700h190v-700h-190zM205 865q0 34 25.5 59.5t59.5 25.5t59.5 -25.5t25.5 -59.5t-25.5 -59.5t-59.5 -25.5t-59.5 25.5t-25.5 59.5zM145 865q0 -34 -25.5 -59.5t-59.5 -25.5t-59.5 25.5t-25.5 59.5t25.5 59.5t59.5 25.5t59.5 -25.5t25.5 -59.5z" />
    <glyph glyph-name="Upsilondieresis" unicode="&#x3ab;" horiz-adv-x="670" 
d="M240 0v250l-250 450h210l133 -275h4l133 275h210l-250 -450v-250h-190zM365 865q0 34 25.5 59.5t59.5 25.5t59.5 -25.5t25.5 -59.5t-25.5 -59.5t-59.5 -25.5t-59.5 25.5t-25.5 59.5zM305 865q0 -34 -25.5 -59.5t-59.5 -25.5t-59.5 25.5t-25.5 59.5t25.5 59.5t59.5 25.5
t59.5 -25.5t25.5 -59.5z" />
    <glyph glyph-name="alphatonos" unicode="&#x3ac;" horiz-adv-x="640" 
d="M430 70h-5q-14 -21 -38 -40q-54 -40 -127 -40q-96 0 -160.5 70.5t-64.5 184.5q0 113 63 184t152 71q66 0 112 -40q20 -19 33 -40h5v70h170v-310q0 -30 30 -30q4 0 14 2l6 3v-150q-4 -3 -16 -8q-19 -7 -49 -7q-64 0 -102 40q-15 17 -23 40zM305 145q38 0 66.5 29.5
t28.5 70.5t-28.5 70.5t-66.5 29.5t-66.5 -29.5t-28.5 -70.5t28.5 -70.5t66.5 -29.5zM250 555l85 160h180l-120 -160h-145z" />
    <glyph glyph-name="epsilontonos" unicode="&#x3ad;" horiz-adv-x="480" 
d="M330 194h-50q-60 0 -60 -34q0 -35 60 -35q42 0 79 25q17 11 31 25l90 -95q-22 -25 -56 -45q-76 -45 -169 -45q-106 0 -163 42t-57 103q0 60 55 93q23 14 55 22q-27 7 -50 21q-50 32 -50 89t54.5 98.5t150.5 41.5q85 0 157 -35q32 -17 53 -35l-90 -95q-7 5 -25 15
q-34 15 -70 15q-22 0 -33.5 -9t-11.5 -21t11.5 -21t33.5 -9h55v-111zM175 555l85 160h180l-120 -160h-145z" />
    <glyph glyph-name="etatonos" unicode="&#x3ae;" horiz-adv-x="605" 
d="M60 0v490h170v-70h5q11 21 32 40q46 40 108 40q77 0 126 -55t49 -150v-295h-170v260q0 37 -19.5 58.5t-50.5 21.5q-35 0 -57.5 -24.5t-22.5 -65.5v-250h-170zM235 555l85 160h180l-120 -160h-145z" />
    <glyph glyph-name="iotatonos" unicode="&#x3af;" horiz-adv-x="320" 
d="M60 165v325h170v-285q0 -26 13.5 -40.5t36.5 -14.5q7 0 21 2l9 3v-150q-4 -2 -13 -4.5t-13 -3.5q-28 -7 -64 -7q-73 0 -116.5 46.5t-43.5 128.5zM70 555l85 160h180l-120 -160h-145z" />
    <glyph glyph-name="upsilondieresistonos" unicode="&#x3b0;" 
d="M65 635q0 34 25.5 59.5t59.5 25.5t59.5 -25.5t25.5 -59.5t-25.5 -59.5t-59.5 -25.5t-59.5 25.5t-25.5 59.5zM375 635q0 34 25.5 59.5t59.5 25.5t59.5 -25.5t25.5 -59.5t-25.5 -59.5t-59.5 -25.5t-59.5 25.5t-25.5 59.5zM220 555l80 160h100l-120 -160h-60zM60 220v270
h170v-260q0 -30 21 -50t54 -20t54 20t21 50v260h170v-270q0 -102 -67 -166t-178 -64t-178 64t-67 166z" />
    <glyph glyph-name="alpha" unicode="&#x3b1;" horiz-adv-x="640" 
d="M430 70h-5q-14 -21 -38 -40q-54 -40 -127 -40q-96 0 -160.5 70.5t-64.5 184.5q0 113 63 184t152 71q66 0 112 -40q20 -19 33 -40h5v70h170v-310q0 -30 30 -30q4 0 14 2l6 3v-150q-4 -3 -16 -8q-19 -7 -49 -7q-64 0 -102 40q-15 17 -23 40zM305 145q38 0 66.5 29.5
t28.5 70.5t-28.5 70.5t-66.5 29.5t-66.5 -29.5t-28.5 -70.5t28.5 -70.5t66.5 -29.5z" />
    <glyph glyph-name="beta" unicode="&#x3b2;" 
d="M65 -210v695q0 102 63.5 163.5t171.5 61.5q102 0 163.5 -54.5t61.5 -135.5q0 -57 -40 -103q-17 -18 -40 -32q37 -15 65 -39q65 -57 65 -136q0 -93 -66.5 -151.5t-184.5 -58.5h-89v-210h-170zM235 155h85q35 0 55 17.5t20 47.5q0 33 -19.5 51.5t-55.5 18.5h-45v145h20
q30 0 47.5 17.5t17.5 47.5q0 26 -17 43t-43 17q-30 0 -47.5 -20t-17.5 -55v-330z" />
    <glyph glyph-name="gamma" unicode="&#x3b3;" horiz-adv-x="540" 
d="M185 -210v210l-185 490h185l83 -285h4l83 285h185l-185 -490v-210h-170z" />
    <glyph glyph-name="delta" unicode="&#x3b4;" horiz-adv-x="600" 
d="M85 570v130h430v-140h-180q230 -145 230 -330q0 -100 -75.5 -170t-189.5 -70t-189.5 70t-75.5 170q0 88 59 151t151 79q-41 41 -106 81q-30 18 -54 29zM210 230q0 -34 26 -59.5t64 -25.5t64 25.5t26 59.5t-26 59.5t-64 25.5t-64 -25.5t-26 -59.5z" />
    <glyph glyph-name="epsilon" unicode="&#x3b5;" horiz-adv-x="480" 
d="M330 194h-50q-60 0 -60 -34q0 -35 60 -35q42 0 79 25q17 11 31 25l90 -95q-22 -25 -56 -45q-76 -45 -169 -45q-106 0 -163 42t-57 103q0 60 55 93q23 14 55 22q-27 7 -50 21q-50 32 -50 89t54.5 98.5t150.5 41.5q85 0 157 -35q32 -17 53 -35l-90 -95q-7 5 -25 15
q-34 15 -70 15q-22 0 -33.5 -9t-11.5 -21t11.5 -21t33.5 -9h55v-111z" />
    <glyph glyph-name="zeta" unicode="&#x3b6;" horiz-adv-x="520" 
d="M450 -140h-140q0 50 15 93q7 22 15 37l-17 -3q-22 -2 -43 -2q-114 0 -179.5 59.5t-65.5 155.5q0 125 100 245q43 52 100 95h-180v160h430v-140q-77 -44 -138 -96q-137 -117 -137 -224q0 -100 115 -100q44 0 80 12q14 4 35 13l80 -100q-22 -32 -35 -61q-35 -72 -35 -144z
" />
    <glyph glyph-name="eta" unicode="&#x3b7;" horiz-adv-x="605" 
d="M60 0v490h170v-70h5q11 21 32 40q46 40 108 40q77 0 126 -55t49 -150v-295h-170v260q0 37 -19.5 58.5t-50.5 21.5q-35 0 -57.5 -24.5t-22.5 -65.5v-250h-170z" />
    <glyph glyph-name="theta" unicode="&#x3b8;" horiz-adv-x="660" 
d="M330 -15q-125 0 -205 95.5t-80 269.5t80 269.5t205 95.5t205 -95.5t80 -269.5t-80 -269.5t-205 -95.5zM220 380h220q-4 92 -34 136t-76 44t-76 -44t-34 -136zM440 320h-220q4 -92 34 -136t76 -44t76 44t34 136z" />
    <glyph glyph-name="iota" unicode="&#x3b9;" horiz-adv-x="320" 
d="M60 165v325h170v-285q0 -26 13.5 -40.5t36.5 -14.5q7 0 21 2l9 3v-150q-4 -2 -13 -4.5t-13 -3.5q-28 -7 -64 -7q-73 0 -116.5 46.5t-43.5 128.5z" />
    <glyph glyph-name="kappa" unicode="&#x3ba;" horiz-adv-x="570" 
d="M60 0v490h170v-165l145 165h200l-185 -205l190 -285h-190l-115 180l-45 -55v-125h-170z" />
    <glyph glyph-name="lambda" unicode="&#x3bb;" horiz-adv-x="540" 
d="M0 0l195 490l-10 19q-24 46 -75 46q-21 0 -36 -5l-14 -5v150l27 7q34 8 68 8q76 0 126 -48.5t89 -161.5l170 -500h-180l-78 280h-4l-98 -280h-180z" />
    <glyph glyph-name="uni03BC" unicode="&#x3bc;" 
d="M60 -210v700h170v-260q0 -37 19.5 -58.5t50.5 -21.5q35 0 57.5 24.5t22.5 65.5v250h170v-490h-170v70h-5q-13 -21 -33 -40q-46 -40 -107 -40h-6v-200h-169z" />
    <glyph glyph-name="nu" unicode="&#x3bd;" horiz-adv-x="540" 
d="M185 0l-185 490h185l83 -285h4l83 285h185l-185 -490h-170z" />
    <glyph glyph-name="xi" unicode="&#x3be;" horiz-adv-x="515" 
d="M450 -140h-140q0 50 15 93q7 22 15 37l-16 -3q-18 -2 -34 -2q-112 0 -183.5 61.5t-71.5 143.5q0 93 72 149q31 24 73 36v4q-36 11 -63 30q-62 46 -62 121t67 130t178 55q85 0 139 -28q26 -12 41 -27l-85 -125q-11 7 -24 12q-28 13 -61 13q-37 0 -58.5 -17.5t-21.5 -42.5
t21.5 -42.5t58.5 -17.5h80v-150h-80q-47 0 -73.5 -21.5t-26.5 -53.5t29 -53.5t86 -21.5q46 0 82 12q14 4 33 13l80 -100q-22 -32 -35 -61q-35 -72 -35 -144z" />
    <glyph glyph-name="omicron" unicode="&#x3bf;" 
d="M305 145q38 0 66.5 29.5t28.5 70.5t-28.5 70.5t-66.5 29.5t-66.5 -29.5t-28.5 -70.5t28.5 -70.5t66.5 -29.5zM35 245q0 106 77.5 180.5t192.5 74.5t192.5 -74.5t77.5 -180.5t-77.5 -180.5t-192.5 -74.5t-192.5 74.5t-77.5 180.5z" />
    <glyph glyph-name="pi" unicode="&#x3c0;" 
d="M60 0v490h490v-490h-170v330h-150v-330h-170z" />
    <glyph glyph-name="rho" unicode="&#x3c1;" horiz-adv-x="625" 
d="M55 -210v455q0 105 78 180t187 75q115 0 192.5 -74.5t77.5 -180.5t-77.5 -180.5t-192.5 -74.5q-34 0 -68 10q-17 5 -27 10v-220h-170zM320 145q38 0 66.5 29.5t28.5 70.5t-28.5 70.5t-66.5 29.5t-66.5 -29.5t-28.5 -70.5t28.5 -70.5t66.5 -29.5z" />
    <glyph glyph-name="sigma1" unicode="&#x3c2;" horiz-adv-x="535" 
d="M420 -140h-140q0 50 15 93q7 22 15 37h-5q-115 0 -192.5 74.5t-77.5 180.5t77.5 180.5t192.5 74.5q82 0 152 -38q26 -14 53 -37l-100 -120q-10 10 -25 20q-29 20 -70 20q-45 0 -75 -29t-30 -71q0 -45 30.5 -72.5t84.5 -27.5q31 0 61 10q16 5 24 10l80 -100
q-22 -32 -35 -61q-35 -72 -35 -144z" />
    <glyph glyph-name="sigma" unicode="&#x3c3;" horiz-adv-x="645" 
d="M305 490h330v-165h-80q5 -8 10 -24q10 -30 10 -61q0 -103 -77.5 -176.5t-192.5 -73.5t-192.5 73.5t-77.5 176.5t77.5 176.5t192.5 73.5zM210 240q0 -39 27 -67t68 -28t68 28t27 67t-27 67t-68 28t-68 -28t-27 -67z" />
    <glyph glyph-name="tau" unicode="&#x3c4;" horiz-adv-x="490" 
d="M160 165v165h-140v160h450v-160h-140v-125q0 -26 13.5 -40.5t36.5 -14.5q7 0 21 2l9 3v-150q-4 -2 -13 -4.5t-13 -3.5q-28 -7 -64 -7q-73 0 -116.5 46.5t-43.5 128.5z" />
    <glyph glyph-name="upsilon" unicode="&#x3c5;" 
d="M60 220v270h170v-260q0 -30 21 -50t54 -20t54 20t21 50v260h170v-270q0 -102 -67 -166t-178 -64t-178 64t-67 166z" />
    <glyph glyph-name="phi" unicode="&#x3c6;" horiz-adv-x="770" 
d="M470 350v-220q46 4 73 33t27 77t-27 77t-73 33zM300 -210v190q-116 8 -193 83t-77 177q0 84 48 145.5t122 94.5l75 -134q-32 -9 -53.5 -36t-21.5 -70q0 -48 27 -77t73 -33v370h140q132 0 216 -76t84 -184q0 -102 -77 -177t-193 -83v-190h-170z" />
    <glyph glyph-name="chi" unicode="&#x3c7;" horiz-adv-x="530" 
d="M-5 0l155 250l-145 240h185l73 -145h4l73 145h185l-145 -240l155 -250h-185l-83 155h-4l-83 -155h-185z" />
    <glyph glyph-name="psi" unicode="&#x3c8;" horiz-adv-x="800" 
d="M315 -210v190q-260 30 -260 280v230h170v-230q0 -56 22 -81t68 -29v340h170v-340q46 4 68 29t22 81v230h170v-230q0 -250 -260 -280v-190h-170z" />
    <glyph glyph-name="omega" unicode="&#x3c9;" horiz-adv-x="830" 
d="M330 240v105h170v-105q0 -46 17.5 -70.5t42.5 -24.5t42.5 24.5t17.5 70.5q0 32 -9.5 58.5t-19 38t-26.5 28.5l75 130q61 -26 108 -92.5t47 -162.5q0 -113 -65 -186.5t-155 -73.5q-76 0 -125 47q-21 19 -35 48q-14 -29 -35 -48q-49 -47 -125 -47q-90 0 -155 73.5
t-65 186.5q0 96 47 162.5t108 92.5l75 -130q-17 -17 -26.5 -28.5t-19 -38t-9.5 -58.5q0 -46 17.5 -70.5t42.5 -24.5t42.5 24.5t17.5 70.5z" />
    <glyph glyph-name="iotadieresis" unicode="&#x3ca;" horiz-adv-x="320" 
d="M60 165v325h170v-285q0 -26 13.5 -40.5t36.5 -14.5q7 0 21 2l9 3v-150q-4 -2 -13 -4.5t-13 -3.5q-28 -7 -64 -7q-73 0 -116.5 46.5t-43.5 128.5zM175 640q0 34 25.5 59.5t59.5 25.5t59.5 -25.5t25.5 -59.5t-25.5 -59.5t-59.5 -25.5t-59.5 25.5t-25.5 59.5zM115 640
q0 -34 -25.5 -59.5t-59.5 -25.5t-59.5 25.5t-25.5 59.5t25.5 59.5t59.5 25.5t59.5 -25.5t25.5 -59.5z" />
    <glyph glyph-name="upsilondieresis" unicode="&#x3cb;" 
d="M60 220v270h170v-260q0 -30 21 -50t54 -20t54 20t21 50v260h170v-270q0 -102 -67 -166t-178 -64t-178 64t-67 166zM335 640q0 34 25.5 59.5t59.5 25.5t59.5 -25.5t25.5 -59.5t-25.5 -59.5t-59.5 -25.5t-59.5 25.5t-25.5 59.5zM275 640q0 -34 -25.5 -59.5t-59.5 -25.5
t-59.5 25.5t-25.5 59.5t25.5 59.5t59.5 25.5t59.5 -25.5t25.5 -59.5z" />
    <glyph glyph-name="omicrontonos" unicode="&#x3cc;" 
d="M305 145q38 0 66.5 29.5t28.5 70.5t-28.5 70.5t-66.5 29.5t-66.5 -29.5t-28.5 -70.5t28.5 -70.5t66.5 -29.5zM35 245q0 106 77.5 180.5t192.5 74.5t192.5 -74.5t77.5 -180.5t-77.5 -180.5t-192.5 -74.5t-192.5 74.5t-77.5 180.5zM230 555l85 160h180l-120 -160h-145z" />
    <glyph glyph-name="upsilontonos" unicode="&#x3cd;" 
d="M60 220v270h170v-260q0 -30 21 -50t54 -20t54 20t21 50v260h170v-270q0 -102 -67 -166t-178 -64t-178 64t-67 166zM230 555l85 160h180l-120 -160h-145z" />
    <glyph glyph-name="omegatonos" unicode="&#x3ce;" horiz-adv-x="840" 
d="M335 240v105h170v-105q0 -46 17.5 -70.5t42.5 -24.5t42.5 24.5t17.5 70.5q0 32 -9.5 58.5t-19 38t-26.5 28.5l75 130q61 -26 108 -92.5t47 -162.5q0 -113 -65 -186.5t-155 -73.5q-76 0 -125 47q-21 19 -35 48q-14 -29 -35 -48q-49 -47 -125 -47q-90 0 -155 73.5
t-65 186.5q0 96 47 162.5t108 92.5l75 -130q-17 -17 -26.5 -28.5t-19 -38t-9.5 -58.5q0 -46 17.5 -70.5t42.5 -24.5t42.5 24.5t17.5 70.5zM345 555l85 160h180l-120 -160h-145z" />
    <glyph glyph-name="uni0400" unicode="&#x400;" horiz-adv-x="665" 
d="M80 0v700h535v-170h-345v-100h265v-160h-265v-100h355v-170h-545zM275 780l-120 160h180l85 -160h-145z" />
    <glyph glyph-name="uni0401" unicode="&#x401;" horiz-adv-x="665" 
d="M80 0v700h535v-170h-345v-100h265v-160h-265v-100h355v-170h-545zM375 865q0 34 25.5 59.5t59.5 25.5t59.5 -25.5t25.5 -59.5t-25.5 -59.5t-59.5 -25.5t-59.5 25.5t-25.5 59.5zM315 865q0 -34 -25.5 -59.5t-59.5 -25.5t-59.5 25.5t-25.5 59.5t25.5 59.5t59.5 25.5
t59.5 -25.5t25.5 -59.5z" />
    <glyph glyph-name="uni0402" unicode="&#x402;" horiz-adv-x="755" 
d="M155 0v530h-155v170h490v-170h-145v-120q15 11 39 22q52 23 106 23q105 0 170 -65t65 -170q0 -109 -67 -174.5t-183 -65.5h-40v165q47 0 71 20t24 55q0 27 -21.5 46t-58.5 19q-43 0 -79 -23q-15 -10 -26 -22v-240h-190z" />
    <glyph glyph-name="uni0403" unicode="&#x403;" horiz-adv-x="590" 
d="M245 780l85 160h180l-120 -160h-145zM80 0v700h490v-180h-300v-520h-190z" />
    <glyph glyph-name="uni0404" unicode="&#x404;" horiz-adv-x="755" 
d="M250 430h260v-160h-260q20 -49 66.5 -82t113.5 -33q66 0 136 42q31 19 54 43l115 -125q-34 -39 -78 -68q-98 -67 -227 -67q-167 0 -278.5 107.5t-111.5 262.5t111.5 262.5t278.5 107.5q126 0 225 -68q44 -31 75 -67l-115 -125q-23 24 -51 42q-68 43 -134 43
q-67 0 -113.5 -33t-66.5 -82z" />
    <glyph glyph-name="uni0405" unicode="&#x405;" 
d="M25 100l110 120q18 -21 41 -38q53 -37 109 -37q43 0 66.5 17.5t23.5 42.5q0 22 -24.5 38.5t-61 27t-79.5 28.5t-79.5 40.5t-61 65t-24.5 100.5q0 87 73 151t192 64q106 0 186 -50q37 -24 59 -50l-110 -120q-14 16 -31 27q-37 28 -84 28q-39 0 -59.5 -14.5t-20.5 -35.5
q0 -22 24.5 -38.5t61 -27t79.5 -28.5t79.5 -40.5t61 -65t24.5 -100.5q0 -94 -75.5 -159.5t-199.5 -65.5q-120 0 -211 60q-40 26 -69 60z" />
    <glyph glyph-name="uni0406" unicode="&#x406;" horiz-adv-x="350" 
d="M80 0v700h190v-700h-190z" />
    <glyph glyph-name="uni0407" unicode="&#x407;" horiz-adv-x="350" 
d="M80 0v700h190v-700h-190zM205 865q0 34 25.5 59.5t59.5 25.5t59.5 -25.5t25.5 -59.5t-25.5 -59.5t-59.5 -25.5t-59.5 25.5t-25.5 59.5zM145 865q0 -34 -25.5 -59.5t-59.5 -25.5t-59.5 25.5t-25.5 59.5t25.5 59.5t59.5 25.5t59.5 -25.5t25.5 -59.5z" />
    <glyph glyph-name="uni0408" unicode="&#x408;" horiz-adv-x="535" 
d="M-10 70l120 125q7 -10 19 -20q22 -20 56 -20q38 0 61.5 23.5t23.5 61.5v460h190v-460q0 -116 -72 -188t-188 -72q-91 0 -159 45q-30 19 -51 45z" />
    <glyph glyph-name="uni0409" unicode="&#x409;" horiz-adv-x="1090" 
d="M5 0v175q10 -4 15 -5q17 -5 30 -5q24 0 42.5 12.5t34.5 45t24.5 97t8.5 159.5v221h520v-210h115q115 0 187.5 -69.5t72.5 -175.5t-72.5 -175.5t-187.5 -69.5h-305v520h-140v-40q0 -116 -12.5 -203.5t-33.5 -143.5t-53.5 -90.5t-68.5 -48.5t-82 -14q-32 0 -66 10
q-17 5 -29 10zM680 170h105q33 0 56.5 22.5t23.5 52.5t-23.5 52.5t-56.5 22.5h-105v-150z" />
    <glyph glyph-name="uni040A" unicode="&#x40a;" horiz-adv-x="1110" 
d="M80 0v700h190v-210h240v210h190v-210h115q115 0 187.5 -69.5t72.5 -175.5t-72.5 -175.5t-187.5 -69.5h-305v310h-240v-310h-190zM700 170h105q33 0 56.5 22.5t23.5 52.5t-23.5 52.5t-56.5 22.5h-105v-150z" />
    <glyph glyph-name="uni040B" unicode="&#x40b;" horiz-adv-x="775" 
d="M155 0v530h-155v170h490v-170h-145v-120q15 11 39 22q52 23 106 23q105 0 170 -65t65 -170v-220h-190v200q0 38 -23.5 61.5t-61.5 23.5q-43 0 -79 -23q-15 -10 -26 -22v-240h-190z" />
    <glyph glyph-name="uni040C" unicode="&#x40c;" horiz-adv-x="720" 
d="M80 0v700h190v-270l230 270h220l-250 -290l270 -410h-220l-175 265l-75 -85v-180h-190zM300 780l85 160h180l-120 -160h-145z" />
    <glyph glyph-name="uni040D" unicode="&#x40d;" horiz-adv-x="815" 
d="M80 0v700h190v-385l300 385h165v-700h-190v385l-300 -385h-165zM340 780l-120 160h180l85 -160h-145z" />
    <glyph glyph-name="uni040E" unicode="&#x40e;" horiz-adv-x="650" 
d="M155 945h120q0 -55 55 -55t55 55h120q0 -72 -48.5 -118.5t-126.5 -46.5t-126.5 46.5t-48.5 118.5zM70 5v170q10 -4 17 -5q20 -5 43 -5q76 0 105 60l5 10l-240 465h210l128 -290h4l108 290h210l-245 -520q-45 -93 -105 -141.5t-150 -48.5q-38 0 -66 7z" />
    <glyph glyph-name="uni040F" unicode="&#x40f;" horiz-adv-x="790" 
d="M80 0v700h190v-520h250v520h190v-700h-220v-140h-190v140h-220z" />
    <glyph glyph-name="uni0410" unicode="&#x410;" horiz-adv-x="730" 
d="M300 305h130l-63 200h-4zM-5 0l265 700h210l265 -700h-205l-50 150h-230l-50 -150h-205z" />
    <glyph glyph-name="uni0411" unicode="&#x411;" horiz-adv-x="685" 
d="M270 165h125q30 0 50 19t20 46t-20 46t-50 19h-125v-130zM80 0v700h510v-165h-320v-75h135q111 0 180.5 -65.5t69.5 -164.5t-69.5 -164.5t-180.5 -65.5h-325z" />
    <glyph glyph-name="uni0412" unicode="&#x412;" horiz-adv-x="705" 
d="M80 0v700h310q115 0 180 -53t65 -132q0 -71 -53 -116q-20 -17 -52 -29q39 -14 70 -37q70 -54 70 -138q0 -83 -68 -139t-187 -56h-335zM270 150h130q33 0 54 20t21 50t-21 50t-54 20h-130v-140zM270 430h105q30 0 47.5 16.5t17.5 43.5t-17.5 43.5t-47.5 16.5h-105v-120z
" />
    <glyph glyph-name="uni0413" unicode="&#x413;" horiz-adv-x="590" 
d="M80 0v700h490v-180h-300v-520h-190z" />
    <glyph glyph-name="uni0414" unicode="&#x414;" horiz-adv-x="760" 
d="M0 -140v320h40q27 24 50 67q50 94 50 233v220h520v-520h80v-320h-190v140h-360v-140h-190zM240 180h230v340h-140v-40q0 -141 -45 -233q-19 -41 -45 -67z" />
    <glyph glyph-name="uni0415" unicode="&#x415;" horiz-adv-x="665" 
d="M80 0v700h535v-170h-345v-100h265v-160h-265v-100h355v-170h-545z" />
    <glyph glyph-name="uni0416" unicode="&#x416;" horiz-adv-x="1050" 
d="M-20 0l270 410l-250 290h220l210 -245v245h190v-245l210 245h220l-250 -290l270 -410h-220l-175 270l-55 -65v-205h-190v205l-55 65l-175 -270h-220z" />
    <glyph glyph-name="uni0417" unicode="&#x417;" horiz-adv-x="620" 
d="M10 100l110 120q16 -20 42 -33q54 -32 118 -32q50 0 75 17.5t25 42.5t-23.5 42.5t-66.5 17.5h-90v160h75q43 0 64 15t21 40q0 55 -90 55q-43 0 -91 -25q-15 -8 -34 -25l-110 120q30 30 68 52q86 53 192 53q126 0 198 -58.5t72 -141.5q0 -73 -63 -120q-27 -19 -62 -30
q42 -14 72 -37q73 -55 73 -138q0 -91 -76.5 -153t-213.5 -62q-115 0 -210 60q-43 26 -75 60z" />
    <glyph glyph-name="uni0418" unicode="&#x418;" horiz-adv-x="815" 
d="M80 0v700h190v-385l300 385h165v-700h-190v385l-300 -385h-165z" />
    <glyph glyph-name="uni0419" unicode="&#x419;" horiz-adv-x="815" 
d="M235 945h120q0 -55 55 -55t55 55h120q0 -72 -48.5 -118.5t-126.5 -46.5t-126.5 46.5t-48.5 118.5zM80 0v700h190v-385l300 385h165v-700h-190v385l-300 -385h-165z" />
    <glyph glyph-name="uni041A" unicode="&#x41a;" horiz-adv-x="720" 
d="M80 0v700h190v-270l230 270h220l-250 -290l270 -410h-220l-175 265l-75 -85v-180h-190z" />
    <glyph glyph-name="uni041B" unicode="&#x41b;" horiz-adv-x="780" 
d="M5 0v175q10 -4 15 -5q17 -5 30 -5q24 0 42.5 12.5t34.5 45t24.5 97t8.5 159.5v221h540v-700h-190v520h-160v-40q0 -116 -12.5 -203.5t-33.5 -143.5t-53.5 -90.5t-68.5 -48.5t-82 -14q-32 0 -66 10q-17 5 -29 10z" />
    <glyph glyph-name="uni041C" unicode="&#x41c;" horiz-adv-x="930" 
d="M80 0v700h170l215 -270l215 270h170v-700h-190v415l-195 -245l-195 245v-415h-190z" />
    <glyph glyph-name="uni041D" unicode="&#x41d;" horiz-adv-x="795" 
d="M80 0v700h190v-255h255v255h190v-700h-190v265h-255v-265h-190z" />
    <glyph glyph-name="uni041E" unicode="&#x41e;" horiz-adv-x="860" 
d="M235 350q0 -82 56.5 -138.5t138.5 -56.5t138.5 56.5t56.5 138.5t-56.5 138.5t-138.5 56.5t-138.5 -56.5t-56.5 -138.5zM40 350q0 155 111.5 262.5t278.5 107.5t278.5 -107.5t111.5 -262.5t-111.5 -262.5t-278.5 -107.5t-278.5 107.5t-111.5 262.5z" />
    <glyph glyph-name="uni041F" unicode="&#x41f;" horiz-adv-x="785" 
d="M80 0v700h625v-700h-190v520h-245v-520h-190z" />
    <glyph glyph-name="uni0420" unicode="&#x420;" horiz-adv-x="695" 
d="M80 0v700h315q115 0 187.5 -69.5t72.5 -175.5t-72.5 -175.5t-187.5 -69.5h-125v-210h-190zM270 380h115q33 0 56.5 22.5t23.5 52.5t-23.5 52.5t-56.5 22.5h-115v-150z" />
    <glyph glyph-name="uni0421" unicode="&#x421;" horiz-adv-x="755" 
d="M620 245l115 -130q-34 -39 -78 -68q-98 -67 -227 -67q-167 0 -278.5 107.5t-111.5 262.5t111.5 262.5t278.5 107.5q126 0 225 -68q44 -31 75 -67l-115 -130q-23 25 -51 45q-65 45 -134 45q-82 0 -138.5 -56.5t-56.5 -138.5t56.5 -138.5t138.5 -56.5q68 0 136 45
q30 20 54 45z" />
    <glyph glyph-name="uni0422" unicode="&#x422;" horiz-adv-x="620" 
d="M215 0v530h-195v170h580v-170h-195v-530h-190z" />
    <glyph glyph-name="uni0423" unicode="&#x423;" horiz-adv-x="650" 
d="M70 5v170q10 -4 17 -5q20 -5 43 -5q76 0 105 60l5 10l-240 465h210l128 -290h4l108 290h210l-245 -520q-45 -93 -105 -141.5t-150 -48.5q-38 0 -66 7z" />
    <glyph glyph-name="uni0424" unicode="&#x424;" horiz-adv-x="910" 
d="M360 235v250q-60 -4 -95 -38t-35 -87t35 -87t95 -38zM360 -20v90q-144 8 -232 90t-88 200t88 200t232 90v75h190v-75q144 -8 232 -90t88 -200t-88 -200t-232 -90v-90h-190zM550 485v-250q60 4 95 38t35 87q0 54 -35 87.5t-95 37.5z" />
    <glyph glyph-name="uni0425" unicode="&#x425;" horiz-adv-x="680" 
d="M-10 0l225 365l-205 335h210l118 -210h4l118 210h210l-205 -335l225 -365h-210l-138 240h-4l-138 -240h-210z" />
    <glyph glyph-name="uni0426" unicode="&#x426;" horiz-adv-x="795" 
d="M80 0v700h190v-520h235v520h190v-520h80v-320h-190v140h-505z" />
    <glyph glyph-name="uni0427" unicode="&#x427;" horiz-adv-x="750" 
d="M480 0v235q-20 -9 -43 -15q-51 -15 -107 -15q-118 0 -189 75t-71 205v215h190v-215q0 -53 28.5 -81.5t81.5 -28.5q43 0 79 15q19 7 31 15v295h190v-700h-190z" />
    <glyph glyph-name="uni0428" unicode="&#x428;" horiz-adv-x="1080" 
d="M80 0v700h190v-520h175v520h190v-520h175v520h190v-700h-920z" />
    <glyph glyph-name="uni0429" unicode="&#x429;" horiz-adv-x="1100" 
d="M80 0v700h190v-520h175v520h190v-520h175v520h190v-520h80v-320h-190v140h-810z" />
    <glyph glyph-name="uni042A" unicode="&#x42a;" horiz-adv-x="760" 
d="M160 0v520h-150v180h340v-210h115q115 0 187.5 -69.5t72.5 -175.5t-72.5 -175.5t-187.5 -69.5h-305zM350 170h105q33 0 56.5 22.5t23.5 52.5t-23.5 52.5t-56.5 22.5h-105v-150z" />
    <glyph glyph-name="uni042B" unicode="&#x42b;" horiz-adv-x="985" 
d="M715 0v700h190v-700h-190zM80 0v700h190v-210h115q115 0 187.5 -69.5t72.5 -175.5t-72.5 -175.5t-187.5 -69.5h-305zM270 170h105q33 0 56.5 22.5t23.5 52.5t-23.5 52.5t-56.5 22.5h-105v-150z" />
    <glyph glyph-name="uni042C" unicode="&#x42c;" horiz-adv-x="690" 
d="M80 0v700h190v-210h125q115 0 187.5 -69.5t72.5 -175.5t-72.5 -175.5t-187.5 -69.5h-315zM270 170h115q33 0 56.5 22.5t23.5 52.5t-23.5 52.5t-56.5 22.5h-115v-150z" />
    <glyph glyph-name="uni042D" unicode="&#x42d;" horiz-adv-x="755" 
d="M20 115l115 125q23 -24 54 -43q70 -42 136 -42q67 0 113.5 33t66.5 82h-260v160h260q-20 49 -66.5 82t-113.5 33q-68 0 -134 -43q-29 -18 -51 -42l-115 125q31 36 75 67q99 68 225 68q167 0 278.5 -107.5t111.5 -262.5t-111.5 -262.5t-278.5 -107.5q-130 0 -228 67
q-45 30 -77 68z" />
    <glyph glyph-name="uni042E" unicode="&#x42e;" horiz-adv-x="1110" 
d="M710 155q73 0 124 55t51 140t-51 140t-124 55t-124 -55t-51 -140t51 -140t124 -55zM80 0v700h190v-260h85q28 119 123 199.5t232 80.5q154 0 259.5 -106.5t105.5 -263.5t-105.5 -263.5t-259.5 -106.5q-137 0 -232.5 82.5t-122.5 207.5h-85v-270h-190z" />
    <glyph glyph-name="uni042F" unicode="&#x42f;" horiz-adv-x="715" 
d="M25 0l145 260q-34 16 -60 44q-60 60 -60 156q0 102 72 171t183 69h330v-700h-190v220h-105l-115 -220h-200zM315 390h130v140h-130q-33 0 -54 -20t-21 -50t21 -50t54 -20z" />
    <glyph glyph-name="uni0430" unicode="&#x430;" horiz-adv-x="540" 
d="M315 0v65h-5q-15 -23 -31 -38q-41 -37 -99 -37q-67 0 -111 41t-44 99q0 63 38.5 104t111.5 56l140 30q-4 20 -23 35t-47 15q-39 0 -74 -25q-14 -10 -26 -25l-90 85q24 27 54 47q70 48 151 48q100 0 162.5 -57t62.5 -139v-304h-170zM315 205v15l-70 -15q-19 -4 -32 -17
t-13 -28q0 -40 45 -40q31 0 50.5 22t19.5 63z" />
    <glyph glyph-name="uni0431" unicode="&#x431;" horiz-adv-x="605" 
d="M465 745l75 -125q-16 -12 -42 -24q-49 -25 -143 -46q-135 -30 -150 -145q16 19 36 32q49 33 104 33q95 0 160 -68t65 -172q0 -103 -72.5 -171.5t-187.5 -68.5q-120 0 -195 85t-75 235q0 163 70 257t180 118q75 16 131 39q27 11 44 21zM310 140q34 0 59.5 26t25.5 64
t-25.5 64t-59.5 26t-59.5 -26t-25.5 -64t25.5 -64t59.5 -26z" />
    <glyph glyph-name="uni0432" unicode="&#x432;" horiz-adv-x="550" 
d="M60 0v490h260q82 0 131 -40t49 -95q0 -46 -38 -78q-18 -15 -37 -22q25 -7 47 -23q48 -34 48 -87q0 -63 -50 -104t-140 -41h-270zM230 120h75q45 0 45 40t-45 40h-75v-80zM230 300h60q18 0 29 10t11 25t-11 25t-29 10h-60v-70z" />
    <glyph glyph-name="uni0433" unicode="&#x433;" horiz-adv-x="450" 
d="M60 0v490h370v-160h-200v-330h-170z" />
    <glyph glyph-name="uni0434" unicode="&#x434;" horiz-adv-x="590" 
d="M0 -110v265h35q16 16 35 52q35 74 35 173v110h405v-335h65v-265h-170v110h-235v-110h-170zM205 155h135v180h-80q0 -83 -28 -137q-13 -28 -27 -43z" />
    <glyph glyph-name="uni0435" unicode="&#x435;" horiz-adv-x="580" 
d="M440 170l65 -110q-23 -20 -53 -35q-64 -35 -147 -35q-115 0 -192.5 74.5t-77.5 180.5q0 105 76 180t184 75t181.5 -72.5t73.5 -177.5q0 -6 -3 -39l-2 -16h-335q4 -26 34.5 -48t75.5 -22q46 0 88 22q22 13 32 23zM210 300h170q-9 28 -31 46.5t-54 18.5t-54 -18.5
t-31 -46.5z" />
    <glyph glyph-name="uni0436" unicode="&#x436;" horiz-adv-x="820" 
d="M-10 0l190 285l-185 205h200l130 -150v150h170v-150l130 150h200l-185 -205l190 -285h-190l-115 180l-30 -34v-146h-170v146l-30 34l-115 -180h-190z" />
    <glyph glyph-name="uni0437" unicode="&#x437;" horiz-adv-x="470" 
d="M5 80l90 95q15 -17 28 -25q37 -25 77 -25q55 0 55 35t-55 35h-50v110h50q22 0 33.5 9t11.5 21t-11.5 21t-33.5 9q-32 0 -66 -15q-14 -8 -24 -15l-90 95q20 18 52 35q72 35 153 35q96 0 150.5 -41.5t54.5 -98.5t-50 -89q-23 -14 -50 -21q31 -8 55 -22q55 -35 55 -93
q0 -61 -56 -103t-159 -42q-92 0 -164 45q-34 20 -56 45z" />
    <glyph glyph-name="uni0438" unicode="&#x438;" 
d="M60 0v490h170v-225l175 225h145v-490h-170v225l-175 -225h-145z" />
    <glyph glyph-name="uni0439" unicode="&#x439;" 
d="M135 715h120q0 -23 13.5 -36.5t36.5 -13.5t36.5 13.5t13.5 36.5h120q0 -68 -48 -114t-122 -46t-122 46t-48 114zM60 0v490h170v-225l175 225h145v-490h-170v225l-175 -225h-145z" />
    <glyph glyph-name="uni043A" unicode="&#x43a;" horiz-adv-x="570" 
d="M60 0v490h170v-165l145 165h200l-185 -205l190 -285h-190l-115 180l-45 -55v-125h-170z" />
    <glyph glyph-name="uni043B" unicode="&#x43b;" horiz-adv-x="595" 
d="M5 0v155l9 -3q14 -2 21 -2q28 0 43.5 14.5t26 65.5t10.5 145v115h420v-490h-170v330h-95q0 -345 -185 -345q-31 0 -57 7q-3 1 -11 3.5t-12 4.5z" />
    <glyph glyph-name="uni043C" unicode="&#x43c;" horiz-adv-x="680" 
d="M60 0v490h145l135 -170l135 170h145v-490h-170v250l-110 -140l-110 140v-250h-170z" />
    <glyph glyph-name="uni043D" unicode="&#x43d;" horiz-adv-x="605" 
d="M60 0v490h170v-165h145v165h170v-490h-170v165h-145v-165h-170z" />
    <glyph glyph-name="uni043E" unicode="&#x43e;" 
d="M305 145q38 0 66.5 29.5t28.5 70.5t-28.5 70.5t-66.5 29.5t-66.5 -29.5t-28.5 -70.5t28.5 -70.5t66.5 -29.5zM35 245q0 106 77.5 180.5t192.5 74.5t192.5 -74.5t77.5 -180.5t-77.5 -180.5t-192.5 -74.5t-192.5 74.5t-77.5 180.5z" />
    <glyph glyph-name="uni043F" unicode="&#x43f;" horiz-adv-x="605" 
d="M60 0v490h485v-490h-170v330h-145v-330h-170z" />
    <glyph glyph-name="uni0440" unicode="&#x440;" horiz-adv-x="630" 
d="M60 -210v700h170v-70h5q13 21 33 40q46 40 112 40q89 0 152 -71t63 -184t-63 -184t-152 -71q-66 0 -112 40q-20 19 -33 40h-5v-280h-170zM325 145q38 0 66.5 29.5t28.5 70.5t-28.5 70.5t-66.5 29.5t-66.5 -29.5t-28.5 -70.5t28.5 -70.5t66.5 -29.5z" />
    <glyph glyph-name="uni0441" unicode="&#x441;" horiz-adv-x="535" 
d="M415 195l100 -105q-19 -26 -51 -50q-70 -50 -159 -50q-115 0 -192.5 74.5t-77.5 180.5t77.5 180.5t192.5 74.5q89 0 159 -50q32 -24 51 -50l-100 -105q-12 15 -26 25q-35 25 -74 25q-45 0 -75 -29t-30 -71t30 -71t75 -29q41 0 74 25q14 10 26 25z" />
    <glyph glyph-name="uni0442" unicode="&#x442;" horiz-adv-x="490" 
d="M160 0v330h-140v160h450v-160h-140v-330h-170z" />
    <glyph glyph-name="uni0443" unicode="&#x443;" horiz-adv-x="540" 
d="M45 -195v155q9 -4 16 -5q17 -5 34 -5q53 0 75 40l10 20l-180 480h185l83 -285h4l83 285h185l-195 -515q-39 -100 -86 -142.5t-124 -42.5q-36 0 -64 7q-4 1 -13 3.5t-13 4.5z" />
    <glyph glyph-name="uni0444" unicode="&#x444;" horiz-adv-x="770" 
d="M300 -210v190q-120 12 -195 85t-75 175t75 175t195 85v200h170v-200q120 -12 195 -85t75 -175t-75 -175t-195 -85v-190h-170zM470 350v-220q46 4 73 33t27 77t-27 77t-73 33zM300 130v220q-46 -4 -73 -32.5t-27 -77.5q0 -47 27 -76.5t73 -33.5z" />
    <glyph glyph-name="uni0445" unicode="&#x445;" horiz-adv-x="530" 
d="M-5 0l155 250l-145 240h185l73 -145h4l73 145h185l-145 -240l155 -250h-185l-83 155h-4l-83 -155h-185z" />
    <glyph glyph-name="uni0446" unicode="&#x446;" horiz-adv-x="605" 
d="M60 0v490h170v-330h125v330h170v-330h65v-270h-170v110h-360z" />
    <glyph glyph-name="uni0447" unicode="&#x447;" horiz-adv-x="570" 
d="M340 0v150q-14 -9 -30 -15q-36 -15 -75 -15q-83 0 -134 54t-51 146v170h170v-150q0 -26 17 -43t43 -17q23 0 45 10q10 5 15 10v190h170v-490h-170z" />
    <glyph glyph-name="uni0448" unicode="&#x448;" horiz-adv-x="830" 
d="M60 0v490h170v-330h100v330h170v-330h100v330h170v-490h-710z" />
    <glyph glyph-name="uni0449" unicode="&#x449;" horiz-adv-x="850" 
d="M60 0v490h170v-330h100v330h170v-330h100v330h170v-330h65v-270h-170v110h-605z" />
    <glyph glyph-name="uni044A" unicode="&#x44a;" horiz-adv-x="575" 
d="M115 0v330h-105v160h275v-140h65q88 0 144 -51t56 -124t-56 -124t-144 -51h-235zM285 130h45q23 0 36.5 13t13.5 32t-13.5 32t-36.5 13h-45v-90z" />
    <glyph glyph-name="uni044B" unicode="&#x44b;" horiz-adv-x="780" 
d="M550 0v490h170v-490h-170zM230 130h45q23 0 36.5 13t13.5 32t-13.5 32t-36.5 13h-45v-90zM60 0v490h170v-140h65q88 0 144 -51t56 -124t-56 -124t-144 -51h-235z" />
    <glyph glyph-name="uni044C" unicode="&#x44c;" horiz-adv-x="530" 
d="M230 130h55q23 0 36.5 13t13.5 32t-13.5 32t-36.5 13h-55v-90zM60 0v490h170v-140h75q88 0 144 -51t56 -124t-56 -124t-144 -51h-245z" />
    <glyph glyph-name="uni044D" unicode="&#x44d;" horiz-adv-x="535" 
d="M15 90l80 85q11 -16 30 -28q36 -27 90 -27q56 0 87 35q16 15 23 35h-165v110h165q-6 17 -23 35q-35 35 -87 35q-53 0 -90 -28q-18 -12 -30 -27l-80 85q18 27 51 50q70 50 164 50q115 0 192.5 -74.5t77.5 -180.5t-77.5 -180.5t-192.5 -74.5q-94 0 -164 50q-33 23 -51 50z
" />
    <glyph glyph-name="uni044E" unicode="&#x44e;" horiz-adv-x="830" 
d="M60 0v490h170v-170h55q28 81 91 130.5t159 49.5q112 0 186 -73t74 -182t-74 -182t-186 -73q-96 0 -159.5 49.5t-90.5 130.5h-55v-170h-170zM535 145q39 0 64.5 28t25.5 72t-25.5 72t-64.5 28t-64.5 -28t-25.5 -72t25.5 -72t64.5 -28z" />
    <glyph glyph-name="uni044F" unicode="&#x44f;" horiz-adv-x="555" 
d="M20 0l115 170q-25 13 -45 35q-45 47 -45 110q0 73 56 124t144 51h250v-490h-170v140h-45l-80 -140h-180zM265 270h60v90h-60q-23 0 -36.5 -13t-13.5 -32t13.5 -32t36.5 -13z" />
    <glyph glyph-name="uni0450" unicode="&#x450;" horiz-adv-x="580" 
d="M440 170l65 -110q-23 -20 -53 -35q-64 -35 -147 -35q-115 0 -192.5 74.5t-77.5 180.5q0 105 76 180t184 75t181.5 -72.5t73.5 -177.5q0 -6 -3 -39l-2 -16h-335q4 -26 34.5 -48t75.5 -22q46 0 88 22q22 13 32 23zM210 300h170q-9 28 -31 46.5t-54 18.5t-54 -18.5
t-31 -46.5zM225 555l-120 160h180l85 -160h-145z" />
    <glyph glyph-name="uni0451" unicode="&#x451;" horiz-adv-x="580" 
d="M440 170l65 -110q-23 -20 -53 -35q-64 -35 -147 -35q-115 0 -192.5 74.5t-77.5 180.5q0 105 76 180t184 75t181.5 -72.5t73.5 -177.5q0 -6 -3 -39l-2 -16h-335q4 -26 34.5 -48t75.5 -22q46 0 88 22q22 13 32 23zM210 300h170q-9 28 -31 46.5t-54 18.5t-54 -18.5
t-31 -46.5zM325 640q0 34 25.5 59.5t59.5 25.5t59.5 -25.5t25.5 -59.5t-25.5 -59.5t-59.5 -25.5t-59.5 25.5t-25.5 59.5zM265 640q0 -34 -25.5 -59.5t-59.5 -25.5t-59.5 25.5t-25.5 59.5t25.5 59.5t59.5 25.5t59.5 -25.5t25.5 -59.5z" />
    <glyph glyph-name="uni0452" unicode="&#x452;" horiz-adv-x="605" 
d="M75 0v545h-75v65h75v90h170v-90h105v-65h-105v-145h5q11 21 32 40q46 40 108 40q72 0 123.5 -64t51.5 -176q0 -126 -60.5 -193t-164.5 -67h-30v160q85 0 85 90q0 44 -19.5 67t-50.5 23q-35 0 -57.5 -24.5t-22.5 -65.5v-230h-170z" />
    <glyph glyph-name="uni0453" unicode="&#x453;" horiz-adv-x="450" 
d="M165 555l85 160h180l-120 -160h-145zM60 0v490h370v-160h-200v-330h-170z" />
    <glyph glyph-name="uni0454" unicode="&#x454;" horiz-adv-x="540" 
d="M210 300h165v-110h-165q8 -20 23 -35q31 -35 87 -35q54 0 90 27q19 12 30 28l80 -85q-18 -27 -51 -50q-70 -50 -164 -50q-115 0 -192.5 74.5t-77.5 180.5t77.5 180.5t192.5 74.5q94 0 164 -50q33 -23 51 -50l-80 -85q-12 15 -30 27q-37 28 -90 28q-52 0 -87 -35
q-17 -18 -23 -35z" />
    <glyph glyph-name="uni0455" unicode="&#x455;" horiz-adv-x="465" 
d="M10 80l90 95q12 -15 27 -25q33 -25 73 -25t40 25q0 12 -21 23t-51 23t-60.5 29.5t-51.5 49.5t-21 75q0 63 53 106.5t147 43.5q81 0 151 -38q29 -15 54 -37l-90 -95q-10 9 -20 17q-26 18 -50 18q-40 0 -40 -25q0 -12 21 -23t51 -23t60.5 -29.5t51.5 -49.5t21 -75
q0 -64 -55 -107t-155 -43q-89 0 -165 45q-34 19 -60 45z" />
    <glyph glyph-name="uni0456" unicode="&#x456;" horiz-adv-x="300" 
d="M65 0v490h170v-490h-170zM55 630q0 39 26.5 64.5t68.5 25.5t68.5 -25.5t26.5 -64.5t-26.5 -64.5t-68.5 -25.5t-68.5 25.5t-26.5 64.5z" />
    <glyph glyph-name="uni0457" unicode="&#x457;" horiz-adv-x="320" 
d="M190 640q0 34 25.5 59.5t59.5 25.5t59.5 -25.5t25.5 -59.5t-25.5 -59.5t-59.5 -25.5t-59.5 25.5t-25.5 59.5zM130 640q0 -34 -25.5 -59.5t-59.5 -25.5t-59.5 25.5t-25.5 59.5t25.5 59.5t59.5 25.5t59.5 -25.5t25.5 -59.5zM75 0v490h170v-490h-170z" />
    <glyph glyph-name="uni0458" unicode="&#x458;" horiz-adv-x="300" 
d="M-40 -195v155q9 -4 16 -5q17 -5 34 -5q55 0 55 60v480h170v-510q0 -89 -47.5 -139.5t-127.5 -50.5q-38 0 -71 7zM55 630q0 39 26.5 64.5t68.5 25.5t68.5 -25.5t26.5 -64.5t-26.5 -64.5t-68.5 -25.5t-68.5 25.5t-26.5 64.5z" />
    <glyph glyph-name="uni0459" unicode="&#x459;" horiz-adv-x="825" 
d="M5 0v155l9 -3q14 -2 21 -2q28 0 43.5 14.5t26 65.5t10.5 145v115h410v-150h75q88 0 141.5 -48t53.5 -122t-53.5 -122t-141.5 -48h-245v330h-85q0 -345 -185 -345q-31 0 -57 7q-3 1 -11 3.5t-12 4.5zM525 130h55q45 0 45 40t-45 40h-55v-80z" />
    <glyph glyph-name="uni045A" unicode="&#x45a;" horiz-adv-x="830" 
d="M60 0v490h170v-150h130v150h170v-150h75q88 0 141.5 -48t53.5 -122t-53.5 -122t-141.5 -48h-245v180h-130v-180h-170zM530 130h55q45 0 45 40t-45 40h-55v-80z" />
    <glyph glyph-name="uni045B" unicode="&#x45b;" horiz-adv-x="620" 
d="M75 0v545h-75v65h75v90h170v-90h105v-65h-105v-145h5q11 21 32 40q46 40 108 40q77 0 126 -55t49 -150v-275h-170v240q0 37 -19.5 58.5t-50.5 21.5q-35 0 -57.5 -24.5t-22.5 -65.5v-230h-170z" />
    <glyph glyph-name="uni045C" unicode="&#x45c;" horiz-adv-x="570" 
d="M220 555l85 160h180l-120 -160h-145zM60 0v490h170v-165l145 165h200l-185 -205l190 -285h-190l-115 180l-45 -55v-125h-170z" />
    <glyph glyph-name="uni045D" unicode="&#x45d;" 
d="M60 0v490h170v-225l175 225h145v-490h-170v225l-175 -225h-145zM235 555l-120 160h180l85 -160h-145z" />
    <glyph glyph-name="uni045E" unicode="&#x45e;" horiz-adv-x="540" 
d="M45 -195v155q9 -4 16 -5q17 -5 34 -5q53 0 75 40l10 20l-180 480h185l83 -285h4l83 285h185l-195 -515q-39 -100 -86 -142.5t-124 -42.5q-36 0 -64 7q-4 1 -13 3.5t-13 4.5zM100 715h120q0 -23 13.5 -36.5t36.5 -13.5t36.5 13.5t13.5 36.5h120q0 -68 -48 -114t-122 -46
t-122 46t-48 114z" />
    <glyph glyph-name="uni045F" unicode="&#x45f;" horiz-adv-x="600" 
d="M60 0v490h170v-330h140v330h170v-490h-155v-110h-170v110h-155z" />
    <glyph glyph-name="uni0462" unicode="&#x462;" horiz-adv-x="740" 
d="M125 0v560h-120v65h120v75h190v-75h180v-65h-180v-70h125q115 0 187.5 -69.5t72.5 -175.5t-72.5 -175.5t-187.5 -69.5h-315zM315 170h115q33 0 56.5 22.5t23.5 52.5t-23.5 52.5t-56.5 22.5h-115v-150z" />
    <glyph glyph-name="uni0463" unicode="&#x463;" horiz-adv-x="575" 
d="M100 0v420h-100v65h100v215h170v-215h130v-65h-130v-70h75q88 0 144 -51t56 -124t-56 -124t-144 -51h-245zM270 130h55q23 0 36.5 13t13.5 32t-13.5 32t-36.5 13h-55v-90z" />
    <glyph glyph-name="uni046A" unicode="&#x46a;" horiz-adv-x="910" 
d="M55 0v120q0 121 51.5 189.5t148.5 100.5l-190 180v110h780v-110l-190 -180q97 -32 148.5 -100.5t51.5 -189.5v-120h-190v120q0 132 -115 140v-260h-190v260q-115 -8 -115 -140v-120h-190zM335 550l120 -115l120 115h-240z" />
    <glyph glyph-name="uni046B" unicode="&#x46b;" horiz-adv-x="730" 
d="M30 0v40q0 86 47 144t123 81l-140 135v90h610v-90l-140 -135q76 -23 123 -81t47 -144v-40h-170v40q0 54 -22 82.5t-58 32.5v-155h-170v155q-36 -4 -58 -32.5t-22 -82.5v-40h-170zM365 280l100 100h-200z" />
    <glyph glyph-name="uni0472" unicode="&#x472;" horiz-adv-x="860" 
d="M40 350q0 155 111.5 262.5t278.5 107.5t278.5 -107.5t111.5 -262.5t-111.5 -262.5t-278.5 -107.5t-278.5 107.5t-111.5 262.5zM235 370q14 7 32 12q35 13 73 13q33 0 92 -15t88 -15q38 0 71 12q11 3 29 13q-9 63 -61.5 109t-128.5 46q-78 0 -132.5 -49.5t-62.5 -125.5z
M240 310q9 -63 61.5 -109t128.5 -46q78 0 132.5 49.5t62.5 125.5q-19 -9 -32 -13q-33 -12 -73 -12q-33 0 -92 15t-88 15q-36 0 -71 -13q-15 -4 -29 -12z" />
    <glyph glyph-name="uni0473" unicode="&#x473;" 
d="M35 245q0 106 77.5 180.5t192.5 74.5t192.5 -74.5t77.5 -180.5t-77.5 -180.5t-192.5 -74.5t-192.5 74.5t-77.5 180.5zM210 265q5 4 15 10q18 10 35 10q18 0 48 -10t47 -10q21 0 31 7l9 8q-9 25 -34 45t-56 20q-37 0 -61.5 -22.5t-33.5 -57.5zM215 210q7 -25 32.5 -45
t57.5 -20q37 0 61.5 22.5t33.5 57.5q-5 -4 -15 -10q-18 -10 -35 -10q-18 0 -48 10t-47 10t-31 -8q-3 -3 -9 -7z" />
    <glyph glyph-name="uni0474" unicode="&#x474;" horiz-adv-x="740" 
d="M250 0l-250 700h205l148 -490h4l93 325q52 180 220 180q34 0 72 -10q17 -5 28 -10l-40 -165l-13 2q-24 3 -27 3q-26 0 -39.5 -13t-25.5 -47l-165 -475h-210z" />
    <glyph glyph-name="uni0475" unicode="&#x475;" horiz-adv-x="570" 
d="M185 0l-185 490h185l83 -285h4l43 145q45 150 175 150q42 0 77 -13q16 -4 28 -12l-40 -120l-9 2l-21 3q-37 0 -50 -40l-120 -320h-170z" />
    <glyph glyph-name="uni048A" unicode="&#x48a;" horiz-adv-x="830" 
d="M80 0v700h190v-385l300 385h165v-530h105v-25l-100 -285h-140l35 140h-90v385l-301 -385h-164zM235 945h120q0 -55 55 -55t55 55h120q0 -72 -48.5 -118.5t-126.5 -46.5t-126.5 46.5t-48.5 118.5z" />
    <glyph glyph-name="uni048B" unicode="&#x48b;" horiz-adv-x="620" 
d="M60 0v490h170v-225l175 225h145v-340h80v-25l-85 -235h-130l25 110h-60v225l-175 -225h-145zM135 715h120q0 -23 13.5 -36.5t36.5 -13.5t36.5 13.5t13.5 36.5h120q0 -68 -48 -114t-122 -46t-122 46t-48 114z" />
    <glyph glyph-name="uni048C" unicode="&#x48c;" horiz-adv-x="740" 
d="M125 0v560h-120v65h120v75h190v-75h180v-65h-180v-70h125q115 0 187.5 -69.5t72.5 -175.5t-72.5 -175.5t-187.5 -69.5h-315zM315 170h115q33 0 56.5 22.5t23.5 52.5t-23.5 52.5t-56.5 22.5h-115v-150z" />
    <glyph glyph-name="uni048D" unicode="&#x48d;" horiz-adv-x="575" 
d="M100 0v420h-100v65h100v215h170v-215h130v-65h-130v-70h75q88 0 144 -51t56 -124t-56 -124t-144 -51h-245zM270 130h55q23 0 36.5 13t13.5 32t-13.5 32t-36.5 13h-55v-90z" />
    <glyph glyph-name="uni048E" unicode="&#x48e;" horiz-adv-x="695" 
d="M80 0v700h315q115 0 187.5 -69.5t72.5 -175.5q0 -97 -63 -168q-27 -30 -62 -47l50 -75l-55 -35l-60 90q-9 -4 -18 -5q-22 -5 -52 -5h-125v-210h-190zM270 380h90l-25 35l55 35l40 -60q11 7 17 16q18 22 18 49q0 30 -23.5 52.5t-56.5 22.5h-115v-150z" />
    <glyph glyph-name="uni048F" unicode="&#x48f;" horiz-adv-x="630" 
d="M60 -210v700h170v-70h5q13 21 33 40q46 40 112 40q89 0 152 -71t63 -184q0 -92 -45 -157q-20 -28 -45 -48l50 -75l-55 -35l-50 75q-2 -1 -18 -8q-21 -7 -52 -7q-66 0 -112 40q-20 19 -33 40h-5v-280h-170zM350 150l-35 50l55 35l30 -45q4 4 10 14q10 18 10 41
q0 41 -28.5 70.5t-66.5 29.5t-66.5 -29.5t-28.5 -70.5t28.5 -70.5t66.5 -29.5q8 0 18 2z" />
    <glyph glyph-name="uni0490" unicode="&#x490;" horiz-adv-x="590" 
d="M80 0v700h300v130h190v-310h-300v-520h-190z" />
    <glyph glyph-name="uni0491" unicode="&#x491;" horiz-adv-x="450" 
d="M60 0v490h200v100h170v-260h-200v-330h-170z" />
    <glyph glyph-name="uni0492" unicode="&#x492;" horiz-adv-x="595" 
d="M85 0v305h-85v65h85v330h490v-180h-300v-150h165v-65h-165v-305h-190z" />
    <glyph glyph-name="uni0493" unicode="&#x493;" horiz-adv-x="460" 
d="M70 0v180h-65v65h65v245h370v-160h-200v-85h110v-65h-110v-180h-170z" />
    <glyph glyph-name="uni0494" unicode="&#x494;" horiz-adv-x="695" 
d="M80 0v700h490v-180h-300v-140q15 8 36 15q51 15 104 15q114 0 184.5 -75t70.5 -205q0 -136 -85 -218t-230 -82v190q56 0 88 30t32 80q0 48 -30 79t-75 31q-34 0 -68 -18q-13 -6 -27 -17v-205h-190z" />
    <glyph glyph-name="uni0495" unicode="&#x495;" horiz-adv-x="565" 
d="M280 -225v160q45 0 70 24t25 66q0 41 -22.5 65.5t-57.5 24.5q-28 0 -48 -13q-9 -4 -17 -12v-90h-170v490h370v-160h-200v-90q10 8 27 12q32 13 73 13q100 0 157.5 -61.5t57.5 -173.5q0 -121 -68.5 -188t-196.5 -67z" />
    <glyph glyph-name="uni0496" unicode="&#x496;" horiz-adv-x="1070" 
d="M-20 0l270 410l-250 290h220l210 -245v245h190v-245l210 245h220l-250 -290l160 -240h120v-310h-190v140h-40l-175 270l-55 -65v-205h-190v205l-55 65l-175 -270h-220z" />
    <glyph glyph-name="uni0497" unicode="&#x497;" horiz-adv-x="830" 
d="M-15 0l190 285l-185 205h200l130 -150v150h170v-150l130 150h200l-185 -205l90 -135h110v-260h-170v110h-30l-115 180l-30 -34v-146h-170v146l-30 34l-115 -180h-190z" />
    <glyph glyph-name="uni0498" unicode="&#x498;" horiz-adv-x="620" 
d="M200 -140v130q-78 20 -140 66q-29 21 -50 44l110 120q16 -20 42 -33q54 -32 118 -32q50 0 75 17.5t25 42.5t-23.5 42.5t-66.5 17.5h-90v160h75q43 0 64 15t21 40q0 55 -90 55q-43 0 -91 -25q-15 -8 -34 -25l-110 120q30 30 68 52q86 53 192 53q126 0 198 -58.5t72 -141.5
q0 -73 -63 -120q-27 -19 -62 -30q42 -14 72 -37q73 -55 73 -138q0 -74 -51.5 -131t-143.5 -74v-130h-190z" />
    <glyph glyph-name="uni0499" unicode="&#x499;" horiz-adv-x="475" 
d="M145 -110v110q-65 16 -104 47q-21 15 -36 33l90 95q15 -17 28 -25q37 -25 77 -25q55 0 55 35t-55 35h-50v110h50q22 0 33.5 9t11.5 21t-11.5 21t-33.5 9q-32 0 -66 -15q-14 -8 -24 -15l-90 95q20 18 52 35q72 35 153 35q96 0 150.5 -41.5t54.5 -98.5t-50 -89
q-23 -14 -50 -21q31 -8 55 -22q55 -35 55 -93q0 -96 -125 -135v-110h-170z" />
    <glyph glyph-name="uni049A" unicode="&#x49a;" horiz-adv-x="740" 
d="M80 0v700h190v-270l230 270h220l-250 -290l160 -240h120v-310h-190v140h-40l-175 265l-75 -85v-180h-190z" />
    <glyph glyph-name="uni049B" unicode="&#x49b;" horiz-adv-x="580" 
d="M60 0v490h170v-165l145 165h200l-185 -205l90 -135h110v-260h-170v110h-30l-115 180l-45 -55v-125h-170z" />
    <glyph glyph-name="uni049C" unicode="&#x49c;" horiz-adv-x="760" 
d="M80 0v700h190v-270h40v120h60v-120h20l165 270h205l-205 -335l225 -365h-205l-180 290h-25v-130h-60v130h-40v-290h-190z" />
    <glyph glyph-name="uni049D" unicode="&#x49d;" horiz-adv-x="630" 
d="M60 0v490h170v-170h30v85h60v-85h25l105 170h180l-155 -245l165 -245h-180l-115 170h-25v-85h-60v85h-30v-170h-170z" />
    <glyph glyph-name="uni049E" unicode="&#x49e;" horiz-adv-x="730" 
d="M90 0v560h-90v65h90v75h190v-75h80v-65h-80v-130l230 270h220l-250 -290l270 -410h-220l-175 265l-75 -85v-180h-190z" />
    <glyph glyph-name="uni049F" unicode="&#x49f;" horiz-adv-x="580" 
d="M70 0v550h-70v65h70v85h170v-85h105v-65h-105v-225l145 165h200l-185 -205l190 -285h-190l-115 180l-45 -55v-125h-170z" />
    <glyph glyph-name="uni04A0" unicode="&#x4a0;" horiz-adv-x="795" 
d="M155 0v520h-145v180h335v-270l230 270h220l-250 -290l270 -410h-220l-175 265l-75 -85v-180h-190z" />
    <glyph glyph-name="uni04A1" unicode="&#x4a1;" horiz-adv-x="595" 
d="M85 0v330h-85v160h255v-165l145 165h200l-185 -205l190 -285h-190l-115 180l-45 -55v-125h-170z" />
    <glyph glyph-name="uni04A2" unicode="&#x4a2;" horiz-adv-x="815" 
d="M80 0v700h190v-255h255v255h190v-530h80v-310h-190v140h-80v265h-255v-265h-190z" />
    <glyph glyph-name="uni04A3" unicode="&#x4a3;" horiz-adv-x="625" 
d="M60 0v490h170v-165h145v165h170v-340h65v-260h-170v110h-65v165h-145v-165h-170z" />
    <glyph glyph-name="uni04A4" unicode="&#x4a4;" horiz-adv-x="975" 
d="M80 0v700h190v-255h230v255h455v-180h-265v-520h-190v265h-230v-265h-190z" />
    <glyph glyph-name="uni04A5" unicode="&#x4a5;" horiz-adv-x="750" 
d="M60 0v490h170v-165h140v165h360v-160h-190v-330h-170v165h-140v-165h-170z" />
    <glyph glyph-name="uni04A6" unicode="&#x4a6;" horiz-adv-x="1130" 
d="M80 0v700h625v-320q15 8 36 15q51 15 104 15q114 0 184.5 -75t70.5 -205q0 -136 -85 -218t-230 -82v190q56 0 88 30t32 80q0 48 -30 79t-75 31q-38 0 -70 -18q-15 -8 -25 -17v-205h-190v520h-245v-520h-190z" />
    <glyph glyph-name="uni04A7" unicode="&#x4a7;" horiz-adv-x="880" 
d="M60 0v490h485v-250q11 8 27 12q32 13 73 13q100 0 157.5 -61.5t57.5 -173.5q0 -121 -68.5 -188t-196.5 -67v160q45 0 70 24t25 66q0 41 -22.5 65.5t-57.5 24.5q-28 0 -48 -13q-9 -4 -17 -12v-90h-170v330h-145v-330h-170z" />
    <glyph glyph-name="uni04A8" unicode="&#x4a8;" horiz-adv-x="955" 
d="M600 190q21 16 40 42q40 62 40 148q0 57 -24 88.5t-56 31.5t-56 -31.5t-24 -88.5q0 -86 40 -148q19 -26 40 -42zM420 145l4 5q-29 28 -47 59q-47 76 -47 171q0 134 74.5 212t195.5 78t195.5 -78t74.5 -212q0 -91 -47 -171q-19 -31 -47 -59l4 -5q47 7 84 31q17 10 31 24
l100 -140q-25 -22 -58 -40q-78 -40 -167 -40q-72 0 -128 22q-28 12 -42 23q-20 -12 -50 -23q-64 -22 -130 -22q-167 0 -273.5 108.5t-106.5 271.5q0 146 90.5 244t229.5 116v-160q-50 -8 -90 -62t-40 -138q0 -89 52.5 -146t137.5 -69z" />
    <glyph glyph-name="uni04A9" unicode="&#x4a9;" horiz-adv-x="785" 
d="M300 115l5 5q-11 12 -23 36q-22 48 -22 104q0 95 57 150t158 55t158 -55t57 -150q0 -54 -23 -104q-11 -23 -22 -36l5 -5q37 6 67 24q3 2 23 16l85 -100q-18 -18 -49 -36q-61 -35 -151 -35q-69 0 -114 15q-23 8 -36 16q-13 -9 -35 -15q-45 -15 -110 -15
q-135 0 -217.5 75.5t-82.5 189.5q0 97 70.5 169.5t169.5 80.5v-130q-23 -6 -46.5 -39.5t-23.5 -80.5q0 -75 50 -113q25 -18 50 -22zM475 140q11 11 22 30q23 42 23 90q0 70 -45 70t-45 -70q0 -50 22 -90q12 -20 23 -30z" />
    <glyph glyph-name="uni04AA" unicode="&#x4aa;" horiz-adv-x="755" 
d="M320 -140v135q-127 34 -203.5 130.5t-76.5 224.5q0 155 111.5 262.5t278.5 107.5q126 0 225 -68q44 -31 75 -67l-115 -130q-23 25 -51 45q-65 45 -134 45q-82 0 -138.5 -56.5t-56.5 -138.5t56.5 -138.5t138.5 -56.5q68 0 136 45q30 20 54 45l115 -130q-22 -28 -56 -54
q-78 -58 -169 -76v-125h-190z" />
    <glyph glyph-name="uni04AB" unicode="&#x4ab;" horiz-adv-x="535" 
d="M210 -110v115q-70 19 -122.5 85t-52.5 155q0 106 77.5 180.5t192.5 74.5q89 0 159 -50q32 -24 51 -50l-100 -105q-12 15 -26 25q-35 25 -74 25q-45 0 -75 -29t-30 -71t30 -71t75 -29q41 0 74 25q14 10 26 25l100 -105q-15 -22 -32 -36q-49 -40 -103 -54v-110h-170z" />
    <glyph glyph-name="uni04AC" unicode="&#x4ac;" horiz-adv-x="620" 
d="M295 -140v140h-80v530h-195v170h580v-170h-195v-360h80v-310h-190z" />
    <glyph glyph-name="uni04AD" unicode="&#x4ad;" horiz-adv-x="490" 
d="M225 -110v110h-65v330h-140v160h450v-160h-140v-180h65v-260h-170z" />
    <glyph glyph-name="uni04AE" unicode="&#x4ae;" horiz-adv-x="670" 
d="M240 0v250l-250 450h210l133 -275h4l133 275h210l-250 -450v-250h-190z" />
    <glyph glyph-name="uni04AF" unicode="&#x4af;" horiz-adv-x="540" 
d="M185 -210v210l-185 490h185l83 -285h4l83 285h185l-185 -490v-210h-170z" />
    <glyph glyph-name="uni04B0" unicode="&#x4b0;" horiz-adv-x="670" 
d="M240 0v195h-135v65h130l-245 440h210l133 -275h4l133 275h210l-245 -440h130v-65h-135v-195h-190z" />
    <glyph glyph-name="uni04B1" unicode="&#x4b1;" horiz-adv-x="540" 
d="M185 -210v140h-95v65h100l-190 495h185l83 -285h4l83 285h185l-190 -495h100v-65h-95v-140h-170z" />
    <glyph glyph-name="uni04B2" unicode="&#x4b2;" horiz-adv-x="695" 
d="M-10 0l225 365l-205 335h210l118 -210h4l118 210h210l-205 -335l120 -195h120v-310h-190v140h-35l-138 240h-4l-138 -240h-210z" />
    <glyph glyph-name="uni04B3" unicode="&#x4b3;" horiz-adv-x="545" 
d="M-5 0l155 250l-145 240h185l73 -145h4l73 145h185l-145 -240l62 -100h108v-260h-170v110h-30l-83 155h-4l-83 -155h-185z" />
    <glyph glyph-name="uni04B4" unicode="&#x4b4;" horiz-adv-x="920" 
d="M205 0v530h-185v170h530v-170h-155v-350h235v520h190v-520h80v-320h-190v140h-505z" />
    <glyph glyph-name="uni04B5" unicode="&#x4b5;" horiz-adv-x="730" 
d="M160 0v330h-140v160h390v-160h-80v-170h150v330h170v-330h65v-270h-170v110h-385z" />
    <glyph glyph-name="uni04B6" unicode="&#x4b6;" horiz-adv-x="770" 
d="M560 -140v140h-80v235q-20 -9 -43 -15q-51 -15 -107 -15q-118 0 -189 75t-71 205v215h190v-215q0 -53 28.5 -81.5t81.5 -28.5q43 0 79 15q19 7 31 15v295h190v-530h80v-310h-190z" />
    <glyph glyph-name="uni04B7" unicode="&#x4b7;" horiz-adv-x="590" 
d="M405 -110v110h-65v150q-14 -9 -30 -15q-36 -15 -75 -15q-83 0 -134 54t-51 146v170h170v-150q0 -26 17 -43t43 -17q23 0 45 10q10 5 15 10v190h170v-340h65v-260h-170z" />
    <glyph glyph-name="uni04B8" unicode="&#x4b8;" horiz-adv-x="750" 
d="M335 115v90h-10q-114 0 -184.5 75t-70.5 205v215h190v-215q0 -89 75 -110v110h65v-110q30 7 57 19q11 4 23 11v295h190v-700h-190v235l-23 -9q-31 -10 -57 -16v-95h-65z" />
    <glyph glyph-name="uni04B9" unicode="&#x4b9;" horiz-adv-x="570" 
d="M250 60v60h-15q-83 0 -134 54t-51 146v170h170v-150q0 -33 30 -55v55h60v-55l21 9l9 6v190h170v-490h-170v150l-9 -6l-21 -9v-75h-60z" />
    <glyph glyph-name="uni04BA" unicode="&#x4ba;" horiz-adv-x="740" 
d="M80 0v700h190v-235q22 8 43 15q58 15 107 15q118 0 189 -75t71 -205v-215h-190v215q0 53 -28.5 81.5t-81.5 28.5q-38 0 -79 -15q-22 -10 -31 -15v-295h-190z" />
    <glyph glyph-name="uni04BB" unicode="&#x4bb;" 
d="M65 0v700h170v-280h5q11 21 32 40q46 40 108 40q77 0 126 -55t49 -150v-295h-170v260q0 37 -19.5 58.5t-50.5 21.5q-35 0 -57.5 -24.5t-22.5 -65.5v-250h-170z" />
    <glyph glyph-name="uni04BC" unicode="&#x4bc;" horiz-adv-x="960" 
d="M185 305h-5q-88 0 -134 39.5t-46 105.5q0 31 7 52q7 16 8 18h140q-4 -10 -5 -16q-5 -18 -5 -39q0 -50 45 -50q22 133 123.5 219t241.5 86q157 0 263.5 -106t106.5 -264v-45h-540q9 -63 58.5 -106.5t121.5 -43.5q75 0 132 35q26 14 48 35l105 -130q-34 -34 -75 -58
q-96 -57 -210 -57q-152 0 -259 93t-121 232zM390 415h330q-9 52 -54.5 91t-110.5 39t-110.5 -39t-54.5 -91z" />
    <glyph glyph-name="uni04BD" unicode="&#x4bd;" horiz-adv-x="675" 
d="M5 350h95v-20q0 -30 35 -30q19 83 88.5 141.5t166.5 58.5q108 0 181.5 -72.5t73.5 -177.5q0 -6 -3 -39l-2 -16h-335q4 -26 34.5 -48t75.5 -22q46 0 88 22q22 13 32 23l65 -110q-23 -20 -53 -35q-64 -35 -147 -35q-108 0 -179 59.5t-88 150.5q-65 0 -99 30.5t-34 84.5
q0 11 2 25zM305 300h170q-9 28 -31 46.5t-54 18.5t-54 -18.5t-31 -46.5z" />
    <glyph glyph-name="uni04BE" unicode="&#x4be;" horiz-adv-x="960" 
d="M455 -140v135q-113 30 -184 111.5t-86 198.5h-5q-88 0 -134 39.5t-46 105.5q0 31 7 52q7 16 8 18h140q-4 -10 -5 -16q-5 -18 -5 -39q0 -50 45 -50q22 133 123.5 219t241.5 86q157 0 263.5 -106t106.5 -264v-45h-540q9 -63 58.5 -106.5t121.5 -43.5q75 0 132 35
q26 14 48 35l105 -130q-25 -25 -54 -43q-72 -47 -151 -62v-130h-190zM390 415h330q-9 52 -54.5 91t-110.5 39t-110.5 -39t-54.5 -91z" />
    <glyph glyph-name="uni04BF" unicode="&#x4bf;" horiz-adv-x="675" 
d="M305 -110v115q-61 15 -109 67t-63 128q-65 0 -99 30.5t-34 84.5q0 11 2 25l3 10h95v-20q0 -30 35 -30q19 83 88.5 141.5t166.5 58.5q108 0 181.5 -72.5t73.5 -177.5q0 -6 -3 -39l-2 -16h-335q4 -26 34.5 -48t75.5 -22q46 0 88 22q22 13 32 23l65 -110q-16 -14 -34 -24
q-50 -28 -91 -36v-110h-170zM305 300h170q-9 28 -31 46.5t-54 18.5t-54 -18.5t-31 -46.5z" />
    <glyph glyph-name="uni04C0" unicode="&#x4c0;" horiz-adv-x="350" 
d="M80 0v700h190v-700h-190z" />
    <glyph glyph-name="uni04C1" unicode="&#x4c1;" horiz-adv-x="1050" 
d="M-20 0l270 410l-250 290h220l210 -245v245h190v-245l210 245h220l-250 -290l270 -410h-220l-175 270l-55 -65v-205h-190v205l-55 65l-175 -270h-220zM350 945h120q0 -55 55 -55t55 55h120q0 -72 -48.5 -118.5t-126.5 -46.5t-126.5 46.5t-48.5 118.5z" />
    <glyph glyph-name="uni04C2" unicode="&#x4c2;" horiz-adv-x="810" 
d="M-15 0l190 285l-185 205h200l130 -150v150h170v-150l130 150h200l-185 -205l190 -285h-190l-115 180l-30 -34v-146h-170v146l-30 34l-115 -180h-190zM235 715h120q0 -23 13.5 -36.5t36.5 -13.5t36.5 13.5t13.5 36.5h120q0 -68 -48 -114t-122 -46t-122 46t-48 114z" />
    <glyph glyph-name="uni04C3" unicode="&#x4c3;" horiz-adv-x="750" 
d="M80 0v700h190v-270l230 270h220l-255 -295q113 -12 184 -93t71 -212q0 -151 -91.5 -240.5t-248.5 -89.5v190q68 0 106.5 37.5t38.5 102.5q0 63 -36 101.5t-94 38.5q-43 0 -91 -25q-15 -8 -34 -25v-190h-190z" />
    <glyph glyph-name="uni04C4" unicode="&#x4c4;" horiz-adv-x="595" 
d="M60 0v490h170v-165l145 165h200l-200 -220q205 -39 205 -240q0 -110 -73 -180t-192 -70v160q43 0 69 28.5t26 76.5t-26 76.5t-69 28.5q-33 0 -61 -13q-14 -5 -24 -12v-125h-170z" />
    <glyph glyph-name="uni04C5" unicode="&#x4c5;" horiz-adv-x="795" 
d="M5 0v175q10 -4 15 -5q17 -5 30 -5q24 0 42.5 12.5t34.5 45t24.5 97t8.5 159.5v221h540v-530h105v-25l-100 -285h-140l35 140h-90v520h-160v-40q0 -116 -12.5 -203.5t-33.5 -143.5t-53.5 -90.5t-68.5 -48.5t-82 -14q-32 0 -66 10q-17 5 -29 10z" />
    <glyph glyph-name="uni04C6" unicode="&#x4c6;" horiz-adv-x="605" 
d="M5 0v155l9 -3q14 -2 21 -2q28 0 43.5 14.5t26 65.5t10.5 145v115h420v-340h80v-25l-85 -235h-130l25 110h-60v330h-95q0 -345 -185 -345q-31 0 -57 7q-3 1 -11 3.5t-12 4.5z" />
    <glyph glyph-name="uni04C7" unicode="&#x4c7;" horiz-adv-x="795" 
d="M80 0v700h190v-255h255v255h190v-710q0 -97 -54 -153.5t-141 -56.5q-38 0 -71 7l-29 8v165q9 -4 16 -5q17 -5 34 -5q55 0 55 60v255h-255v-265h-190z" />
    <glyph glyph-name="uni04C8" unicode="&#x4c8;" horiz-adv-x="605" 
d="M60 0v490h170v-165h145v165h170v-525q0 -86 -47 -135.5t-123 -49.5q-38 0 -66 7l-24 8v140q5 -4 11 -5q13 -5 29 -5q23 0 36.5 14.5t13.5 40.5v185h-145v-165h-170z" />
    <glyph glyph-name="uni04C9" unicode="&#x4c9;" horiz-adv-x="810" 
d="M80 0v700h190v-255h255v255h190v-530h105v-25l-100 -285h-140l35 140h-90v265h-255v-265h-190z" />
    <glyph glyph-name="uni04CA" unicode="&#x4ca;" horiz-adv-x="615" 
d="M60 0v490h170v-165h145v165h170v-340h80v-25l-85 -235h-130l25 110h-60v165h-145v-165h-170z" />
    <glyph glyph-name="uni04CB" unicode="&#x4cb;" horiz-adv-x="750" 
d="M400 -140v310h80v65q-20 -9 -43 -15q-51 -15 -107 -15q-118 0 -189 75t-71 205v215h190v-215q0 -53 28.5 -81.5t81.5 -28.5q43 0 79 15q19 7 31 15v295h190v-700h-80v-140h-190z" />
    <glyph glyph-name="uni04CC" unicode="&#x4cc;" horiz-adv-x="570" 
d="M275 -110v190h65v70q-14 -9 -30 -15q-36 -15 -75 -15q-83 0 -134 54t-51 146v170h170v-150q0 -26 17 -43t43 -17q23 0 45 10q10 5 15 10v190h170v-490h-65v-110h-170z" />
    <glyph glyph-name="uni04CD" unicode="&#x4cd;" horiz-adv-x="945" 
d="M80 0v700h170l215 -270l215 270h170v-530h105v-25l-100 -285h-140l35 140h-90v415l-195 -245l-195 245v-415h-190z" />
    <glyph glyph-name="uni04CE" unicode="&#x4ce;" horiz-adv-x="690" 
d="M60 0v490h145l135 -170l135 170h145v-340h80v-25l-85 -235h-130l25 110h-60v250l-110 -140l-110 140v-250h-170z" />
    <glyph glyph-name="uni04CF" unicode="&#x4cf;" horiz-adv-x="300" 
d="M65 0v700h170v-700h-170z" />
    <glyph glyph-name="uni04D0" unicode="&#x4d0;" horiz-adv-x="730" 
d="M300 305h130l-63 200h-4zM-5 0l265 700h210l265 -700h-205l-50 150h-230l-50 -150h-205zM190 945h120q0 -55 55 -55t55 55h120q0 -72 -48.5 -118.5t-126.5 -46.5t-126.5 46.5t-48.5 118.5z" />
    <glyph glyph-name="uni04D1" unicode="&#x4d1;" horiz-adv-x="540" 
d="M315 0v65h-5q-15 -23 -31 -38q-41 -37 -99 -37q-67 0 -111 41t-44 99q0 63 38.5 104t111.5 56l140 30q-4 20 -23 35t-47 15q-39 0 -74 -25q-14 -10 -26 -25l-90 85q24 27 54 47q70 48 151 48q100 0 162.5 -57t62.5 -139v-304h-170zM315 205v15l-70 -15q-19 -4 -32 -17
t-13 -28q0 -40 45 -40q31 0 50.5 22t19.5 63zM105 715h120q0 -23 13.5 -36.5t36.5 -13.5t36.5 13.5t13.5 36.5h120q0 -68 -48 -114t-122 -46t-122 46t-48 114z" />
    <glyph glyph-name="uni04D2" unicode="&#x4d2;" horiz-adv-x="730" 
d="M300 305h130l-63 200h-4zM-5 0l265 700h210l265 -700h-205l-50 150h-230l-50 -150h-205zM395 865q0 34 25.5 59.5t59.5 25.5t59.5 -25.5t25.5 -59.5t-25.5 -59.5t-59.5 -25.5t-59.5 25.5t-25.5 59.5zM335 865q0 -34 -25.5 -59.5t-59.5 -25.5t-59.5 25.5t-25.5 59.5
t25.5 59.5t59.5 25.5t59.5 -25.5t25.5 -59.5z" />
    <glyph glyph-name="uni04D3" unicode="&#x4d3;" horiz-adv-x="540" 
d="M315 0v65h-5q-15 -23 -31 -38q-41 -37 -99 -37q-67 0 -111 41t-44 99q0 63 38.5 104t111.5 56l140 30q-4 20 -23 35t-47 15q-39 0 -74 -25q-14 -10 -26 -25l-90 85q24 27 54 47q70 48 151 48q100 0 162.5 -57t62.5 -139v-304h-170zM315 205v15l-70 -15q-19 -4 -32 -17
t-13 -28q0 -40 45 -40q31 0 50.5 22t19.5 63zM305 640q0 34 25.5 59.5t59.5 25.5t59.5 -25.5t25.5 -59.5t-25.5 -59.5t-59.5 -25.5t-59.5 25.5t-25.5 59.5zM245 640q0 -34 -25.5 -59.5t-59.5 -25.5t-59.5 25.5t-25.5 59.5t25.5 59.5t59.5 25.5t59.5 -25.5t25.5 -59.5z" />
    <glyph glyph-name="uni04D6" unicode="&#x4d6;" horiz-adv-x="665" 
d="M80 0v700h535v-170h-345v-100h265v-160h-265v-100h355v-170h-545zM170 945h120q0 -55 55 -55t55 55h120q0 -72 -48.5 -118.5t-126.5 -46.5t-126.5 46.5t-48.5 118.5z" />
    <glyph glyph-name="uni04D7" unicode="&#x4d7;" horiz-adv-x="580" 
d="M440 170l65 -110q-23 -20 -53 -35q-64 -35 -147 -35q-115 0 -192.5 74.5t-77.5 180.5q0 105 76 180t184 75t181.5 -72.5t73.5 -177.5q0 -6 -3 -39l-2 -16h-335q4 -26 34.5 -48t75.5 -22q46 0 88 22q22 13 32 23zM210 300h170q-9 28 -31 46.5t-54 18.5t-54 -18.5
t-31 -46.5zM125 715h120q0 -23 13.5 -36.5t36.5 -13.5t36.5 13.5t13.5 36.5h120q0 -68 -48 -114t-122 -46t-122 46t-48 114z" />
    <glyph glyph-name="uni04D8" unicode="&#x4d8;" horiz-adv-x="815" 
d="M35 350v45h540q-9 63 -58.5 106.5t-121.5 43.5q-67 0 -131 -35q-29 -18 -49 -35l-105 130q32 31 75 57q98 58 210 58q164 0 272 -106t108 -264t-106.5 -264t-263.5 -106t-263.5 106t-106.5 264zM570 285h-330q9 -52 54.5 -91t110.5 -39t110.5 39t54.5 91z" />
    <glyph glyph-name="uni04D9" unicode="&#x4d9;" horiz-adv-x="580" 
d="M35 295h335q-4 26 -34.5 48t-75.5 22q-44 0 -88 -23q-21 -12 -32 -22l-65 110q18 16 53 35q72 35 147 35q115 0 192.5 -74.5t77.5 -180.5q0 -105 -76 -180t-184 -75t-181.5 72.5t-73.5 177.5q0 17 2 39zM370 190h-170q9 -28 31 -46.5t54 -18.5t54 18.5t31 46.5z" />
    <glyph glyph-name="uni04DA" unicode="&#x4da;" horiz-adv-x="815" 
d="M35 350v45h540q-9 63 -58.5 106.5t-121.5 43.5q-67 0 -131 -35q-29 -18 -49 -35l-105 130q32 31 75 57q98 58 210 58q164 0 272 -106t108 -264t-106.5 -264t-263.5 -106t-263.5 106t-106.5 264zM570 285h-330q9 -52 54.5 -91t110.5 -39t110.5 39t54.5 91zM445 865
q0 34 25.5 59.5t59.5 25.5t59.5 -25.5t25.5 -59.5t-25.5 -59.5t-59.5 -25.5t-59.5 25.5t-25.5 59.5zM385 865q0 -34 -25.5 -59.5t-59.5 -25.5t-59.5 25.5t-25.5 59.5t25.5 59.5t59.5 25.5t59.5 -25.5t25.5 -59.5z" />
    <glyph glyph-name="uni04DB" unicode="&#x4db;" horiz-adv-x="580" 
d="M35 295h335q-4 26 -34.5 48t-75.5 22q-44 0 -88 -23q-21 -12 -32 -22l-65 110q18 16 53 35q72 35 147 35q115 0 192.5 -74.5t77.5 -180.5q0 -105 -76 -180t-184 -75t-181.5 72.5t-73.5 177.5q0 17 2 39zM370 190h-170q9 -28 31 -46.5t54 -18.5t54 18.5t31 46.5zM320 640
q0 34 25.5 59.5t59.5 25.5t59.5 -25.5t25.5 -59.5t-25.5 -59.5t-59.5 -25.5t-59.5 25.5t-25.5 59.5zM260 640q0 -34 -25.5 -59.5t-59.5 -25.5t-59.5 25.5t-25.5 59.5t25.5 59.5t59.5 25.5t59.5 -25.5t25.5 -59.5z" />
    <glyph glyph-name="uni04DC" unicode="&#x4dc;" horiz-adv-x="1050" 
d="M-20 0l270 410l-250 290h220l210 -245v245h190v-245l210 245h220l-250 -290l270 -410h-220l-175 270l-55 -65v-205h-190v205l-55 65l-175 -270h-220zM555 865q0 34 25.5 59.5t59.5 25.5t59.5 -25.5t25.5 -59.5t-25.5 -59.5t-59.5 -25.5t-59.5 25.5t-25.5 59.5zM495 865
q0 -34 -25.5 -59.5t-59.5 -25.5t-59.5 25.5t-25.5 59.5t25.5 59.5t59.5 25.5t59.5 -25.5t25.5 -59.5z" />
    <glyph glyph-name="uni04DD" unicode="&#x4dd;" horiz-adv-x="810" 
d="M-15 0l190 285l-185 205h200l130 -150v150h170v-150l130 150h200l-185 -205l190 -285h-190l-115 180l-30 -34v-146h-170v146l-30 34l-115 -180h-190zM435 640q0 34 25.5 59.5t59.5 25.5t59.5 -25.5t25.5 -59.5t-25.5 -59.5t-59.5 -25.5t-59.5 25.5t-25.5 59.5zM375 640
q0 -34 -25.5 -59.5t-59.5 -25.5t-59.5 25.5t-25.5 59.5t25.5 59.5t59.5 25.5t59.5 -25.5t25.5 -59.5z" />
    <glyph glyph-name="uni04DE" unicode="&#x4de;" horiz-adv-x="620" 
d="M10 100l110 120q16 -20 42 -33q54 -32 118 -32q50 0 75 17.5t25 42.5t-23.5 42.5t-66.5 17.5h-90v160h75q43 0 64 15t21 40q0 55 -90 55q-43 0 -91 -25q-15 -8 -34 -25l-110 120q30 30 68 52q86 53 192 53q126 0 198 -58.5t72 -141.5q0 -73 -63 -120q-27 -19 -62 -30
q42 -14 72 -37q73 -55 73 -138q0 -91 -76.5 -153t-213.5 -62q-115 0 -210 60q-43 26 -75 60zM335 865q0 34 25.5 59.5t59.5 25.5t59.5 -25.5t25.5 -59.5t-25.5 -59.5t-59.5 -25.5t-59.5 25.5t-25.5 59.5zM275 865q0 -34 -25.5 -59.5t-59.5 -25.5t-59.5 25.5t-25.5 59.5
t25.5 59.5t59.5 25.5t59.5 -25.5t25.5 -59.5z" />
    <glyph glyph-name="uni04DF" unicode="&#x4df;" horiz-adv-x="475" 
d="M5 80l90 95q15 -17 28 -25q37 -25 77 -25q55 0 55 35t-55 35h-50v110h50q22 0 33.5 9t11.5 21t-11.5 21t-33.5 9q-32 0 -66 -15q-14 -8 -24 -15l-90 95q20 18 52 35q72 35 153 35q96 0 150.5 -41.5t54.5 -98.5t-50 -89q-23 -14 -50 -21q31 -8 55 -22q55 -35 55 -93
q0 -61 -56 -103t-159 -42q-92 0 -164 45q-34 20 -56 45zM260 640q0 34 25.5 59.5t59.5 25.5t59.5 -25.5t25.5 -59.5t-25.5 -59.5t-59.5 -25.5t-59.5 25.5t-25.5 59.5zM200 640q0 -34 -25.5 -59.5t-59.5 -25.5t-59.5 25.5t-25.5 59.5t25.5 59.5t59.5 25.5t59.5 -25.5
t25.5 -59.5z" />
    <glyph glyph-name="uni04E0" unicode="&#x4e0;" horiz-adv-x="620" 
d="M5 105l110 120q22 -22 44 -35q52 -35 116 -35q54 0 79.5 18t25.5 47t-25.5 47t-79.5 18h-100v120l150 125h-270v170h500v-145l-165 -140q83 -12 139 -69.5t56 -135.5q0 -95 -81.5 -162.5t-218.5 -67.5q-110 0 -206 62q-43 28 -74 63z" />
    <glyph glyph-name="uni04E1" unicode="&#x4e1;" horiz-adv-x="520" 
d="M5 -120l95 110q15 -15 32 -25q40 -25 88 -25q47 0 73.5 21.5t26.5 53.5t-26.5 53.5t-73.5 21.5h-90v95l140 145h-225v160h420v-150l-135 -140q71 -16 118 -69t47 -126q0 -93 -70 -154t-190 -61q-103 0 -175 45q-32 19 -55 45z" />
    <glyph glyph-name="uni04E2" unicode="&#x4e2;" horiz-adv-x="815" 
d="M80 0v700h190v-385l300 385h165v-700h-190v385l-300 -385h-165zM250 800v130h320v-130h-320z" />
    <glyph glyph-name="uni04E3" unicode="&#x4e3;" 
d="M60 0v490h170v-225l175 225h145v-490h-170v225l-175 -225h-145zM145 575v130h320v-130h-320z" />
    <glyph glyph-name="uni04E4" unicode="&#x4e4;" horiz-adv-x="815" 
d="M80 0v700h190v-385l300 385h165v-700h-190v385l-300 -385h-165zM440 865q0 34 25.5 59.5t59.5 25.5t59.5 -25.5t25.5 -59.5t-25.5 -59.5t-59.5 -25.5t-59.5 25.5t-25.5 59.5zM380 865q0 -34 -25.5 -59.5t-59.5 -25.5t-59.5 25.5t-25.5 59.5t25.5 59.5t59.5 25.5
t59.5 -25.5t25.5 -59.5z" />
    <glyph glyph-name="uni04E5" unicode="&#x4e5;" 
d="M60 0v490h170v-225l175 225h145v-490h-170v225l-175 -225h-145zM335 640q0 34 25.5 59.5t59.5 25.5t59.5 -25.5t25.5 -59.5t-25.5 -59.5t-59.5 -25.5t-59.5 25.5t-25.5 59.5zM275 640q0 -34 -25.5 -59.5t-59.5 -25.5t-59.5 25.5t-25.5 59.5t25.5 59.5t59.5 25.5
t59.5 -25.5t25.5 -59.5z" />
    <glyph glyph-name="uni04E6" unicode="&#x4e6;" horiz-adv-x="860" 
d="M235 350q0 -82 56.5 -138.5t138.5 -56.5t138.5 56.5t56.5 138.5t-56.5 138.5t-138.5 56.5t-138.5 -56.5t-56.5 -138.5zM40 350q0 155 111.5 262.5t278.5 107.5t278.5 -107.5t111.5 -262.5t-111.5 -262.5t-278.5 -107.5t-278.5 107.5t-111.5 262.5zM460 865
q0 34 25.5 59.5t59.5 25.5t59.5 -25.5t25.5 -59.5t-25.5 -59.5t-59.5 -25.5t-59.5 25.5t-25.5 59.5zM400 865q0 -34 -25.5 -59.5t-59.5 -25.5t-59.5 25.5t-25.5 59.5t25.5 59.5t59.5 25.5t59.5 -25.5t25.5 -59.5z" />
    <glyph glyph-name="uni04E7" unicode="&#x4e7;" 
d="M305 145q38 0 66.5 29.5t28.5 70.5t-28.5 70.5t-66.5 29.5t-66.5 -29.5t-28.5 -70.5t28.5 -70.5t66.5 -29.5zM35 245q0 106 77.5 180.5t192.5 74.5t192.5 -74.5t77.5 -180.5t-77.5 -180.5t-192.5 -74.5t-192.5 74.5t-77.5 180.5zM335 640q0 34 25.5 59.5t59.5 25.5
t59.5 -25.5t25.5 -59.5t-25.5 -59.5t-59.5 -25.5t-59.5 25.5t-25.5 59.5zM275 640q0 -34 -25.5 -59.5t-59.5 -25.5t-59.5 25.5t-25.5 59.5t25.5 59.5t59.5 25.5t59.5 -25.5t25.5 -59.5z" />
    <glyph glyph-name="uni04E8" unicode="&#x4e8;" horiz-adv-x="860" 
d="M40 350q0 155 111.5 262.5t278.5 107.5t278.5 -107.5t111.5 -262.5t-111.5 -262.5t-278.5 -107.5t-278.5 107.5t-111.5 262.5zM623 320h-386q10 -72 64 -118.5t129 -46.5t129 46.5t64 118.5zM237 380h386q-10 72 -64 118.5t-129 46.5t-129 -46.5t-64 -118.5z" />
    <glyph glyph-name="uni04E9" unicode="&#x4e9;" 
d="M397 215h-184q10 -28 35 -49t57 -21t57 21t35 49zM213 275h184q-10 29 -34.5 49.5t-57.5 20.5t-57.5 -20.5t-34.5 -49.5zM35 245q0 106 77.5 180.5t192.5 74.5t192.5 -74.5t77.5 -180.5t-77.5 -180.5t-192.5 -74.5t-192.5 74.5t-77.5 180.5z" />
    <glyph glyph-name="uni04EA" unicode="&#x4ea;" horiz-adv-x="860" 
d="M40 350q0 155 111.5 262.5t278.5 107.5t278.5 -107.5t111.5 -262.5t-111.5 -262.5t-278.5 -107.5t-278.5 107.5t-111.5 262.5zM623 320h-386q10 -72 64 -118.5t129 -46.5t129 46.5t64 118.5zM237 380h386q-10 72 -64 118.5t-129 46.5t-129 -46.5t-64 -118.5zM460 865
q0 34 25.5 59.5t59.5 25.5t59.5 -25.5t25.5 -59.5t-25.5 -59.5t-59.5 -25.5t-59.5 25.5t-25.5 59.5zM400 865q0 -34 -25.5 -59.5t-59.5 -25.5t-59.5 25.5t-25.5 59.5t25.5 59.5t59.5 25.5t59.5 -25.5t25.5 -59.5z" />
    <glyph glyph-name="uni04EB" unicode="&#x4eb;" 
d="M397 215h-184q10 -28 35 -49t57 -21t57 21t35 49zM213 275h184q-10 29 -34.5 49.5t-57.5 20.5t-57.5 -20.5t-34.5 -49.5zM35 245q0 106 77.5 180.5t192.5 74.5t192.5 -74.5t77.5 -180.5t-77.5 -180.5t-192.5 -74.5t-192.5 74.5t-77.5 180.5zM335 640q0 34 25.5 59.5
t59.5 25.5t59.5 -25.5t25.5 -59.5t-25.5 -59.5t-59.5 -25.5t-59.5 25.5t-25.5 59.5zM275 640q0 -34 -25.5 -59.5t-59.5 -25.5t-59.5 25.5t-25.5 59.5t25.5 59.5t59.5 25.5t59.5 -25.5t25.5 -59.5z" />
    <glyph glyph-name="uni04EC" unicode="&#x4ec;" horiz-adv-x="755" 
d="M20 115l115 125q23 -24 54 -43q70 -42 136 -42q67 0 113.5 33t66.5 82h-260v160h260q-20 49 -66.5 82t-113.5 33q-68 0 -134 -43q-29 -18 -51 -42l-115 125q31 36 75 67q99 68 225 68q167 0 278.5 -107.5t111.5 -262.5t-111.5 -262.5t-278.5 -107.5q-130 0 -228 67
q-45 30 -77 68zM380 865q0 34 25.5 59.5t59.5 25.5t59.5 -25.5t25.5 -59.5t-25.5 -59.5t-59.5 -25.5t-59.5 25.5t-25.5 59.5zM320 865q0 -34 -25.5 -59.5t-59.5 -25.5t-59.5 25.5t-25.5 59.5t25.5 59.5t59.5 25.5t59.5 -25.5t25.5 -59.5z" />
    <glyph glyph-name="uni04ED" unicode="&#x4ed;" horiz-adv-x="535" 
d="M15 90l80 85q11 -16 30 -28q36 -27 90 -27q56 0 87 35q16 15 23 35h-165v110h165q-6 17 -23 35q-35 35 -87 35q-53 0 -90 -28q-18 -12 -30 -27l-80 85q18 27 51 50q70 50 164 50q115 0 192.5 -74.5t77.5 -180.5t-77.5 -180.5t-192.5 -74.5q-94 0 -164 50q-33 23 -51 50z
M290 640q0 34 25.5 59.5t59.5 25.5t59.5 -25.5t25.5 -59.5t-25.5 -59.5t-59.5 -25.5t-59.5 25.5t-25.5 59.5zM230 640q0 -34 -25.5 -59.5t-59.5 -25.5t-59.5 25.5t-25.5 59.5t25.5 59.5t59.5 25.5t59.5 -25.5t25.5 -59.5z" />
    <glyph glyph-name="uni04EE" unicode="&#x4ee;" horiz-adv-x="650" 
d="M70 5v170q10 -4 17 -5q20 -5 43 -5q76 0 105 60l5 10l-240 465h210l128 -290h4l108 290h210l-245 -520q-45 -93 -105 -141.5t-150 -48.5q-38 0 -66 7zM170 800v130h320v-130h-320z" />
    <glyph glyph-name="uni04EF" unicode="&#x4ef;" horiz-adv-x="540" 
d="M45 -195v155q9 -4 16 -5q17 -5 34 -5q53 0 75 40l10 20l-180 480h185l83 -285h4l83 285h185l-195 -515q-39 -100 -86 -142.5t-124 -42.5q-36 0 -64 7q-4 1 -13 3.5t-13 4.5zM110 575v130h320v-130h-320z" />
    <glyph glyph-name="uni04F0" unicode="&#x4f0;" horiz-adv-x="650" 
d="M70 5v170q10 -4 17 -5q20 -5 43 -5q76 0 105 60l5 10l-240 465h210l128 -290h4l108 290h210l-245 -520q-45 -93 -105 -141.5t-150 -48.5q-38 0 -66 7zM360 865q0 34 25.5 59.5t59.5 25.5t59.5 -25.5t25.5 -59.5t-25.5 -59.5t-59.5 -25.5t-59.5 25.5t-25.5 59.5zM300 865
q0 -34 -25.5 -59.5t-59.5 -25.5t-59.5 25.5t-25.5 59.5t25.5 59.5t59.5 25.5t59.5 -25.5t25.5 -59.5z" />
    <glyph glyph-name="uni04F1" unicode="&#x4f1;" horiz-adv-x="540" 
d="M45 -195v155q9 -4 16 -5q17 -5 34 -5q53 0 75 40l10 20l-180 480h185l83 -285h4l83 285h185l-195 -515q-39 -100 -86 -142.5t-124 -42.5q-36 0 -64 7q-4 1 -13 3.5t-13 4.5zM300 640q0 34 25.5 59.5t59.5 25.5t59.5 -25.5t25.5 -59.5t-25.5 -59.5t-59.5 -25.5t-59.5 25.5
t-25.5 59.5zM240 640q0 -34 -25.5 -59.5t-59.5 -25.5t-59.5 25.5t-25.5 59.5t25.5 59.5t59.5 25.5t59.5 -25.5t25.5 -59.5z" />
    <glyph glyph-name="uni04F2" unicode="&#x4f2;" horiz-adv-x="650" 
d="M70 5v170q10 -4 17 -5q20 -5 43 -5q76 0 105 60l5 10l-240 465h210l128 -290h4l108 290h210l-245 -520q-45 -93 -105 -141.5t-150 -48.5q-38 0 -66 7zM160 780l90 160h160l-125 -160h-125zM370 780l90 160h160l-125 -160h-125z" />
    <glyph glyph-name="uni04F3" unicode="&#x4f3;" horiz-adv-x="540" 
d="M45 -195v155q9 -4 16 -5q17 -5 34 -5q53 0 75 40l10 20l-180 480h185l83 -285h4l83 285h185l-195 -515q-39 -100 -86 -142.5t-124 -42.5q-36 0 -64 7q-4 1 -13 3.5t-13 4.5zM100 555l90 160h160l-125 -160h-125zM310 555l90 160h160l-125 -160h-125z" />
    <glyph glyph-name="uni04F4" unicode="&#x4f4;" horiz-adv-x="750" 
d="M480 0v235q-20 -9 -43 -15q-51 -15 -107 -15q-118 0 -189 75t-71 205v215h190v-215q0 -53 28.5 -81.5t81.5 -28.5q43 0 79 15q19 7 31 15v295h190v-700h-190zM405 865q0 34 25.5 59.5t59.5 25.5t59.5 -25.5t25.5 -59.5t-25.5 -59.5t-59.5 -25.5t-59.5 25.5t-25.5 59.5z
M345 865q0 -34 -25.5 -59.5t-59.5 -25.5t-59.5 25.5t-25.5 59.5t25.5 59.5t59.5 25.5t59.5 -25.5t25.5 -59.5z" />
    <glyph glyph-name="uni04F5" unicode="&#x4f5;" horiz-adv-x="570" 
d="M340 0v150q-14 -9 -30 -15q-36 -15 -75 -15q-83 0 -134 54t-51 146v170h170v-150q0 -26 17 -43t43 -17q23 0 45 10q10 5 15 10v190h170v-490h-170zM315 640q0 34 25.5 59.5t59.5 25.5t59.5 -25.5t25.5 -59.5t-25.5 -59.5t-59.5 -25.5t-59.5 25.5t-25.5 59.5zM255 640
q0 -34 -25.5 -59.5t-59.5 -25.5t-59.5 25.5t-25.5 59.5t25.5 59.5t59.5 25.5t59.5 -25.5t25.5 -59.5z" />
    <glyph glyph-name="uni04F6" unicode="&#x4f6;" horiz-adv-x="590" 
d="M160 -140v140h-80v700h490v-180h-300v-350h80v-310h-190z" />
    <glyph glyph-name="uni04F7" unicode="&#x4f7;" horiz-adv-x="450" 
d="M125 -110v110h-65v490h370v-160h-200v-180h65v-260h-170z" />
    <glyph glyph-name="uni04F8" unicode="&#x4f8;" horiz-adv-x="985" 
d="M715 0v700h190v-700h-190zM80 0v700h190v-210h115q115 0 187.5 -69.5t72.5 -175.5t-72.5 -175.5t-187.5 -69.5h-305zM270 170h105q33 0 56.5 22.5t23.5 52.5t-23.5 52.5t-56.5 22.5h-105v-150zM525 865q0 34 25.5 59.5t59.5 25.5t59.5 -25.5t25.5 -59.5t-25.5 -59.5
t-59.5 -25.5t-59.5 25.5t-25.5 59.5zM465 865q0 -34 -25.5 -59.5t-59.5 -25.5t-59.5 25.5t-25.5 59.5t25.5 59.5t59.5 25.5t59.5 -25.5t25.5 -59.5z" />
    <glyph glyph-name="uni04F9" unicode="&#x4f9;" horiz-adv-x="780" 
d="M550 0v490h170v-490h-170zM230 130h45q23 0 36.5 13t13.5 32t-13.5 32t-36.5 13h-45v-90zM60 0v490h170v-140h65q88 0 144 -51t56 -124t-56 -124t-144 -51h-235zM420 640q0 34 25.5 59.5t59.5 25.5t59.5 -25.5t25.5 -59.5t-25.5 -59.5t-59.5 -25.5t-59.5 25.5t-25.5 59.5
zM360 640q0 -34 -25.5 -59.5t-59.5 -25.5t-59.5 25.5t-25.5 59.5t25.5 59.5t59.5 25.5t59.5 -25.5t25.5 -59.5z" />
    <glyph glyph-name="uni04FA" unicode="&#x4fa;" horiz-adv-x="595" 
d="M55 -205v150q7 -4 14 -5q17 -5 36 -5q60 0 60 55v10h-80v315h-85v65h85v320h490v-180h-300v-140h165v-65h-165v-145h80v-180q0 -220 -190 -220q-46 0 -79 12q-15 4 -31 13z" />
    <glyph glyph-name="uni04FB" unicode="&#x4fb;" horiz-adv-x="460" 
d="M65 -205v125q4 -4 7 -5q8 -5 23 -5q40 0 40 50v40h-65v200h-65v65h65v225h370v-160h-200v-65h110v-65h-110v-70h65v-170q0 -89 -42 -134.5t-118 -45.5q-33 0 -59 7q-20 7 -21 8z" />
    <glyph glyph-name="uni04FC" unicode="&#x4fc;" horiz-adv-x="680" 
d="M-10 0l225 365l-205 335h210l118 -210h4l118 210h210l-205 -335l130 -215q35 -57 50 -99t15 -91q0 -91 -49.5 -140.5t-140.5 -49.5q-46 0 -79 12q-15 4 -31 13v150q7 -4 14 -5q17 -5 36 -5q60 0 60 55q0 26 -25 70l-103 180h-4l-138 -240h-210z" />
    <glyph glyph-name="uni04FD" unicode="&#x4fd;" horiz-adv-x="530" 
d="M-5 0l155 250l-145 240h185l73 -145h4l73 145h185l-145 -240l110 -174q40 -65 40 -131q0 -72 -47.5 -118.5t-122.5 -46.5q-32 0 -64 10q-18 6 -26 10v125q5 -4 11 -5q13 -5 29 -5q23 0 36.5 13t13.5 32q0 22 -25 70l-68 125h-4l-83 -155h-185z" />
    <glyph glyph-name="uni04FE" unicode="&#x4fe;" horiz-adv-x="680" 
d="M-10 0l205 335h-115v60h115l-185 305h210l118 -210h4l118 210h210l-185 -305h115v-60h-115l205 -335h-210l-138 240h-4l-138 -240h-210z" />
    <glyph glyph-name="uni04FF" unicode="&#x4ff;" horiz-adv-x="530" 
d="M-5 0l135 220h-75v60h75l-125 210h185l73 -145h4l73 145h185l-125 -210h75v-60h-75l135 -220h-185l-83 155h-4l-83 -155h-185z" />
    <glyph glyph-name="uni0510" unicode="&#x510;" horiz-adv-x="595" 
d="M420 275h-90q-43 0 -66.5 -17.5t-23.5 -42.5t25 -42.5t75 -17.5q56 0 106 32q22 13 39 33l110 -120q-33 -36 -71 -60q-91 -60 -199 -60q-137 0 -213.5 62t-76.5 153q0 84 72 138q30 23 73 37q-36 10 -63 30q-62 46 -62 120q0 83 72 141.5t198 58.5q96 0 178 -48
q36 -21 62 -47l-110 -120q-14 13 -28 20q-35 20 -77 20q-46 0 -68 -15.5t-22 -39.5q0 -25 21 -40t64 -15h75v-160z" />
    <glyph glyph-name="uni0511" unicode="&#x511;" horiz-adv-x="470" 
d="M325 195h-50q-55 0 -55 -35t55 -35q40 0 77 25q13 8 28 25l90 -95q-22 -25 -56 -45q-72 -45 -164 -45q-103 0 -159 42t-56 103q0 60 55 93q23 14 55 22q-27 7 -50 21q-50 32 -50 89t54.5 98.5t150.5 41.5q81 0 153 -35q32 -17 52 -35l-90 -95q-11 7 -24 15q-34 15 -66 15
q-22 0 -33.5 -9t-11.5 -21t11.5 -21t33.5 -9h50v-110z" />
    <glyph glyph-name="uni0512" unicode="&#x512;" horiz-adv-x="780" 
d="M5 0v175q10 -4 15 -5q17 -5 30 -5q24 0 42.5 12.5t34.5 45t24.5 97t8.5 159.5v221h540v-710q0 -97 -54 -153.5t-141 -56.5q-38 0 -71 7l-29 8v165q9 -4 16 -5q17 -5 34 -5q55 0 55 60v510h-160v-40q0 -116 -12.5 -203.5t-33.5 -143.5t-53.5 -90.5t-68.5 -48.5t-82 -14
q-32 0 -66 10q-17 5 -29 10z" />
    <glyph glyph-name="uni0513" unicode="&#x513;" horiz-adv-x="595" 
d="M5 0v155l9 -3q14 -2 21 -2q28 0 43.5 14.5t26 65.5t10.5 145v115h420v-525q0 -86 -47 -135.5t-123 -49.5q-38 0 -66 7l-24 8v140q5 -4 11 -5q13 -5 29 -5q23 0 36.5 14.5t13.5 40.5v350h-95q0 -345 -185 -345q-31 0 -57 7q-3 1 -11 3.5t-12 4.5z" />
    <glyph glyph-name="Wgrave" unicode="&#x1e80;" horiz-adv-x="1060" 
d="M230 0l-230 700h205l110 -410h5l125 410h170l125 -410h5l110 410h205l-230 -700h-170l-128 420h-4l-128 -420h-170zM455 780l-120 160h180l85 -160h-145z" />
    <glyph glyph-name="wgrave" unicode="&#x1e81;" horiz-adv-x="800" 
d="M170 0l-170 490h180l68 -245h4l83 245h130l83 -245h4l68 245h180l-170 -490h-140l-88 260h-4l-88 -260h-140zM330 555l-120 160h180l85 -160h-145z" />
    <glyph glyph-name="Wacute" unicode="&#x1e82;" horiz-adv-x="1060" 
d="M230 0l-230 700h205l110 -410h5l125 410h170l125 -410h5l110 410h205l-230 -700h-170l-128 420h-4l-128 -420h-170zM455 780l85 160h180l-120 -160h-145z" />
    <glyph glyph-name="wacute" unicode="&#x1e83;" horiz-adv-x="800" 
d="M170 0l-170 490h180l68 -245h4l83 245h130l83 -245h4l68 245h180l-170 -490h-140l-88 260h-4l-88 -260h-140zM325 555l85 160h180l-120 -160h-145z" />
    <glyph glyph-name="Wdieresis" unicode="&#x1e84;" horiz-adv-x="1060" 
d="M230 0l-230 700h205l110 -410h5l125 410h170l125 -410h5l110 410h205l-230 -700h-170l-128 420h-4l-128 -420h-170zM560 865q0 34 25.5 59.5t59.5 25.5t59.5 -25.5t25.5 -59.5t-25.5 -59.5t-59.5 -25.5t-59.5 25.5t-25.5 59.5zM500 865q0 -34 -25.5 -59.5t-59.5 -25.5
t-59.5 25.5t-25.5 59.5t25.5 59.5t59.5 25.5t59.5 -25.5t25.5 -59.5z" />
    <glyph glyph-name="wdieresis" unicode="&#x1e85;" horiz-adv-x="800" 
d="M170 0l-170 490h180l68 -245h4l83 245h130l83 -245h4l68 245h180l-170 -490h-140l-88 260h-4l-88 -260h-140zM430 640q0 34 25.5 59.5t59.5 25.5t59.5 -25.5t25.5 -59.5t-25.5 -59.5t-59.5 -25.5t-59.5 25.5t-25.5 59.5zM370 640q0 -34 -25.5 -59.5t-59.5 -25.5
t-59.5 25.5t-25.5 59.5t25.5 59.5t59.5 25.5t59.5 -25.5t25.5 -59.5z" />
    <glyph glyph-name="uni1E9E" unicode="&#x1e9e;" horiz-adv-x="755" 
d="M75 0v460q0 102 71 171t179 69h345v-175l-110 -110v-5q46 -14 80 -39q80 -58 80 -151q0 -92 -70.5 -156t-184.5 -64h-90v150h65q37 0 58.5 19.5t21.5 50.5t-21.5 50.5t-58.5 19.5h-65v130l100 100h-125q-85 0 -85 -80v-440h-190z" />
    <glyph glyph-name="Ygrave" unicode="&#x1ef2;" horiz-adv-x="670" 
d="M240 0v250l-250 450h210l133 -275h4l133 275h210l-250 -450v-250h-190zM265 780l-120 160h180l85 -160h-145z" />
    <glyph glyph-name="ygrave" unicode="&#x1ef3;" horiz-adv-x="540" 
d="M45 -195v155q9 -4 16 -5q17 -5 34 -5q53 0 75 40l10 20l-180 480h185l83 -285h4l83 285h185l-195 -515q-39 -100 -86 -142.5t-124 -42.5q-36 0 -64 7q-4 1 -13 3.5t-13 4.5zM200 555l-120 160h180l85 -160h-145z" />
    <glyph glyph-name="endash" unicode="&#x2013;" horiz-adv-x="525" 
d="M40 225v135h445v-135h-445z" />
    <glyph glyph-name="emdash" unicode="&#x2014;" horiz-adv-x="765" 
d="M40 225v135h685v-135h-685z" />
    <glyph glyph-name="quoteleft" unicode="&#x2018;" horiz-adv-x="285" 
d="M20 505l140 215l105 -55l-110 -235z" />
    <glyph glyph-name="quoteright" unicode="&#x2019;" horiz-adv-x="285" 
d="M20 485l110 235l135 -75l-140 -215z" />
    <glyph glyph-name="quotesinglbase" unicode="&#x201a;" horiz-adv-x="270" 
d="M-10 -70l110 235l135 -75l-140 -215z" />
    <glyph glyph-name="quotedblleft" unicode="&#x201c;" horiz-adv-x="515" 
d="M250 505l140 215l105 -55l-110 -235zM20 505l140 215l105 -55l-110 -235z" />
    <glyph glyph-name="quotedblright" unicode="&#x201d;" horiz-adv-x="515" 
d="M20 485l110 235l135 -75l-140 -215zM250 485l110 235l135 -75l-140 -215z" />
    <glyph glyph-name="quotedblbase" unicode="&#x201e;" horiz-adv-x="500" 
d="M-10 -70l110 235l135 -75l-140 -215zM220 -70l110 235l135 -75l-140 -215z" />
    <glyph glyph-name="dagger" unicode="&#x2020;" horiz-adv-x="485" 
d="M170 140v305h-120v130h120v125h145v-125h120v-130h-120v-305h-145z" />
    <glyph glyph-name="daggerdbl" unicode="&#x2021;" horiz-adv-x="485" 
d="M50 250v130h120v80h-120v130h120v110h145v-110h120v-130h-120v-80h120v-130h-120v-110h-145v110h-120z" />
    <glyph glyph-name="bullet" unicode="&#x2022;" horiz-adv-x="510" 
d="M120 265q0 56 39.5 95.5t95.5 39.5t95.5 -39.5t39.5 -95.5t-39.5 -95.5t-95.5 -39.5t-95.5 39.5t-39.5 95.5z" />
    <glyph glyph-name="ellipsis" unicode="&#x2026;" horiz-adv-x="820" 
d="M315 80q0 39 26.5 64.5t68.5 25.5t68.5 -25.5t26.5 -64.5t-26.5 -64.5t-68.5 -25.5t-68.5 25.5t-26.5 64.5zM590 80q0 39 26.5 64.5t68.5 25.5t68.5 -25.5t26.5 -64.5t-26.5 -64.5t-68.5 -25.5t-68.5 25.5t-26.5 64.5zM40 80q0 39 26.5 64.5t68.5 25.5t68.5 -25.5
t26.5 -64.5t-26.5 -64.5t-68.5 -25.5t-68.5 25.5t-26.5 64.5z" />
    <glyph glyph-name="perthousand" unicode="&#x2030;" horiz-adv-x="1250" 
d="M130 0l440 700h160l-440 -700h-160zM145 545q0 -26 17 -43t43 -17t43 17t17 43t-17 43t-43 17t-43 -17t-17 -43zM25 545q0 68 53 119t127 51t127 -51t53 -119t-53 -119t-127 -51t-127 51t-53 119zM590 155q0 -26 17 -43t43 -17t43 17t17 43t-17 43t-43 17t-43 -17
t-17 -43zM470 155q0 68 53 119t127 51t127 -51t53 -119t-53 -119t-127 -51t-127 51t-53 119zM985 155q0 -26 17 -43t43 -17t43 17t17 43t-17 43t-43 17t-43 -17t-17 -43zM865 155q0 68 53 119t127 51t127 -51t53 -119t-53 -119t-127 -51t-127 51t-53 119z" />
    <glyph glyph-name="guilsinglleft" unicode="&#x2039;" horiz-adv-x="380" 
d="M170 60l-130 180l130 180h170l-130 -180l130 -180h-170z" />
    <glyph glyph-name="guilsinglright" unicode="&#x203a;" horiz-adv-x="380" 
d="M40 60l130 180l-130 180h170l130 -180l-130 -180h-170z" />
    <glyph glyph-name="uni203D" unicode="&#x203d;" horiz-adv-x="570" 
d="M180 215v260l-165 75q20 47 56 85q81 85 209 85q112 0 186 -64t74 -146q0 -44 -19.5 -81t-47.5 -62.5t-56 -48t-47.5 -49t-19.5 -54.5h-170zM250 535v-150q10 10 35.5 29t37.5 34.5t12 36.5q0 24 -18 39.5t-47 15.5q-2 0 -14 -3zM170 80q0 39 26.5 64.5t68.5 25.5
t68.5 -25.5t26.5 -64.5t-26.5 -64.5t-68.5 -25.5t-68.5 25.5t-26.5 64.5z" />
    <glyph glyph-name="fraction" unicode="&#x2044;" horiz-adv-x="215" 
d="M-190 0l435 700h160l-435 -700h-160z" />
    <glyph glyph-name="uni2070" unicode="&#x2070;" horiz-adv-x="370" 
d="M185 540q21 0 35.5 20.5t14.5 59.5t-14.5 59.5t-35.5 20.5t-35.5 -20.5t-14.5 -59.5t14.5 -59.5t35.5 -20.5zM185 435q-73 0 -119 50t-46 135t46 135t119 50t119 -50t46 -135t-46 -135t-119 -50z" />
    <glyph glyph-name="uni2074" unicode="&#x2074;" horiz-adv-x="340" 
d="M10 505v95l160 200h110v-195h35v-100h-35v-65h-115v65h-155zM110 600h60v75z" />
    <glyph glyph-name="uni2075" unicode="&#x2075;" horiz-adv-x="320" 
d="M10 500l60 60q8 -10 17 -15q21 -15 48 -15q19 0 32 11t13 29q0 15 -13 25t-32 10q-15 0 -29 -8l-11 -7h-65l25 210h225v-90h-130l-5 -40l11 2q21 3 29 3q53 0 86.5 -33.5t33.5 -86.5q0 -50 -39.5 -85t-105.5 -35q-63 0 -113 32q-22 13 -37 33z" />
    <glyph glyph-name="uni2076" unicode="&#x2076;" horiz-adv-x="320" 
d="M45 665l100 135h125l-80 -105q57 -11 88.5 -43.5t31.5 -81.5q0 -57 -42 -96t-108 -39t-108 39t-42 96q0 36 17 68q7 15 18 27zM160 530q40 0 40 40t-40 40t-40 -40t40 -40z" />
    <glyph glyph-name="uni2077" unicode="&#x2077;" horiz-adv-x="300" 
d="M60 440l115 250h-155v110h275v-110l-115 -250h-120z" />
    <glyph glyph-name="uni2078" unicode="&#x2078;" horiz-adv-x="330" 
d="M165 590q-18 0 -29 -9t-11 -21t11 -21t29 -9t29 9t11 21t-11 21t-29 9zM165 715q-30 0 -30 -25t30 -25t30 25t-30 25zM165 435q-71 0 -113 33t-42 77q0 43 35 67q14 10 35 18q-15 5 -28 17q-27 22 -27 58q0 41 37.5 70.5t102.5 29.5t102.5 -29.5t37.5 -70.5
q0 -36 -28 -58q-13 -11 -27 -17q17 -7 35 -18q35 -27 35 -67q0 -44 -42 -77t-113 -33z" />
    <glyph glyph-name="uni2079" unicode="&#x2079;" horiz-adv-x="320" 
d="M50 440l80 105q-57 11 -88.5 43.5t-31.5 81.5q0 57 42 96t108 39t108 -39t42 -96q0 -34 -18 -68q-6 -13 -17 -27l-100 -135h-125zM120 670q0 -40 40 -40t40 40t-40 40t-40 -40z" />
    <glyph glyph-name="uni2080" unicode="&#x2080;" horiz-adv-x="370" 
d="M185 0q21 0 35.5 20.5t14.5 59.5t-14.5 59.5t-35.5 20.5t-35.5 -20.5t-14.5 -59.5t14.5 -59.5t35.5 -20.5zM185 -105q-73 0 -119 50t-46 135t46 135t119 50t119 -50t46 -135t-46 -135t-119 -50z" />
    <glyph glyph-name="uni2081" unicode="&#x2081;" horiz-adv-x="240" 
d="M80 -100v225h-60v85q31 4 56 27q12 12 19 23h105v-360h-120z" />
    <glyph glyph-name="uni2082" unicode="&#x2082;" horiz-adv-x="340" 
d="M190 5h115v-105h-275q0 50 16 88.5t38.5 59.5t45.5 36t39 27t16 24q0 25 -30 25q-16 0 -29 -13q-7 -5 -11 -12l-90 32q11 28 29 49q47 49 116 49q66 0 103 -32t37 -83q0 -36 -22 -63t-56 -49.5t-42 -32.5z" />
    <glyph glyph-name="uni2083" unicode="&#x2083;" horiz-adv-x="345" 
d="M20 -40l60 60q8 -10 20 -18q23 -17 50 -17q18 0 29 9t11 21t-11 21t-29 9h-40v80h35q35 0 35 25t-35 25q-19 0 -39 -13q-8 -4 -16 -12l-60 60q12 14 34 27q43 28 106 28q61 0 98 -30t37 -70q0 -34 -30 -58q-15 -11 -30 -17q17 -7 35 -18q35 -27 35 -67q0 -44 -40 -77
t-105 -33q-63 0 -113 32q-22 13 -37 33z" />
    <glyph glyph-name="uni2084" unicode="&#x2084;" horiz-adv-x="340" 
d="M10 -35v95l160 200h110v-195h35v-100h-35v-65h-115v65h-155zM110 60h60v75z" />
    <glyph glyph-name="uni2085" unicode="&#x2085;" horiz-adv-x="320" 
d="M10 -40l60 60q8 -10 17 -15q21 -15 48 -15q19 0 32 11t13 29q0 15 -13 25t-32 10q-15 0 -29 -8l-11 -7h-65l25 210h225v-90h-130l-5 -40l11 2q21 3 29 3q53 0 86.5 -33.5t33.5 -86.5q0 -50 -39.5 -85t-105.5 -35q-63 0 -113 32q-22 13 -37 33z" />
    <glyph glyph-name="uni2086" unicode="&#x2086;" horiz-adv-x="320" 
d="M45 125l100 135h125l-80 -105q57 -11 88.5 -43.5t31.5 -81.5q0 -57 -42 -96t-108 -39t-108 39t-42 96q0 36 17 68q7 15 18 27zM160 -10q40 0 40 40t-40 40t-40 -40t40 -40z" />
    <glyph glyph-name="uni2087" unicode="&#x2087;" horiz-adv-x="300" 
d="M60 -100l115 250h-155v110h275v-110l-115 -250h-120z" />
    <glyph glyph-name="uni2088" unicode="&#x2088;" horiz-adv-x="330" 
d="M165 50q-18 0 -29 -9t-11 -21t11 -21t29 -9t29 9t11 21t-11 21t-29 9zM165 175q-30 0 -30 -25t30 -25t30 25t-30 25zM165 -105q-71 0 -113 33t-42 77q0 43 35 67q14 10 35 18q-15 5 -28 17q-27 22 -27 58q0 41 37.5 70.5t102.5 29.5t102.5 -29.5t37.5 -70.5
q0 -36 -28 -58q-13 -11 -27 -17q17 -7 35 -18q35 -27 35 -67q0 -44 -42 -77t-113 -33z" />
    <glyph glyph-name="uni2089" unicode="&#x2089;" horiz-adv-x="320" 
d="M50 -100l80 105q-57 11 -88.5 43.5t-31.5 81.5q0 57 42 96t108 39t108 -39t42 -96q0 -34 -18 -68q-6 -13 -17 -27l-100 -135h-125zM120 130q0 -40 40 -40t40 40t-40 40t-40 -40z" />
    <glyph glyph-name="uni20A9" unicode="&#x20a9;" horiz-adv-x="1070" 
d="M20 240v60h151l-30 95h-121v60h102l-77 245h205l58 -245h82l65 245h160l65 -245h82l58 245h205l-77 -245h102v-60h-121l-30 -95h151v-60h-170l-75 -240h-155l-70 240h-90l-70 -240h-155l-75 240h-170zM345 300h5l25 95h-52zM720 300h5l22 95h-52zM507 300h56l-26 90h-4z
" />
    <glyph glyph-name="Euro" unicode="&#x20ac;" horiz-adv-x="745" 
d="M20 255v65h75q-1 3 -1 9q-1 7 -1 21t1 21q0 6 1 9h-75v65h85q24 114 115.5 194.5t229.5 80.5q105 0 201 -58q42 -26 74 -57l-115 -125q-18 18 -41 32q-56 33 -109 33q-60 0 -99.5 -29t-55.5 -71h170v-65h-185q-1 -3 -1 -9q-1 -7 -1 -21t1 -21q0 -6 1 -9h185v-65h-170
q16 -42 55.5 -71t99.5 -29q55 0 109 32q24 14 41 33l115 -125q-35 -34 -74 -58q-94 -57 -201 -57q-138 0 -230 80.5t-115 194.5h-85z" />
    <glyph glyph-name="uni20B4" unicode="&#x20b4;" horiz-adv-x="635" 
d="M30 386v64h305q8 5 12 11q13 13 13 34q0 28 -22.5 46.5t-62.5 18.5q-41 0 -81 -23q-19 -12 -29 -22l-105 105q22 25 61 50q80 50 174 50q125 0 200 -61t75 -144q0 -26 -8 -48l-7 -17h50v-64h-575zM30 250v64h575v-64h-305q-9 -5 -13 -11q-12 -14 -12 -34
q0 -28 22.5 -46.5t62.5 -18.5q43 0 81 22q20 13 29 23l105 -105q-22 -25 -61 -50q-80 -50 -174 -50q-125 0 -200 61t-75 144q0 29 7 47q7 16 8 18h-50z" />
    <glyph glyph-name="uni20B8" unicode="&#x20b8;" horiz-adv-x="620" 
d="M20 635v65h580v-65h-580zM215 0v420h-195v165h580v-165h-195v-420h-190z" />
    <glyph glyph-name="uni20B9" unicode="&#x20b9;" 
d="M60 240v120h170q38 0 66.5 22t38.5 48h-275v65h275q-9 29 -37.5 52t-67.5 23h-170v130h510v-130h-100q6 -8 11 -19q11 -21 17 -56h72v-65h-72q-10 -71 -65 -126t-133 -69l290 -235h-235z" />
    <glyph glyph-name="uni20BA" unicode="&#x20ba;" 
d="M100 -10v288l-70 -23v65l70 23v65l-70 -23v65l70 23v227h190v-165l165 55v-65l-165 -55v-65l165 55v-65l-165 -55v-180q125 15 125 90q0 19 -5 32q-5 12 -5 13l160 55q7 -15 12 -33q13 -39 13 -82q0 -231 -490 -245z" />
    <glyph glyph-name="uni20BD" unicode="&#x20bd;" horiz-adv-x="700" 
d="M95 0v130h-65v80h65v55h-65v80h65v355h310q116 0 188 -63t72 -152q0 -93 -71.5 -156.5t-188.5 -63.5h-120v-55h200v-80h-200v-130h-190zM285 345h90q45 0 72.5 26.5t27.5 68.5t-27.5 68.5t-72.5 26.5h-90v-190z" />
    <glyph glyph-name="uni20BF" unicode="&#x20bf;" horiz-adv-x="705" 
d="M80 0v700h130v120h90v-120h70v120h90v-125q80 -18 127.5 -63t47.5 -117q0 -71 -53 -116q-20 -17 -52 -29q39 -14 70 -37q70 -54 70 -138q0 -77 -57 -130.5t-153 -61.5v-123h-90v120h-70v-120h-90v120h-130zM270 150h130q33 0 54 20t21 50t-21 50t-54 20h-130v-140z
M270 430h105q30 0 47.5 16.5t17.5 43.5t-17.5 43.5t-47.5 16.5h-105v-120z" />
    <glyph glyph-name="uni2113" unicode="&#x2113;" horiz-adv-x="395" 
d="M10 205v85q31 0 59 7q4 1 13 3.5t13 4.5v258q0 68 36 107.5t94 39.5q59 0 94.5 -41.5t35.5 -118.5q0 -115 -52.5 -194t-117.5 -111v-105q0 -38 15.5 -54t49.5 -16q25 0 43 7q13 5 17 8v-75q-9 -5 -22 -10q-30 -10 -60 -10q-64 0 -98.5 37t-34.5 108v80q-13 -4 -24 -5
q-28 -5 -61 -5zM185 569v-223q25 25 39 42.5t30 62t16 99.5q0 80 -45 80q-40 0 -40 -61z" />
    <glyph glyph-name="uni2116" unicode="&#x2116;" horiz-adv-x="1200" 
d="M810 0v150h340v-150h-340zM920 380q0 -26 17 -43t43 -17t43 17t17 43t-17 43t-43 17t-43 -17t-17 -43zM800 380q0 68 53 119t127 51t127 -51t53 -119t-53 -119t-127 -51t-127 51t-53 119zM80 0v700h165l300 -385v385h190v-700h-165l-300 385v-385h-190z" />
    <glyph glyph-name="uni2117" unicode="&#x2117;" horiz-adv-x="850" 
d="M405 350h30q23 0 36.5 13.5t13.5 36.5t-13.5 36.5t-36.5 13.5h-30v-100zM145 350q0 -112 83.5 -196t196.5 -84t196.5 84t83.5 196t-83.5 196t-196.5 84t-196.5 -84t-83.5 -196zM45 350q0 155 109.5 262.5t270.5 107.5t270.5 -107.5t109.5 -262.5t-109.5 -262.5
t-270.5 -107.5t-270.5 107.5t-109.5 262.5zM290 160v380h160q67 0 108.5 -39.5t41.5 -100.5t-41.5 -100.5t-108.5 -39.5h-45v-100h-115z" />
    <glyph glyph-name="trademark" unicode="&#x2122;" horiz-adv-x="780" 
d="M340 380v320h105l90 -115l90 115h105v-320h-115v155l-80 -100l-80 100v-155h-115zM105 380v210h-85v110h285v-110h-85v-210h-115z" />
    <glyph glyph-name="uni2126" unicode="&#x2126;" horiz-adv-x="880" 
d="M120 0v90h125q-44 26 -75 65q-75 87 -75 215q0 142 99.5 241t245.5 99t245.5 -99t99.5 -241q0 -124 -75 -215q-31 -39 -75 -65h125v-90h-260v90q54 23 95 61q95 85 95 219q0 105 -72.5 177.5t-177.5 72.5t-177.5 -72.5t-72.5 -177.5q0 -134 95 -219q39 -38 95 -61v-90
h-260z" />
    <glyph glyph-name="estimated" unicode="&#x212e;" horiz-adv-x="870" 
d="M230 380h420v215q-88 80 -210 80t-210 -80v-215zM230 345v-238q25 -24 57 -41q72 -41 163 -41q119 0 209 75q42 34 71 75l30 -25q-37 -48 -80 -80q-106 -80 -230 -80q-157 0 -263.5 104.5t-106.5 255.5q0 150 105 255t255 105t255 -105t105 -255v-5h-570z" />
    <glyph glyph-name="uni2150" unicode="&#x2150;" horiz-adv-x="795" 
d="M90 340v225h-60v85q31 4 56 27q12 12 19 23h105v-360h-120zM540 0l115 250h-155v110h275v-110l-115 -250h-120zM70 0l435 700h160l-435 -700h-160z" />
    <glyph glyph-name="uni2151" unicode="&#x2151;" horiz-adv-x="800" 
d="M90 340v225h-60v85q31 4 56 27q12 12 19 23h105v-360h-120zM520 0l80 105q-57 11 -88.5 43.5t-31.5 81.5q0 57 42 96t108 39t108 -39t42 -96q0 -34 -18 -68q-6 -13 -17 -27l-100 -135h-125zM590 230q0 -40 40 -40t40 40t-40 40t-40 -40zM70 0l435 700h160l-435 -700h-160
z" />
    <glyph glyph-name="uni2152" unicode="&#x2152;" horiz-adv-x="1080" 
d="M90 340v225h-60v85q31 4 56 27q12 12 19 23h105v-360h-120zM550 0v225h-60v85q31 4 56 27q12 12 19 23h105v-360h-120zM885 100q21 0 35.5 20.5t14.5 59.5t-14.5 59.5t-35.5 20.5t-35.5 -20.5t-14.5 -59.5t14.5 -59.5t35.5 -20.5zM885 -5q-73 0 -119 50t-46 135t46 135
t119 50t119 -50t46 -135t-46 -135t-119 -50zM70 0l435 700h160l-435 -700h-160z" />
    <glyph glyph-name="onethird" unicode="&#x2153;" horiz-adv-x="790" 
d="M465 60l60 60q8 -10 20 -18q23 -17 50 -17q18 0 29 9t11 21t-11 21t-29 9h-40v80h35q35 0 35 25t-35 25q-19 0 -39 -13q-8 -4 -16 -12l-60 60q12 14 34 27q43 28 106 28q61 0 98 -30t37 -70q0 -34 -30 -58q-15 -11 -30 -17q17 -7 35 -18q35 -27 35 -67q0 -44 -40 -77
t-105 -33q-63 0 -113 32q-22 13 -37 33zM90 340v225h-60v85q31 4 56 27q12 12 19 23h105v-360h-120zM70 0l435 700h160l-435 -700h-160z" />
    <glyph glyph-name="twothirds" unicode="&#x2154;" horiz-adv-x="860" 
d="M185 445h115v-105h-275q0 50 16 88.5t38.5 59.5t45.5 36t39 27t16 24q0 25 -30 25q-16 0 -29 -13q-7 -5 -11 -12l-90 32q11 28 29 49q47 49 116 49q66 0 103 -32t37 -83q0 -36 -22 -63t-56 -49.5t-42 -32.5zM535 60l60 60q8 -10 20 -18q23 -17 50 -17q18 0 29 9t11 21
t-11 21t-29 9h-40v80h35q35 0 35 25t-35 25q-19 0 -39 -13q-8 -4 -16 -12l-60 60q12 14 34 27q43 28 106 28q61 0 98 -30t37 -70q0 -34 -30 -58q-15 -11 -30 -17q17 -7 35 -18q35 -27 35 -67q0 -44 -40 -77t-105 -33q-63 0 -113 32q-22 13 -37 33zM140 0l435 700h160
l-435 -700h-160z" />
    <glyph glyph-name="uni2155" unicode="&#x2155;" horiz-adv-x="785" 
d="M90 340v225h-60v85q31 4 56 27q12 12 19 23h105v-360h-120zM470 60l60 60q8 -10 17 -15q21 -15 48 -15q19 0 32 11t13 29q0 15 -13 25t-32 10q-15 0 -29 -8l-11 -7h-65l25 210h225v-90h-130l-5 -40l11 2q21 3 29 3q53 0 86.5 -33.5t33.5 -86.5q0 -50 -39.5 -85
t-105.5 -35q-63 0 -113 32q-22 13 -37 33zM70 0l435 700h160l-435 -700h-160z" />
    <glyph glyph-name="uni2156" unicode="&#x2156;" horiz-adv-x="855" 
d="M185 445h115v-105h-275q0 50 16 88.5t38.5 59.5t45.5 36t39 27t16 24q0 25 -30 25q-16 0 -29 -13q-7 -5 -11 -12l-90 32q11 28 29 49q47 49 116 49q66 0 103 -32t37 -83q0 -36 -22 -63t-56 -49.5t-42 -32.5zM540 55l60 60q8 -10 17 -15q21 -15 48 -15q19 0 32 11t13 29
q0 15 -13 25t-32 10q-15 0 -29 -8l-11 -7h-65l25 210h225v-90h-130l-5 -40l11 2q21 3 29 3q53 0 86.5 -33.5t33.5 -86.5q0 -50 -39.5 -85t-105.5 -35q-63 0 -113 32q-22 13 -37 33zM140 0l435 700h160l-435 -700h-160z" />
    <glyph glyph-name="uni2157" unicode="&#x2157;" horiz-adv-x="850" 
d="M20 400l60 60q8 -10 20 -18q23 -17 50 -17q18 0 29 9t11 21t-11 21t-29 9h-40v80h35q35 0 35 25t-35 25q-19 0 -39 -13q-8 -4 -16 -12l-60 60q12 14 34 27q43 28 106 28q61 0 98 -30t37 -70q0 -34 -30 -58q-15 -11 -30 -17q17 -7 35 -18q35 -27 35 -67q0 -44 -40 -77
t-105 -33q-63 0 -113 32q-22 13 -37 33zM535 55l60 60q8 -10 17 -15q21 -15 48 -15q19 0 32 11t13 29q0 15 -13 25t-32 10q-15 0 -29 -8l-11 -7h-65l25 210h225v-90h-130l-5 -40l11 2q21 3 29 3q53 0 86.5 -33.5t33.5 -86.5q0 -50 -39.5 -85t-105.5 -35q-63 0 -113 32
q-22 13 -37 33zM135 0l435 700h160l-435 -700h-160z" />
    <glyph glyph-name="uni2158" unicode="&#x2158;" horiz-adv-x="885" 
d="M20 405v95l160 200h110v-195h35v-100h-35v-65h-115v65h-155zM120 500h60v75zM560 55l60 60q8 -10 17 -15q21 -15 48 -15q19 0 32 11t13 29q0 15 -13 25t-32 10q-15 0 -29 -8l-11 -7h-65l25 210h225v-90h-130l-5 -40l11 2q21 3 29 3q53 0 86.5 -33.5t33.5 -86.5
q0 -50 -39.5 -85t-105.5 -35q-63 0 -113 32q-22 13 -37 33zM160 0l435 700h160l-435 -700h-160z" />
    <glyph glyph-name="uni2159" unicode="&#x2159;" horiz-adv-x="770" 
d="M90 340v225h-60v85q31 4 56 27q12 12 19 23h105v-360h-120zM485 225l100 135h125l-80 -105q57 -11 88.5 -43.5t31.5 -81.5q0 -57 -42 -96t-108 -39t-108 39t-42 96q0 36 17 68q7 15 18 27zM600 90q40 0 40 40t-40 40t-40 -40t40 -40zM70 0l435 700h160l-435 -700h-160z
" />
    <glyph glyph-name="uni215A" unicode="&#x215a;" horiz-adv-x="835" 
d="M20 400l60 60q8 -10 17 -15q21 -15 48 -15q19 0 32 11t13 29q0 15 -13 25t-32 10q-15 0 -29 -8l-11 -7h-65l25 210h225v-90h-130l-5 -40l11 2q21 3 29 3q53 0 86.5 -33.5t33.5 -86.5q0 -50 -39.5 -85t-105.5 -35q-63 0 -113 32q-22 13 -37 33zM550 220l100 135h125
l-80 -105q57 -11 88.5 -43.5t31.5 -81.5q0 -57 -42 -96t-108 -39t-108 39t-42 96q0 36 17 68q8 15 18 27zM665 85q40 0 40 40t-40 40t-40 -40t40 -40zM135 0l435 700h160l-435 -700h-160z" />
    <glyph glyph-name="oneeighth" unicode="&#x215b;" horiz-adv-x="810" 
d="M90 340v225h-60v85q31 4 56 27q12 12 19 23h105v-360h-120zM625 150q-18 0 -29 -9t-11 -21t11 -21t29 -9t29 9t11 21t-11 21t-29 9zM625 275q-30 0 -30 -25t30 -25t30 25t-30 25zM625 -5q-71 0 -113 33t-42 77q0 43 35 67q14 10 35 18q-15 5 -28 17q-27 22 -27 58
q0 41 37.5 70.5t102.5 29.5t102.5 -29.5t37.5 -70.5q0 -36 -28 -58q-13 -11 -27 -17q17 -7 35 -18q35 -27 35 -67q0 -44 -42 -77t-113 -33zM70 0l435 700h160l-435 -700h-160z" />
    <glyph glyph-name="threeeighths" unicode="&#x215c;" horiz-adv-x="870" 
d="M20 400l60 60q8 -10 20 -18q23 -17 50 -17q18 0 29 9t11 21t-11 21t-29 9h-40v80h35q35 0 35 25t-35 25q-19 0 -39 -13q-8 -4 -16 -12l-60 60q12 14 34 27q43 28 106 28q61 0 98 -30t37 -70q0 -34 -30 -58q-15 -11 -30 -17q17 -7 35 -18q35 -27 35 -67q0 -44 -40 -77
t-105 -33q-63 0 -113 32q-22 13 -37 33zM685 145q-18 0 -29 -9t-11 -21t11 -21t29 -9t29 9t11 21t-11 21t-29 9zM685 270q-30 0 -30 -25t30 -25t30 25t-30 25zM685 -10q-71 0 -113 33t-42 77q0 43 35 67q14 10 35 18q-15 5 -28 17q-27 22 -27 58q0 41 37.5 70.5t102.5 29.5
t102.5 -29.5t37.5 -70.5q0 -36 -28 -58q-13 -11 -27 -17q17 -7 35 -18q35 -27 35 -67q0 -44 -42 -77t-113 -33zM135 0l435 700h160l-435 -700h-160z" />
    <glyph glyph-name="fiveeighths" unicode="&#x215d;" horiz-adv-x="870" 
d="M20 400l60 60q8 -10 17 -15q21 -15 48 -15q19 0 32 11t13 29q0 15 -13 25t-32 10q-15 0 -29 -8l-11 -7h-65l25 210h225v-90h-130l-5 -40l11 2q21 3 29 3q53 0 86.5 -33.5t33.5 -86.5q0 -50 -39.5 -85t-105.5 -35q-63 0 -113 32q-22 13 -37 33zM685 146q-18 0 -29 -9
t-11 -21t11 -21t29 -9t29 9t11 21t-11 21t-29 9zM685 271q-30 0 -30 -25t30 -25t30 25t-30 25zM685 -9q-71 0 -113 33t-42 77q0 43 35 67q14 10 35 18q-15 5 -28 17q-27 22 -27 58q0 41 37.5 70.5t102.5 29.5t102.5 -29.5t37.5 -70.5q0 -36 -28 -58q-13 -11 -27 -17
q17 -7 35 -18q35 -27 35 -67q0 -44 -42 -77t-113 -33zM135 0l435 700h160l-435 -700h-160z" />
    <glyph glyph-name="seveneighths" unicode="&#x215e;" horiz-adv-x="845" 
d="M70 340l115 250h-155v110h275v-110l-115 -250h-120zM660 145q-18 0 -29 -9t-11 -21t11 -21t29 -9t29 9t11 21t-11 21t-29 9zM660 270q-30 0 -30 -25t30 -25t30 25t-30 25zM660 -10q-71 0 -113 33t-42 77q0 43 35 67q14 10 35 18q-15 5 -28 17q-27 22 -27 58
q0 41 37.5 70.5t102.5 29.5t102.5 -29.5t37.5 -70.5q0 -36 -28 -58q-13 -11 -27 -17q17 -7 35 -18q35 -27 35 -67q0 -44 -42 -77t-113 -33zM110 0l435 700h160l-435 -700h-160z" />
    <glyph glyph-name="uni215F" unicode="&#x215f;" horiz-adv-x="490" 
d="M90 340v225h-60v85q31 4 56 27q12 12 19 23h105v-360h-120zM70 0l435 700h160l-435 -700h-160z" />
    <glyph glyph-name="arrowleft" unicode="&#x2190;" horiz-adv-x="1000" 
d="M85 330l275 275l85 -85l-130 -130h600v-120h-600l130 -130l-85 -85z" />
    <glyph glyph-name="arrowup" unicode="&#x2191;" horiz-adv-x="1000" 
d="M440 -65v600l-130 -130l-85 85l275 275l275 -275l-85 -85l-130 130v-600h-120z" />
    <glyph glyph-name="arrowright" unicode="&#x2192;" horiz-adv-x="1000" 
d="M85 270v120h600l-130 130l85 85l275 -275l-275 -275l-85 85l130 130h-600z" />
    <glyph glyph-name="arrowdown" unicode="&#x2193;" horiz-adv-x="1000" 
d="M225 210l85 85l130 -130v600h120v-600l130 130l85 -85l-275 -275z" />
    <glyph glyph-name="arrowboth" unicode="&#x2194;" horiz-adv-x="1000" 
d="M85 330l275 275l85 -85l-130 -130h370l-130 130l85 85l275 -275l-275 -275l-85 85l130 130h-370l130 -130l-85 -85z" />
    <glyph glyph-name="arrowupdn" unicode="&#x2195;" horiz-adv-x="1000" 
d="M225 210l85 85l130 -130v370l-130 -130l-85 85l275 275l275 -275l-85 -85l-130 130v-370l130 130l85 -85l-275 -275z" />
    <glyph glyph-name="uni2196" unicode="&#x2196;" horiz-adv-x="1000" 
d="M185 255v390h390v-120h-185l425 -425l-85 -85l-425 425v-185h-120z" />
    <glyph glyph-name="uni2197" unicode="&#x2197;" horiz-adv-x="1000" 
d="M185 100l425 425h-185v120h390v-390h-120v185l-425 -425z" />
    <glyph glyph-name="uni2198" unicode="&#x2198;" horiz-adv-x="1000" 
d="M425 15v120h185l-425 425l85 85l425 -425v185h120v-390h-390z" />
    <glyph glyph-name="uni2199" unicode="&#x2199;" horiz-adv-x="1000" 
d="M185 15v390h120v-185l425 425l85 -85l-425 -425h185v-120h-390z" />
    <glyph glyph-name="partialdiff" unicode="&#x2202;" horiz-adv-x="605" 
d="M110 580v90q18 11 41 20q49 20 119 20q116 0 188 -95t72 -285q0 -171 -67.5 -255.5t-182.5 -84.5q-98 0 -161.5 64.5t-63.5 165.5q0 102 65 166t170 64q54 0 104 -23q23 -11 36 -22q-12 108 -57.5 164t-112.5 56q-51 0 -107 -23q-25 -11 -43 -22zM430 300q-13 18 -34 32
q-47 33 -106 33q-60 0 -100 -41t-40 -104t39 -104t96 -41q145 0 145 225z" />
    <glyph glyph-name="emptyset" unicode="&#x2205;" horiz-adv-x="880" 
d="M50 -15l110 122q-90 104 -90 243q0 153 108.5 261.5t261.5 108.5q117 0 213 -68l57 63h120l-111 -123q91 -106 91 -242q0 -153 -108.5 -261.5t-261.5 -108.5q-118 0 -213 68l-57 -63h-120zM658 525l-371 -410q67 -45 153 -45q116 0 198 82t82 198q0 99 -62 175zM221 175
l371 410q-71 45 -152 45q-116 0 -198 -82t-82 -198q0 -100 61 -175z" />
    <glyph glyph-name="uni2206" unicode="&#x2206;" horiz-adv-x="700" 
d="M55 0l260 700h70l260 -700h-590zM185 90h330l-165 455z" />
    <glyph glyph-name="product" unicode="&#x220f;" horiz-adv-x="810" 
d="M150 -110v810h510v-810h-90v720h-330v-720h-90z" />
    <glyph glyph-name="summation" unicode="&#x2211;" horiz-adv-x="590" 
d="M75 -110v75l230 350l-230 310v75h460v-90h-340l220 -295l-220 -335h340v-90h-460z" />
    </font>
</defs>
</svg>
